# Blender 5.1.2
# www.blender.org
mtllib petrobolos.mtl
o Cylinder.001
v 3.348421 1.295336 2.468695
v 3.565971 1.295336 2.468695
v 3.348421 1.100245 2.487910
v 3.565971 1.100245 2.487910
v 3.348421 0.912652 2.544816
v 3.565971 0.912652 2.544816
v 3.348421 0.739766 2.637226
v 3.565971 0.739766 2.637226
v 3.348421 0.588229 2.761588
v 3.565971 0.588229 2.761588
v 3.348421 0.463866 2.913125
v 3.565971 0.463866 2.913125
v 3.348421 0.371456 3.086012
v 3.565971 0.371456 3.086012
v 3.348421 0.314551 3.273605
v 3.565971 0.314551 3.273605
v 3.348421 0.295336 3.468695
v 3.565971 0.295336 3.468695
v 3.348421 0.314551 3.663785
v 3.565971 0.314551 3.663785
v 3.348421 0.371456 3.851379
v 3.565971 0.371456 3.851379
v 3.348421 0.463866 4.024265
v 3.565971 0.463866 4.024265
v 3.348421 0.588229 4.175802
v 3.565971 0.588229 4.175802
v 3.348421 0.739766 4.300165
v 3.565971 0.739766 4.300165
v 3.348421 0.912652 4.392575
v 3.565971 0.912652 4.392575
v 3.348421 1.100245 4.449481
v 3.565971 1.100245 4.449481
v 3.348421 1.295336 4.468695
v 3.565971 1.295336 4.468695
v 3.348421 1.490426 4.449481
v 3.565971 1.490426 4.449481
v 3.348421 1.678019 4.392575
v 3.565971 1.678019 4.392575
v 3.348421 1.850906 4.300165
v 3.565971 1.850906 4.300165
v 3.348421 2.002443 4.175802
v 3.565971 2.002443 4.175802
v 3.348421 2.126805 4.024265
v 3.565971 2.126805 4.024265
v 3.348421 2.219215 3.851379
v 3.565971 2.219215 3.851379
v 3.348421 2.276121 3.663785
v 3.565971 2.276121 3.663785
v 3.348421 2.295336 3.468695
v 3.565971 2.295336 3.468695
v 3.348421 2.276121 3.273605
v 3.565971 2.276121 3.273605
v 3.348421 2.219215 3.086012
v 3.565971 2.219215 3.086012
v 3.348421 2.126805 2.913125
v 3.565971 2.126805 2.913125
v 3.348421 2.002443 2.761588
v 3.565971 2.002443 2.761588
v 3.348421 1.850906 2.637226
v 3.565971 1.850906 2.637226
v 3.348421 1.678019 2.544816
v 3.565971 1.678019 2.544816
v 3.348421 1.490426 2.487910
v 3.565971 1.490426 2.487910
v -3.041594 1.618148 3.846377
v -3.041594 0.952379 3.846377
v -3.041594 1.618148 -3.846377
v -3.041594 0.952379 -3.846377
v 3.041594 1.618148 3.846377
v 3.041594 0.952379 3.846377
v 3.041594 1.618148 -3.846377
v 3.041594 0.952379 -3.846377
v -2.129116 1.618148 -3.846377
v -2.129116 0.952379 -3.846377
v -2.129116 1.618148 3.846377
v -2.129116 0.952379 3.846377
v 2.265987 0.952379 -3.846377
v 2.265987 1.618148 3.846377
v 2.265987 1.618148 -3.846377
v 2.265987 0.952379 3.846377
v -3.041594 1.618148 -3.077101
v -3.041594 0.952379 -3.077101
v 3.041594 1.618148 -3.077101
v 3.041594 0.952379 -3.077101
v -2.129116 0.952379 -3.077101
v -2.129116 1.618148 -3.077101
v 2.265987 0.952379 -3.077101
v 2.265987 1.618148 -3.077101
v -3.041594 1.618148 3.154029
v 3.041594 0.952379 3.154029
v -2.129116 0.952379 3.154029
v -2.129116 1.618148 3.154029
v 2.265987 0.952379 3.154029
v 2.265987 1.618148 3.154029
v -3.041594 0.952379 3.154029
v 3.041594 1.618148 3.154029
v 2.265987 1.459944 -3.846377
v -2.129116 1.459944 -3.846377
v 2.265987 1.241686 3.846377
v -2.129116 1.241686 3.846377
v -2.129116 1.241686 3.154029
v -2.129116 1.591047 3.154029
v -2.129116 1.591047 3.846377
v -2.129116 1.110583 -3.846377
v 2.265987 1.110583 -3.846377
v 2.265987 1.591047 3.846377
v 2.265987 1.241686 3.154029
v 2.265987 1.591047 3.154029
v -2.129116 1.110583 -3.077102
v -2.129116 1.459944 -3.077102
v 2.265987 1.110583 -3.077102
v 2.265987 1.459944 -3.077102
v -3.041594 1.366923 3.415283
v -3.041594 1.366923 3.585122
v -3.041594 1.203604 3.585122
v -3.041594 1.203604 -3.367383
v -3.041594 1.203604 -3.556095
v -3.041594 1.366923 -3.556095
v 3.041594 1.203604 -3.556095
v 3.041594 1.366923 -3.556095
v 3.041594 1.366923 -3.367383
v 3.041594 1.203604 3.415283
v 3.041594 1.203604 3.585122
v 3.041594 1.366923 3.585122
v -3.041594 1.366923 -3.367383
v 3.041594 1.203604 -3.367383
v -3.041594 1.203604 3.415283
v 3.041594 1.366923 3.415283
v -3.742034 1.366923 3.415283
v -3.742034 1.366923 3.585122
v -3.742034 1.203604 3.585122
v -3.742034 1.203604 -3.367383
v -3.742034 1.203604 -3.556095
v -3.742034 1.366923 -3.556095
v 3.742035 1.203604 -3.556095
v 3.742035 1.366923 -3.556095
v 3.742035 1.366923 -3.367383
v 3.742035 1.203604 3.415283
v 3.742035 1.203604 3.585122
v 3.742035 1.366923 3.585122
v -3.742034 1.366923 -3.367383
v 3.742035 1.203604 -3.367383
v -3.742034 1.203604 3.415283
v 3.742035 1.366923 3.415283
v 3.041594 1.618148 -1.986654
v 3.041594 0.952379 -1.986654
v 2.265987 0.952379 -1.986654
v 2.265987 1.618148 -1.986654
v -3.041594 0.952379 -1.986654
v -3.041594 1.618148 -1.986654
v -2.129116 0.952379 -1.986654
v -2.129116 1.618148 -1.986654
v -3.041594 1.618148 -1.472585
v -2.129116 0.952379 -1.472585
v -2.129116 1.618148 -1.472585
v -3.041594 0.952379 -1.472585
v 3.041594 0.952379 -1.472585
v 2.265987 0.952379 -1.472585
v 2.265987 1.618148 -1.472585
v 3.041594 1.618148 -1.472585
v 1.648829 1.045866 -1.914468
v 1.648829 1.524661 -1.914468
v -1.511958 1.045866 -1.914468
v -1.511958 1.524661 -1.914468
v -1.511958 1.045866 -1.544771
v -1.511958 1.524661 -1.544771
v 1.648829 1.045866 -1.544771
v 1.648829 1.524661 -1.544771
v 2.910558 5.522333 -1.559435
v 2.910558 5.522333 -1.899804
v 2.397022 5.522333 -1.899804
v -2.283275 5.522333 -1.899804
v -2.887434 5.522333 -1.899804
v -2.887434 5.522333 -1.559435
v -2.283275 5.522333 -1.559435
v 2.397022 5.522333 -1.559435
v -2.267859 5.131914 -1.550750
v -2.267859 5.131914 -1.908489
v -2.902851 5.131914 -1.908489
v -2.902851 5.131914 -1.550750
v 2.383919 5.131914 -1.550750
v 2.923662 5.131914 -1.550750
v 2.923662 5.131914 -1.908489
v 2.383919 5.131914 -1.908489
v 3.041594 0.952379 0.840722
v 2.265987 0.952379 0.840722
v 2.265987 1.618148 0.840722
v 3.041594 1.618148 0.840722
v -3.041594 1.618148 0.840722
v -2.129116 0.952379 0.840722
v -2.129116 1.618148 0.840722
v -3.041594 0.952379 0.840722
v -3.041594 1.618148 1.303383
v -2.129116 0.952379 1.303383
v -2.129116 1.618148 1.303383
v -3.041594 0.952379 1.303383
v 3.041594 0.952379 1.303383
v 2.265987 0.952379 1.303383
v 2.265987 1.618148 1.303383
v 3.041594 1.618148 1.303383
v 2.265987 1.077463 0.927646
v 2.265987 1.493064 0.927646
v -2.129116 1.077463 0.927646
v -2.129116 1.493064 0.927646
v -2.129116 1.077463 1.216459
v -2.129116 1.493064 1.216459
v 2.265987 1.077463 1.216459
v 2.265987 1.493064 1.216459
v -0.194188 1.651320 -1.519794
v -0.194188 1.264888 -1.489871
v -0.194188 1.529859 -3.088337
v -0.194188 1.143427 -3.058414
v 0.194188 1.651320 -1.519794
v 0.194188 1.264888 -1.489871
v 0.194188 1.529859 -3.088337
v 0.194188 1.143427 -3.058414
v -0.315201 2.126401 2.716493
v -0.316518 1.497053 2.759728
v 0.316518 1.497053 2.759728
v 0.315201 2.126401 2.716493
v -0.292849 2.278962 4.894033
v -0.295687 1.693228 4.947855
v 0.295687 1.693228 4.947855
v 0.292849 2.278962 4.894033
v -0.295687 1.557475 3.194745
v -0.659338 1.598629 3.562009
v -0.910366 1.591635 3.888460
v -0.910366 1.620185 4.257151
v -0.659338 1.677352 4.578632
v 0.659338 1.677352 4.578632
v 0.910366 1.620185 4.257150
v 0.910366 1.591636 3.888460
v 0.659338 1.598629 3.562009
v 0.295687 1.557475 3.194745
v 0.650929 2.242946 4.528315
v 0.905205 2.237581 4.208291
v 0.905204 2.209193 3.841691
v 0.650929 2.165227 3.524656
v 0.292849 2.144512 3.157753
v -0.650929 2.242946 4.528315
v -0.905204 2.237581 4.208291
v -0.905204 2.209193 3.841691
v -0.650929 2.165227 3.524656
v -0.292849 2.144512 3.157753
v 0.097094 1.529859 -3.088337
v 0.000000 1.529859 -3.088337
v -0.097094 1.529859 -3.088337
v -0.097094 1.143427 -3.058414
v 0.000000 1.143427 -3.058414
v 0.097094 1.143427 -3.058414
v -0.097094 1.651320 -1.519794
v 0.000000 1.651320 -1.519794
v 0.097094 1.651320 -1.519794
v 0.097094 1.264888 -1.489871
v 0.000000 1.264888 -1.489871
v -0.097094 1.264888 -1.489871
v -0.159605 2.127976 2.699631
v 0.000000 2.129480 2.683523
v 0.159605 2.127976 2.699631
v 0.160088 1.491212 2.744913
v 0.000000 1.485837 2.731278
v -0.160087 1.491212 2.744913
v -0.150842 2.287301 4.919741
v 0.000000 2.296555 4.948268
v 0.150843 2.287301 4.919741
v 0.151973 1.684587 4.973152
v 0.000000 1.675020 5.001163
v -0.151973 1.684587 4.973152
v 0.150843 2.148794 3.131068
v 0.000000 2.153546 3.101456
v -0.150842 2.148794 3.131068
v 0.504708 2.155079 3.437015
v 0.000000 2.160749 3.218605
v -0.504708 2.155079 3.437015
v 0.679027 2.200885 3.817085
v -0.679027 2.200885 3.817085
v 0.679028 2.233160 4.233880
v -0.679028 2.233160 4.233880
v 0.504708 2.246411 4.616475
v 0.000000 2.285637 4.831404
v -0.504708 2.246411 4.616475
v -0.151973 1.545043 3.171080
v 0.000000 1.531277 3.144876
v 0.151973 1.545043 3.171080
v -0.332190 1.595540 3.558338
v 0.000000 1.564340 3.521260
v 0.332191 1.595540 3.558338
v -0.445376 1.600489 3.891769
v 0.000000 1.580166 3.884172
v 0.445377 1.600489 3.891769
v -0.445376 1.628424 4.252518
v 0.000000 1.609512 4.263154
v 0.445377 1.628424 4.252518
v -0.332190 1.674865 4.582736
v 0.000000 1.649745 4.624174
v 0.332191 1.674865 4.582736
v 0.000000 1.702364 3.635965
v 0.000000 1.768465 4.489586
v 0.516275 1.726451 3.628419
v 0.504708 1.758794 3.467700
v 0.506552 1.733446 3.517052
v 0.000000 1.690048 3.441243
v 0.000000 1.719567 3.252768
v 0.000000 1.692724 3.310512
v -0.516274 1.726451 3.628419
v -0.504708 1.758794 3.467700
v -0.506552 1.733446 3.517052
v 0.617794 1.729044 3.838080
v 0.679027 1.772044 3.850293
v 0.660974 1.741359 3.848103
v -0.679027 1.772044 3.850293
v -0.617794 1.729044 3.838080
v -0.660973 1.741360 3.848103
v 0.617794 1.763712 4.285774
v 0.679028 1.804319 4.267087
v 0.660974 1.774337 4.273976
v -0.679028 1.804319 4.267087
v -0.617794 1.763712 4.285774
v -0.660974 1.774337 4.273976
v 0.516275 1.793426 4.493337
v 0.504708 1.850126 4.647161
v 0.506552 1.817483 4.602297
v 0.000000 1.844455 4.865567
v 0.000000 1.786272 4.683884
v 0.000000 1.809042 4.812646
v -0.504708 1.850126 4.647161
v -0.516274 1.793426 4.493337
v -0.506552 1.817483 4.602297
v -3.600749 1.295336 2.468695
v -3.383199 1.295336 2.468695
v -3.600749 1.100245 2.487910
v -3.383199 1.100245 2.487910
v -3.600749 0.912652 2.544816
v -3.383199 0.912652 2.544816
v -3.600749 0.739765 2.637226
v -3.383199 0.739765 2.637226
v -3.600749 0.588229 2.761588
v -3.383199 0.588229 2.761588
v -3.600749 0.463866 2.913125
v -3.383199 0.463866 2.913125
v -3.600749 0.371456 3.086012
v -3.383199 0.371456 3.086012
v -3.600749 0.314550 3.273605
v -3.383199 0.314550 3.273605
v -3.600749 0.295336 3.468695
v -3.383199 0.295336 3.468695
v -3.600749 0.314550 3.663785
v -3.383199 0.314550 3.663785
v -3.600749 0.371456 3.851379
v -3.383199 0.371456 3.851379
v -3.600749 0.463866 4.024265
v -3.383199 0.463866 4.024265
v -3.600749 0.588229 4.175802
v -3.383199 0.588229 4.175802
v -3.600749 0.739765 4.300165
v -3.383199 0.739765 4.300165
v -3.600749 0.912652 4.392575
v -3.383199 0.912652 4.392575
v -3.600749 1.100245 4.449481
v -3.383199 1.100245 4.449481
v -3.600749 1.295336 4.468695
v -3.383199 1.295336 4.468695
v -3.600749 1.490426 4.449481
v -3.383199 1.490426 4.449481
v -3.600749 1.678019 4.392575
v -3.383199 1.678019 4.392575
v -3.600749 1.850906 4.300165
v -3.383199 1.850906 4.300165
v -3.600749 2.002442 4.175802
v -3.383199 2.002442 4.175802
v -3.600749 2.126805 4.024265
v -3.383199 2.126805 4.024265
v -3.600749 2.219215 3.851379
v -3.383199 2.219215 3.851379
v -3.600749 2.276121 3.663785
v -3.383199 2.276121 3.663785
v -3.600749 2.295336 3.468695
v -3.383199 2.295336 3.468695
v -3.600749 2.276121 3.273605
v -3.383199 2.276121 3.273605
v -3.600749 2.219215 3.086012
v -3.383199 2.219215 3.086012
v -3.600749 2.126805 2.913125
v -3.383199 2.126805 2.913125
v -3.600749 2.002442 2.761588
v -3.383199 2.002442 2.761588
v -3.600749 1.850906 2.637226
v -3.383199 1.850906 2.637226
v -3.600749 1.678019 2.544816
v -3.383199 1.678019 2.544816
v -3.600749 1.490426 2.487910
v -3.383199 1.490426 2.487910
v -3.581657 1.295336 -4.302524
v -3.402290 1.295336 -4.302524
v -3.581657 1.134486 -4.286681
v -3.402290 1.134486 -4.286681
v -3.581657 0.979818 -4.239763
v -3.402290 0.979819 -4.239763
v -3.581657 0.837276 -4.163573
v -3.402290 0.837276 -4.163573
v -3.581657 0.712336 -4.061037
v -3.402290 0.712336 -4.061037
v -3.581657 0.609800 -3.936098
v -3.402290 0.609800 -3.936098
v -3.581657 0.533610 -3.793555
v -3.402290 0.533610 -3.793555
v -3.581657 0.486692 -3.638886
v -3.402290 0.486692 -3.638886
v -3.581657 0.470849 -3.478037
v -3.402290 0.470849 -3.478037
v -3.581657 0.486692 -3.317188
v -3.402290 0.486692 -3.317188
v -3.581657 0.533610 -3.162520
v -3.402290 0.533610 -3.162520
v -3.581657 0.609800 -3.019977
v -3.402290 0.609800 -3.019977
v -3.581657 0.712336 -2.895038
v -3.402290 0.712336 -2.895038
v -3.581657 0.837276 -2.792502
v -3.402290 0.837276 -2.792502
v -3.581657 0.979818 -2.716311
v -3.402290 0.979819 -2.716311
v -3.581657 1.134486 -2.669394
v -3.402290 1.134486 -2.669394
v -3.581657 1.295336 -2.653551
v -3.402290 1.295336 -2.653551
v -3.581657 1.456185 -2.669394
v -3.402290 1.456185 -2.669394
v -3.581657 1.610853 -2.716311
v -3.402290 1.610853 -2.716311
v -3.581657 1.753396 -2.792502
v -3.402290 1.753396 -2.792502
v -3.581657 1.878335 -2.895038
v -3.402290 1.878335 -2.895038
v -3.581657 1.980871 -3.019977
v -3.402290 1.980871 -3.019977
v -3.581657 2.057062 -3.162520
v -3.402290 2.057062 -3.162520
v -3.581657 2.103980 -3.317188
v -3.402290 2.103980 -3.317188
v -3.581657 2.119822 -3.478037
v -3.402290 2.119822 -3.478037
v -3.581657 2.103980 -3.638886
v -3.402290 2.103980 -3.638886
v -3.581657 2.057062 -3.793555
v -3.402290 2.057062 -3.793555
v -3.581657 1.980871 -3.936098
v -3.402290 1.980871 -3.936098
v -3.581657 1.878335 -4.061037
v -3.402290 1.878335 -4.061037
v -3.581657 1.753396 -4.163573
v -3.402290 1.753396 -4.163573
v -3.581657 1.610853 -4.239763
v -3.402290 1.610853 -4.239763
v -3.581657 1.456185 -4.286681
v -3.402290 1.456185 -4.286681
v 3.367513 1.295336 -4.302524
v 3.546880 1.295336 -4.302524
v 3.367513 1.134486 -4.286681
v 3.546880 1.134486 -4.286681
v 3.367513 0.979818 -4.239763
v 3.546880 0.979818 -4.239763
v 3.367513 0.837276 -4.163573
v 3.546880 0.837276 -4.163573
v 3.367513 0.712336 -4.061037
v 3.546880 0.712336 -4.061037
v 3.367513 0.609801 -3.936098
v 3.546880 0.609801 -3.936098
v 3.367513 0.533610 -3.793555
v 3.546880 0.533610 -3.793555
v 3.367513 0.486692 -3.638886
v 3.546880 0.486692 -3.638886
v 3.367513 0.470850 -3.478037
v 3.546880 0.470850 -3.478037
v 3.367513 0.486692 -3.317188
v 3.546880 0.486692 -3.317188
v 3.367513 0.533610 -3.162520
v 3.546880 0.533610 -3.162520
v 3.367513 0.609801 -3.019977
v 3.546880 0.609801 -3.019977
v 3.367513 0.712336 -2.895038
v 3.546880 0.712336 -2.895038
v 3.367513 0.837276 -2.792502
v 3.546880 0.837276 -2.792502
v 3.367513 0.979818 -2.716311
v 3.546880 0.979818 -2.716311
v 3.367513 1.134486 -2.669394
v 3.546880 1.134486 -2.669394
v 3.367513 1.295336 -2.653551
v 3.546880 1.295336 -2.653551
v 3.367513 1.456185 -2.669394
v 3.546880 1.456185 -2.669394
v 3.367513 1.610853 -2.716311
v 3.546880 1.610853 -2.716311
v 3.367513 1.753396 -2.792502
v 3.546880 1.753396 -2.792502
v 3.367513 1.878336 -2.895038
v 3.546880 1.878336 -2.895038
v 3.367513 1.980871 -3.019977
v 3.546880 1.980871 -3.019977
v 3.367513 2.057062 -3.162520
v 3.546880 2.057062 -3.162520
v 3.367513 2.103980 -3.317188
v 3.546880 2.103980 -3.317188
v 3.367513 2.119822 -3.478037
v 3.546880 2.119822 -3.478037
v 3.367513 2.103980 -3.638886
v 3.546880 2.103980 -3.638886
v 3.367513 2.057062 -3.793555
v 3.546880 2.057062 -3.793555
v 3.367513 1.980871 -3.936098
v 3.546880 1.980871 -3.936098
v 3.367513 1.878336 -4.061037
v 3.546880 1.878336 -4.061037
v 3.367513 1.753396 -4.163573
v 3.546880 1.753396 -4.163573
v 3.367513 1.610853 -4.239763
v 3.546880 1.610853 -4.239763
v 3.367513 1.456185 -4.286681
v 3.546880 1.456185 -4.286681
vn -0.0000 -0.0980 -0.9952
vn -0.0000 -0.2903 -0.9569
vn -0.0000 -0.4714 -0.8819
vn -0.0000 -0.6344 -0.7730
vn -0.0000 -0.7730 -0.6344
vn -0.0000 -0.8819 -0.4714
vn -0.0000 -0.9569 -0.2903
vn -0.0000 -0.9952 -0.0980
vn -0.0000 -0.9952 0.0980
vn -0.0000 -0.9569 0.2903
vn -0.0000 -0.8819 0.4714
vn -0.0000 -0.7730 0.6344
vn -0.0000 -0.6344 0.7730
vn -0.0000 -0.4714 0.8819
vn -0.0000 -0.2903 0.9569
vn -0.0000 -0.0980 0.9952
vn -0.0000 0.0980 0.9952
vn -0.0000 0.2903 0.9569
vn -0.0000 0.4714 0.8819
vn -0.0000 0.6344 0.7730
vn -0.0000 0.7730 0.6344
vn -0.0000 0.8819 0.4714
vn -0.0000 0.9569 0.2903
vn -0.0000 0.9952 0.0980
vn -0.0000 0.9952 -0.0980
vn -0.0000 0.9569 -0.2903
vn -0.0000 0.8819 -0.4714
vn -0.0000 0.7730 -0.6344
vn -0.0000 0.6344 -0.7730
vn -0.0000 0.4714 -0.8819
vn 1.0000 -0.0000 -0.0000
vn -0.0000 0.2903 -0.9569
vn -0.0000 0.0980 -0.9952
vn -1.0000 -0.0000 -0.0000
vn -0.0000 -0.0000 1.0000
vn -0.0000 -0.0000 -1.0000
vn -0.0000 -1.0000 -0.0000
vn -0.0000 1.0000 -0.0000
vn 0.9234 -0.0000 -0.3839
vn -0.9147 -0.0000 0.4040
vn 0.9147 -0.0000 0.4040
vn -0.9147 -0.0000 -0.4040
vn -0.1498 0.9887 -0.0000
vn 0.1162 -0.0000 -0.9932
vn 0.9992 -0.0395 -0.0000
vn 0.1498 0.9887 -0.0000
vn -0.1498 -0.9887 -0.0000
vn 0.1498 -0.9887 -0.0000
vn 0.1162 -0.0000 0.9932
vn -0.1162 -0.0000 0.9932
vn -0.1162 -0.0000 -0.9932
vn -0.0000 -0.0222 0.9998
vn -0.0000 0.5626 0.8267
vn -0.0000 -0.0222 -0.9998
vn -0.9994 -0.0335 -0.0000
vn -0.9992 -0.0395 -0.0000
vn 0.9994 -0.0335 -0.0000
vn -0.0000 -0.5913 -0.8064
vn -0.0000 0.0772 0.9970
vn 0.0199 0.9984 -0.0535
vn -0.0000 -0.9970 0.0772
vn -0.0000 0.9970 -0.0772
vn 0.0269 0.9982 -0.0529
vn -0.9996 0.0008 0.0286
vn 0.9996 0.0008 0.0286
vn -0.0137 -0.9936 0.1121
vn 0.1749 -0.0891 -0.9805
vn -0.7142 -0.0700 -0.6964
vn 0.0076 -0.9925 0.1222
vn 0.7142 -0.0700 -0.6964
vn 0.9988 -0.0066 -0.0486
vn 0.7142 0.0381 0.6989
vn 0.7870 0.0347 0.6160
vn 1.0000 -0.0083 0.0006
vn 0.7870 -0.0605 -0.6140
vn -0.0260 -0.9987 0.0436
vn 0.0076 -0.9995 0.0320
vn 0.0131 -0.9927 0.1198
vn 0.0282 -0.9966 0.0772
vn 0.0131 -0.9993 0.0345
vn -0.9988 -0.0066 -0.0486
vn -0.7142 0.0381 0.6989
vn -0.7870 0.0347 0.6160
vn -1.0000 -0.0083 0.0006
vn -0.7870 -0.0605 -0.6140
vn 0.0433 0.9902 -0.1328
vn 0.0269 0.9945 -0.1014
vn -0.0073 1.0000 -0.0009
vn -0.0184 0.9968 -0.0772
vn -0.0073 0.9882 -0.1530
vn 0.0073 0.9882 -0.1530
vn -0.0650 0.9888 -0.1346
vn 0.0650 0.9888 -0.1346
vn 0.0184 0.9968 -0.0772
vn -0.0441 0.9960 -0.0771
vn 0.0441 0.9960 -0.0771
vn 0.0073 1.0000 -0.0009
vn -0.0650 0.9977 -0.0192
vn 0.0650 0.9977 -0.0192
vn -0.0269 0.9945 -0.1014
vn -0.0805 0.9927 -0.0896
vn 0.0805 0.9927 -0.0896
vn -0.0433 0.9902 -0.1328
vn -0.0458 0.9920 -0.1177
vn 0.0458 0.9920 -0.1177
vn -0.0131 -0.9993 0.0345
vn -0.0282 -0.9966 0.0772
vn -0.0131 -0.9927 0.1198
vn -0.0076 -0.9995 0.0320
vn 0.0408 -0.9970 0.0659
vn -0.0408 -0.9970 0.0659
vn 0.0260 -0.9987 0.0436
vn 0.0278 -0.9982 0.0525
vn -0.0278 -0.9982 0.0525
vn -0.0076 -0.9925 0.1222
vn 0.0408 -0.9953 0.0884
vn -0.0408 -0.9953 0.0884
vn -0.1749 -0.0891 -0.9805
vn -0.1828 -0.0852 -0.9795
vn 0.1828 -0.0852 -0.9795
vn 0.0137 -0.9936 0.1121
vn 0.0129 -0.9935 0.1127
vn -0.0129 -0.9935 0.1127
vn -0.0269 0.9982 -0.0529
vn -0.0805 0.9947 -0.0643
vn 0.0805 0.9947 -0.0643
vn -0.0199 0.9984 -0.0535
vn -0.0181 0.9984 -0.0527
vn 0.0181 0.9984 -0.0527
vn 0.0917 -0.9948 -0.0434
vn 0.2471 -0.8694 -0.4279
vn -0.0917 -0.9948 -0.0434
vn -0.2471 -0.8694 -0.4279
vn 0.2471 -0.7931 0.5567
vn 0.0917 -0.9763 0.1961
vn -0.2471 -0.7931 0.5567
vn -0.0917 -0.9763 0.1961
vn -0.2516 -0.9357 0.2474
vn -0.7831 -0.4579 0.4209
vn 0.7831 -0.4579 0.4209
vn 0.2516 -0.9357 0.2474
vn -0.2575 -0.9634 0.0746
vn -0.8600 -0.5088 0.0394
vn 0.8600 -0.5088 0.0394
vn 0.2575 -0.9634 0.0746
vn -0.2516 -0.9626 -0.1004
vn -0.7831 -0.5172 -0.3454
vn 0.7831 -0.5172 -0.3454
vn 0.2516 -0.9626 -0.1004
vn 0.3955 -0.0709 -0.9157
vn 0.0470 -0.9986 0.0250
vn 0.9099 -0.0320 -0.4135
vn -0.3955 -0.0709 -0.9157
vn -0.0470 -0.9986 0.0250
vn -0.9099 -0.0320 -0.4135
vn 0.0178 -0.9969 0.0772
vn -0.0178 -0.9969 0.0772
vn 0.9099 0.0320 0.4135
vn 0.0470 -0.9905 0.1290
vn -0.0470 -0.9905 0.1290
vn -0.9099 0.0320 0.4135
vn 0.3955 0.0709 0.9157
vn -0.3955 0.0709 0.9157
vt 0.028833 0.031626
vt 0.028842 0.031773
vt 0.028833 0.031773
vt 0.028842 0.031626
vt 0.028851 0.031773
vt 0.028851 0.031626
vt 0.028860 0.031773
vt 0.028860 0.031626
vt 0.028869 0.031773
vt 0.028869 0.031626
vt 0.028878 0.031773
vt 0.028878 0.031626
vt 0.028888 0.031773
vt 0.028888 0.031626
vt 0.028897 0.031773
vt 0.028897 0.031626
vt 0.028906 0.031773
vt 0.028906 0.031626
vt 0.028915 0.031773
vt 0.028915 0.031626
vt 0.028924 0.031773
vt 0.028924 0.031626
vt 0.028933 0.031773
vt 0.028933 0.031626
vt 0.028942 0.031773
vt 0.028942 0.031626
vt 0.028951 0.031773
vt 0.028951 0.031626
vt 0.028961 0.031773
vt 0.028961 0.031626
vt 0.028970 0.031773
vt 0.028970 0.031626
vt 0.028979 0.031773
vt 0.028979 0.031626
vt 0.028988 0.031773
vt 0.028988 0.031626
vt 0.028997 0.031773
vt 0.028997 0.031626
vt 0.029006 0.031773
vt 0.029006 0.031626
vt 0.029015 0.031773
vt 0.029015 0.031626
vt 0.029025 0.031773
vt 0.029025 0.031626
vt 0.029034 0.031773
vt 0.029034 0.031626
vt 0.029043 0.031773
vt 0.029043 0.031626
vt 0.029052 0.031773
vt 0.029052 0.031626
vt 0.029061 0.031773
vt 0.029061 0.031626
vt 0.029070 0.031773
vt 0.029070 0.031626
vt 0.029079 0.031773
vt 0.029079 0.031626
vt 0.029088 0.031773
vt 0.029088 0.031626
vt 0.029098 0.031773
vt 0.029098 0.031626
vt 0.029107 0.031773
vt 0.060640 0.095299
vt 0.060565 0.095060
vt 0.060804 0.094985
vt 0.029107 0.031626
vt 0.029116 0.031773
vt 0.029116 0.031626
vt 0.029125 0.031773
vt 0.058056 0.018181
vt 0.057898 0.018375
vt 0.058091 0.018534
vt 0.060833 0.095004
vt 0.060857 0.095028
vt 0.060877 0.095057
vt 0.060891 0.095089
vt 0.060898 0.095123
vt 0.060898 0.095158
vt 0.060892 0.095192
vt 0.060879 0.095224
vt 0.060859 0.095253
vt 0.060835 0.095278
vt 0.060807 0.095298
vt 0.060775 0.095311
vt 0.060740 0.095318
vt 0.060706 0.095318
vt 0.060672 0.095312
vt 0.060611 0.095280
vt 0.060552 0.095194
vt 0.060586 0.095255
vt 0.060566 0.095227
vt 0.060546 0.095161
vt 0.060546 0.095126
vt 0.060552 0.095092
vt 0.060584 0.095031
vt 0.060669 0.094973
vt 0.060608 0.095006
vt 0.060636 0.094986
vt 0.060703 0.094966
vt 0.060738 0.094966
vt 0.060772 0.094972
vt 0.029125 0.031626
vt 0.058125 0.018528
vt 0.058157 0.018514
vt 0.058186 0.018494
vt 0.058211 0.018470
vt 0.058230 0.018441
vt 0.058243 0.018409
vt 0.058250 0.018375
vt 0.058250 0.018341
vt 0.058243 0.018306
vt 0.058230 0.018274
vt 0.058211 0.018245
vt 0.058186 0.018220
vt 0.058157 0.018202
vt 0.058125 0.018188
vt 0.058091 0.018181
vt 0.058022 0.018188
vt 0.057990 0.018202
vt 0.057961 0.018220
vt 0.057937 0.018245
vt 0.057918 0.018274
vt 0.057904 0.018306
vt 0.057898 0.018341
vt 0.057904 0.018409
vt 0.057918 0.018441
vt 0.057937 0.018470
vt 0.057961 0.018494
vt 0.057990 0.018514
vt 0.058022 0.018528
vt 0.058056 0.018534
vt 0.350326 0.442394
vt 0.346981 0.447808
vt 0.346279 0.444552
vt 0.347099 0.443224
vt 0.071809 0.880672
vt 0.077015 0.883888
vt 0.042571 0.939644
vt 0.037365 0.936428
vt 0.038855 0.945659
vt 0.033649 0.942443
vt 0.037015 0.941387
vt 0.038292 0.942176
vt 0.385643 0.373584
vt 0.390849 0.376800
vt 0.345120 0.439178
vt 0.708045 0.459426
vt 0.721103 0.523651
vt 0.714866 0.524919
vt 0.701808 0.460694
vt 0.713387 0.580592
vt 0.675431 0.646828
vt 0.669962 0.643706
vt 0.707906 0.577510
vt 0.905458 0.256112
vt 0.910644 0.259648
vt 0.909343 0.261468
vt 0.904019 0.258211
vt 0.618588 0.019438
vt 0.633950 0.094997
vt 0.627714 0.096265
vt 0.612351 0.020706
vt 0.706968 0.453402
vt 0.707995 0.459182
vt 0.707410 0.456024
vt 0.307959 0.499331
vt 0.313165 0.502547
vt 0.272642 0.568141
vt 0.267436 0.564925
vt 0.612573 0.000203
vt 0.617819 0.003353
vt 0.584083 0.059539
vt 0.578837 0.056389
vt 0.946601 0.205642
vt 0.941362 0.202156
vt 0.769198 0.613120
vt 0.763237 0.609443
vt 0.763883 0.608468
vt 0.769904 0.612027
vt 0.634000 0.095241
vt 0.627763 0.096509
vt 0.581790 0.058193
vt 0.579047 0.056523
vt 0.999745 0.240171
vt 0.965025 0.294573
vt 0.959065 0.290930
vt 0.993870 0.236435
vt 0.001440 0.518955
vt 0.001440 0.441848
vt 0.008511 0.441848
vt 0.008511 0.518955
vt 0.342831 0.527071
vt 0.341679 0.521061
vt 0.342205 0.523668
vt 0.342790 0.526825
vt 0.730450 0.678818
vt 0.724426 0.675265
vt 0.001440 0.067543
vt 0.001440 0.002002
vt 0.008511 0.002002
vt 0.008511 0.067543
vt 0.311325 0.498275
vt 0.312602 0.499064
vt 0.316942 0.484789
vt 0.322148 0.488005
vt 0.316881 0.496532
vt 0.311675 0.493316
vt 0.313514 0.497588
vt 0.709159 0.575265
vt 0.714495 0.578550
vt 0.960615 0.214967
vt 0.924433 0.269780
vt 0.635257 0.016049
vt 0.650619 0.091608
vt 0.324972 0.524265
vt 0.326125 0.530275
vt 0.728456 0.588518
vt 0.690044 0.655191
vt 0.724714 0.456037
vt 0.737772 0.520262
vt 0.012488 0.976696
vt 0.017694 0.979912
vt 0.008754 0.994383
vt 0.003548 0.991167
vt 0.018534 0.095886
vt 0.018534 0.105909
vt 0.012415 0.105909
vt 0.012415 0.095886
vt 0.049483 0.012509
vt 0.055602 0.012502
vt 0.054148 0.012527
vt 0.050937 0.012527
vt 0.388600 0.375380
vt 0.385858 0.373710
vt 0.701759 0.460450
vt 0.268663 0.565706
vt 0.271392 0.567397
vt 0.075789 0.883107
vt 0.073059 0.881416
vt 0.001440 0.440394
vt 0.001440 0.068997
vt 0.008511 0.068997
vt 0.008511 0.440394
vt 0.964377 0.295703
vt 0.958490 0.291946
vt 0.050925 0.383895
vt 0.054136 0.383895
vt 0.055590 0.383913
vt 0.049471 0.383920
vt 0.121795 0.000974
vt 0.121309 0.001155
vt 0.120959 0.243055
vt 0.121193 0.243190
vt 0.126739 0.242866
vt 0.126272 0.243047
vt 0.126688 0.000805
vt 0.127089 0.000966
vt 0.121309 0.000430
vt 0.120957 0.243591
vt 0.025874 0.467714
vt 0.026094 0.468648
vt 0.026477 0.002979
vt 0.026175 0.002316
vt 0.312237 0.496799
vt 0.039204 0.940700
vt 0.037927 0.939911
vt 0.000203 0.996581
vt 0.004250 0.994423
vt 0.003430 0.995751
vt 0.005527 0.995212
vt 0.341775 0.444592
vt 0.345822 0.442435
vt 0.345002 0.443763
vt 0.005409 0.999797
vt 0.004707 0.996540
vt 0.126855 0.000831
vt 0.127091 0.000430
vt 0.020759 0.003000
vt 0.020770 0.002753
vt 0.020758 0.002079
vt 0.021060 0.002741
vt 0.121360 0.243216
vt 0.026175 0.003238
vt 0.026186 0.002991
vt 0.126739 0.243591
vt 0.126253 0.243046
vt 0.121776 0.000974
vt 0.025843 0.467715
vt 0.021150 0.467714
vt 0.020931 0.467403
vt 0.021182 0.467714
vt 0.020931 0.468648
vt 0.026094 0.467403
vt 0.071259 0.001667
vt 0.075975 0.001718
vt 0.074758 0.053842
vt 0.071355 0.053823
vt 0.033587 0.954186
vt 0.028381 0.950970
vt 0.018534 0.002002
vt 0.018534 0.067543
vt 0.950259 0.286091
vt 0.985544 0.231129
vt 0.715879 0.670228
vt 0.754931 0.603769
vt 0.049471 0.002488
vt 0.055590 0.002480
vt 0.018534 0.441848
vt 0.018534 0.518955
vt 0.319426 0.480769
vt 0.324632 0.483986
vt 0.330601 0.462681
vt 0.335806 0.465897
vt 0.711889 0.667891
vt 0.750832 0.601310
vt 0.082078 0.373037
vt 0.075976 0.373279
vt 0.074758 0.321155
vt 0.079158 0.321068
vt 0.195386 0.258497
vt 0.198572 0.257632
vt 0.199051 0.260793
vt 0.197232 0.262648
vt 0.727900 0.449661
vt 0.748832 0.445921
vt 0.749909 0.451946
vt 0.728977 0.455686
vt 0.031104 0.958205
vt 0.025898 0.954989
vt 0.035005 0.002770
vt 0.038293 0.002770
vt 0.038293 0.395856
vt 0.035005 0.395856
vt 0.946204 0.283535
vt 0.981679 0.228655
vt 0.071260 0.373330
vt 0.071355 0.321173
vt 0.060443 0.002000
vt 0.065151 0.001778
vt 0.066950 0.053863
vt 0.063555 0.053943
vt 0.079157 0.053929
vt 0.066950 0.321133
vt 0.063555 0.321053
vt 0.065151 0.373219
vt 0.060443 0.372997
vt 0.082080 0.001960
vt 0.246232 0.277724
vt 0.245128 0.280659
vt 0.277674 0.211521
vt 0.265509 0.170872
vt 0.267408 0.169160
vt 0.280659 0.210565
vt 0.248688 0.274785
vt 0.196154 0.128265
vt 0.171215 0.201227
vt 0.138039 0.177498
vt 0.155394 0.126723
vt 0.288508 0.132386
vt 0.269548 0.069648
vt 0.309829 0.067886
vt 0.323023 0.111545
vt 0.274555 0.213634
vt 0.262460 0.170367
vt 0.031415 0.001663
vt 0.031415 0.397159
vt 0.263383 0.167223
vt 0.120979 0.255329
vt 0.193064 0.223604
vt 0.145271 0.280659
vt 0.197858 0.223519
vt 0.270068 0.248296
vt 0.060898 0.063545
vt 0.056173 0.063545
vt 0.056891 0.029186
vt 0.060179 0.029186
vt 0.228907 0.169353
vt 0.229025 0.164585
vt 0.249073 0.235648
vt 0.246454 0.231775
vt 0.276377 0.216329
vt 0.253674 0.102116
vt 0.280659 0.123811
vt 0.041883 0.001663
vt 0.041883 0.397159
vt 0.045011 0.001663
vt 0.045011 0.397159
vt 0.320796 0.525066
vt 0.324404 0.525544
vt 0.321797 0.526044
vt 0.019929 0.976294
vt 0.014723 0.973078
vt 0.217114 0.301841
vt 0.151573 0.301841
vt 0.151573 0.280578
vt 0.217114 0.280578
vt 0.928129 0.272122
vt 0.963996 0.217191
vt 0.332835 0.459063
vt 0.338041 0.462279
vt 0.693601 0.657230
vt 0.732472 0.590309
vt 0.299913 0.529070
vt 0.321948 0.531076
vt 0.301065 0.535081
vt 0.217114 0.023830
vt 0.140007 0.023830
vt 0.140007 0.002566
vt 0.217114 0.002566
vt 0.724790 0.456434
vt 0.723714 0.450410
vt 0.724703 0.451401
vt 0.725375 0.455161
vt 0.198580 0.124772
vt 0.152212 0.124611
vt 0.282318 0.002444
vt 0.286088 0.000476
vt 0.321214 0.020270
vt 0.323023 0.023562
vt 0.094146 0.001933
vt 0.097966 0.001933
vt 0.097966 0.373330
vt 0.094146 0.373330
vt 0.091491 0.001933
vt 0.091491 0.373330
vt 0.727988 0.454694
vt 0.727316 0.450934
vt 0.325124 0.529296
vt 0.322516 0.529796
vt 0.085016 0.001933
vt 0.087671 0.001933
vt 0.087671 0.373330
vt 0.085016 0.373330
vt 0.267076 0.066188
vt 0.312931 0.065767
vt 0.173258 0.049035
vt 0.177173 0.050696
vt 0.138039 0.075565
vt 0.139603 0.072082
vt 0.272830 0.286636
vt 0.272813 0.290817
vt 0.257978 0.290203
vt 0.257857 0.287204
vt 0.060898 0.076523
vt 0.057335 0.076523
vt 0.057335 0.068318
vt 0.060898 0.068318
vt 0.322212 0.186514
vt 0.319212 0.186393
vt 0.318598 0.171558
vt 0.322779 0.171541
vt 0.271405 0.299272
vt 0.313729 0.291118
vt 0.310732 0.303615
vt 0.329952 0.187083
vt 0.331262 0.172925
vt 0.257348 0.297880
vt 0.215932 0.117406
vt 0.215899 0.089761
vt 0.219292 0.120491
vt 0.219514 0.132636
vt 0.318297 0.130642
vt 0.323042 0.130629
vt 0.313742 0.286373
vt 0.335456 0.133591
vt 0.110829 0.150436
vt 0.116391 0.150531
vt 0.116292 0.162678
vt 0.110885 0.162439
vt 0.110903 0.082489
vt 0.116123 0.081780
vt 0.116292 0.112696
vt 0.110885 0.112935
vt 0.235227 0.034426
vt 0.234425 0.022069
vt 0.237791 0.052329
vt 0.238030 0.064329
vt 0.116123 0.193594
vt 0.110903 0.192885
vt 0.317665 0.285189
vt 0.317727 0.292072
vt 0.107717 0.270068
vt 0.102341 0.269446
vt 0.107190 0.239388
vt 0.112456 0.239517
vt 0.110404 0.217940
vt 0.116094 0.218404
vt 0.110673 0.214571
vt 0.116365 0.215016
vt 0.324226 0.126706
vt 0.337098 0.129691
vt 0.221516 0.064320
vt 0.221768 0.052321
vt 0.225167 0.022064
vt 0.224351 0.034420
vt 0.228118 0.000579
vt 0.227876 0.019691
vt 0.231497 0.000580
vt 0.231718 0.019693
vt 0.317343 0.126644
vt 0.102341 0.005927
vt 0.107717 0.005306
vt 0.112456 0.035857
vt 0.107190 0.035985
vt 0.116094 0.056969
vt 0.110404 0.057433
vt 0.116365 0.060358
vt 0.110673 0.060802
vt 0.314638 0.305222
vt 0.202890 0.132636
vt 0.203113 0.120491
vt 0.206506 0.089761
vt 0.206472 0.117406
vt 0.209503 0.068548
vt 0.209539 0.107842
vt 0.212902 0.068548
vt 0.212865 0.107842
vt 0.212902 0.222409
vt 0.212865 0.183115
vt 0.215932 0.173551
vt 0.215899 0.201196
vt 0.212949 0.145478
vt 0.216288 0.145478
vt 0.209503 0.222409
vt 0.209539 0.183115
vt 0.209455 0.145478
vt 0.206506 0.201196
vt 0.206472 0.173551
vt 0.206116 0.145478
vt 0.203113 0.170465
vt 0.202890 0.158320
vt 0.202643 0.145478
vt 0.305800 0.133639
vt 0.304194 0.129733
vt 0.292675 0.137038
vt 0.291688 0.133294
vt 0.307333 0.316741
vt 0.311077 0.317727
vt 0.231456 0.153568
vt 0.231688 0.134456
vt 0.235204 0.119725
vt 0.234395 0.132081
vt 0.228076 0.153568
vt 0.227845 0.134456
vt 0.225137 0.132081
vt 0.224328 0.119725
vt 0.221755 0.101823
vt 0.221509 0.089823
vt 0.221236 0.077076
vt 0.222315 0.077076
vt 0.221236 0.077067
vt 0.222315 0.077068
vt 0.310780 0.273959
vt 0.314680 0.272317
vt 0.307449 0.260882
vt 0.311213 0.259916
vt 0.348533 0.136922
vt 0.349500 0.133158
vt 0.238023 0.089823
vt 0.237777 0.101823
vt 0.237217 0.077076
vt 0.238295 0.077076
vt 0.116391 0.124842
vt 0.110829 0.124937
vt 0.116500 0.137687
vt 0.110766 0.137687
vt 0.271446 0.278154
vt 0.270013 0.270134
vt 0.339281 0.174358
vt 0.219514 0.158320
vt 0.219292 0.170466
vt 0.219761 0.145478
vt 0.311536 0.187023
vt 0.310144 0.172966
vt 0.303851 0.187989
vt 0.302149 0.174443
vt 0.256382 0.305565
vt 0.269928 0.307266
vt 0.257287 0.279463
vt 0.256382 0.271730
vt 0.337686 0.187989
vt 0.012324 0.073613
vt 0.015886 0.073613
vt 0.015886 0.081818
vt 0.012324 0.081818
vt 0.015886 0.090023
vt 0.012324 0.090023
vt 0.060898 0.084727
vt 0.057335 0.084727
vt 0.283028 0.153340
vt 0.283313 0.197004
vt 0.282112 0.197060
vt 0.282036 0.154205
vt 0.281527 0.197087
vt 0.281527 0.154373
vt 0.287051 0.240510
vt 0.285983 0.239740
vt 0.285461 0.239619
vt 0.292609 0.153862
vt 0.296545 0.196394
vt 0.295961 0.196421
vt 0.292087 0.153741
vt 0.294760 0.196476
vt 0.291019 0.152971
vt 0.296543 0.239108
vt 0.296034 0.239276
vt 0.295042 0.240141
vt 0.293501 0.248798
vt 0.293565 0.252445
vt 0.293644 0.254001
vt 0.288351 0.139298
vt 0.288415 0.140856
vt 0.288687 0.144493
vt 0.289383 0.248987
vt 0.289654 0.252625
vt 0.289719 0.254182
vt 0.284425 0.139480
vt 0.284504 0.141036
vt 0.284569 0.144683
vt 0.130966 0.124068
vt 0.131173 0.081373
vt 0.134827 0.081373
vt 0.135034 0.124068
vt 0.285105 0.196922
vt 0.131023 0.066229
vt 0.134977 0.066229
vt 0.131173 0.166764
vt 0.134827 0.166764
vt 0.131023 0.181908
vt 0.134977 0.181908
vt 0.131023 0.062386
vt 0.134977 0.062386
vt 0.292968 0.196559
vt 0.131023 0.185751
vt 0.134977 0.185751
vt 0.131173 0.047242
vt 0.134827 0.047242
vt 0.131174 0.200895
vt 0.134827 0.200895
vt 0.130966 0.004546
vt 0.135033 0.004546
vt 0.130967 0.243591
vt 0.135034 0.243591
vt 0.023537 0.026331
vt 0.023546 0.026477
vt 0.023537 0.026477
vt 0.023546 0.026331
vt 0.023556 0.026477
vt 0.023556 0.026331
vt 0.023565 0.026477
vt 0.023565 0.026331
vt 0.023574 0.026477
vt 0.023574 0.026331
vt 0.023583 0.026477
vt 0.023583 0.026331
vt 0.023592 0.026477
vt 0.023592 0.026331
vt 0.023601 0.026477
vt 0.023601 0.026331
vt 0.023610 0.026477
vt 0.023610 0.026331
vt 0.023619 0.026477
vt 0.023619 0.026331
vt 0.023629 0.026477
vt 0.023629 0.026331
vt 0.023638 0.026477
vt 0.023638 0.026331
vt 0.023647 0.026477
vt 0.023647 0.026331
vt 0.023656 0.026477
vt 0.023656 0.026331
vt 0.023665 0.026477
vt 0.023665 0.026331
vt 0.023674 0.026477
vt 0.023674 0.026331
vt 0.023683 0.026477
vt 0.023683 0.026331
vt 0.023693 0.026477
vt 0.023693 0.026331
vt 0.023702 0.026477
vt 0.023702 0.026331
vt 0.023711 0.026477
vt 0.023711 0.026331
vt 0.023720 0.026477
vt 0.023720 0.026331
vt 0.023729 0.026477
vt 0.023729 0.026331
vt 0.023738 0.026477
vt 0.023738 0.026331
vt 0.023747 0.026477
vt 0.023747 0.026331
vt 0.023756 0.026477
vt 0.023756 0.026331
vt 0.023766 0.026477
vt 0.023766 0.026331
vt 0.023775 0.026477
vt 0.023775 0.026331
vt 0.023784 0.026477
vt 0.023784 0.026331
vt 0.023793 0.026477
vt 0.023793 0.026331
vt 0.023802 0.026477
vt 0.023802 0.026331
vt 0.023811 0.026477
vt 0.060773 0.105902
vt 0.060552 0.105784
vt 0.060670 0.105563
vt 0.023811 0.026331
vt 0.023820 0.026477
vt 0.023820 0.026331
vt 0.023830 0.026477
vt 0.057898 0.089864
vt 0.058092 0.090023
vt 0.058250 0.089829
vt 0.060704 0.105557
vt 0.060739 0.105557
vt 0.060773 0.105563
vt 0.060805 0.105577
vt 0.060834 0.105596
vt 0.060859 0.105621
vt 0.060878 0.105649
vt 0.060891 0.105681
vt 0.060898 0.105715
vt 0.060898 0.105750
vt 0.060891 0.105784
vt 0.060878 0.105816
vt 0.060859 0.105845
vt 0.060834 0.105870
vt 0.060805 0.105889
vt 0.060739 0.105909
vt 0.060639 0.105889
vt 0.060704 0.105909
vt 0.060670 0.105902
vt 0.060610 0.105870
vt 0.060585 0.105845
vt 0.060565 0.105816
vt 0.060546 0.105750
vt 0.060565 0.105649
vt 0.060546 0.105715
vt 0.060552 0.105681
vt 0.060585 0.105621
vt 0.060610 0.105596
vt 0.060639 0.105577
vt 0.023830 0.026331
vt 0.058244 0.089795
vt 0.058231 0.089763
vt 0.058210 0.089734
vt 0.058186 0.089710
vt 0.058157 0.089690
vt 0.058126 0.089677
vt 0.058092 0.089670
vt 0.058057 0.089670
vt 0.058022 0.089677
vt 0.057990 0.089690
vt 0.057961 0.089710
vt 0.057937 0.089734
vt 0.057918 0.089763
vt 0.057905 0.089795
vt 0.057898 0.089829
vt 0.057905 0.089898
vt 0.057918 0.089930
vt 0.057937 0.089959
vt 0.057961 0.089983
vt 0.057990 0.090003
vt 0.058022 0.090016
vt 0.058057 0.090023
vt 0.058126 0.090016
vt 0.058157 0.090003
vt 0.058186 0.089983
vt 0.058210 0.089959
vt 0.058231 0.089930
vt 0.058244 0.089898
vt 0.058250 0.089864
vt 0.023588 0.036948
vt 0.023596 0.037068
vt 0.023588 0.037068
vt 0.023596 0.036948
vt 0.023603 0.037068
vt 0.023603 0.036948
vt 0.023611 0.037068
vt 0.023611 0.036948
vt 0.023618 0.037068
vt 0.023618 0.036948
vt 0.023626 0.037068
vt 0.023626 0.036948
vt 0.023634 0.037068
vt 0.023634 0.036948
vt 0.023641 0.037068
vt 0.023641 0.036948
vt 0.023649 0.037068
vt 0.023649 0.036948
vt 0.023656 0.037068
vt 0.023656 0.036948
vt 0.023664 0.037068
vt 0.023664 0.036948
vt 0.023671 0.037068
vt 0.023671 0.036948
vt 0.023679 0.037068
vt 0.023679 0.036948
vt 0.023686 0.037068
vt 0.023686 0.036948
vt 0.023694 0.037068
vt 0.023694 0.036948
vt 0.023701 0.037068
vt 0.023701 0.036948
vt 0.023709 0.037068
vt 0.023709 0.036948
vt 0.023716 0.037068
vt 0.023716 0.036948
vt 0.023724 0.037068
vt 0.023724 0.036948
vt 0.023732 0.037068
vt 0.023732 0.036948
vt 0.023739 0.037068
vt 0.023739 0.036948
vt 0.023747 0.037068
vt 0.023747 0.036948
vt 0.023754 0.037068
vt 0.023754 0.036948
vt 0.023762 0.037068
vt 0.023762 0.036948
vt 0.023769 0.037068
vt 0.023769 0.036948
vt 0.023777 0.037068
vt 0.023777 0.036948
vt 0.023784 0.037068
vt 0.023784 0.036948
vt 0.023792 0.037068
vt 0.023792 0.036948
vt 0.023799 0.037068
vt 0.023799 0.036948
vt 0.023807 0.037068
vt 0.023807 0.036948
vt 0.023814 0.037068
vt 0.105625 0.060795
vt 0.105722 0.060613
vt 0.105904 0.060710
vt 0.023814 0.036948
vt 0.023822 0.037068
vt 0.023822 0.036948
vt 0.023830 0.037068
vt 0.103073 0.105903
vt 0.103256 0.105806
vt 0.103158 0.105624
vt 0.105909 0.060738
vt 0.105909 0.060767
vt 0.105904 0.060795
vt 0.105893 0.060821
vt 0.105878 0.060845
vt 0.105857 0.060865
vt 0.105833 0.060881
vt 0.105807 0.060892
vt 0.105779 0.060898
vt 0.105750 0.060898
vt 0.105722 0.060892
vt 0.105696 0.060881
vt 0.105671 0.060865
vt 0.105652 0.060845
vt 0.105635 0.060821
vt 0.105619 0.060767
vt 0.105635 0.060684
vt 0.105619 0.060738
vt 0.105625 0.060710
vt 0.105652 0.060660
vt 0.105671 0.060640
vt 0.105696 0.060624
vt 0.105750 0.060607
vt 0.105833 0.060624
vt 0.105779 0.060607
vt 0.105807 0.060613
vt 0.105857 0.060640
vt 0.105878 0.060660
vt 0.105893 0.060684
vt 0.023830 0.036948
vt 0.103130 0.105618
vt 0.103101 0.105618
vt 0.103073 0.105624
vt 0.103047 0.105635
vt 0.103023 0.105651
vt 0.103003 0.105671
vt 0.102987 0.105695
vt 0.102976 0.105721
vt 0.102971 0.105749
vt 0.102971 0.105778
vt 0.102976 0.105806
vt 0.102987 0.105833
vt 0.103003 0.105856
vt 0.103023 0.105877
vt 0.103047 0.105893
vt 0.103101 0.105909
vt 0.103130 0.105909
vt 0.103158 0.105904
vt 0.103185 0.105893
vt 0.103209 0.105877
vt 0.103229 0.105856
vt 0.103245 0.105833
vt 0.103261 0.105778
vt 0.103261 0.105749
vt 0.103256 0.105721
vt 0.103245 0.105695
vt 0.103229 0.105671
vt 0.103209 0.105651
vt 0.103185 0.105635
vt 0.028884 0.042243
vt 0.028891 0.042364
vt 0.028884 0.042364
vt 0.028891 0.042243
vt 0.028899 0.042364
vt 0.028899 0.042243
vt 0.028906 0.042364
vt 0.028906 0.042243
vt 0.028914 0.042364
vt 0.028914 0.042243
vt 0.028921 0.042364
vt 0.028921 0.042243
vt 0.028929 0.042364
vt 0.028929 0.042243
vt 0.028937 0.042364
vt 0.028937 0.042243
vt 0.028944 0.042364
vt 0.028944 0.042243
vt 0.028952 0.042364
vt 0.028952 0.042243
vt 0.028959 0.042364
vt 0.028959 0.042243
vt 0.028967 0.042364
vt 0.028967 0.042243
vt 0.028974 0.042364
vt 0.028974 0.042243
vt 0.028982 0.042364
vt 0.028982 0.042243
vt 0.028989 0.042364
vt 0.028989 0.042243
vt 0.028997 0.042364
vt 0.028997 0.042243
vt 0.029004 0.042364
vt 0.029004 0.042243
vt 0.029012 0.042364
vt 0.029012 0.042243
vt 0.029019 0.042364
vt 0.029019 0.042243
vt 0.029027 0.042364
vt 0.029027 0.042243
vt 0.029035 0.042364
vt 0.029035 0.042243
vt 0.029042 0.042364
vt 0.029042 0.042243
vt 0.029050 0.042364
vt 0.029050 0.042243
vt 0.029057 0.042364
vt 0.029057 0.042243
vt 0.029065 0.042364
vt 0.029065 0.042243
vt 0.029072 0.042364
vt 0.029072 0.042243
vt 0.029080 0.042364
vt 0.029080 0.042243
vt 0.029087 0.042364
vt 0.029087 0.042243
vt 0.029095 0.042364
vt 0.029095 0.042243
vt 0.029102 0.042364
vt 0.029102 0.042243
vt 0.029110 0.042364
vt 0.105651 0.044773
vt 0.105856 0.044753
vt 0.105877 0.044959
vt 0.029110 0.042243
vt 0.029117 0.042364
vt 0.029117 0.042243
vt 0.029125 0.042364
vt 0.105904 0.052852
vt 0.105806 0.052669
vt 0.105624 0.052767
vt 0.105856 0.044979
vt 0.105833 0.044995
vt 0.105806 0.045006
vt 0.105778 0.045011
vt 0.105750 0.045011
vt 0.105721 0.045006
vt 0.105695 0.044995
vt 0.105671 0.044979
vt 0.105651 0.044959
vt 0.105635 0.044935
vt 0.105624 0.044908
vt 0.105619 0.044881
vt 0.105619 0.044851
vt 0.105624 0.044823
vt 0.105635 0.044797
vt 0.105671 0.044753
vt 0.105750 0.044721
vt 0.105695 0.044737
vt 0.105722 0.044726
vt 0.105778 0.044721
vt 0.105806 0.044726
vt 0.105833 0.044737
vt 0.105877 0.044773
vt 0.105909 0.044851
vt 0.105893 0.044797
vt 0.105904 0.044823
vt 0.105909 0.044881
vt 0.105904 0.044908
vt 0.105893 0.044935
vt 0.029125 0.042243
vt 0.105619 0.052794
vt 0.105619 0.052823
vt 0.105624 0.052852
vt 0.105635 0.052879
vt 0.105651 0.052902
vt 0.105671 0.052922
vt 0.105695 0.052938
vt 0.105721 0.052949
vt 0.105750 0.052955
vt 0.105778 0.052955
vt 0.105806 0.052949
vt 0.105833 0.052938
vt 0.105856 0.052922
vt 0.105877 0.052902
vt 0.105893 0.052879
vt 0.105909 0.052823
vt 0.105909 0.052794
vt 0.105904 0.052767
vt 0.105893 0.052741
vt 0.105877 0.052717
vt 0.105856 0.052696
vt 0.105833 0.052681
vt 0.105778 0.052664
vt 0.105750 0.052664
vt 0.105721 0.052669
vt 0.105695 0.052681
vt 0.105671 0.052696
vt 0.105651 0.052717
vt 0.105635 0.052741
s 0
usemtl UniV_Grid_2K
f 2/1/1 3/2/1 1/3/1
f 4/4/2 5/5/2 3/2/2
f 6/6/3 7/7/3 5/5/3
f 8/8/4 9/9/4 7/7/4
f 10/10/5 11/11/5 9/9/5
f 12/12/6 13/13/6 11/11/6
f 14/14/7 15/15/7 13/13/7
f 16/16/8 17/17/8 15/15/8
f 18/18/9 19/19/9 17/17/9
f 20/20/10 21/21/10 19/19/10
f 22/22/11 23/23/11 21/21/11
f 24/24/12 25/25/12 23/23/12
f 26/26/13 27/27/13 25/25/13
f 28/28/14 29/29/14 27/27/14
f 30/30/15 31/31/15 29/29/15
f 32/32/16 33/33/16 31/31/16
f 34/34/17 35/35/17 33/33/17
f 36/36/18 37/37/18 35/35/18
f 38/38/19 39/39/19 37/37/19
f 40/40/20 41/41/20 39/39/20
f 42/42/21 43/43/21 41/41/21
f 44/44/22 45/45/22 43/43/22
f 46/46/23 47/47/23 45/45/23
f 48/48/24 49/49/24 47/47/24
f 50/50/25 51/51/25 49/49/25
f 52/52/26 53/53/26 51/51/26
f 54/54/27 55/55/27 53/53/27
f 56/56/28 57/57/28 55/55/28
f 58/58/29 59/59/29 57/57/29
f 60/60/30 61/61/30 59/59/30
f 38/62/31 22/63/31 6/64/31
f 62/65/32 63/66/32 61/61/32
f 64/67/33 1/68/33 63/66/33
f 31/69/34 47/70/34 63/71/34
f 2/1/1 4/4/1 3/2/1
f 4/4/2 6/6/2 5/5/2
f 6/6/3 8/8/3 7/7/3
f 8/8/4 10/10/4 9/9/4
f 10/10/5 12/12/5 11/11/5
f 12/12/6 14/14/6 13/13/6
f 14/14/7 16/16/7 15/15/7
f 16/16/8 18/18/8 17/17/8
f 18/18/9 20/20/9 19/19/9
f 20/20/10 22/22/10 21/21/10
f 22/22/11 24/24/11 23/23/11
f 24/24/12 26/26/12 25/25/12
f 26/26/13 28/28/13 27/27/13
f 28/28/14 30/30/14 29/29/14
f 30/30/15 32/32/15 31/31/15
f 32/32/16 34/34/16 33/33/16
f 34/34/17 36/36/17 35/35/17
f 36/36/18 38/38/18 37/37/18
f 38/38/19 40/40/19 39/39/19
f 40/40/20 42/42/20 41/41/20
f 42/42/21 44/44/21 43/43/21
f 44/44/22 46/46/22 45/45/22
f 46/46/23 48/48/23 47/47/23
f 48/48/24 50/50/24 49/49/24
f 50/50/25 52/52/25 51/51/25
f 52/52/26 54/54/26 53/53/26
f 54/54/27 56/56/27 55/55/27
f 56/56/28 58/58/28 57/57/28
f 58/58/29 60/60/29 59/59/29
f 60/60/30 62/65/30 61/61/30
f 6/64/31 4/72/31 2/73/31
f 2/73/31 64/74/31 6/64/31
f 64/74/31 62/75/31 6/64/31
f 62/75/31 60/76/31 58/77/31
f 58/77/31 56/78/31 54/79/31
f 54/79/31 52/80/31 50/81/31
f 50/81/31 48/82/31 54/79/31
f 48/82/31 46/83/31 54/79/31
f 46/83/31 44/84/31 42/85/31
f 42/85/31 40/86/31 38/62/31
f 38/62/31 36/87/31 30/88/31
f 36/87/31 34/89/31 30/88/31
f 34/89/31 32/90/31 30/88/31
f 30/88/31 28/91/31 26/92/31
f 26/92/31 24/93/31 22/63/31
f 22/63/31 20/94/31 14/95/31
f 20/94/31 18/96/31 14/95/31
f 18/96/31 16/97/31 14/95/31
f 14/95/31 12/98/31 10/99/31
f 10/99/31 8/100/31 6/64/31
f 62/75/31 58/77/31 6/64/31
f 58/77/31 54/79/31 6/64/31
f 46/83/31 42/85/31 54/79/31
f 42/85/31 38/62/31 54/79/31
f 30/88/31 26/92/31 38/62/31
f 26/92/31 22/63/31 38/62/31
f 14/95/31 10/99/31 22/63/31
f 10/99/31 6/64/31 22/63/31
f 6/64/31 54/79/31 38/62/31
f 62/65/32 64/67/32 63/66/32
f 64/67/33 2/101/33 1/68/33
f 63/71/34 1/102/34 3/103/34
f 3/103/34 5/104/34 7/105/34
f 7/105/34 9/106/34 11/107/34
f 11/107/34 13/108/34 15/109/34
f 15/109/34 17/110/34 19/111/34
f 19/111/34 21/112/34 23/113/34
f 23/113/34 25/114/34 27/115/34
f 27/115/34 29/116/34 31/69/34
f 31/69/34 33/117/34 35/118/34
f 35/118/34 37/119/34 39/120/34
f 39/120/34 41/121/34 43/122/34
f 43/122/34 45/123/34 47/70/34
f 47/70/34 49/124/34 51/125/34
f 51/125/34 53/126/34 55/127/34
f 55/127/34 57/128/34 59/129/34
f 59/129/34 61/130/34 63/71/34
f 63/71/34 3/103/34 15/109/34
f 3/103/34 7/105/34 15/109/34
f 7/105/34 11/107/34 15/109/34
f 15/109/34 19/111/34 31/69/34
f 19/111/34 23/113/34 31/69/34
f 23/113/34 27/115/34 31/69/34
f 31/69/34 35/118/34 47/70/34
f 35/118/34 39/120/34 47/70/34
f 39/120/34 43/122/34 47/70/34
f 47/70/34 51/125/34 63/71/34
f 51/125/34 55/127/34 63/71/34
f 55/127/34 59/129/34 63/71/34
f 63/71/34 15/109/34 31/69/34
f 66/131/31 95/132/31 127/133/31 115/134/31
f 79/135/35 77/136/35 72/137/35 71/138/35
f 84/139/34 83/140/34 121/141/34 126/142/34
f 75/143/36 76/144/36 66/131/36 65/145/36
f 94/146/37 96/147/37 69/148/37 78/149/37
f 91/150/38 95/151/38 66/152/38 76/153/38
f 80/154/31 93/155/31 107/156/31 99/157/31
f 89/158/37 92/159/37 75/160/37 65/161/37
f 93/162/39 94/146/39 108/163/39 107/164/39
f 67/165/35 68/166/35 74/167/35 73/168/35
f 69/169/36 70/170/36 80/171/36 78/172/36
f 90/173/38 93/155/38 80/154/38 70/174/38
f 74/175/34 85/176/34 109/177/34 104/178/34
f 75/160/34 92/159/34 102/179/34 103/180/34
f 78/172/40 80/171/40 99/181/40 106/182/40
f 72/183/38 77/184/38 87/185/38 84/186/38
f 67/187/37 73/188/37 86/189/37 81/190/37
f 92/191/34 91/192/34 101/193/34 102/194/34
f 74/175/38 68/195/38 82/196/38 85/176/38
f 79/197/37 71/198/37 83/199/37 88/200/37
f 68/166/31 67/165/31 118/201/31 117/202/31
f 150/203/31 149/204/31 82/205/31 81/206/31
f 82/205/31 68/166/31 117/202/31 116/207/31
f 91/150/34 76/153/34 100/208/34 101/209/34
f 197/210/38 198/211/38 93/155/38 90/173/38
f 193/212/37 195/213/37 92/159/37 89/158/37
f 194/214/34 91/192/34 92/191/34 195/215/34
f 194/216/38 196/217/38 95/151/38 91/150/38
f 199/218/37 200/219/37 96/147/37 94/146/37
f 200/220/34 197/221/34 90/222/34 96/223/34
f 147/224/31 87/225/31 88/226/31 148/227/31
f 85/228/34 86/229/34 110/230/34 109/231/34
f 107/156/38 101/209/38 100/208/38 99/157/38
f 106/182/36 99/181/36 100/232/36 103/233/36
f 102/179/37 108/163/37 106/234/37 103/180/37
f 98/235/35 104/236/35 105/237/35 97/238/35
f 98/239/37 97/240/37 112/241/37 110/242/37
f 105/243/38 104/178/38 109/177/38 111/244/38
f 101/193/35 107/164/35 108/163/35 102/194/35
f 111/245/36 109/231/36 110/230/36 112/246/36
f 76/144/31 75/143/31 103/233/31 100/232/31
f 86/189/34 73/188/34 98/239/34 110/242/34
f 88/247/41 87/248/41 111/245/41 112/246/41
f 94/146/31 78/149/31 106/234/31 108/163/31
f 73/168/31 74/167/31 104/236/31 98/235/31
f 87/185/31 77/184/31 105/243/31 111/244/31
f 77/136/42 79/135/42 97/238/42 105/237/42
f 79/197/31 88/200/31 112/241/31 97/240/31
f 126/249/36 121/250/36 137/251/36 142/252/36
f 116/253/38 117/254/38 133/255/38 132/256/38
f 119/257/38 126/249/38 142/252/38 135/258/38
f 114/259/36 115/260/36 131/261/36 130/262/36
f 67/165/31 81/206/31 125/263/31 118/201/31
f 71/138/34 72/137/34 119/264/34 120/265/34
f 81/206/31 82/205/31 116/207/31 125/263/31
f 69/266/34 96/223/34 128/267/34 124/268/34
f 83/140/34 71/138/34 120/265/34 121/141/34
f 96/223/34 90/222/34 122/269/34 128/267/34
f 89/270/31 65/145/31 114/271/31 113/272/31
f 95/132/31 89/270/31 113/272/31 127/133/31
f 90/222/34 70/273/34 123/274/34 122/269/34
f 65/145/31 66/131/31 115/134/31 114/271/31
f 72/137/34 84/139/34 126/142/34 119/264/34
f 70/273/34 69/266/34 124/268/34 123/274/34
f 141/275/31 132/256/31 133/255/31 134/276/31
f 144/277/34 138/278/34 139/279/34 140/280/34
f 136/281/34 135/258/34 142/252/34 137/251/34
f 130/262/31 131/261/31 143/282/31 129/283/31
f 117/254/35 118/284/35 134/276/35 133/255/35
f 125/285/36 116/253/36 132/256/36 141/275/36
f 120/286/35 119/257/35 135/258/35 136/281/35
f 115/260/38 127/287/38 143/282/38 131/261/38
f 121/250/37 120/286/37 136/281/37 137/251/37
f 124/288/37 128/289/37 144/277/37 140/280/37
f 122/290/38 123/291/38 139/279/38 138/278/38
f 127/287/35 113/292/35 129/283/35 143/282/35
f 123/291/36 124/288/36 140/280/36 139/279/36
f 113/292/37 114/259/37 130/262/37 129/283/37
f 128/289/35 122/290/35 138/278/35 144/277/35
f 118/284/37 125/285/37 141/275/37 134/276/37
f 151/293/43 154/294/43 165/295/43 163/296/43
f 83/140/34 84/139/34 146/297/34 145/298/34
f 88/200/37 83/199/37 145/299/37 148/300/37
f 84/186/38 87/185/38 147/301/38 146/302/38
f 85/176/38 82/196/38 149/303/38 151/304/38
f 85/228/34 151/305/34 152/306/34 86/229/34
f 81/190/37 86/189/37 152/307/37 150/308/37
f 153/309/31 156/310/31 149/204/31 150/203/31
f 189/311/31 192/312/31 156/310/31 153/309/31
f 151/304/38 149/303/38 156/313/38 154/314/38
f 159/315/44 158/316/44 167/317/44 168/318/44
f 180/319/45 179/320/45 173/321/45 174/322/45
f 186/323/31 158/324/31 159/325/31 187/326/31
f 145/298/34 146/297/34 157/327/34 160/328/34
f 181/329/38 184/330/38 178/331/38 177/332/38
f 146/302/38 147/301/38 158/333/38 157/334/38
f 158/316/46 147/335/46 161/336/46 167/317/46
f 155/337/47 152/338/47 164/339/47 166/340/47
f 165/295/36 166/341/36 168/318/36 167/317/36
f 163/296/38 165/295/38 167/317/38 161/336/38
f 166/340/37 164/339/37 162/342/37 168/343/37
f 164/339/35 163/296/35 161/336/35 162/342/35
f 148/344/48 159/345/48 168/343/48 162/342/48
f 147/335/49 148/344/49 162/342/49 161/336/49
f 152/338/50 151/293/50 163/296/50 164/339/50
f 154/294/51 155/346/51 166/341/51 165/295/51
f 173/321/37 172/347/37 175/348/37 174/322/37
f 171/349/37 170/350/37 169/351/37 176/352/37
f 179/320/52 178/353/52 172/347/52 173/321/52
f 189/354/53 191/355/53 177/356/53 180/357/53
f 187/358/53 188/359/53 182/360/53 181/361/53
f 184/362/52 183/363/52 170/350/52 171/349/52
f 176/364/54 181/329/54 177/332/54 175/365/54
f 183/363/55 182/366/55 169/351/55 170/350/55
f 155/367/54 153/368/54 180/319/54 177/369/54
f 150/370/52 152/371/52 178/353/52 179/320/52
f 152/372/56 155/373/56 177/374/56 178/375/56
f 153/368/45 150/370/45 179/320/45 180/319/45
f 145/376/55 160/377/55 182/366/55 183/363/55
f 159/378/57 148/379/57 184/362/57 181/380/57
f 148/379/52 145/376/52 183/363/52 184/362/52
f 160/377/54 159/381/54 181/382/54 182/366/54
f 184/330/52 171/383/52 172/384/52 178/331/52
f 171/383/37 176/385/37 175/386/37 172/384/37
f 190/387/34 194/214/34 205/388/34 203/389/34
f 160/328/34 157/327/34 185/390/34 188/391/34
f 159/392/37 160/393/37 188/394/37 187/395/37
f 157/334/38 158/333/38 186/396/38 185/397/38
f 193/398/31 196/399/31 192/312/31 189/311/31
f 154/314/38 156/313/38 192/400/38 190/401/38
f 154/402/34 190/387/34 191/403/34 155/404/34
f 153/405/37 155/406/37 191/407/37 189/408/37
f 89/270/31 95/132/31 196/399/31 193/398/31
f 190/401/38 192/400/38 196/217/38 194/216/38
f 199/409/31 198/410/31 207/411/31 208/412/31
f 193/413/45 189/354/45 180/357/45 174/414/45
f 93/162/31 198/410/31 199/409/31 94/146/31
f 188/391/34 185/390/34 197/221/34 200/220/34
f 199/415/57 187/416/57 181/417/57 176/418/57
f 185/397/38 186/396/38 198/211/38 197/210/38
f 205/419/36 206/420/36 208/421/36 207/422/36
f 203/423/38 205/419/38 207/422/38 201/424/38
f 187/326/31 199/409/31 208/412/31 202/425/31
f 186/323/31 187/326/31 202/425/31 201/426/31
f 194/214/34 195/215/34 206/427/34 205/388/34
f 195/215/34 191/403/34 204/428/34 206/427/34
f 198/410/31 186/323/31 201/426/31 207/411/31
f 191/403/34 190/387/34 203/389/34 204/428/34
f 206/429/37 204/430/37 202/431/37 208/432/37
f 204/430/35 203/423/35 201/424/35 202/431/35
f 188/359/55 200/433/55 169/434/55 182/360/55
f 200/433/58 199/415/58 176/418/58 169/434/58
f 191/435/56 195/436/56 175/437/56 177/438/56
f 195/436/58 193/413/58 174/414/58 175/437/58
f 209/439/31 210/440/31 212/441/31 211/442/31
f 245/443/59 250/444/59 216/445/59 215/446/59
f 215/447/34 216/448/34 214/449/34 213/450/34
f 256/451/60 210/440/60 218/452/60 262/453/60
f 245/454/61 215/447/61 213/450/61 253/455/61
f 248/456/62 212/441/62 210/440/62 256/451/62
f 294/457/63 229/458/63 222/459/63 268/460/63
f 213/450/64 214/449/64 219/461/64 220/462/64
f 210/440/65 209/439/65 217/463/65 218/452/65
f 253/455/66 213/450/66 220/462/66 259/464/66
f 263/465/67 268/466/67 222/467/67 221/468/67
f 235/469/68 230/470/68 223/471/68 224/472/68
f 279/473/69 235/474/69 224/475/69 265/476/69
f 229/477/70 240/478/70 221/468/70 222/467/70
f 218/452/71 217/463/71 244/479/71 225/480/71
f 225/481/72 244/482/72 243/483/72 226/484/72
f 226/484/73 243/483/73 242/485/73 227/486/73
f 227/486/74 242/485/74 241/487/74 228/488/74
f 228/488/75 241/487/75 240/478/75 229/477/75
f 259/464/76 220/462/76 239/489/76 269/490/76
f 269/491/77 239/492/77 238/493/77 272/494/77
f 272/494/78 238/493/78 237/495/78 275/496/78
f 275/496/79 237/495/79 236/497/79 277/498/79
f 277/498/80 236/497/80 235/474/80 279/473/80
f 220/462/81 219/461/81 234/499/81 239/489/81
f 239/500/82 234/501/82 233/502/82 238/503/82
f 238/503/83 233/502/83 232/504/83 237/505/83
f 237/505/84 232/504/84 231/506/84 236/507/84
f 236/507/85 231/506/85 230/470/85 235/469/85
f 262/453/86 218/452/86 225/480/86 282/508/86
f 282/509/87 225/510/87 226/511/87 285/512/87
f 285/512/88 226/511/88 227/513/88 288/514/88
f 288/514/89 227/513/89 228/515/89 291/516/89
f 291/516/90 228/515/90 229/458/90 294/457/90
f 231/517/91 293/518/91 296/519/91 230/520/91
f 293/518/92 292/521/92 295/522/92 296/519/92
f 292/521/93 291/516/93 294/457/93 295/522/93
f 232/523/94 290/524/94 293/518/94 231/517/94
f 290/524/95 289/525/95 292/521/95 293/518/95
f 289/525/96 288/514/96 291/516/96 292/521/96
f 233/526/97 287/527/97 290/524/97 232/523/97
f 287/527/98 286/528/98 289/525/98 290/524/98
f 286/528/99 285/512/99 288/514/99 289/525/99
f 234/529/100 284/530/100 287/527/100 233/526/100
f 284/530/101 283/531/101 286/528/101 287/527/101
f 283/531/102 282/509/102 285/512/102 286/528/102
f 219/461/103 260/532/103 284/533/103 234/499/103
f 260/532/104 261/534/104 283/535/104 284/533/104
f 261/536/105 262/453/105 282/508/105 283/537/105
f 241/538/106 278/539/106 281/540/106 240/541/106
f 242/542/107 276/543/107 278/539/107 241/538/107
f 243/544/108 274/545/108 276/543/108 242/542/108
f 244/546/109 271/547/109 274/545/109 243/544/109
f 271/547/110 270/548/110 273/549/110 274/545/110
f 270/550/111 269/491/111 272/494/111 273/551/111
f 217/463/112 257/552/112 271/553/112 244/479/112
f 257/552/113 258/554/113 270/555/113 271/553/113
f 258/556/114 259/464/114 269/490/114 270/557/114
f 240/541/115 281/540/115 263/558/115 221/559/115
f 281/540/116 280/560/116 264/561/116 263/558/116
f 280/560/117 279/473/117 265/476/117 264/561/117
f 224/472/118 223/471/118 266/562/118 265/563/118
f 265/563/119 266/562/119 267/564/119 264/565/119
f 264/565/120 267/564/120 268/466/120 263/465/120
f 209/439/121 251/566/121 257/552/121 217/463/121
f 251/566/122 252/567/122 258/554/122 257/552/122
f 252/568/123 253/455/123 259/464/123 258/556/123
f 230/520/124 296/519/124 266/569/124 223/570/124
f 296/519/125 295/522/125 267/571/125 266/569/125
f 295/522/126 294/457/126 268/460/126 267/571/126
f 216/448/62 250/572/62 254/573/62 214/449/62
f 250/572/62 249/574/62 255/575/62 254/573/62
f 249/576/62 248/456/62 256/451/62 255/577/62
f 211/442/61 247/578/61 251/566/61 209/439/61
f 247/578/61 246/579/61 252/567/61 251/566/61
f 246/580/61 245/454/61 253/455/61 252/568/61
f 214/449/127 254/573/127 260/532/127 219/461/127
f 254/573/128 255/575/128 261/534/128 260/532/128
f 255/577/129 256/451/129 262/453/129 261/536/129
f 211/581/59 212/582/59 248/583/59 247/584/59
f 247/584/59 248/583/59 249/585/59 246/586/59
f 246/587/59 249/588/59 250/444/59 245/443/59
f 299/589/130 302/590/130 304/591/130 301/592/130
f 301/592/131 304/591/131 303/593/131 300/594/131
f 302/590/132 305/595/132 307/596/132 304/591/132
f 304/591/133 307/596/133 306/597/133 303/593/133
f 321/598/134 323/599/134 325/600/134 322/601/134
f 322/601/135 325/600/135 324/602/135 320/603/135
f 323/599/136 326/604/136 328/605/136 325/600/136
f 325/600/137 328/605/137 327/606/137 324/602/137
f 318/607/138 327/606/138 328/605/138 319/608/138
f 319/608/139 328/605/139 326/604/139 317/609/139
f 315/610/140 321/598/140 322/601/140 316/611/140
f 316/611/141 322/601/141 320/603/141 314/612/141
f 312/613/142 318/607/142 319/608/142 313/614/142
f 313/614/143 319/608/143 317/609/143 311/615/143
f 309/616/144 315/610/144 316/611/144 310/617/144
f 310/617/145 316/611/145 314/612/145 308/618/145
f 305/595/146 312/613/146 313/614/146 307/596/146
f 307/596/147 313/614/147 311/615/147 306/597/147
f 300/594/148 309/616/148 310/617/148 301/592/148
f 301/592/149 310/617/149 308/618/149 299/589/149
f 273/619/150 272/620/150 300/621/150 303/622/150
f 302/590/151 299/589/151 308/618/151 297/623/151
f 272/620/152 275/624/152 309/625/152 300/621/152
f 274/626/153 273/619/153 303/622/153 306/627/153
f 305/595/154 302/590/154 297/623/154 312/613/154
f 276/628/155 274/626/155 306/627/155 311/629/155
f 275/624/31 277/630/31 315/631/31 309/625/31
f 297/623/156 308/618/156 314/612/156 298/632/156
f 312/613/157 297/623/157 298/632/157 318/607/157
f 278/633/34 276/628/34 311/629/34 317/634/34
f 277/630/158 279/635/158 321/636/158 315/631/158
f 298/632/159 314/612/159 320/603/159 324/602/159
f 318/607/160 298/632/160 324/602/160 327/606/160
f 281/637/161 278/633/161 317/634/161 326/638/161
f 279/635/162 280/639/162 323/640/162 321/636/162
f 280/641/163 281/637/163 326/638/163 323/642/163
f 330/643/1 331/644/1 329/645/1
f 332/646/2 333/647/2 331/644/2
f 334/648/3 335/649/3 333/647/3
f 336/650/4 337/651/4 335/649/4
f 338/652/5 339/653/5 337/651/5
f 340/654/6 341/655/6 339/653/6
f 342/656/7 343/657/7 341/655/7
f 344/658/8 345/659/8 343/657/8
f 346/660/9 347/661/9 345/659/9
f 348/662/10 349/663/10 347/661/10
f 350/664/11 351/665/11 349/663/11
f 352/666/12 353/667/12 351/665/12
f 354/668/13 355/669/13 353/667/13
f 356/670/14 357/671/14 355/669/14
f 358/672/15 359/673/15 357/671/15
f 360/674/16 361/675/16 359/673/16
f 362/676/17 363/677/17 361/675/17
f 364/678/18 365/679/18 363/677/18
f 366/680/19 367/681/19 365/679/19
f 368/682/20 369/683/20 367/681/20
f 370/684/21 371/685/21 369/683/21
f 372/686/22 373/687/22 371/685/22
f 374/688/23 375/689/23 373/687/23
f 376/690/24 377/691/24 375/689/24
f 378/692/25 379/693/25 377/691/25
f 380/694/26 381/695/26 379/693/26
f 382/696/27 383/697/27 381/695/27
f 384/698/28 385/699/28 383/697/28
f 386/700/29 387/701/29 385/699/29
f 388/702/30 389/703/30 387/701/30
f 366/704/31 350/705/31 334/706/31
f 390/707/32 391/708/32 389/703/32
f 392/709/33 329/710/33 391/708/33
f 359/711/34 375/712/34 391/713/34
f 330/643/1 332/646/1 331/644/1
f 332/646/2 334/648/2 333/647/2
f 334/648/3 336/650/3 335/649/3
f 336/650/4 338/652/4 337/651/4
f 338/652/5 340/654/5 339/653/5
f 340/654/6 342/656/6 341/655/6
f 342/656/7 344/658/7 343/657/7
f 344/658/8 346/660/8 345/659/8
f 346/660/9 348/662/9 347/661/9
f 348/662/10 350/664/10 349/663/10
f 350/664/11 352/666/11 351/665/11
f 352/666/12 354/668/12 353/667/12
f 354/668/13 356/670/13 355/669/13
f 356/670/14 358/672/14 357/671/14
f 358/672/15 360/674/15 359/673/15
f 360/674/16 362/676/16 361/675/16
f 362/676/17 364/678/17 363/677/17
f 364/678/18 366/680/18 365/679/18
f 366/680/19 368/682/19 367/681/19
f 368/682/20 370/684/20 369/683/20
f 370/684/21 372/686/21 371/685/21
f 372/686/22 374/688/22 373/687/22
f 374/688/23 376/690/23 375/689/23
f 376/690/24 378/692/24 377/691/24
f 378/692/25 380/694/25 379/693/25
f 380/694/26 382/696/26 381/695/26
f 382/696/27 384/698/27 383/697/27
f 384/698/28 386/700/28 385/699/28
f 386/700/29 388/702/29 387/701/29
f 388/702/30 390/707/30 389/703/30
f 334/706/31 332/714/31 330/715/31
f 330/715/31 392/716/31 334/706/31
f 392/716/31 390/717/31 334/706/31
f 390/717/31 388/718/31 386/719/31
f 386/719/31 384/720/31 382/721/31
f 382/721/31 380/722/31 378/723/31
f 378/723/31 376/724/31 382/721/31
f 376/724/31 374/725/31 382/721/31
f 374/725/31 372/726/31 370/727/31
f 370/727/31 368/728/31 366/704/31
f 366/704/31 364/729/31 358/730/31
f 364/729/31 362/731/31 358/730/31
f 362/731/31 360/732/31 358/730/31
f 358/730/31 356/733/31 354/734/31
f 354/734/31 352/735/31 350/705/31
f 350/705/31 348/736/31 342/737/31
f 348/736/31 346/738/31 342/737/31
f 346/738/31 344/739/31 342/737/31
f 342/737/31 340/740/31 338/741/31
f 338/741/31 336/742/31 334/706/31
f 390/717/31 386/719/31 334/706/31
f 386/719/31 382/721/31 334/706/31
f 374/725/31 370/727/31 382/721/31
f 370/727/31 366/704/31 382/721/31
f 358/730/31 354/734/31 366/704/31
f 354/734/31 350/705/31 366/704/31
f 342/737/31 338/741/31 350/705/31
f 338/741/31 334/706/31 350/705/31
f 334/706/31 382/721/31 366/704/31
f 390/707/32 392/709/32 391/708/32
f 392/709/33 330/743/33 329/710/33
f 391/713/34 329/744/34 331/745/34
f 331/745/34 333/746/34 335/747/34
f 335/747/34 337/748/34 339/749/34
f 339/749/34 341/750/34 343/751/34
f 343/751/34 345/752/34 347/753/34
f 347/753/34 349/754/34 351/755/34
f 351/755/34 353/756/34 355/757/34
f 355/757/34 357/758/34 359/711/34
f 359/711/34 361/759/34 363/760/34
f 363/760/34 365/761/34 367/762/34
f 367/762/34 369/763/34 371/764/34
f 371/764/34 373/765/34 375/712/34
f 375/712/34 377/766/34 379/767/34
f 379/767/34 381/768/34 383/769/34
f 383/769/34 385/770/34 387/771/34
f 387/771/34 389/772/34 391/713/34
f 391/713/34 331/745/34 343/751/34
f 331/745/34 335/747/34 343/751/34
f 335/747/34 339/749/34 343/751/34
f 343/751/34 347/753/34 359/711/34
f 347/753/34 351/755/34 359/711/34
f 351/755/34 355/757/34 359/711/34
f 359/711/34 363/760/34 375/712/34
f 363/760/34 367/762/34 375/712/34
f 367/762/34 371/764/34 375/712/34
f 375/712/34 379/767/34 391/713/34
f 379/767/34 383/769/34 391/713/34
f 383/769/34 387/771/34 391/713/34
f 391/713/34 343/751/34 359/711/34
f 394/773/1 395/774/1 393/775/1
f 396/776/2 397/777/2 395/774/2
f 398/778/3 399/779/3 397/777/3
f 400/780/4 401/781/4 399/779/4
f 402/782/5 403/783/5 401/781/5
f 404/784/6 405/785/6 403/783/6
f 406/786/7 407/787/7 405/785/7
f 408/788/8 409/789/8 407/787/8
f 410/790/9 411/791/9 409/789/9
f 412/792/10 413/793/10 411/791/10
f 414/794/11 415/795/11 413/793/11
f 416/796/12 417/797/12 415/795/12
f 418/798/13 419/799/13 417/797/13
f 420/800/14 421/801/14 419/799/14
f 422/802/15 423/803/15 421/801/15
f 424/804/16 425/805/16 423/803/16
f 426/806/17 427/807/17 425/805/17
f 428/808/18 429/809/18 427/807/18
f 430/810/19 431/811/19 429/809/19
f 432/812/20 433/813/20 431/811/20
f 434/814/21 435/815/21 433/813/21
f 436/816/22 437/817/22 435/815/22
f 438/818/23 439/819/23 437/817/23
f 440/820/24 441/821/24 439/819/24
f 442/822/25 443/823/25 441/821/25
f 444/824/26 445/825/26 443/823/26
f 446/826/27 447/827/27 445/825/27
f 448/828/28 449/829/28 447/827/28
f 450/830/29 451/831/29 449/829/29
f 452/832/30 453/833/30 451/831/30
f 430/834/31 414/835/31 398/836/31
f 454/837/32 455/838/32 453/833/32
f 456/839/33 393/840/33 455/838/33
f 423/841/34 439/842/34 455/843/34
f 394/773/1 396/776/1 395/774/1
f 396/776/2 398/778/2 397/777/2
f 398/778/3 400/780/3 399/779/3
f 400/780/4 402/782/4 401/781/4
f 402/782/5 404/784/5 403/783/5
f 404/784/6 406/786/6 405/785/6
f 406/786/7 408/788/7 407/787/7
f 408/788/8 410/790/8 409/789/8
f 410/790/9 412/792/9 411/791/9
f 412/792/10 414/794/10 413/793/10
f 414/794/11 416/796/11 415/795/11
f 416/796/12 418/798/12 417/797/12
f 418/798/13 420/800/13 419/799/13
f 420/800/14 422/802/14 421/801/14
f 422/802/15 424/804/15 423/803/15
f 424/804/16 426/806/16 425/805/16
f 426/806/17 428/808/17 427/807/17
f 428/808/18 430/810/18 429/809/18
f 430/810/19 432/812/19 431/811/19
f 432/812/20 434/814/20 433/813/20
f 434/814/21 436/816/21 435/815/21
f 436/816/22 438/818/22 437/817/22
f 438/818/23 440/820/23 439/819/23
f 440/820/24 442/822/24 441/821/24
f 442/822/25 444/824/25 443/823/25
f 444/824/26 446/826/26 445/825/26
f 446/826/27 448/828/27 447/827/27
f 448/828/28 450/830/28 449/829/28
f 450/830/29 452/832/29 451/831/29
f 452/832/30 454/837/30 453/833/30
f 398/836/31 396/844/31 394/845/31
f 394/845/31 456/846/31 398/836/31
f 456/846/31 454/847/31 398/836/31
f 454/847/31 452/848/31 450/849/31
f 450/849/31 448/850/31 446/851/31
f 446/851/31 444/852/31 442/853/31
f 442/853/31 440/854/31 446/851/31
f 440/854/31 438/855/31 446/851/31
f 438/855/31 436/856/31 434/857/31
f 434/857/31 432/858/31 430/834/31
f 430/834/31 428/859/31 422/860/31
f 428/859/31 426/861/31 422/860/31
f 426/861/31 424/862/31 422/860/31
f 422/860/31 420/863/31 418/864/31
f 418/864/31 416/865/31 414/835/31
f 414/835/31 412/866/31 406/867/31
f 412/866/31 410/868/31 406/867/31
f 410/868/31 408/869/31 406/867/31
f 406/867/31 404/870/31 402/871/31
f 402/871/31 400/872/31 398/836/31
f 454/847/31 450/849/31 398/836/31
f 450/849/31 446/851/31 398/836/31
f 438/855/31 434/857/31 446/851/31
f 434/857/31 430/834/31 446/851/31
f 422/860/31 418/864/31 430/834/31
f 418/864/31 414/835/31 430/834/31
f 406/867/31 402/871/31 414/835/31
f 402/871/31 398/836/31 414/835/31
f 398/836/31 446/851/31 430/834/31
f 454/837/32 456/839/32 455/838/32
f 456/839/33 394/873/33 393/840/33
f 455/843/34 393/874/34 395/875/34
f 395/875/34 397/876/34 399/877/34
f 399/877/34 401/878/34 403/879/34
f 403/879/34 405/880/34 407/881/34
f 407/881/34 409/882/34 411/883/34
f 411/883/34 413/884/34 415/885/34
f 415/885/34 417/886/34 419/887/34
f 419/887/34 421/888/34 423/841/34
f 423/841/34 425/889/34 427/890/34
f 427/890/34 429/891/34 431/892/34
f 431/892/34 433/893/34 435/894/34
f 435/894/34 437/895/34 439/842/34
f 439/842/34 441/896/34 443/897/34
f 443/897/34 445/898/34 447/899/34
f 447/899/34 449/900/34 451/901/34
f 451/901/34 453/902/34 455/843/34
f 455/843/34 395/875/34 407/881/34
f 395/875/34 399/877/34 407/881/34
f 399/877/34 403/879/34 407/881/34
f 407/881/34 411/883/34 423/841/34
f 411/883/34 415/885/34 423/841/34
f 415/885/34 419/887/34 423/841/34
f 423/841/34 427/890/34 439/842/34
f 427/890/34 431/892/34 439/842/34
f 431/892/34 435/894/34 439/842/34
f 439/842/34 443/897/34 455/843/34
f 443/897/34 447/899/34 455/843/34
f 447/899/34 451/901/34 455/843/34
f 455/843/34 407/881/34 423/841/34
f 458/903/1 459/904/1 457/905/1
f 460/906/2 461/907/2 459/904/2
f 462/908/3 463/909/3 461/907/3
f 464/910/4 465/911/4 463/909/4
f 466/912/5 467/913/5 465/911/5
f 468/914/6 469/915/6 467/913/6
f 470/916/7 471/917/7 469/915/7
f 472/918/8 473/919/8 471/917/8
f 474/920/9 475/921/9 473/919/9
f 476/922/10 477/923/10 475/921/10
f 478/924/11 479/925/11 477/923/11
f 480/926/12 481/927/12 479/925/12
f 482/928/13 483/929/13 481/927/13
f 484/930/14 485/931/14 483/929/14
f 486/932/15 487/933/15 485/931/15
f 488/934/16 489/935/16 487/933/16
f 490/936/17 491/937/17 489/935/17
f 492/938/18 493/939/18 491/937/18
f 494/940/19 495/941/19 493/939/19
f 496/942/20 497/943/20 495/941/20
f 498/944/21 499/945/21 497/943/21
f 500/946/22 501/947/22 499/945/22
f 502/948/23 503/949/23 501/947/23
f 504/950/24 505/951/24 503/949/24
f 506/952/25 507/953/25 505/951/25
f 508/954/26 509/955/26 507/953/26
f 510/956/27 511/957/27 509/955/27
f 512/958/28 513/959/28 511/957/28
f 514/960/29 515/961/29 513/959/29
f 516/962/30 517/963/30 515/961/30
f 494/964/31 478/965/31 462/966/31
f 518/967/32 519/968/32 517/963/32
f 520/969/33 457/970/33 519/968/33
f 487/971/34 503/972/34 519/973/34
f 458/903/1 460/906/1 459/904/1
f 460/906/2 462/908/2 461/907/2
f 462/908/3 464/910/3 463/909/3
f 464/910/4 466/912/4 465/911/4
f 466/912/5 468/914/5 467/913/5
f 468/914/6 470/916/6 469/915/6
f 470/916/7 472/918/7 471/917/7
f 472/918/8 474/920/8 473/919/8
f 474/920/9 476/922/9 475/921/9
f 476/922/10 478/924/10 477/923/10
f 478/924/11 480/926/11 479/925/11
f 480/926/12 482/928/12 481/927/12
f 482/928/13 484/930/13 483/929/13
f 484/930/14 486/932/14 485/931/14
f 486/932/15 488/934/15 487/933/15
f 488/934/16 490/936/16 489/935/16
f 490/936/17 492/938/17 491/937/17
f 492/938/18 494/940/18 493/939/18
f 494/940/19 496/942/19 495/941/19
f 496/942/20 498/944/20 497/943/20
f 498/944/21 500/946/21 499/945/21
f 500/946/22 502/948/22 501/947/22
f 502/948/23 504/950/23 503/949/23
f 504/950/24 506/952/24 505/951/24
f 506/952/25 508/954/25 507/953/25
f 508/954/26 510/956/26 509/955/26
f 510/956/27 512/958/27 511/957/27
f 512/958/28 514/960/28 513/959/28
f 514/960/29 516/962/29 515/961/29
f 516/962/30 518/967/30 517/963/30
f 462/966/31 460/974/31 458/975/31
f 458/975/31 520/976/31 462/966/31
f 520/976/31 518/977/31 462/966/31
f 518/977/31 516/978/31 514/979/31
f 514/979/31 512/980/31 510/981/31
f 510/981/31 508/982/31 506/983/31
f 506/983/31 504/984/31 510/981/31
f 504/984/31 502/985/31 510/981/31
f 502/985/31 500/986/31 498/987/31
f 498/987/31 496/988/31 494/964/31
f 494/964/31 492/989/31 486/990/31
f 492/989/31 490/991/31 486/990/31
f 490/991/31 488/992/31 486/990/31
f 486/990/31 484/993/31 482/994/31
f 482/994/31 480/995/31 478/965/31
f 478/965/31 476/996/31 470/997/31
f 476/996/31 474/998/31 470/997/31
f 474/998/31 472/999/31 470/997/31
f 470/997/31 468/1000/31 466/1001/31
f 466/1001/31 464/1002/31 462/966/31
f 518/977/31 514/979/31 462/966/31
f 514/979/31 510/981/31 462/966/31
f 502/985/31 498/987/31 510/981/31
f 498/987/31 494/964/31 510/981/31
f 486/990/31 482/994/31 494/964/31
f 482/994/31 478/965/31 494/964/31
f 470/997/31 466/1001/31 478/965/31
f 466/1001/31 462/966/31 478/965/31
f 462/966/31 510/981/31 494/964/31
f 518/967/32 520/969/32 519/968/32
f 520/969/33 458/1003/33 457/970/33
f 519/973/34 457/1004/34 459/1005/34
f 459/1005/34 461/1006/34 463/1007/34
f 463/1007/34 465/1008/34 467/1009/34
f 467/1009/34 469/1010/34 471/1011/34
f 471/1011/34 473/1012/34 475/1013/34
f 475/1013/34 477/1014/34 479/1015/34
f 479/1015/34 481/1016/34 483/1017/34
f 483/1017/34 485/1018/34 487/971/34
f 487/971/34 489/1019/34 491/1020/34
f 491/1020/34 493/1021/34 495/1022/34
f 495/1022/34 497/1023/34 499/1024/34
f 499/1024/34 501/1025/34 503/972/34
f 503/972/34 505/1026/34 507/1027/34
f 507/1027/34 509/1028/34 511/1029/34
f 511/1029/34 513/1030/34 515/1031/34
f 515/1031/34 517/1032/34 519/973/34
f 519/973/34 459/1005/34 471/1011/34
f 459/1005/34 463/1007/34 471/1011/34
f 463/1007/34 467/1009/34 471/1011/34
f 471/1011/34 475/1013/34 487/971/34
f 475/1013/34 479/1015/34 487/971/34
f 479/1015/34 483/1017/34 487/971/34
f 487/971/34 491/1020/34 503/972/34
f 491/1020/34 495/1022/34 503/972/34
f 495/1022/34 499/1024/34 503/972/34
f 503/972/34 507/1027/34 519/973/34
f 507/1027/34 511/1029/34 519/973/34
f 511/1029/34 515/1031/34 519/973/34
f 519/973/34 471/1011/34 487/971/34
