# Blender 5.1.2
# www.blender.org
mtllib soldado .mtl
o CASCO
v -0.945362 10.034084 -0.518721
v -0.981787 10.331212 -0.518721
v -0.945362 10.034084 -0.794144
v -0.981787 10.331212 -0.794144
v 0.011970 10.371017 -0.518721
v -0.311303 10.540656 -0.518721
v 0.011970 10.371017 -0.794144
v -0.311303 10.540656 -0.794144
v -1.082788 10.553199 -0.518721
v -1.082788 10.553199 -0.794144
v -0.735576 10.698899 -0.794144
v -0.735576 10.698899 -0.518721
v -1.325682 10.683315 -0.518721
v -1.325682 10.683315 -0.794144
v -1.146936 10.778931 -0.794144
v -1.146936 10.778931 -0.518721
v -1.539769 10.740039 -0.518721
v -1.539769 10.740039 -0.794144
v -1.361023 10.835655 -0.794144
v -1.361023 10.835655 -0.518721
v -2.086880 10.769316 -0.518721
v -2.086880 10.769316 -0.794144
v -1.939240 11.194296 -0.794144
v -1.939240 11.194296 -0.518721
v -1.673919 10.978379 -0.794144
v -1.673919 10.978379 -0.518721
v -1.784047 10.782125 -0.518721
v -1.784047 10.782125 -0.794144
v -0.945362 10.034084 -0.656432
v -0.981787 10.331212 -0.656432
v 0.011970 10.371017 -0.656432
v -0.311303 10.540656 -0.656432
v -1.082788 10.553199 -0.656432
v -0.735576 10.698899 -0.656432
v -1.325682 10.683315 -0.656432
v -1.146936 10.778931 -0.656432
v -1.539769 10.740039 -0.656432
v -1.361023 10.835655 -0.656432
v -2.086880 10.769316 -0.656432
v -1.939240 11.194296 -0.656432
v -1.784047 10.782125 -0.656432
v -1.673919 10.978379 -0.656432
v -0.311303 10.540656 -0.656432
v -0.311303 10.540656 -0.518721
v 0.011970 10.371017 -0.518721
v -0.735576 10.698899 -0.656432
v -0.735576 10.698899 -0.518721
v -1.146936 10.778931 -0.656432
v -1.146936 10.778931 -0.518721
v -1.361023 10.835655 -0.656432
v -1.361023 10.835655 -0.518721
v -1.939240 11.194296 -0.656432
v -1.939240 11.194296 -0.518721
v -1.673919 10.978379 -0.518721
v -1.673919 10.978379 -0.656432
v 0.011970 10.371017 -0.656432
v -0.224480 10.893843 -0.656432
v -0.224480 10.893843 -0.518721
v -0.445865 11.376181 -0.656432
v -0.445865 11.376181 -0.518721
v -0.878304 11.614307 -0.656432
v -0.878304 11.614307 -0.518721
v -1.282105 11.597254 -0.656432
v -1.282105 11.597254 -0.518721
v -1.831339 11.183865 -0.656432
v -1.831339 11.183865 -0.518721
v -1.623986 11.423788 -0.518721
v -1.623986 11.423788 -0.656432
v 0.011317 10.830512 -0.596635
v 0.011317 10.830512 -0.578518
v -0.022248 11.440336 -0.596635
v -0.022248 11.440336 -0.578518
v -0.669857 11.947214 -0.596635
v -0.669857 11.947214 -0.578518
v -1.478087 11.947497 -0.596635
v -1.478087 11.947497 -0.578518
v -1.951681 11.360928 -0.637844
v -1.951681 11.360928 -0.537309
v -1.971249 11.541672 -0.578518
v -1.971249 11.541672 -0.596635
v 0.737845 10.213664 -0.602635
v 0.737845 10.213664 -0.572519
v 0.675157 11.352606 -0.602635
v 0.675157 11.352606 -0.572519
v -0.413783 12.557901 -0.584497
v -0.413783 12.557901 -0.554381
v -2.043855 12.299810 -0.602635
v -2.043855 12.299810 -0.572519
v -2.964913 11.541867 -0.572519
v -2.964913 11.541867 -0.602635
v 0.784829 8.432525 0.191654
v -0.030182 10.120826 0.191654
v 0.784829 8.432525 -0.639346
v -0.030182 10.120826 -0.639346
v 1.109275 9.274855 0.191654
v 1.000000 10.216441 0.191654
v 1.109275 9.274855 -0.639346
v 1.000000 10.216441 -0.639346
v 0.843415 8.883286 -0.639346
v 0.342570 10.143591 -0.639346
v 0.843415 8.883286 0.191654
v 0.342570 10.143591 0.191654
v 1.390954 10.330639 -0.639346
v 1.500230 9.389052 -0.639346
v 1.500230 9.389052 0.191654
v 1.390954 10.330639 0.191654
v 1.863625 10.277073 -0.639346
v 2.114047 9.585909 -0.639346
v 2.114047 9.585909 0.191654
v 1.863625 10.277073 0.191654
v 2.764114 10.133309 -0.639346
v 2.750455 9.861033 -0.639346
v 2.750455 9.861033 0.191654
v 2.764114 10.133309 0.191654
v 1.487255 11.542845 -0.639346
v 1.487255 11.542845 0.191654
v 1.929350 11.399081 -0.639346
v 1.929350 11.399081 0.191654
v 1.150323 11.615695 -0.639346
v 1.150323 11.615695 0.191654
v 1.742671 11.717800 -0.639346
v 1.742671 11.717800 0.191654
v 0.927941 11.780039 -0.639346
v 0.927941 11.780039 0.191654
v 1.661436 11.968654 -0.639346
v 1.661436 11.968654 0.191654
v 0.800769 12.274590 -0.639346
v 0.800769 12.274590 0.191654
v 1.488733 12.331164 -0.639346
v 1.488733 12.331164 0.191654
v 0.643145 8.039927 -0.639346
v 0.643145 8.039927 0.191654
v -0.397410 10.091459 0.191654
v -0.397410 10.091459 -0.639346
v 0.593247 7.382264 -0.639346
v 0.593247 7.382264 0.191654
v -1.092469 9.567549 0.191654
v -1.092469 9.567549 -0.639346
v -0.061393 10.304736 0.191654
v -0.061393 10.304736 -0.639346
v -1.201327 9.830751 0.191654
v -1.201327 9.830751 -0.639346
v -0.335383 10.509005 0.191654
v -0.335383 10.509005 -0.639346
v -1.567012 9.747288 0.191654
v -1.567012 9.747288 -0.639346
v -0.297672 10.799581 0.191654
v -0.297672 10.799581 -0.639346
v -1.621628 9.881033 0.191654
v -1.621628 9.881033 -0.639346
v -0.415701 11.139810 0.191654
v -0.415701 11.139810 -0.639346
v -1.771276 10.071072 0.191654
v -1.771276 10.071072 -0.639346
v -0.527348 11.281422 0.191654
v -0.527348 11.281422 -0.639346
v -1.914542 10.136271 0.191654
v -1.914542 10.136271 -0.639346
v -0.864103 11.514851 0.191654
v -0.864103 11.514851 -0.639346
v -1.850790 10.464558 0.191654
v -1.850790 10.464558 -0.639346
v -1.233496 11.535136 0.191654
v -1.233496 11.535136 -0.639346
v -1.903993 10.653478 0.191654
v -1.903993 10.653478 -0.639346
v -1.672320 11.306861 0.191654
v -1.672320 11.306861 -0.639346
v -2.092500 10.670250 0.191654
v -2.092500 10.670250 -0.639346
v 0.842778 7.090844 -0.639346
v 0.842778 7.090844 0.191654
v -1.821863 9.071238 0.191654
v -1.821863 9.071238 -0.639346
v 2.572416 5.876366 -0.639346
v 2.572416 5.876366 0.191654
v -0.738770 7.046302 0.191654
v -0.738770 7.046302 -0.639346
v 2.381360 5.275759 -0.639346
v 2.381360 5.275759 0.191654
v -1.401894 5.481887 0.191654
v -1.401894 5.481887 -0.639346
v 2.017825 5.105933 -0.639346
v 2.017825 5.105933 0.191654
v -1.378595 5.233383 0.191654
v -1.378595 5.233383 -0.639346
v 0.377323 9.276675 0.191654
v 0.377323 9.276675 -0.639346
v 1.054638 9.745648 -0.639346
v 1.054638 9.745648 0.191654
v 0.592993 9.513438 0.191654
v 0.592993 9.513438 -0.639346
v 1.445592 9.859845 -0.639346
v 1.445592 9.859845 0.191654
v 1.988836 9.931491 -0.639346
v 1.988836 9.931491 0.191654
v 2.757284 9.997171 -0.639346
v 2.757284 9.997171 0.191654
v 0.122867 9.065693 0.191654
v 0.122867 9.065693 -0.639346
v -0.249611 8.474907 0.191654
v -0.249611 8.474907 -0.639346
v -0.489542 8.081040 0.191654
v -0.489542 8.081040 -0.639346
v 0.916823 6.461334 0.191654
v 0.916823 6.461334 -0.639346
v 0.391385 5.549293 0.191654
v 0.391385 5.549293 -0.639346
v 0.221267 5.340127 0.191654
v 0.221267 5.340127 -0.639346
v 2.358763 4.365047 -0.639346
v 2.358763 4.365047 0.191654
v 0.772014 4.704145 -0.639346
v 0.772014 4.704145 0.191654
v 2.482911 3.880085 -0.639346
v 2.482911 3.880085 0.191654
v 1.656718 3.701220 -0.639346
v 1.656718 3.701220 0.191654
v 2.981206 3.729285 -0.639346
v 2.981206 3.729285 0.191654
v 1.787848 3.458628 -0.639346
v 1.787848 3.458628 0.191654
v 3.574262 3.321902 -0.639346
v 3.574262 3.321902 0.191654
v 2.151426 3.287279 -0.639346
v 2.151426 3.287279 0.191654
v 3.862749 2.810493 -0.639346
v 3.862749 2.810493 0.191654
v 3.613529 2.034985 -0.639346
v 3.613529 2.034985 0.191654
v 4.149607 1.969413 -0.639346
v 4.149607 1.969413 0.191654
v 3.856120 1.589142 -0.639346
v 3.856120 1.589142 0.191654
v 4.340332 1.721716 -0.639346
v 4.340332 1.721716 0.191654
v 3.895074 1.208645 -0.639346
v 3.895074 1.208645 0.191654
v 4.646495 1.615242 -0.639346
v 4.646495 1.615242 0.191654
v 3.907181 0.928267 -0.639346
v 3.907181 0.928267 0.191654
v 4.747079 1.357483 -0.639346
v 4.747079 1.357483 0.191654
v 4.418811 1.078392 -0.639346
v 4.418811 1.078392 0.191654
v 3.654229 0.646857 0.191654
v 3.654229 0.646857 -0.639346
v 4.184831 0.755878 0.191654
v 4.184831 0.755878 -0.639346
v 3.483436 0.486886 0.191654
v 3.483436 0.486886 -0.639346
v 3.931829 0.482080 0.191654
v 3.931829 0.482080 -0.639346
v 0.320117 5.141572 0.191654
v -1.534721 4.948318 0.191654
v -1.534721 4.948318 -0.639346
v 0.320117 5.141572 -0.639346
v -0.116984 4.549664 0.191654
v -1.848887 4.442920 0.191654
v -1.848887 4.442920 -0.639346
v -0.116984 4.549664 -0.639346
v -0.786295 4.030607 0.191654
v -2.167607 3.910203 0.191654
v -2.167607 3.910203 -0.639346
v -0.786295 4.030607 -0.639346
v -1.250715 3.752866 0.191654
v -2.254116 3.682546 0.191654
v -2.254116 3.682546 -0.639346
v -1.250715 3.752866 -0.639346
v -0.913783 3.566187 0.191654
v -2.153947 3.454889 0.191654
v -2.153947 3.454889 -0.639346
v -0.913783 3.566187 -0.639346
v -0.690679 3.338530 0.191654
v -1.912631 3.268211 0.191654
v -1.912631 3.268211 -0.639346
v -0.690679 3.338530 -0.639346
v -0.344641 2.578157 0.191654
v -1.293405 2.494178 0.191654
v -1.293405 2.494178 -0.639346
v -0.344641 2.578157 -0.639346
v -0.162515 1.540042 0.191654
v -0.610435 1.446957 0.191654
v -0.610435 1.446957 -0.639346
v -0.162516 1.540042 -0.639346
v -0.113051 1.302027 0.191654
v -0.560971 1.208941 0.191654
v -0.560971 1.208941 -0.639346
v -0.113052 1.302027 -0.639346
v 0.026201 0.949505 0.191654
v -0.649375 0.824548 0.191654
v -0.649375 0.824548 -0.639346
v 0.026201 0.949505 -0.639346
v 0.240506 0.687877 0.191654
v -0.913149 0.594790 0.191654
v -0.913149 0.594790 -0.639346
v 0.240505 0.687877 -0.639346
v 0.259857 0.407065 0.191654
v -0.078787 0.291213 0.191654
v -0.078787 0.291213 -0.639346
v 0.259857 0.407065 -0.639346
v -1.145359 0.453643 0.191654
v -1.145359 0.453643 -0.639346
v -0.429378 0.373169 0.191654
v -0.429378 0.373169 -0.639346
v -1.436760 0.399005 0.191654
v -1.436760 0.399005 -0.639346
v -1.207964 0.222916 0.191654
v -1.207964 0.222916 -0.639346
v -4.825831 10.396941 -0.704415
v -4.896001 10.648253 -0.704415
v -4.825831 10.396941 -0.965339
v -4.896001 10.648253 -0.965339
v 5.861265 12.953123 -0.704415
v 5.791096 13.204435 -0.704415
v 5.861265 12.953123 -0.965340
v 5.791096 13.204435 -0.965340
v -5.217994 10.374881 -0.965339
v -5.217994 10.374881 -0.704415
v -5.217995 10.470913 -0.704415
v -5.217995 10.470913 -0.965339
v -6.593421 10.159942 -0.965339
v -6.593421 10.159942 -0.704415
v -6.593421 10.173622 -0.704415
v -6.593421 10.173622 -0.965339
v -5.430226 10.635332 -0.965339
v -5.858136 10.470912 -0.965339
v -5.858136 10.470912 -0.704415
v -5.430226 10.635332 -0.704415
v -5.366988 10.169357 -0.704415
v -5.810707 10.163033 -0.704415
v -5.810708 10.163033 -0.965339
v -5.366988 10.169357 -0.965339
v -4.129967 5.656696 -1.340739
v -4.129967 8.896702 -1.340739
v -0.889961 5.656696 -1.340739
v -0.889961 8.896702 -1.340739
v -4.484967 5.301696 -0.809217
v -4.484967 9.251702 -0.809217
v -4.484968 7.276699 -1.457214
v -2.509964 5.301695 -1.457214
v -2.509964 9.251702 -1.457214
v -0.534960 7.276699 -1.457215
v -0.534960 5.301695 -0.809217
v -0.534960 9.251702 -0.809217
v -5.229969 7.276699 -0.809217
v -2.509964 7.276699 -1.701649
v 0.210041 7.276699 -0.809217
v -2.509964 4.556694 -0.809217
v -2.509964 9.996704 -0.809217
vn -0.9926 -0.1217 -0.0000
vn -0.0000 -0.0000 -1.0000
vn -0.0000 1.0000 -0.0000
vn -0.0000 -0.0000 1.0000
vn 0.3320 -0.9433 -0.0000
vn 0.1910 0.9816 -0.0000
vn 0.3495 0.9370 -0.0000
vn -0.9102 -0.4141 -0.0000
vn -0.4722 -0.8815 -0.0000
vn 0.6312 0.7756 -0.0000
vn 0.2561 0.9666 -0.0000
vn -0.2561 -0.9666 -0.0000
vn -0.9446 0.3282 -0.0000
vn 0.0423 -0.9991 -0.0000
vn -0.1698 -0.9855 -0.0000
vn 0.4150 0.9098 -0.0000
vn 0.4647 0.8855 -0.0000
vn 0.0976 0.1414 0.9851
vn 0.1782 0.0416 -0.9831
vn -0.8271 -0.5621 -0.0000
vn -0.2594 -0.9658 -0.0000
vn -0.0816 0.1332 -0.9877
vn 0.9711 -0.2387 -0.0000
vn 0.0962 0.9954 -0.0000
vn -0.0087 -0.0005 -1.0000
vn -0.6472 -0.7623 -0.0000
vn -0.9942 -0.1076 -0.0000
vn -0.0002 -1.0000 -0.0000
vn -0.0040 -0.0326 0.9995
vn -0.0968 0.1395 -0.9855
vn -0.0968 0.1395 0.9855
vn 0.0976 0.1414 -0.9851
vn -0.0024 0.1725 -0.9850
vn 0.1782 0.0416 0.9831
vn -0.0816 0.1332 0.9877
vn -0.0024 0.1725 0.9850
vn -0.6354 0.7722 -0.0000
vn -0.1564 0.9877 -0.0000
vn 0.9985 0.0550 -0.0000
vn 0.7420 0.6704 -0.0000
vn -0.0166 -0.0274 0.9995
vn 0.0060 -0.0073 -1.0000
vn 0.0060 -0.0073 1.0000
vn 0.0004 0.0110 -0.9999
vn 0.0065 0.0085 -0.9999
vn -0.0087 -0.0005 1.0000
vn -0.0797 0.9968 -0.0000
vn 0.8273 -0.5617 -0.0000
vn -0.0610 0.9981 -0.0000
vn -0.1101 0.9939 -0.0000
vn 0.9917 -0.1289 -0.0000
vn 0.1126 0.9936 -0.0000
vn 0.2804 -0.9599 -0.0000
vn -0.2804 0.9599 -0.0000
vn 0.3054 -0.9522 -0.0000
vn 0.9987 -0.0501 -0.0000
vn 0.3968 -0.9179 -0.0000
vn 0.8348 0.5505 -0.0000
vn -0.9585 -0.2850 -0.0000
vn -0.2113 -0.9774 -0.0000
vn 0.8629 0.5054 -0.0000
vn 0.9514 0.3081 -0.0000
vn -0.5943 -0.8042 -0.0000
vn -0.0820 0.9966 -0.0000
vn -0.9685 -0.2490 -0.0000
vn 0.9028 0.4301 -0.0000
vn 0.9406 -0.3395 -0.0000
vn 0.9971 -0.0757 -0.0000
vn -0.9241 -0.3822 -0.0000
vn 0.5359 -0.8443 -0.0000
vn 0.2225 -0.9749 -0.0000
vn 0.5977 0.8017 -0.0000
vn -0.7857 -0.6187 -0.0000
vn -0.9258 -0.3781 -0.0000
vn 0.9917 -0.1287 -0.0000
vn 0.9448 0.3277 -0.0000
vn 0.7853 0.6191 -0.0000
vn -0.4142 -0.9102 -0.0000
vn -0.9817 0.1906 -0.0000
vn 0.5697 0.8219 -0.0000
vn 0.0548 0.9985 -0.0000
vn -0.9626 -0.2711 -0.0000
vn -0.8346 0.5509 -0.0000
vn -0.4615 0.8871 -0.0000
vn -0.0886 -0.9961 -0.0000
vn -0.8818 -0.4716 -0.0000
vn -0.5626 0.8268 -0.0000
vn 0.7596 0.6504 -0.0000
vn 0.9529 -0.3031 -0.0000
vn 0.5746 0.8184 -0.0000
vn -0.9207 0.3903 -0.0000
vn -0.8771 0.4804 -0.0000
vn -0.9956 -0.0933 -0.0000
vn 0.4232 -0.9060 -0.0000
vn 0.9084 0.4180 -0.0000
vn -0.7499 -0.6615 -0.0000
vn -0.7559 -0.6546 -0.0000
vn 0.9688 0.2480 -0.0000
vn 0.5662 0.8243 -0.0000
vn 0.2897 0.9571 -0.0000
vn -0.8797 -0.4755 -0.0000
vn -0.6505 -0.7595 -0.0000
vn -0.4263 -0.9046 -0.0000
vn 0.8710 0.4913 -0.0000
vn -0.9948 -0.1018 -0.0000
vn 0.9465 0.3228 -0.0000
vn -0.8784 -0.4779 -0.0000
vn 0.7923 0.6101 -0.0000
vn 0.3285 0.9445 -0.0000
vn -0.9991 -0.0431 -0.0000
vn 0.6477 -0.7619 -0.0000
vn 0.9316 0.3635 -0.0000
vn 0.8094 -0.5872 -0.0000
vn -0.7437 0.6685 -0.0000
vn -0.0107 -0.9999 -0.0000
vn -0.6836 0.7299 -0.0000
vn 0.7345 -0.6787 -0.0000
vn 0.8044 -0.5940 -0.0000
vn 0.8952 0.4457 -0.0000
vn -0.8493 0.5279 -0.0000
vn 0.6128 -0.7902 -0.0000
vn -0.8581 0.5134 -0.0000
vn 0.4846 0.8747 -0.0000
vn 0.5133 -0.8582 -0.0000
vn -0.9348 0.3552 -0.0000
vn -0.9153 -0.4027 -0.0000
vn 0.9102 0.4142 -0.0000
vn 0.7142 0.6999 -0.0000
vn -0.6119 -0.7910 -0.0000
vn -0.8376 -0.5463 -0.0000
vn -0.7809 -0.6247 -0.0000
vn 0.9850 0.1728 -0.0000
vn 0.9301 0.3674 -0.0000
vn 0.9791 0.2035 -0.0000
vn -0.9791 -0.2035 -0.0000
vn -0.9746 0.2241 -0.0000
vn 0.7736 0.6337 -0.0000
vn -0.6568 0.7541 -0.0000
vn 0.3237 -0.9462 -0.0000
vn 0.9976 0.0688 -0.0000
vn -0.2276 -0.9737 -0.0000
vn -0.5194 0.8545 -0.0000
vn -0.6099 -0.7925 -0.0000
vn -0.1843 0.9829 -0.0000
vn 0.1895 -0.9819 -0.0000
vn -0.4824 0.8759 -0.0000
vn 0.9632 0.2689 -0.0000
vn 0.2326 -0.9726 -0.0000
vn -0.2326 0.9726 -0.0000
vn -0.3748 0.9271 -0.0000
vn 0.0562 -0.9984 -0.0000
vn -1.0000 -0.0000 -0.0000
vn 0.0039 -1.0000 -0.0000
vn 0.8096 -0.5869 -0.0000
vn 0.0143 -0.9999 -0.0000
vn 0.6124 0.7905 -0.0000
vn -0.3587 0.9335 -0.0000
vn -0.6764 0.2296 -0.6999
vn -0.6764 -0.2296 -0.6999
vn -0.1100 -0.1100 -0.9878
vn -0.1100 0.1100 -0.9878
vn 0.1100 0.1100 -0.9878
vn 0.1100 -0.1100 -0.9878
vn 0.6764 -0.2296 -0.6999
vn 0.6764 0.2296 -0.6999
vn -0.2296 -0.6764 -0.6999
vn 0.2296 -0.6764 -0.6999
vn 0.2296 0.6764 -0.6999
vn -0.2296 0.6764 -0.6999
vt 0.033775 0.125421
vt 0.036763 0.125422
vt 0.036762 0.135405
vt 0.033774 0.135404
vt 0.085545 0.020311
vt 0.081657 0.013258
vt 0.096297 0.001307
vt 0.106069 0.002302
vt 0.001316 0.035588
vt 0.004046 0.044371
vt 0.004038 0.044378
vt 0.001309 0.035596
vt 0.002315 0.092522
vt 0.001320 0.082756
vt 0.013262 0.068124
vt 0.020311 0.072009
vt 0.023643 0.125419
vt 0.023645 0.115436
vt 0.033777 0.115438
vt 0.076910 0.008728
vt 0.084118 0.001610
vt 0.015477 0.125421
vt 0.015477 0.135403
vt 0.011294 0.135403
vt 0.011294 0.125421
vt 0.019997 0.125421
vt 0.019997 0.135403
vt 0.036765 0.115439
vt 0.039200 0.115439
vt 0.039198 0.125422
vt 0.001621 0.070584
vt 0.008734 0.063380
vt 0.007921 0.056016
vt 0.003745 0.059518
vt 0.004473 0.053608
vt 0.008650 0.050106
vt 0.041951 0.115440
vt 0.041949 0.125422
vt 0.069541 0.007914
vt 0.073046 0.003735
vt 0.005650 0.125421
vt 0.005650 0.135404
vt 0.002235 0.135404
vt 0.002235 0.125421
vt 0.063628 0.008644
vt 0.067132 0.004465
vt 0.009083 0.135403
vt 0.009083 0.125421
vt 0.044161 0.115440
vt 0.044160 0.125423
vt 0.054151 0.125424
vt 0.049660 0.125424
vt 0.049662 0.115441
vt 0.054153 0.115442
vt 0.046634 0.125423
vt 0.046636 0.115440
vt 0.010046 0.043589
vt 0.013399 0.036161
vt 0.057889 0.004039
vt 0.057107 0.010042
vt 0.049675 0.013398
vt 0.049101 0.001307
vt 0.005648 0.125418
vt 0.009081 0.125418
vt 0.044158 0.135406
vt 0.046633 0.135406
vt 0.049658 0.135406
vt 0.054150 0.135407
vt 0.041947 0.135405
vt 0.002233 0.125418
vt 0.011292 0.125418
vt 0.039197 0.135405
vt 0.004466 0.053612
vt 0.019994 0.125418
vt 0.023636 0.125419
vt 0.023642 0.135403
vt 0.019994 0.115442
vt 0.023636 0.115442
vt 0.142259 0.103926
vt 0.153394 0.103173
vt 0.152959 0.112127
vt 0.144305 0.121343
vt 0.049540 0.110539
vt 0.041099 0.108882
vt 0.040028 0.097894
vt 0.047167 0.092167
vt 0.076540 0.110582
vt 0.065365 0.109824
vt 0.067424 0.092326
vt 0.076107 0.101596
vt 0.118078 0.104889
vt 0.126488 0.103223
vt 0.124156 0.121514
vt 0.117035 0.115835
vt 0.132032 0.103173
vt 0.133225 0.123957
vt 0.054163 0.115436
vt 0.054161 0.125419
vt 0.015474 0.125417
vt 0.002306 0.092528
vt 0.001309 0.082763
vt 0.003735 0.059522
vt 0.001609 0.070590
vt 0.156576 0.130655
vt 0.136130 0.138277
vt 0.079790 0.082977
vt 0.087487 0.097022
vt 0.011903 0.063190
vt 0.011903 0.053206
vt 0.014041 0.054554
vt 0.014041 0.061842
vt 0.122749 0.021611
vt 0.122749 0.031595
vt 0.120311 0.027260
vt 0.120311 0.025946
vt 0.036020 0.104657
vt 0.031316 0.100107
vt 0.026913 0.092236
vt 0.110286 0.108770
vt 0.113023 0.109113
vt 0.055099 0.110582
vt 0.056284 0.089697
vt 0.126380 0.021611
vt 0.126380 0.031595
vt 0.010821 0.063190
vt 0.010821 0.053206
vt 0.033275 0.105007
vt 0.097606 0.078382
vt 0.110582 0.103993
vt 0.110796 0.027695
vt 0.110796 0.025511
vt 0.015856 0.057541
vt 0.015856 0.058855
vt 0.025777 0.057106
vt 0.025777 0.059290
vt 0.115375 0.133726
vt 0.138365 0.155718
vt 0.099342 0.140316
vt 0.038286 0.079904
vt 0.104003 0.121526
vt 0.059196 0.075264
vt 0.164286 0.116717
vt 0.108353 0.113665
vt 0.037686 0.057106
vt 0.037686 0.059290
vt 0.054163 0.055792
vt 0.054163 0.057975
vt 0.099407 0.027695
vt 0.099407 0.025511
vt 0.083190 0.026380
vt 0.083190 0.024196
vt 0.174274 0.135332
vt 0.001580 0.096038
vt 0.022117 0.073393
vt 0.078773 0.117892
vt 0.061406 0.058163
vt 0.187313 0.109885
vt 0.661622 0.306427
vt 0.673208 0.278934
vt 0.678297 0.281079
vt 0.666710 0.308572
vt 0.321026 0.373359
vt 0.342904 0.371085
vt 0.343383 0.385273
vt 0.327433 0.384183
vt 0.354621 0.225123
vt 0.338794 0.223160
vt 0.343067 0.215072
vt 0.358894 0.217036
vt 0.346289 0.234506
vt 0.367283 0.240891
vt 0.366115 0.248749
vt 0.338069 0.238670
vt 0.495412 0.204007
vt 0.504731 0.207934
vt 0.493145 0.235427
vt 0.483826 0.231500
vt 0.668060 0.276765
vt 0.656474 0.304257
vt 0.658883 0.272897
vt 0.647297 0.300390
vt 0.485511 0.199834
vt 0.473924 0.227327
vt 0.370448 0.227087
vt 0.313731 0.367692
vt 0.343254 0.363129
vt 0.652955 0.270399
vt 0.641369 0.297892
vt 0.634767 0.295110
vt 0.646353 0.267617
vt 0.510659 0.210432
vt 0.499073 0.237925
vt 0.346044 0.394047
vt 0.330095 0.392958
vt 0.361896 0.205649
vt 0.350369 0.202405
vt 0.360337 0.189393
vt 0.364938 0.189481
vt 0.342836 0.403744
vt 0.330874 0.404736
vt 0.520134 0.214425
vt 0.508547 0.241918
vt 0.533737 0.220158
vt 0.536719 0.221415
vt 0.525133 0.248907
vt 0.522151 0.247651
vt 0.530755 0.218901
vt 0.519169 0.246394
vt 0.566713 0.234055
vt 0.555127 0.261548
vt 0.335326 0.422019
vt 0.330781 0.421227
vt 0.415728 0.219034
vt 0.411352 0.209422
vt 0.421906 0.213922
vt 0.417824 0.226297
vt 0.386404 0.401842
vt 0.380263 0.410465
vt 0.606576 0.283229
vt 0.618162 0.255736
vt 0.373422 0.208893
vt 0.369539 0.189569
vt 0.391508 0.408051
vt 0.389854 0.395094
vt 0.396029 0.391194
vt 0.400162 0.407534
vt 0.601677 0.281165
vt 0.613263 0.253672
vt 0.574148 0.237188
vt 0.562562 0.264681
vt 0.423131 0.231290
vt 0.430283 0.216073
vt 0.442330 0.220352
vt 0.439682 0.234831
vt 0.579752 0.239550
vt 0.568166 0.267043
vt 0.596956 0.279175
vt 0.608542 0.251682
vt 0.597574 0.247060
vt 0.585988 0.274553
vt 0.576450 0.270534
vt 0.588036 0.243041
vt 0.412992 0.390869
vt 0.412834 0.405623
vt 0.307416 0.361331
vt 0.271466 0.367405
vt 0.249562 0.363226
vt 0.288718 0.350679
vt 0.465111 0.223613
vt 0.476697 0.196120
vt 0.284207 0.372256
vt 0.364729 0.256479
vt 0.330676 0.243700
vt 0.239045 0.367093
vt 0.276228 0.343753
vt 0.346304 0.270308
vt 0.310341 0.250580
vt 0.372287 0.249725
vt 0.355068 0.273065
vt 0.450696 0.217538
vt 0.462283 0.190045
vt 0.378885 0.255879
vt 0.351859 0.280669
vt 0.778548 0.323327
vt 0.766961 0.350820
vt 0.761008 0.348311
vt 0.772594 0.320818
vt 0.684865 0.283847
vt 0.673279 0.311340
vt 0.343366 0.355257
vt 0.327875 0.338131
vt 0.337025 0.337091
vt 0.349514 0.363346
vt 0.388730 0.255578
vt 0.356313 0.282055
vt 0.755659 0.346057
vt 0.767245 0.318564
vt 0.335319 0.328995
vt 0.357182 0.358550
vt 0.690712 0.286311
vt 0.679125 0.313803
vt 0.764222 0.317290
vt 0.752636 0.344783
vt 0.747995 0.342827
vt 0.759581 0.315334
vt 0.339967 0.328482
vt 0.366813 0.360726
vt 0.697094 0.289001
vt 0.685508 0.316493
vt 0.378574 0.359859
vt 0.346786 0.326235
vt 0.349400 0.323529
vt 0.383656 0.358182
vt 0.704718 0.292213
vt 0.693132 0.319706
vt 0.400084 0.258661
vt 0.362565 0.285551
vt 0.364611 0.288698
vt 0.404742 0.261268
vt 0.412257 0.268803
vt 0.375756 0.287909
vt 0.708177 0.293671
vt 0.696591 0.321164
vt 0.745563 0.341802
vt 0.757149 0.314309
vt 0.392489 0.352203
vt 0.360218 0.326433
vt 0.366712 0.326211
vt 0.394273 0.344522
vt 0.738322 0.338750
vt 0.749908 0.311258
vt 0.715073 0.296577
vt 0.703487 0.324070
vt 0.367837 0.322322
vt 0.387929 0.334197
vt 0.720170 0.298725
vt 0.708584 0.326218
vt 0.412544 0.276663
vt 0.382074 0.289360
vt 0.734122 0.336980
vt 0.745708 0.309487
vt 0.716417 0.329519
vt 0.728004 0.302026
vt 0.743091 0.308384
vt 0.731505 0.335877
vt 0.404370 0.285570
vt 0.382437 0.293382
vt 0.781747 0.357051
vt 0.793333 0.329558
vt 0.840099 0.349266
vt 0.828513 0.376759
vt 0.328773 0.284911
vt 0.296793 0.254989
vt 0.443452 0.214485
vt 0.455039 0.186992
vt 0.419369 0.171960
vt 0.407783 0.199453
vt 0.394374 0.193802
vt 0.405960 0.166309
vt 0.193155 0.397731
vt 0.217715 0.365657
vt 0.261610 0.258498
vt 0.243651 0.222421
vt 0.188702 0.350256
vt 0.173586 0.390852
vt 0.168977 0.382390
vt 0.182196 0.345679
vt 0.208110 0.269870
vt 0.212311 0.231992
vt 0.875542 0.364203
vt 0.863956 0.391695
vt 0.869406 0.393992
vt 0.880992 0.366499
vt 0.887592 0.369281
vt 0.876006 0.396774
vt 0.199750 0.268951
vt 0.205071 0.235238
vt 0.388145 0.191177
vt 0.399732 0.163685
vt 0.205220 0.189364
vt 0.199099 0.196775
vt 0.371261 0.184062
vt 0.382847 0.156569
vt 0.225692 0.186344
vt 0.242276 0.333584
vt 0.191798 0.312180
vt 0.183396 0.311488
vt 0.264813 0.225068
vt 0.313411 0.320413
vt 0.274378 0.230853
vt 0.296623 0.230922
vt 0.310023 0.228592
vt 0.318912 0.405728
vt 0.326237 0.420436
vt 0.374722 0.218999
vt 0.314145 0.391868
vt 0.311483 0.383094
vt 0.299147 0.375634
vt 0.325295 0.228122
vt 0.157968 0.094175
vt 0.169554 0.066682
vt 0.194655 0.077260
vt 0.183068 0.104753
vt 0.142119 0.087496
vt 0.153705 0.060003
vt 0.143115 0.386043
vt 0.159226 0.354249
vt 0.184203 0.222482
vt 0.174466 0.188284
vt 0.158236 0.184823
vt 0.151312 0.202021
vt 0.143268 0.198828
vt 0.153683 0.174008
vt 0.126483 0.386350
vt 0.122953 0.368104
vt 0.360507 0.179530
vt 0.372094 0.152037
vt 0.364490 0.148833
vt 0.352904 0.176326
vt 0.340820 0.171233
vt 0.352406 0.143741
vt 0.200263 0.079624
vt 0.188677 0.107117
vt 0.119938 0.396124
vt 0.114427 0.369711
vt 0.194926 0.109750
vt 0.206512 0.082257
vt 0.240507 0.096584
vt 0.228921 0.124076
vt 0.104506 0.406672
vt 0.107595 0.376551
vt 0.137876 0.190832
vt 0.140574 0.160746
vt 0.123628 0.153759
vt 0.097192 0.157712
vt 0.082409 0.151809
vt 0.095555 0.146242
vt 0.086496 0.410313
vt 0.061236 0.401376
vt 0.328942 0.166228
vt 0.340528 0.138735
vt 0.239236 0.128423
vt 0.250822 0.100931
vt 0.259170 0.104449
vt 0.247584 0.131941
vt 0.310110 0.158292
vt 0.321696 0.130799
vt 0.057436 0.412351
vt 0.045561 0.404363
vt 0.032686 0.403373
vt 0.048560 0.415188
vt 0.044075 0.421127
vt 0.023248 0.402294
vt 0.069611 0.150332
vt 0.087403 0.141777
vt 0.304087 0.155753
vt 0.315673 0.128260
vt 0.084139 0.135108
vt 0.060164 0.149596
vt 0.065779 0.139013
vt 0.075549 0.132536
vt 0.299276 0.153726
vt 0.310862 0.126233
vt 0.265311 0.107036
vt 0.253725 0.134529
vt 0.293465 0.151277
vt 0.285869 0.148076
vt 0.297456 0.120583
vt 0.305052 0.123784
vt 0.026754 0.413780
vt 0.016638 0.407319
vt 0.014567 0.395629
vt 0.035132 0.422019
vt 0.054645 0.143418
vt 0.050396 0.154473
vt 0.044815 0.157818
vt 0.045135 0.148310
vt 0.278111 0.144806
vt 0.289697 0.117313
vt 0.272385 0.110018
vt 0.260799 0.137511
vt 0.265016 0.139288
vt 0.276602 0.111795
vt 0.282766 0.114393
vt 0.271180 0.141885
vt 0.008213 0.400690
vt 0.009713 0.391273
vt 0.149151 0.058084
vt 0.137564 0.085576
vt 0.123280 0.079557
vt 0.134866 0.052064
vt 0.175243 0.346816
vt 0.174303 0.306845
vt 0.189963 0.271771
vt 0.198477 0.232804
vt 0.158295 0.297826
vt 0.156701 0.334797
vt 0.141295 0.318236
vt 0.141384 0.288581
vt 0.899470 0.374286
vt 0.887883 0.401779
vt 0.172572 0.277562
vt 0.178035 0.241052
vt 0.159801 0.254343
vt 0.154254 0.283402
vt 0.146479 0.284845
vt 0.149930 0.263707
vt 0.108658 0.073395
vt 0.120245 0.045902
vt 0.911928 0.379537
vt 0.900342 0.407030
vt 0.111428 0.042186
vt 0.099842 0.069679
vt 0.093665 0.067076
vt 0.105251 0.039583
vt 0.917052 0.381696
vt 0.905466 0.409189
vt 0.133369 0.307137
vt 0.134008 0.285677
vt 0.126075 0.286703
vt 0.126103 0.313343
vt 0.117803 0.316957
vt 0.119095 0.290896
vt 0.922223 0.383875
vt 0.910637 0.411368
vt 0.138905 0.282333
vt 0.143993 0.256249
vt 0.099399 0.037117
vt 0.087813 0.064610
vt 0.070499 0.057314
vt 0.082085 0.029821
vt 0.132865 0.276901
vt 0.136551 0.251133
vt 0.927487 0.386094
vt 0.915901 0.413587
vt 0.934865 0.421578
vt 0.946451 0.394086
vt 0.971226 0.404526
vt 0.959640 0.432019
vt 0.091272 0.320625
vt 0.091290 0.300250
vt 0.107413 0.262457
vt 0.111266 0.242500
vt 0.054135 0.309648
vt 0.055918 0.319521
vt 0.047790 0.319430
vt 0.046006 0.309557
vt 0.072811 0.246195
vt 0.076433 0.236865
vt 0.047634 0.047678
vt 0.059220 0.020185
vt 0.053965 0.017970
vt 0.042379 0.045463
vt 0.034427 0.042112
vt 0.046013 0.014619
vt 0.064832 0.244740
vt 0.068455 0.235409
vt 0.976481 0.406741
vt 0.964895 0.434234
vt 0.033381 0.305867
vt 0.035553 0.320685
vt 0.026140 0.323952
vt 0.026464 0.299220
vt 0.984985 0.410324
vt 0.973398 0.437817
vt 0.051767 0.245955
vt 0.056709 0.231856
vt 0.016666 0.323024
vt 0.013793 0.315343
vt 0.043731 0.251150
vt 0.048112 0.226868
vt 0.027986 0.039397
vt 0.039572 0.011904
vt 0.991185 0.412938
vt 0.979599 0.440430
vt 0.021832 0.036804
vt 0.016531 0.034570
vt 0.028117 0.007077
vt 0.033418 0.009311
vt 0.034384 0.232953
vt 0.038657 0.225977
vt 0.017588 0.308351
vt 0.022425 0.293660
vt 0.014875 0.291244
vt 0.021463 0.287265
vt 0.011388 0.032403
vt 0.022974 0.004910
vt 0.038719 0.255828
vt 0.036773 0.240521
vt 0.995628 0.414810
vt 0.984042 0.442303
vt 0.036562 0.261908
vt 0.008111 0.293382
vt 0.002415 0.288233
vt 0.030866 0.256759
vt 0.999809 0.416572
vt 0.988222 0.444065
vt 0.000191 0.027684
vt 0.011777 0.000191
vt 0.747725 0.662502
vt 0.747054 0.655514
vt 0.756899 0.654570
vt 0.757570 0.661557
vt 0.787083 0.603899
vt 0.780533 0.606424
vt 0.684613 0.326780
vt 0.691163 0.324255
vt 0.445782 0.684429
vt 0.452770 0.683759
vt 0.453440 0.690746
vt 0.446452 0.691417
vt 0.755859 0.998345
vt 0.748949 0.997112
vt 0.789930 0.704329
vt 0.796840 0.705562
vt 0.151497 0.712673
vt 0.152168 0.719661
vt 0.777036 0.659689
vt 0.776366 0.652701
vt 0.797606 0.650663
vt 0.798277 0.657650
vt 0.141649 0.720671
vt 0.140978 0.713683
vt 0.788682 0.614344
vt 0.786110 0.614591
vt 0.793851 0.695250
vt 0.796423 0.695003
vt 0.798643 0.657615
vt 0.797973 0.650628
vt 0.122295 0.715476
vt 0.122966 0.722464
vt 0.102004 0.724476
vt 0.101333 0.717488
vt 0.787755 0.631735
vt 0.795878 0.629673
vt 0.800573 0.678585
vt 0.792205 0.678106
vt 0.788902 0.689989
vt 0.801544 0.690485
vt 0.794569 0.617807
vt 0.782252 0.620697
vt 0.134850 0.721323
vt 0.134180 0.714336
vt 0.764089 0.653880
vt 0.764760 0.660867
vt 0.470850 0.480929
vt 0.415207 0.491979
vt 0.416989 0.472411
vt 0.458996 0.457188
vt 0.513119 0.443095
vt 0.496408 0.432760
vt 0.315654 0.106063
vt 0.270709 0.106069
vt 0.281843 0.053902
vt 0.334004 0.065035
vt 0.229682 0.087713
vt 0.229682 0.042769
vt 0.248032 0.001741
vt 0.292978 0.001736
vt 0.334004 0.020091
vt 0.496408 0.343993
vt 0.458996 0.319566
vt 0.470849 0.295824
vt 0.513119 0.333658
vt 0.416989 0.304343
vt 0.415207 0.284774
vt 0.501552 0.388377
vt 0.528088 0.388377
vt 0.378422 0.326903
vt 0.362476 0.305693
vt 0.378422 0.449851
vt 0.362476 0.471061
s 0
usemtl UniV_Grid_2K
f 29/1/1 30/2/1 4/3/1 3/4/1
f 3/5/2 4/6/2 8/7/2 7/8/2
f 24/9/3 26/10/3 54/11/3 53/12/3
f 5/13/4 6/14/4 2/15/4 1/16/4
f 29/1/5 31/17/5 5/18/5 1/19/5
f 8/7/2 4/6/2 10/20/2 11/21/2
f 34/22/6 11/23/6 15/24/6 36/25/6
f 32/26/7 8/27/7 11/23/7 34/22/7
f 30/2/8 2/28/8 9/29/8 33/30/8
f 2/15/4 6/14/4 12/31/4 9/32/4
f 13/33/4 16/34/4 20/35/4 17/36/4
f 33/30/9 9/29/9 13/37/9 35/38/9
f 9/32/4 12/31/4 16/34/4 13/33/4
f 11/21/2 10/20/2 14/39/2 15/40/2
f 42/41/10 25/42/10 23/43/10 40/44/10
f 15/40/2 14/39/2 18/45/2 19/46/2
f 36/25/11 15/24/11 19/47/11 38/48/11
f 35/38/12 13/37/12 17/49/12 37/50/12
f 40/51/13 39/52/13 21/53/13 24/54/13
f 41/55/14 27/56/14 21/53/14 39/52/14
f 27/57/4 26/10/4 24/9/4 21/58/4
f 25/59/2 28/60/2 22/61/2 23/62/2
f 19/46/2 18/45/2 28/60/2 25/59/2
f 17/36/4 20/35/4 26/10/4 27/57/4
f 37/50/15 17/49/15 27/56/15 41/55/15
f 38/48/16 19/47/16 25/42/16 42/41/16
f 38/48/3 42/41/3 55/63/3 50/64/3
f 18/65/15 37/50/15 41/55/15 28/66/15
f 28/66/14 41/55/14 39/52/14 22/67/14
f 23/68/13 22/67/13 39/52/13 40/51/13
f 14/69/12 35/38/12 37/50/12 18/65/12
f 42/41/3 40/44/3 52/70/3 55/63/3
f 36/25/3 38/48/3 50/64/3 48/71/3
f 10/72/9 33/30/9 35/38/9 14/69/9
f 4/3/8 30/2/8 33/30/8 10/72/8
f 26/10/3 20/35/3 51/73/3 54/11/3
f 31/17/3 32/26/3 43/74/3 56/75/3
f 3/4/5 7/76/5 31/17/5 29/1/5
f 7/76/17 8/27/17 32/26/17 31/17/17
f 1/19/1 2/28/1 30/2/1 29/1/1
f 56/75/17 43/74/17 44/77/17 45/78/17
f 47/79/4 44/80/4 58/81/4 60/82/4
f 50/83/2 55/84/2 68/85/2 63/86/2
f 43/87/2 46/88/2 59/89/2 57/90/2
f 54/91/4 51/92/4 64/93/4 67/94/4
f 49/95/4 47/79/4 60/82/4 62/96/4
f 40/51/3 24/54/3 53/97/3 52/98/3
f 32/26/3 34/22/3 46/99/3 43/74/3
f 6/14/3 5/13/3 45/100/3 44/101/3
f 34/22/3 36/25/3 48/71/3 46/99/3
f 5/18/3 31/17/3 56/75/3 45/78/3
f 20/35/3 16/34/3 49/102/3 51/73/3
f 16/34/3 12/31/3 47/103/3 49/102/3
f 12/31/3 6/14/3 44/101/3 47/103/3
f 62/96/18 60/82/18 72/104/18 74/105/18
f 57/90/19 59/89/19 71/106/19 69/107/19
f 65/108/20 66/109/20 78/110/20 77/111/20
f 58/112/21 57/113/21 69/114/21 70/115/21
f 68/85/22 65/116/22 77/117/22 80/118/22
f 53/119/4 54/91/4 67/94/4 66/120/4
f 46/88/2 48/121/2 61/122/2 59/89/2
f 44/123/23 43/124/23 57/113/23 58/112/23
f 51/92/4 49/95/4 62/96/4 64/93/4
f 48/121/2 50/83/2 63/86/2 61/122/2
f 52/125/24 53/126/24 66/109/24 65/108/24
f 55/84/2 52/127/2 65/116/2 68/85/2
f 69/107/25 71/106/25 83/128/25 81/129/25
f 70/115/26 69/114/26 81/130/26 82/131/26
f 79/132/27 80/133/27 77/111/27 78/110/27
f 80/133/28 79/132/28 89/134/28 90/135/28
f 76/136/29 74/105/29 86/137/29 88/138/29
f 63/86/30 68/85/30 80/118/30 75/139/30
f 67/94/31 64/93/31 76/136/31 79/140/31
f 59/89/32 61/122/32 73/141/32 71/106/32
f 61/122/33 63/86/33 75/139/33 73/141/33
f 60/82/34 58/81/34 70/142/34 72/104/34
f 66/120/35 67/94/35 79/140/35 78/143/35
f 64/93/36 62/96/36 74/105/36 76/136/36
f 88/144/37 87/145/37 90/135/37 89/134/37
f 86/146/38 85/147/38 87/145/38 88/144/38
f 82/131/39 81/130/39 83/148/39 84/149/39
f 84/149/40 83/148/40 85/150/40 86/151/40
f 74/105/41 72/104/41 84/152/41 86/137/41
f 75/139/42 80/118/42 90/153/42 87/154/42
f 79/140/43 76/136/43 88/138/43 89/155/43
f 71/106/44 73/141/44 85/156/44 83/128/44
f 73/141/45 75/139/45 87/154/45 85/156/45
f 72/104/46 70/142/46 82/157/46 84/152/46
f 92/158/47 94/159/47 134/160/47 133/161/47
f 192/162/2 100/163/2 98/164/2 189/165/2
f 190/166/4 95/167/4 105/168/4 194/169/4
f 191/170/4 102/171/4 92/172/4 187/173/4
f 99/174/48 97/175/48 95/176/48 101/177/48
f 100/178/49 94/159/49 92/158/49 102/179/49
f 98/180/50 100/178/50 102/179/50 96/181/50
f 93/182/51 99/174/51 101/177/51 91/183/51
f 190/166/4 96/184/4 102/171/4 191/170/4
f 188/185/2 94/186/2 100/163/2 192/162/2
f 103/187/52 106/188/52 110/189/52 107/190/52
f 95/176/53 97/175/53 104/191/53 105/192/53
f 98/180/54 96/181/54 106/188/54 103/187/54
f 189/165/2 98/164/2 103/193/2 193/194/2
f 196/195/4 109/196/4 113/197/4 198/198/4
f 193/194/2 103/193/2 107/199/2 195/200/2
f 194/169/4 105/168/4 109/196/4 196/195/4
f 105/192/55 104/191/55 108/201/55 109/202/55
f 197/203/56 111/204/56 114/205/56 198/206/56
f 109/202/57 108/201/57 112/207/57 113/208/57
f 114/205/58 111/204/58 117/209/58 118/210/58
f 195/200/2 107/199/2 111/211/2 197/212/2
f 116/213/4 118/214/4 122/215/4 120/216/4
f 111/211/2 107/199/2 115/217/2 117/218/2
f 107/190/59 110/189/59 116/219/59 115/220/59
f 110/221/4 114/222/4 118/214/4 116/213/4
f 121/223/2 119/224/2 123/225/2 125/226/2
f 115/220/60 116/219/60 120/227/60 119/228/60
f 117/218/2 115/217/2 119/224/2 121/223/2
f 118/210/61 117/209/61 121/229/61 122/230/61
f 124/231/4 126/232/4 130/233/4 128/234/4
f 122/230/62 121/229/62 125/235/62 126/236/62
f 120/216/4 122/215/4 126/232/4 124/231/4
f 119/228/63 120/227/63 124/237/63 123/238/63
f 127/239/64 128/240/64 130/241/64 129/242/64
f 123/238/65 124/237/65 128/240/65 127/239/65
f 125/226/2 123/225/2 127/243/2 129/244/2
f 126/236/66 125/235/66 129/242/66 130/241/66
f 200/245/2 131/246/2 135/247/2 202/248/2
f 93/182/67 91/183/67 132/249/67 131/250/67
f 188/185/2 93/251/2 131/246/2 200/245/2
f 187/173/4 92/172/4 133/252/4 199/253/4
f 202/248/2 135/247/2 171/254/2 204/255/2
f 199/253/4 133/252/4 137/256/4 201/257/4
f 137/256/4 133/252/4 139/258/4 141/259/4
f 131/250/68 132/249/68 136/260/68 135/261/68
f 141/259/4 139/258/4 143/262/4 145/263/4
f 138/264/69 137/265/69 141/266/69 142/267/69
f 133/161/70 134/160/70 140/268/70 139/269/70
f 134/270/2 138/271/2 142/272/2 140/273/2
f 145/263/4 143/262/4 147/274/4 149/275/4
f 142/267/71 141/266/71 145/276/71 146/277/71
f 140/273/2 142/272/2 146/278/2 144/279/2
f 139/269/72 140/268/72 144/280/72 143/281/72
f 150/282/73 149/283/73 153/284/73 154/285/73
f 146/277/74 145/276/74 149/283/74 150/282/74
f 144/279/2 146/278/2 150/286/2 148/287/2
f 143/281/75 144/280/75 148/288/75 147/289/75
f 152/290/2 154/291/2 158/292/2 156/293/2
f 148/287/2 150/286/2 154/291/2 152/290/2
f 147/289/76 148/288/76 152/294/76 151/295/76
f 149/275/4 147/274/4 151/296/4 153/297/4
f 157/298/4 155/299/4 159/300/4 161/301/4
f 151/295/77 152/294/77 156/302/77 155/303/77
f 153/297/4 151/296/4 155/299/4 157/298/4
f 154/285/78 153/284/78 157/304/78 158/305/78
f 160/306/2 162/307/2 166/308/2 164/309/2
f 158/305/79 157/304/79 161/310/79 162/311/79
f 156/293/2 158/292/2 162/307/2 160/306/2
f 155/303/80 156/302/80 160/312/80 159/313/80
f 164/309/2 166/308/2 170/314/2 168/315/2
f 159/313/81 160/312/81 164/316/81 163/317/81
f 161/301/4 159/300/4 163/318/4 165/319/4
f 162/311/82 161/310/82 165/320/82 166/321/82
f 167/322/83 168/323/83 170/324/83 169/325/83
f 163/317/84 164/316/84 168/323/84 167/322/84
f 165/319/4 163/318/4 167/326/4 169/327/4
f 166/321/85 165/320/85 169/325/85 170/324/85
f 173/328/86 174/329/86 178/330/86 177/331/86
f 201/257/4 137/256/4 173/332/4 203/333/4
f 137/265/87 138/264/87 174/329/87 173/328/87
f 135/261/88 136/260/88 172/334/88 171/335/88
f 175/336/89 176/337/89 180/338/89 179/339/89
f 171/335/90 172/334/90 176/337/90 175/336/90
f 204/255/2 171/254/2 175/340/2 206/341/2
f 203/333/4 173/332/4 177/342/4 205/343/4
f 208/344/2 179/345/2 183/346/2 210/347/2
f 206/341/2 175/340/2 179/345/2 208/344/2
f 205/343/4 177/342/4 181/348/4 207/349/4
f 177/331/91 178/330/91 182/350/91 181/351/91
f 185/352/92 186/353/92 257/354/92 256/355/92
f 207/349/4 181/348/4 185/356/4 209/357/4
f 181/351/93 182/350/93 186/353/93 185/352/93
f 179/339/94 180/338/94 184/358/94 183/359/94
f 180/360/4 207/349/4 209/357/4 184/361/4
f 183/359/95 184/358/95 212/362/95 211/363/95
f 176/364/4 205/343/4 207/349/4 180/360/4
f 178/365/2 206/341/2 208/344/2 182/366/2
f 182/366/2 208/344/2 210/347/2 186/367/2
f 172/368/4 203/333/4 205/343/4 176/364/4
f 174/369/2 204/255/2 206/341/2 178/365/2
f 136/370/4 201/257/4 203/333/4 172/368/4
f 132/371/4 199/253/4 201/257/4 136/370/4
f 138/271/2 202/248/2 204/255/2 174/369/2
f 91/372/4 187/173/4 199/253/4 132/371/4
f 94/186/2 188/185/2 200/245/2 134/270/2
f 134/270/2 200/245/2 202/248/2 138/271/2
f 108/373/2 195/200/2 197/212/2 112/374/2
f 112/207/56 197/203/56 198/206/56 113/208/56
f 106/375/4 194/169/4 196/195/4 110/221/4
f 104/376/2 193/194/2 195/200/2 108/373/2
f 110/221/4 196/195/4 198/198/4 114/222/4
f 97/377/2 189/165/2 193/194/2 104/376/2
f 93/251/2 188/185/2 192/162/2 99/378/2
f 95/167/4 190/166/4 191/170/4 101/379/4
f 101/379/4 191/170/4 187/173/4 91/372/4
f 96/184/4 190/166/4 194/169/4 106/375/4
f 99/378/2 192/162/2 189/165/2 97/377/2
f 214/380/96 213/381/96 217/382/96 218/383/96
f 209/384/97 210/385/97 213/381/97 214/380/97
f 210/347/2 183/346/2 211/386/2 213/387/2
f 184/361/4 209/357/4 214/388/4 212/389/4
f 216/390/4 218/391/4 222/392/4 220/393/4
f 213/387/2 211/386/2 215/394/2 217/395/2
f 212/389/4 214/388/4 218/391/4 216/390/4
f 211/363/98 212/362/98 216/396/98 215/397/98
f 219/398/99 220/399/99 224/400/99 223/401/99
f 215/397/100 216/396/100 220/399/100 219/398/100
f 218/383/101 217/382/101 221/402/101 222/403/101
f 217/395/2 215/394/2 219/404/2 221/405/2
f 226/406/102 225/407/102 229/408/102 230/409/102
f 222/403/103 221/402/103 225/407/103 226/406/103
f 221/405/2 219/404/2 223/410/2 225/411/2
f 220/393/4 222/392/4 226/412/4 224/413/4
f 228/414/4 230/415/4 234/416/4 232/417/4
f 225/411/2 223/410/2 227/418/2 229/419/2
f 224/413/4 226/412/4 230/415/4 228/414/4
f 223/401/104 224/400/104 228/420/104 227/421/104
f 234/422/105 233/423/105 237/424/105 238/425/105
f 227/421/106 228/420/106 232/426/106 231/427/106
f 230/409/107 229/408/107 233/423/107 234/422/107
f 229/419/2 227/418/2 231/428/2 233/429/2
f 237/430/2 235/431/2 239/432/2 241/433/2
f 233/429/2 231/428/2 235/431/2 237/430/2
f 232/417/4 234/416/4 238/434/4 236/435/4
f 231/427/108 232/426/108 236/436/108 235/437/108
f 240/438/4 242/439/4 246/440/4 244/441/4
f 236/435/4 238/434/4 242/439/4 240/438/4
f 235/437/109 236/436/109 240/442/109 239/443/109
f 238/425/110 237/424/110 241/444/110 242/445/110
f 244/446/111 246/447/111 245/448/111 243/449/111
f 239/443/112 240/442/112 244/446/112 243/449/112
f 241/433/2 245/450/2 250/451/2 248/452/2
f 241/433/2 239/432/2 243/453/2 245/450/2
f 249/454/4 247/455/4 251/456/4 253/457/4
f 245/448/113 246/447/113 249/458/113 250/459/113
f 242/445/114 241/444/114 248/460/114 247/461/114
f 246/440/4 242/439/4 247/455/4 249/454/4
f 251/462/115 252/463/115 254/464/115 253/465/115
f 247/461/116 248/460/116 252/463/116 251/462/116
f 248/452/2 250/451/2 254/466/2 252/467/2
f 250/459/117 249/458/117 253/465/117 254/464/117
f 258/468/118 255/469/118 259/470/118 262/471/118
f 210/385/119 209/384/119 255/469/119 258/468/119
f 186/367/2 210/347/2 258/472/2 257/473/2
f 209/357/4 185/356/4 256/474/4 255/475/4
f 261/476/2 262/477/2 266/478/2 265/479/2
f 256/355/120 257/354/120 261/480/120 260/481/120
f 257/473/2 258/472/2 262/477/2 261/476/2
f 255/475/4 256/474/4 260/482/4 259/483/4
f 263/484/4 264/485/4 268/486/4 267/487/4
f 259/483/4 260/482/4 264/485/4 263/484/4
f 262/471/121 259/470/121 263/488/121 266/489/121
f 260/481/122 261/480/122 265/490/122 264/491/122
f 270/492/123 267/493/123 271/494/123 274/495/123
f 266/489/124 263/488/124 267/493/124 270/492/124
f 264/491/125 265/490/125 269/496/125 268/497/125
f 265/479/2 266/478/2 270/498/2 269/499/2
f 273/500/2 274/501/2 278/502/2 277/503/2
f 268/497/126 269/496/126 273/504/126 272/505/126
f 269/499/2 270/498/2 274/501/2 273/500/2
f 267/487/4 268/486/4 272/506/4 271/507/4
f 278/508/127 275/509/127 279/510/127 282/511/127
f 271/507/4 272/506/4 276/512/4 275/513/4
f 274/495/128 271/494/128 275/509/128 278/508/128
f 272/505/129 273/504/129 277/514/129 276/515/129
f 280/516/130 281/517/130 285/518/130 284/519/130
f 276/515/131 277/514/131 281/517/131 280/516/131
f 277/503/2 278/502/2 282/520/2 281/521/2
f 275/513/4 276/512/4 280/522/4 279/523/4
f 285/524/2 286/525/2 290/526/2 289/527/2
f 281/521/2 282/520/2 286/525/2 285/524/2
f 279/523/4 280/522/4 284/528/4 283/529/4
f 282/511/132 279/510/132 283/530/132 286/531/132
f 290/532/133 287/533/133 291/534/133 294/535/133
f 283/529/4 284/528/4 288/536/4 287/537/4
f 286/531/134 283/530/134 287/533/134 290/532/134
f 284/519/135 285/518/135 289/538/135 288/539/135
f 293/540/2 294/541/2 298/542/2 297/543/2
f 288/539/136 289/538/136 293/544/136 292/545/136
f 289/527/2 290/526/2 294/541/2 293/540/2
f 287/537/4 288/536/4 292/546/4 291/547/4
f 297/543/2 298/542/2 302/548/2 301/549/2
f 291/547/4 292/546/4 296/550/4 295/551/4
f 294/535/137 291/534/137 295/552/137 298/553/137
f 292/545/138 293/544/138 297/554/138 296/555/138
f 299/556/139 300/557/139 301/558/139 302/559/139
f 295/551/4 296/550/4 300/560/4 299/561/4
f 298/553/140 295/552/140 299/556/140 302/559/140
f 297/543/2 301/549/2 306/562/2 304/563/2
f 304/563/2 306/562/2 310/564/2 308/565/2
f 301/558/141 300/557/141 305/566/141 306/567/141
f 300/560/4 296/550/4 303/568/4 305/569/4
f 296/555/142 297/554/142 304/570/142 303/571/142
f 307/572/143 308/573/143 310/574/143 309/575/143
f 303/571/144 304/570/144 308/576/144 307/577/144
f 305/569/4 303/568/4 307/572/4 309/575/4
f 306/567/145 305/566/145 309/578/145 310/579/145
f 312/580/146 314/581/146 322/582/146 321/583/146
f 313/584/2 314/585/2 318/586/2 317/587/2
f 317/588/147 318/589/147 316/590/147 315/591/147
f 315/592/4 316/593/4 312/594/4 311/595/4
f 313/596/148 317/588/148 315/591/148 311/597/148
f 318/589/149 314/581/149 312/580/149 316/590/149
f 329/598/150 328/599/150 326/600/150 325/601/150
f 313/596/151 311/597/151 320/602/151 319/603/151
f 314/585/2 313/584/2 319/604/2 322/605/2
f 311/595/4 312/594/4 321/606/4 320/607/4
f 324/608/152 325/601/152 326/600/152 323/609/152
f 333/610/153 332/611/153 324/612/153 323/613/153
f 328/614/2 333/615/2 323/609/2 326/600/2
f 332/616/4 329/617/4 325/601/4 324/608/4
f 320/607/4 321/606/4 330/618/4 331/619/4
f 331/619/4 330/618/4 329/617/4 332/616/4
f 322/605/2 319/604/2 334/620/2 327/621/2
f 327/621/2 334/620/2 333/615/2 328/614/2
f 319/603/154 320/602/154 331/622/154 334/623/154
f 334/623/155 331/622/155 332/611/155 333/610/155
f 321/583/156 322/582/156 327/624/156 330/625/156
f 330/625/157 327/624/157 328/599/157 329/598/157
f 347/626/158 340/627/158 336/628/158 341/629/158
f 339/630/159 347/626/159 341/629/159 335/631/159
f 335/632/160 341/633/160 348/634/160 342/635/160
f 341/633/161 336/636/161 343/637/161 348/634/161
f 348/634/162 343/637/162 338/638/162 344/639/162
f 342/635/163 348/634/163 344/639/163 337/640/163
f 337/641/164 344/642/164 349/643/164 345/644/164
f 344/642/165 338/645/165 346/646/165 349/643/165
f 335/631/166 342/647/166 350/648/166 339/630/166
f 342/647/167 337/641/167 345/644/167 350/648/167
f 338/645/168 343/649/168 351/650/168 346/646/168
f 343/651/169 336/628/169 340/627/169 351/652/169
