# Blender 5.1.2
# www.blender.org
mtllib arboles.mtl
o hojas_1.001
v -3.629427 5.537026 -0.977236
v -0.025414 6.644156 -0.480054
v -3.101366 4.884748 -4.497760
v 0.293425 5.847436 -4.570308
v -3.917081 4.738856 -3.936932
v -4.283678 5.120561 -2.811675
v -4.111797 5.048844 -1.838599
v -2.910016 5.821771 -0.414601
v -1.923967 6.281149 -0.130749
v -0.915744 6.361202 -0.295237
v 0.586689 6.590911 -1.266382
v 0.862071 6.396906 -2.494263
v 0.784416 6.193649 -3.525255
v -0.349856 5.609407 -4.927897
v -1.356818 5.220017 -5.289739
v -2.297744 4.907484 -4.931322
v -3.086113 6.159441 -1.521132
v -1.975320 7.018524 -1.576834
v -0.923741 6.955614 -1.623044
v -3.277632 6.408393 -2.860032
v -2.095050 7.754718 -3.176918
v -0.795682 6.868614 -2.839602
v -2.876077 5.912797 -4.121819
v -1.685327 6.479682 -4.108987
v -0.379391 6.653070 -3.717059
v 0.048525 0.377132 -2.409868
v -0.382014 1.913890 -2.509923
v 0.559911 0.569036 -2.145704
v -0.004842 2.055429 -2.315089
v 0.718555 0.726104 -1.581535
v 0.112166 2.171274 -1.898987
v 0.431528 0.756327 -1.047844
v -0.099531 2.193565 -1.505363
v -0.133036 0.642002 -0.857259
v -0.515924 2.109245 -1.364797
v -0.644422 0.450098 -1.121423
v -0.893097 1.967706 -1.559631
v -0.803066 0.293030 -1.685592
v -1.010105 1.851861 -1.975734
v -0.516039 0.262807 -2.219283
v -0.798408 1.829570 -2.369357
v -2.150937 7.365952 -3.202349
v -0.042256 0.509567 -1.633563
v -1.319533 4.338760 -2.687155
v -1.070812 4.388763 -2.772914
v -0.844267 4.473376 -2.657872
v -0.772604 4.543034 -2.409419
v -0.897803 4.556931 -2.173095
v -1.146523 4.506928 -2.087336
v -1.373068 4.422316 -2.202378
v -1.444731 4.352658 -2.450831
v -2.026425 7.399144 -3.204937
v -1.941145 7.439954 -3.117337
v -1.945055 7.464476 -2.990865
v -2.035862 7.458345 -2.899607
v -2.160374 7.425153 -2.897019
v -2.245654 7.384343 -2.984619
v -2.241745 7.359821 -3.111091
v -2.093400 7.412148 -3.050978
v -2.036915 3.791811 1.947053
v -3.554593 2.971167 1.530614
v -0.461197 4.159128 2.031248
v 1.061277 4.667241 1.195901
v -1.794043 4.346192 0.515359
v -0.329731 5.632834 -0.797848
v -3.294008 4.587303 -1.131690
v -1.916631 6.720857 -3.119523
v -3.964977 3.541259 -2.994936
v -4.714491 2.916939 0.235656
v -5.315565 1.998346 -1.328155
v -4.754462 1.898153 -2.992391
v -4.095072 1.615664 -4.316815
v -3.124578 1.791360 -5.735019
v -1.418083 2.197774 -6.366868
v -2.299336 4.084553 -4.196788
v -0.152050 4.043796 -4.906249
v 0.158062 4.822386 -3.509312
v 1.443475 3.148819 -5.718289
v 2.546961 3.657854 -4.394588
v -0.137086 2.511130 -6.555621
v 3.384374 4.119252 -2.636962
v 3.350365 4.697979 -1.056501
v 1.163590 5.131655 -1.798760
v 2.387726 4.571866 0.215703
v -2.556190 6.905187 2.388442
v 2.229676 6.941838 2.715309
v -2.433112 6.805757 -2.174241
v 2.002518 6.875208 -2.551383
v -3.424501 6.759812 -1.394354
v -3.643639 7.062608 0.129085
v -3.379699 6.686081 1.291193
v -1.540534 6.876675 3.039553
v -0.164981 7.037962 3.344568
v 1.069596 6.847131 3.012600
v 2.887275 6.870199 1.644308
v 3.052161 6.846034 0.046828
v 2.802756 6.877464 -1.258384
v 1.112104 6.885349 -2.950352
v -0.271110 6.833320 -3.333937
v -1.488263 6.677675 -2.821121
v -1.728989 7.604651 1.769244
v -0.092798 8.285309 1.721015
v 1.154800 7.881013 1.498767
v -1.985919 8.287763 0.195416
v -0.116553 9.590597 -0.083144
v 1.179138 8.029659 -0.040892
v -1.775007 7.870550 -1.525731
v -0.137024 8.159579 -1.562425
v 1.536207 7.849458 -1.230384
v -0.000000 -0.105005 -1.000000
v -0.000000 1.894996 -0.737550
v 0.707107 -0.105005 -0.707107
v 0.521526 1.894995 -0.521527
v 1.000000 -0.105006 -0.000000
v 0.737549 1.894995 -0.000000
v 0.707107 -0.105005 0.707107
v 0.521526 1.894995 0.521526
v -0.000000 -0.105006 1.000000
v -0.000000 1.894996 0.737550
v -0.707107 -0.105005 0.707106
v -0.521526 1.894995 0.521526
v -1.000000 -0.105006 -0.000000
v -0.737550 1.894995 -0.000000
v -0.707107 -0.105005 -0.707107
v -0.521527 1.894995 -0.521527
v -0.320276 9.150236 -0.188415
v -0.000000 -0.105005 0.000000
v -0.314152 5.139039 -0.310040
v -0.002908 5.139039 -0.441370
v 0.310040 5.139039 -0.314152
v 0.441370 5.139039 -0.002908
v 0.314152 5.139039 0.310040
v 0.002908 5.139039 0.441370
v -0.310040 5.139039 0.314152
v -0.441371 5.139039 0.002908
v -0.158311 9.150236 -0.202602
v -0.033753 9.150236 -0.098108
v -0.019566 9.150236 0.063856
v -0.124060 9.150236 0.188415
v -0.286024 9.150236 0.202602
v -0.410582 9.150236 0.098108
v -0.424770 9.150236 -0.063857
v -0.222168 9.150236 -0.000000
v -0.987447 3.597411 5.403011
v -3.142079 3.208478 4.934877
v 1.053743 3.506125 5.356804
v 3.002856 3.822590 4.212040
v -0.620920 4.527386 3.716172
v 1.486472 5.908553 2.153570
v -2.490146 5.699017 1.949046
v -0.252034 8.283479 -0.255891
v -3.817152 5.116439 -0.476158
v -4.672213 3.832016 3.491328
v -5.845895 3.306753 1.452782
v -5.338900 3.407713 -0.705236
v -4.747591 3.176877 -2.496096
v -3.629532 3.415590 -4.351186
v -1.475827 3.501784 -5.292582
v -1.712934 5.517206 -2.086939
v 0.813912 4.945131 -3.282121
v 1.573282 5.437574 -1.437188
v 2.369933 3.555568 -4.704334
v 3.990863 3.486850 -3.121283
v 0.167365 3.507357 -5.644763
v 5.309182 3.342420 -0.973805
v 5.598268 3.663015 1.105430
v 3.038814 5.068320 0.595794
v 4.494717 3.516304 2.789479
v 1.354667 4.513901 5.463370
v 4.691031 3.718416 3.501700
v -0.117346 6.348220 2.529290
v 2.760262 5.921861 0.296547
v -0.539019 6.129583 3.454081
v -0.075280 5.729478 4.591695
v 0.361094 4.941477 5.089967
v 2.244251 4.075012 5.400043
v 3.324899 3.862050 5.011094
v 3.978568 3.693217 4.187860
v 4.751387 4.025732 2.513294
v 4.321451 4.657955 1.433675
v 3.729571 5.264836 0.740867
v 2.032594 6.223982 0.455158
v 0.957834 6.546875 0.829716
v 0.258110 6.396838 1.659039
v 1.942251 5.141484 4.900227
v 3.257184 5.400152 4.320451
v 3.883446 5.035253 3.498863
v 1.477800 6.314399 4.229170
v 3.084562 7.068161 3.577177
v 3.437243 5.783029 2.568618
v 0.903656 6.719573 2.939140
v 2.090216 6.701574 2.253916
v 3.219238 6.107858 1.611866
v -0.445887 0.714570 0.182776
v 0.322961 1.990883 0.917832
v 0.126741 0.490309 0.044164
v 0.745303 1.825480 0.815599
v 0.559184 0.150808 0.352614
v 1.064251 1.575081 1.043096
v 0.598122 -0.105058 0.927441
v 1.092970 1.386366 1.467059
v 0.220746 -0.127407 1.431917
v 0.814636 1.369883 1.839136
v -0.351882 0.096854 1.570529
v 0.392294 1.535287 1.941369
v -0.784325 0.436355 1.262079
v 0.073347 1.785685 1.713871
v -0.823263 0.692222 0.687253
v 0.044628 1.974399 1.289909
v 2.762597 6.836218 3.478313
v -0.112570 0.293582 0.807347
v 1.359619 4.105180 2.254094
v 1.524924 4.116031 2.030536
v 1.777552 4.017794 1.967685
v 1.969517 3.868013 2.102359
v 1.988368 3.754429 2.355667
v 1.823063 3.743577 2.579225
v 1.570435 3.841815 2.642076
v 1.378470 3.991596 2.507402
v 2.866668 6.819067 3.395802
v 2.985171 6.757292 3.404425
v 3.048687 6.687081 3.499132
v 3.020010 6.649563 3.624444
v 2.915939 6.666715 3.706955
v 2.797436 6.728489 3.698333
v 2.733920 6.798699 3.603626
v 2.891303 6.742890 3.551379
v 2.286375 0.727216 5.688228
v 0.550452 0.962232 6.264558
v 3.611053 0.391944 4.705105
v 4.646624 0.815033 3.194165
v 2.287168 2.029871 4.733577
v 3.652519 3.344530 3.193740
v 0.841652 3.853095 4.814459
v 2.490657 6.253872 3.157619
v -1.056606 4.659577 3.736815
v -0.746151 2.220773 6.236824
v -2.393006 2.882329 5.347320
v -2.737338 3.788449 3.797769
v -3.015689 4.297895 2.344444
v -2.801634 5.084762 0.745560
v -1.639291 5.233354 -0.797153
v -0.043453 5.315163 1.888359
v 1.060696 5.060878 -0.170522
v 2.353521 4.517225 0.777085
v 1.158512 4.473931 -2.163183
v 2.751624 3.528411 -1.931169
v -0.650958 5.150878 -1.762737
v 4.303795 2.335979 -1.230644
v 5.300255 1.641674 0.028080
v 3.889826 3.196085 1.274954
v 5.070277 0.988537 1.539813
vn -0.6338 0.7107 0.3053
vn 0.3431 0.9151 0.2119
vn -0.5290 0.5541 -0.6428
vn 0.3552 0.7946 -0.4924
vn -0.6658 0.7272 0.1671
vn -0.5230 0.7678 0.3700
vn 0.0367 0.9012 0.4319
vn 0.0149 0.9676 0.2520
vn 0.2684 0.9610 -0.0662
vn 0.3348 0.9311 -0.1449
vn 0.2631 0.7964 -0.5445
vn 0.0486 0.7230 -0.6891
vn -0.3463 0.5372 -0.7691
vn -0.5107 0.3918 -0.7653
vn -0.7130 0.5520 -0.4323
vn -0.7580 0.6191 0.2050
vn 0.4388 0.0646 -0.8963
vn 0.8929 0.3011 -0.3349
vn 0.8059 0.4280 0.4092
vn 0.2287 0.3710 0.9000
vn -0.5005 0.1635 0.8502
vn -0.9546 -0.0730 0.2888
vn 0.1869 -0.0522 -0.9810
vn -0.8676 -0.2000 -0.4553
vn -0.2904 -0.1430 -0.9461
vn 0.2565 -0.9474 0.1916
vn -0.5388 -0.2151 -0.8145
vn -0.2334 0.2238 0.9463
vn 0.7896 0.1915 -0.5830
vn -0.1820 -0.2048 -0.9617
vn 0.9186 0.3109 -0.2441
vn 0.1544 0.3051 0.9397
vn -0.9511 -0.2116 0.2250
vn 0.9161 0.3732 0.1464
vn -0.8361 -0.0199 0.5483
vn 0.4924 0.3866 0.7798
vn -0.9626 -0.2017 -0.1811
vn -0.2565 0.9474 -0.1916
vn -0.7956 -0.3154 -0.5172
vn -0.5572 0.0457 0.8291
vn 0.7643 0.4143 0.4942
vn 0.5284 0.0551 -0.8472
vn -0.3832 0.8814 0.2763
vn -0.2041 0.8721 0.4448
vn -0.3353 0.7835 0.5232
vn -0.4287 0.7903 0.4378
vn -0.7965 0.4998 -0.3404
vn -0.7843 0.6172 -0.0627
vn -0.8302 0.3983 -0.3900
vn -0.6711 0.5141 -0.5342
vn -0.3031 0.6548 -0.6924
vn 0.0539 0.5787 -0.8138
vn 0.2154 0.8346 -0.5070
vn -0.0886 0.7293 -0.6785
vn 0.2891 0.8904 -0.3515
vn 0.2193 0.9726 -0.0777
vn 0.3082 0.9384 0.1561
vn 0.5064 0.8469 -0.1620
vn -0.3941 0.7773 0.4903
vn 0.5932 0.7383 0.3211
vn -0.3985 0.7838 -0.4763
vn 0.5256 0.7560 -0.3901
vn -0.4293 0.8277 0.3614
vn -0.2680 0.7907 0.5505
vn 0.3097 0.7616 0.5693
vn 0.2952 0.8646 0.4067
vn 0.5157 0.8543 0.0650
vn 0.5662 0.8239 -0.0247
vn 0.4343 0.7913 -0.4303
vn 0.1990 0.8045 -0.5596
vn -0.2361 0.7451 -0.6238
vn -0.4334 0.6488 -0.6255
vn -0.5619 0.7887 -0.2495
vn -0.5449 0.7417 0.3910
vn 0.3799 0.1204 -0.9172
vn 0.9172 0.1204 -0.3799
vn 0.9172 0.1204 0.3799
vn 0.3799 0.1204 0.9172
vn -0.3799 0.1204 0.9172
vn -0.9172 0.1204 0.3799
vn 0.1008 0.0905 -0.9908
vn -0.9172 0.1204 -0.3799
vn -0.3799 0.1204 -0.9172
vn -0.0000 -1.0000 -0.0000
vn -0.6293 0.0905 -0.7718
vn -0.1008 0.0905 0.9908
vn 0.7718 0.0905 -0.6293
vn -0.2937 0.0370 -0.9552
vn 0.9505 0.1056 -0.2923
vn 0.2932 0.0694 0.9535
vn -0.9558 0.0004 0.2939
vn 0.9908 0.0905 0.1008
vn -0.7718 0.0905 0.6293
vn 0.6293 0.0905 0.7718
vn -0.9908 0.0905 -0.1008
vn -0.0000 1.0000 -0.0000
vn -0.8837 0.0044 -0.4680
vn -0.4679 0.0274 0.8834
vn 0.8791 0.1017 0.4656
vn 0.4666 0.0790 -0.8810
vn -0.1089 0.8803 0.4617
vn 0.0716 0.7933 0.6046
vn -0.0734 0.7280 0.6816
vn -0.1668 0.7748 0.6098
vn -0.6502 0.7430 -0.1587
vn -0.5883 0.7979 0.1315
vn -0.7136 0.6650 -0.2203
vn -0.5387 0.7615 -0.3603
vn -0.1575 0.8307 -0.5339
vn 0.1564 0.6903 -0.7064
vn 0.4015 0.8325 -0.3817
vn 0.0696 0.8436 -0.5324
vn 0.4976 0.8367 -0.2286
vn 0.4710 0.8800 0.0613
vn 0.5624 0.7801 0.2743
vn 0.7067 0.7035 -0.0752
vn 0.1985 0.4721 0.8589
vn 0.9191 0.3546 0.1720
vn -0.1936 0.9724 0.1306
vn 0.5835 0.7447 -0.3239
vn 0.1384 0.5865 0.7980
vn 0.3313 0.4307 0.8395
vn 0.7980 0.2965 0.5247
vn 0.7629 0.4688 0.4452
vn 0.8003 0.5965 0.0607
vn 0.7925 0.6081 -0.0456
vn 0.5074 0.8108 -0.2917
vn 0.2686 0.9288 -0.2552
vn -0.1368 0.9870 -0.0843
vn -0.3382 0.9410 -0.0101
vn -0.2331 0.8889 0.3945
vn 0.0206 0.5190 0.8545
vn -0.0115 0.5042 -0.8635
vn 0.6441 0.1365 -0.7527
vn 0.9515 -0.2518 -0.1766
vn 0.7308 -0.4333 0.5275
vn 0.1111 -0.3016 0.9469
vn -0.5445 0.0661 0.8362
vn -0.2813 0.5652 -0.7755
vn -0.8520 0.4545 0.2600
vn -0.6312 0.6360 -0.4440
vn -0.4136 -0.8419 -0.3467
vn -0.7882 0.5798 -0.2064
vn 0.3562 -0.4127 0.8383
vn 0.4123 0.2641 -0.8719
vn -0.6108 0.5703 -0.5493
vn 0.7006 0.0736 -0.7098
vn 0.6537 -0.4798 0.5852
vn -0.6604 0.0158 0.7507
vn 0.8863 -0.1470 -0.4392
vn -0.3374 -0.1116 0.9347
vn 0.8631 -0.4274 0.2692
vn -0.8114 0.2995 0.5020
vn 0.4136 0.8419 0.3467
vn 0.4136 0.8418 0.3467
vn -0.9083 0.3961 0.1345
vn -0.0128 -0.3474 0.9376
vn 0.9475 -0.3047 -0.0970
vn 0.0567 0.4359 -0.8982
vn 0.4622 0.5240 0.7154
vn 0.6312 0.3464 0.6940
vn 0.5171 0.2772 0.8098
vn 0.4312 0.3695 0.8231
vn -0.2872 0.8193 0.4962
vn -0.0965 0.7065 0.7011
vn -0.3961 0.7962 0.4574
vn -0.2702 0.9187 0.2882
vn -0.0009 0.9996 -0.0299
vn 0.1272 0.9151 -0.3827
vn 0.5173 0.8264 -0.2224
vn 0.1903 0.9703 -0.1497
vn 0.6594 0.7350 -0.1579
vn 0.7729 0.6279 0.0915
vn 0.8923 0.4190 0.1680
vn 0.8369 0.5081 -0.2033
vt 0.921482 0.620535
vt 0.891762 0.705592
vt 0.814659 0.688993
vt 0.835679 0.609105
vt 0.882452 0.771584
vt 0.803475 0.760300
vt 0.743179 0.683954
vt 0.749186 0.601336
vt 0.739268 0.771797
vt 0.971868 0.573503
vt 1.000060 0.636550
vt 0.919655 0.510882
vt 1.000060 0.715353
vt 0.982230 0.786052
vt 0.952684 0.850119
vt 0.886912 0.887006
vt 0.789527 0.892554
vt 0.712973 0.858728
vt 0.648557 0.796302
vt 0.635732 0.740394
vt 0.626764 0.661274
vt 0.655274 0.593292
vt 0.755376 0.491784
vt 0.700201 0.543481
vt 0.847177 0.492496
vt 0.922372 0.004314
vt 0.910505 0.105535
vt 0.881649 0.104584
vt 0.883789 0.001729
vt 0.852430 0.106009
vt 0.845048 0.002778
vt 0.823185 0.109835
vt 0.806508 0.007334
vt 0.794223 0.116041
vt 0.768488 0.015294
vt 0.765841 0.124566
vt 0.731294 0.026575
vt 0.738318 0.135287
vt 0.695247 0.041051
vt 0.922372 0.272730
vt 0.905133 0.271928
vt 0.711981 0.148117
vt 0.660659 0.058782
vt 0.687133 0.162861
vt 0.627927 0.079671
vt 0.047938 0.685774
vt 0.067911 0.637554
vt 0.096157 0.665801
vt 0.096157 0.705747
vt 0.803514 0.291082
vt 0.787423 0.297346
vt 0.853536 0.276309
vt 0.836633 0.280338
vt 0.887858 0.272099
vt -0.000281 0.665801
vt 0.027965 0.637554
vt 0.027965 0.733993
vt 0.067911 0.733993
vt -0.000281 0.705747
vt 0.920369 0.477383
vt 0.912064 0.477246
vt 0.870631 0.273528
vt 0.903783 0.477575
vt 0.895578 0.478608
vt 0.887506 0.480329
vt 0.879578 0.482562
vt 0.819947 0.285355
vt 0.871731 0.485046
vt 0.863885 0.487588
vt 0.106179 0.648138
vt 0.101936 0.637895
vt 0.110422 0.637895
vt 0.116422 0.643896
vt 0.110422 0.658382
vt 0.116422 0.652381
vt 0.095936 0.652381
vt 0.095936 0.643896
vt 0.101936 0.658382
vt 0.856040 0.490130
vt 0.521468 0.085735
vt 0.597638 0.178823
vt 0.453223 0.173512
vt 0.420397 0.000152
vt 0.612817 0.310408
vt 0.429211 0.323000
vt 0.306206 0.323976
vt 0.308065 0.187205
vt 0.290486 0.000152
vt 0.191005 0.331465
vt 0.167721 0.202161
vt 0.137626 0.005415
vt 0.015729 0.225428
vt 0.063794 0.127063
vt 0.000152 0.339873
vt 0.211448 0.471225
vt 0.038688 0.456508
vt 0.309606 0.436556
vt 0.311156 0.634674
vt 0.187777 0.604245
vt 0.077864 0.536430
vt 0.442523 0.444646
vt 0.460691 0.637684
vt 0.626672 0.441672
vt 0.583601 0.573241
s 0
f 17/1/1 18/2/1 21/3/1 20/4/1
f 18/2/2 19/5/2 22/6/2 21/3/2
f 20/4/3 21/3/3 24/7/3 23/8/3
f 21/3/4 22/6/4 25/9/4 24/7/4
f 1/10/5 8/11/5 17/1/5 7/12/5
f 8/11/6 9/13/6 18/2/6 17/1/6
f 9/13/7 10/14/7 19/5/7 18/2/7
f 10/14/8 2/15/8 11/16/8 19/5/8
f 19/5/9 11/16/9 12/17/9 22/6/9
f 22/6/10 12/17/10 13/18/10 25/9/10
f 25/9/11 13/18/11 4/19/11 14/20/11
f 24/7/12 25/9/12 14/20/12 15/21/12
f 23/8/13 24/7/13 15/21/13 16/22/13
f 5/23/14 23/8/14 16/22/14 3/24/14
f 6/25/15 20/4/15 23/8/15 5/23/15
f 7/12/16 17/1/16 20/4/16 6/25/16
f 26/26/17 27/27/17 29/28/17 28/29/17
f 28/29/18 29/28/18 31/30/18 30/31/18
f 30/31/19 31/30/19 33/32/19 32/33/19
f 32/33/20 33/32/20 35/34/20 34/35/20
f 34/35/21 35/34/21 37/36/21 36/37/21
f 36/37/22 37/36/22 39/38/22 38/39/22
f 29/28/23 27/27/23 44/40/23 45/41/23
f 38/39/24 39/38/24 41/42/24 40/43/24
f 40/43/25 41/42/25 27/44/25 26/45/25
f 43/46/26 30/47/26 32/48/26 34/49/26
f 27/44/27 41/42/27 51/50/27 44/51/27
f 37/36/28 35/34/28 48/52/28 49/53/28
f 31/30/29 29/28/29 45/41/29 46/54/29
f 26/55/26 28/56/26 30/47/26 43/46/26
f 38/57/26 43/46/26 34/49/26 36/58/26
f 40/59/26 26/55/26 43/46/26 38/57/26
f 45/41/30 44/40/30 42/60/30 52/61/30
f 47/62/31 46/54/31 53/63/31 54/64/31
f 49/53/32 48/52/32 55/65/32 56/66/32
f 51/50/33 50/67/33 57/68/33 58/69/33
f 33/32/34 31/30/34 46/54/34 47/62/34
f 39/38/35 37/36/35 49/53/35 50/67/35
f 35/34/36 33/32/36 47/62/36 48/52/36
f 41/42/37 39/38/37 50/67/37 51/50/37
f 59/70/38 57/71/38 56/72/38 55/73/38
f 53/74/38 59/70/38 55/73/38 54/75/38
f 42/76/38 58/77/38 57/71/38 59/70/38
f 52/78/38 42/76/38 59/70/38 53/74/38
f 44/51/39 51/50/39 58/69/39 42/79/39
f 50/67/40 49/53/40 56/66/40 57/68/40
f 48/52/41 47/62/41 54/64/41 55/65/41
f 46/54/42 45/41/42 52/61/42 53/63/42
f 60/80/43 62/81/43 64/82/43 61/83/43
f 62/81/44 63/84/44 65/85/44 64/82/44
f 64/82/45 65/85/45 67/86/45 66/87/45
f 61/83/46 64/82/46 66/87/46 69/88/46
f 66/87/47 67/86/47 75/89/47 68/90/47
f 69/88/48 66/87/48 68/90/48 70/91/48
f 70/91/49 68/90/49 72/92/49 71/93/49
f 68/90/50 75/89/50 73/94/50 72/92/50
f 75/89/51 76/95/51 74/96/51 73/94/51
f 67/86/52 77/97/52 76/95/52 75/89/52
f 77/97/53 79/98/53 78/99/53 76/95/53
f 76/95/54 78/99/54 80/100/54 74/96/54
f 83/101/55 81/102/55 79/98/55 77/97/55
f 84/103/56 82/104/56 81/102/56 83/101/56
f 63/84/57 84/103/57 83/101/57 65/85/57
f 65/85/58 83/101/58 77/97/58 67/86/58
f 101/1/59 102/2/59 105/3/59 104/4/59
f 102/2/60 103/5/60 106/6/60 105/3/60
f 104/4/61 105/3/61 108/7/61 107/8/61
f 105/3/62 106/6/62 109/9/62 108/7/62
f 85/10/63 92/11/63 101/1/63 91/12/63
f 92/11/64 93/13/64 102/2/64 101/1/64
f 93/13/65 94/14/65 103/5/65 102/2/65
f 94/14/66 86/15/66 95/16/66 103/5/66
f 103/5/67 95/16/67 96/17/67 106/6/67
f 106/6/68 96/17/68 97/18/68 109/9/68
f 109/9/69 97/18/69 88/19/69 98/20/69
f 108/7/70 109/9/70 98/20/70 99/21/70
f 107/8/71 108/7/71 99/21/71 100/22/71
f 89/23/72 107/8/72 100/22/72 87/24/72
f 90/25/73 104/4/73 107/8/73 89/23/73
f 91/12/74 101/1/74 104/4/74 90/25/74
f 110/26/75 111/27/75 113/28/75 112/29/75
f 112/29/76 113/28/76 115/30/76 114/31/76
f 114/31/77 115/30/77 117/32/77 116/33/77
f 116/33/78 117/32/78 119/34/78 118/35/78
f 118/35/79 119/34/79 121/36/79 120/37/79
f 120/37/80 121/36/80 123/38/80 122/39/80
f 113/28/81 111/27/81 128/40/81 129/41/81
f 122/39/82 123/38/82 125/42/82 124/43/82
f 124/43/83 125/42/83 111/44/83 110/45/83
f 127/46/84 114/47/84 116/48/84 118/49/84
f 111/44/85 125/42/85 135/50/85 128/51/85
f 121/36/86 119/34/86 132/52/86 133/53/86
f 115/30/87 113/28/87 129/41/87 130/54/87
f 110/55/84 112/56/84 114/47/84 127/46/84
f 122/57/84 127/46/84 118/49/84 120/58/84
f 124/59/84 110/55/84 127/46/84 122/57/84
f 129/41/88 128/40/88 126/60/88 136/61/88
f 131/62/89 130/54/89 137/63/89 138/64/89
f 133/53/90 132/52/90 139/65/90 140/66/90
f 135/50/91 134/67/91 141/68/91 142/69/91
f 117/32/92 115/30/92 130/54/92 131/62/92
f 123/38/93 121/36/93 133/53/93 134/67/93
f 119/34/94 117/32/94 131/62/94 132/52/94
f 125/42/95 123/38/95 134/67/95 135/50/95
f 143/70/96 141/71/96 140/72/96 139/73/96
f 137/74/96 143/70/96 139/73/96 138/75/96
f 126/76/96 142/77/96 141/71/96 143/70/96
f 136/78/96 126/76/96 143/70/96 137/74/96
f 128/51/97 135/50/97 142/69/97 126/79/97
f 134/67/98 133/53/98 140/66/98 141/68/98
f 132/52/99 131/62/99 138/64/99 139/65/99
f 130/54/100 129/41/100 136/61/100 137/63/100
f 144/80/101 146/81/101 148/82/101 145/83/101
f 146/81/102 147/84/102 149/85/102 148/82/102
f 148/82/103 149/85/103 151/86/103 150/87/103
f 145/83/104 148/82/104 150/87/104 153/88/104
f 150/87/105 151/86/105 159/89/105 152/90/105
f 153/88/106 150/87/106 152/90/106 154/91/106
f 154/91/107 152/90/107 156/92/107 155/93/107
f 152/90/108 159/89/108 157/94/108 156/92/108
f 159/89/109 160/95/109 158/96/109 157/94/109
f 151/86/110 161/97/110 160/95/110 159/89/110
f 161/97/111 163/98/111 162/99/111 160/95/111
f 160/95/112 162/99/112 164/100/112 158/96/112
f 167/101/113 165/102/113 163/98/113 161/97/113
f 168/103/114 166/104/114 165/102/114 167/101/114
f 147/84/115 168/103/115 167/101/115 149/85/115
f 149/85/116 167/101/116 161/97/116 151/86/116
f 185/1/117 186/2/117 189/3/117 188/4/117
f 186/2/118 187/5/118 190/6/118 189/3/118
f 188/4/119 189/3/119 192/7/119 191/8/119
f 189/3/120 190/6/120 193/9/120 192/7/120
f 169/10/121 176/11/121 185/1/121 175/12/121
f 176/11/122 177/13/122 186/2/122 185/1/122
f 177/13/123 178/14/123 187/5/123 186/2/123
f 178/14/124 170/15/124 179/16/124 187/5/124
f 187/5/125 179/16/125 180/17/125 190/6/125
f 190/6/126 180/17/126 181/18/126 193/9/126
f 193/9/127 181/18/127 172/19/127 182/20/127
f 192/7/128 193/9/128 182/20/128 183/21/128
f 191/8/129 192/7/129 183/21/129 184/22/129
f 173/23/130 191/8/130 184/22/130 171/24/130
f 174/25/131 188/4/131 191/8/131 173/23/131
f 175/12/132 185/1/132 188/4/132 174/25/132
f 194/26/133 195/27/133 197/28/133 196/29/133
f 196/29/134 197/28/134 199/30/134 198/31/134
f 198/31/135 199/30/135 201/32/135 200/33/135
f 200/33/136 201/32/136 203/34/136 202/35/136
f 202/35/137 203/34/137 205/36/137 204/37/137
f 204/37/138 205/36/138 207/38/138 206/39/138
f 197/28/139 195/27/139 212/40/139 213/41/139
f 206/39/140 207/38/140 209/42/140 208/43/140
f 208/43/141 209/42/141 195/44/141 194/45/141
f 211/46/142 198/47/142 200/48/142 202/49/142
f 195/44/143 209/42/143 219/50/143 212/51/143
f 205/36/144 203/34/144 216/52/144 217/53/144
f 199/30/145 197/28/145 213/41/145 214/54/145
f 194/55/142 196/56/142 198/47/142 211/46/142
f 206/57/142 211/46/142 202/49/142 204/58/142
f 208/59/142 194/55/142 211/46/142 206/57/142
f 213/41/146 212/40/146 210/60/146 220/61/146
f 215/62/147 214/54/147 221/63/147 222/64/147
f 217/53/148 216/52/148 223/65/148 224/66/148
f 219/50/149 218/67/149 225/68/149 226/69/149
f 201/32/150 199/30/150 214/54/150 215/62/150
f 207/38/151 205/36/151 217/53/151 218/67/151
f 203/34/152 201/32/152 215/62/152 216/52/152
f 209/42/153 207/38/153 218/67/153 219/50/153
f 227/70/154 225/71/154 224/72/154 223/73/154
f 221/74/154 227/70/154 223/73/154 222/75/154
f 210/76/154 226/77/154 225/71/154 227/70/154
f 220/78/155 210/76/155 227/70/155 221/74/155
f 212/51/156 219/50/156 226/69/156 210/79/156
f 218/67/157 217/53/157 224/66/157 225/68/157
f 216/52/158 215/62/158 222/64/158 223/65/158
f 214/54/159 213/41/159 220/61/159 221/63/159
f 228/80/160 230/81/160 232/82/160 229/83/160
f 230/81/161 231/84/161 233/85/161 232/82/161
f 232/82/162 233/85/162 235/86/162 234/87/162
f 229/83/163 232/82/163 234/87/163 237/88/163
f 234/87/164 235/86/164 243/89/164 236/90/164
f 237/88/165 234/87/165 236/90/165 238/91/165
f 238/91/166 236/90/166 240/92/166 239/93/166
f 236/90/167 243/89/167 241/94/167 240/92/167
f 243/89/168 244/95/168 242/96/168 241/94/168
f 235/86/169 245/97/169 244/95/169 243/89/169
f 245/97/170 247/98/170 246/99/170 244/95/170
f 244/95/171 246/99/171 248/100/171 242/96/171
f 251/101/172 249/102/172 247/98/172 245/97/172
f 252/103/173 250/104/173 249/102/173 251/101/173
f 231/84/174 252/103/174 251/101/174 233/85/174
f 233/85/175 251/101/175 245/97/175 235/86/175
