# Blender 5.1.2
# www.blender.org
mtllib templo.mtl
o Cube
v -3.168735 0.522771 5.057737
v -3.676650 0.522771 4.332002
v -3.415769 0.522771 4.946639
v -3.598896 0.522771 4.684977
v -3.676650 1.120500 4.332002
v -3.168735 1.120500 5.057737
v -3.598896 1.120500 4.684977
v -3.415769 1.120500 4.946639
v -3.676650 0.522771 -4.723299
v -3.168735 0.522771 -5.449035
v -3.598896 0.522771 -5.076274
v -3.415769 0.522771 -5.337936
v -3.168735 1.120500 -5.449035
v -3.676650 1.120500 -4.723299
v -3.415769 1.120500 -5.337936
v -3.598896 1.120500 -5.076274
v 3.676650 0.522771 4.332002
v 3.168735 0.522771 5.057737
v 3.598896 0.522771 4.684977
v 3.415769 0.522771 4.946639
v 3.168735 1.120500 5.057737
v 3.676650 1.120500 4.332002
v 3.415769 1.120500 4.946639
v 3.598896 1.120500 4.684977
v 3.168735 0.522771 -5.449035
v 3.676650 0.522771 -4.723299
v 3.415769 0.522771 -5.337936
v 3.598896 0.522771 -5.076274
v 3.676650 1.120500 -4.723299
v 3.168735 1.120500 -5.449035
v 3.598896 1.120500 -5.076274
v 3.415769 1.120500 -5.337936
v -4.206113 4.892948 4.732208
v 0.000000 6.892948 4.732208
v -4.875665 4.786825 4.671173
v 4.206113 4.892948 4.732208
v -4.206113 4.892948 4.367465
v -4.206113 4.349894 4.732208
v 4.206113 4.349894 4.732208
v -4.206113 4.349894 4.367465
v 4.206113 4.349894 4.367465
v -4.206113 4.349894 -5.014956
v 4.206113 4.349894 -5.014956
v -4.206113 4.349894 -5.386479
v -4.206113 4.892948 -5.014956
v 0.000000 6.892948 -5.012766
v 4.206113 4.892948 -5.014956
v -4.206113 4.892948 -5.386479
v -4.875665 4.786825 -4.960568
v -4.875665 4.786825 -5.325445
v 0.000000 7.105195 -4.960568
v -4.875665 4.786825 4.319614
v 0.000000 7.105195 4.319614
v 0.000000 7.105195 4.671173
v 4.875665 4.786825 4.319614
v 4.875665 4.786825 4.671173
v 4.875665 4.786825 -4.960568
v 4.206113 4.892948 4.367465
v 0.000000 6.892948 4.358494
v 4.875665 4.786825 -5.325445
v 0.000000 7.105195 -5.325445
v 4.206113 4.892948 -5.386479
v 0.000000 6.892948 -5.386479
v 4.206113 4.349894 -5.386479
v -3.357979 0.834606 3.802820
v -3.139563 0.834606 3.893291
v -3.576395 0.834606 3.893291
v -3.357979 0.834606 4.111707
v -3.357979 1.673657 3.802820
v -3.357979 1.766885 3.802820
v -3.576395 1.673657 3.893291
v -3.139563 1.673657 3.893291
v -3.139563 1.766885 3.893291
v -3.049092 1.673657 4.111707
v -3.049092 0.834606 4.111707
v -3.049092 1.766885 4.111707
v -3.139563 1.673657 4.330122
v -3.139563 0.834606 4.330122
v -3.139563 1.766885 4.330122
v -3.357979 1.673657 4.420593
v -3.357979 0.834606 4.420593
v -3.357979 1.766885 4.420593
v -3.576395 1.673657 4.330122
v -3.576395 0.834606 4.330122
v -3.576395 1.766885 4.330122
v -3.666866 1.673657 4.111707
v -3.666866 0.834606 4.111707
v -3.666866 1.766885 4.111707
v -3.576395 1.766885 3.893291
v -3.638173 3.497831 4.111707
v -3.634626 3.711841 4.111707
v -3.556106 3.497831 4.309834
v -3.556106 3.497831 3.913579
v -3.553598 3.711841 3.916088
v -3.357979 3.497831 3.831512
v -3.159852 3.497831 3.913579
v -3.357979 3.711841 3.835060
v -3.162360 3.711841 3.916088
v -3.357979 4.004683 3.799031
v -3.136884 4.004683 3.890612
v -3.357979 4.204811 3.744531
v -3.579074 4.004683 3.890612
v -3.670655 4.004683 4.111707
v -3.617611 4.204811 3.852074
v -3.725155 4.204811 4.111707
v -3.666573 4.459071 3.803113
v -3.794397 4.459071 4.111707
v -3.357979 4.459071 3.675289
v -3.049385 4.459071 3.803113
v -3.357979 4.459071 4.111707
v -3.357979 4.459071 4.548124
v -2.921561 4.459071 4.111707
v -3.049385 4.459071 4.420300
v -2.990803 4.204811 4.111707
v -3.045303 4.004683 4.111707
v -3.098346 4.204811 3.852074
v -3.098346 4.204811 4.371339
v -3.136884 4.004683 4.332802
v -3.357979 4.204811 4.478882
v -3.357979 4.004683 4.424382
v -3.617611 4.204811 4.371339
v -3.579074 4.004683 4.332802
v -3.666573 4.459071 4.420300
v -3.553598 3.711841 4.307325
v -3.357979 3.711841 4.388353
v -3.357979 3.497831 4.391901
v -3.162360 3.711841 4.307325
v -3.159852 3.497831 4.309834
v -3.081332 3.711841 4.111707
v -3.077785 3.497831 4.111707
v -3.357979 0.834606 2.030963
v -3.139563 0.834606 2.121434
v -3.576395 0.834606 2.121434
v -3.357979 0.834606 2.339850
v -3.357979 1.673657 2.030963
v -3.357979 1.766885 2.030963
v -3.576395 1.673657 2.121434
v -3.139563 1.673657 2.121434
v -3.139563 1.766885 2.121434
v -3.049092 1.673657 2.339850
v -3.049092 0.834606 2.339850
v -3.049092 1.766885 2.339850
v -3.139563 1.673657 2.558266
v -3.139563 0.834606 2.558266
v -3.139563 1.766885 2.558266
v -3.357979 1.673657 2.648737
v -3.357979 0.834606 2.648737
v -3.357979 1.766885 2.648737
v -3.576395 1.673657 2.558266
v -3.576395 0.834606 2.558266
v -3.576395 1.766885 2.558266
v -3.666866 1.673657 2.339850
v -3.666866 0.834606 2.339850
v -3.666866 1.766885 2.339850
v -3.576395 1.766885 2.121434
v -3.638173 3.497831 2.339850
v -3.634626 3.711841 2.339850
v -3.556106 3.497831 2.537977
v -3.556106 3.497831 2.141723
v -3.553598 3.711841 2.144231
v -3.357979 3.497831 2.059656
v -3.159852 3.497831 2.141723
v -3.357979 3.711841 2.063203
v -3.162360 3.711841 2.144231
v -3.357979 4.004683 2.027174
v -3.136884 4.004683 2.118755
v -3.357979 4.204811 1.972674
v -3.579074 4.004683 2.118755
v -3.670655 4.004683 2.339850
v -3.617611 4.204811 2.080217
v -3.725155 4.204811 2.339850
v -3.666573 4.459071 2.031256
v -3.794397 4.459071 2.339850
v -3.357979 4.459071 1.903432
v -3.049385 4.459071 2.031256
v -3.357979 4.459071 2.339850
v -3.357979 4.459071 2.776268
v -2.921561 4.459071 2.339850
v -3.049385 4.459071 2.648444
v -2.990803 4.204811 2.339850
v -3.045303 4.004683 2.339850
v -3.098346 4.204811 2.080217
v -3.098346 4.204811 2.599483
v -3.136884 4.004683 2.560945
v -3.357979 4.204811 2.707026
v -3.357979 4.004683 2.652526
v -3.617611 4.204811 2.599483
v -3.579074 4.004683 2.560945
v -3.666573 4.459071 2.648444
v -3.553598 3.711841 2.535469
v -3.357979 3.711841 2.616497
v -3.357979 3.497831 2.620044
v -3.162360 3.711841 2.535469
v -3.159852 3.497831 2.537977
v -3.081332 3.711841 2.339850
v -3.077785 3.497831 2.339850
v -3.357979 0.834606 0.259107
v -3.139563 0.834606 0.349578
v -3.576395 0.834606 0.349578
v -3.357979 0.834606 0.567994
v -3.357979 1.673657 0.259107
v -3.357979 1.766885 0.259107
v -3.576395 1.673657 0.349578
v -3.139563 1.673657 0.349578
v -3.139563 1.766885 0.349578
v -3.049092 1.673657 0.567994
v -3.049092 0.834606 0.567994
v -3.049092 1.766885 0.567994
v -3.139563 1.673657 0.786410
v -3.139563 0.834606 0.786410
v -3.139563 1.766885 0.786410
v -3.357979 1.673657 0.876881
v -3.357979 0.834606 0.876881
v -3.357979 1.766885 0.876881
v -3.576395 1.673657 0.786410
v -3.576395 0.834606 0.786410
v -3.576395 1.766885 0.786410
v -3.666866 1.673657 0.567994
v -3.666866 0.834606 0.567994
v -3.666866 1.766885 0.567994
v -3.576395 1.766885 0.349578
v -3.638173 3.497831 0.567994
v -3.634626 3.711841 0.567994
v -3.556106 3.497831 0.766121
v -3.556106 3.497831 0.369867
v -3.553598 3.711841 0.372375
v -3.357979 3.497831 0.287800
v -3.159852 3.497831 0.369867
v -3.357979 3.711841 0.291347
v -3.162360 3.711841 0.372375
v -3.357979 4.004683 0.255318
v -3.136884 4.004683 0.346899
v -3.357979 4.204811 0.200818
v -3.579074 4.004683 0.346899
v -3.670655 4.004683 0.567994
v -3.617611 4.204811 0.308361
v -3.725155 4.204811 0.567994
v -3.666573 4.459071 0.259400
v -3.794397 4.459071 0.567994
v -3.357979 4.459071 0.131576
v -3.049385 4.459071 0.259400
v -3.357979 4.459071 0.567994
v -3.357979 4.459071 1.004411
v -2.921561 4.459071 0.567994
v -3.049385 4.459071 0.876588
v -2.990803 4.204811 0.567994
v -3.045303 4.004683 0.567994
v -3.098346 4.204811 0.308361
v -3.098346 4.204811 0.827626
v -3.136884 4.004683 0.789089
v -3.357979 4.204811 0.935170
v -3.357979 4.004683 0.880670
v -3.617611 4.204811 0.827626
v -3.579074 4.004683 0.789089
v -3.666573 4.459071 0.876588
v -3.553598 3.711841 0.763612
v -3.357979 3.711841 0.844640
v -3.357979 3.497831 0.848188
v -3.162360 3.711841 0.763612
v -3.159852 3.497831 0.766121
v -3.081332 3.711841 0.567994
v -3.077785 3.497831 0.567994
v -3.357979 0.834606 -1.512749
v -3.139563 0.834606 -1.422279
v -3.576395 0.834606 -1.422279
v -3.357979 0.834606 -1.203863
v -3.357979 1.673657 -1.512749
v -3.357979 1.766885 -1.512749
v -3.576395 1.673657 -1.422279
v -3.139563 1.673657 -1.422279
v -3.139563 1.766885 -1.422279
v -3.049092 1.673657 -1.203863
v -3.049092 0.834606 -1.203863
v -3.049092 1.766885 -1.203863
v -3.139563 1.673657 -0.985447
v -3.139563 0.834606 -0.985447
v -3.139563 1.766885 -0.985447
v -3.357979 1.673657 -0.894976
v -3.357979 0.834606 -0.894976
v -3.357979 1.766885 -0.894976
v -3.576395 1.673657 -0.985447
v -3.576395 0.834606 -0.985447
v -3.576395 1.766885 -0.985447
v -3.666866 1.673657 -1.203863
v -3.666866 0.834606 -1.203863
v -3.666866 1.766885 -1.203863
v -3.576395 1.766885 -1.422279
v -3.638173 3.497831 -1.203863
v -3.634626 3.711841 -1.203863
v -3.556106 3.497831 -1.005735
v -3.556106 3.497831 -1.401990
v -3.553598 3.711841 -1.399481
v -3.357979 3.497831 -1.484056
v -3.159852 3.497831 -1.401990
v -3.357979 3.711841 -1.480510
v -3.162360 3.711841 -1.399481
v -3.357979 4.004683 -1.516538
v -3.136884 4.004683 -1.424958
v -3.357979 4.204811 -1.571038
v -3.579074 4.004683 -1.424958
v -3.670655 4.004683 -1.203863
v -3.617611 4.204811 -1.463495
v -3.725155 4.204811 -1.203863
v -3.666573 4.459071 -1.512456
v -3.794397 4.459071 -1.203863
v -3.357979 4.459071 -1.640280
v -3.049385 4.459071 -1.512456
v -3.357979 4.459071 -1.203863
v -3.357979 4.459071 -0.767445
v -2.921561 4.459071 -1.203863
v -3.049385 4.459071 -0.895269
v -2.990803 4.204811 -1.203863
v -3.045303 4.004683 -1.203863
v -3.098346 4.204811 -1.463495
v -3.098346 4.204811 -0.944230
v -3.136884 4.004683 -0.982767
v -3.357979 4.204811 -0.836686
v -3.357979 4.004683 -0.891187
v -3.617611 4.204811 -0.944230
v -3.579074 4.004683 -0.982767
v -3.666573 4.459071 -0.895269
v -3.553598 3.711841 -1.008244
v -3.357979 3.711841 -0.927216
v -3.357979 3.497831 -0.923668
v -3.162360 3.711841 -1.008244
v -3.159852 3.497831 -1.005735
v -3.081332 3.711841 -1.203863
v -3.077785 3.497831 -1.203863
v -3.357979 0.834606 -3.284606
v -3.139563 0.834606 -3.194135
v -3.576395 0.834606 -3.194135
v -3.357979 0.834606 -2.975719
v -3.357979 1.673657 -3.284606
v -3.357979 1.766885 -3.284606
v -3.576395 1.673657 -3.194135
v -3.139563 1.673657 -3.194135
v -3.139563 1.766885 -3.194135
v -3.049092 1.673657 -2.975719
v -3.049092 0.834606 -2.975719
v -3.049092 1.766885 -2.975719
v -3.139563 1.673657 -2.757303
v -3.139563 0.834606 -2.757303
v -3.139563 1.766885 -2.757303
v -3.357979 1.673657 -2.666832
v -3.357979 0.834606 -2.666832
v -3.357979 1.766885 -2.666832
v -3.576395 1.673657 -2.757303
v -3.576395 0.834606 -2.757303
v -3.576395 1.766885 -2.757303
v -3.666866 1.673657 -2.975719
v -3.666866 0.834606 -2.975719
v -3.666866 1.766885 -2.975719
v -3.576395 1.766885 -3.194135
v -3.638173 3.497831 -2.975719
v -3.634626 3.711841 -2.975719
v -3.556106 3.497831 -2.777592
v -3.556106 3.497831 -3.173846
v -3.553598 3.711841 -3.171338
v -3.357979 3.497831 -3.255913
v -3.159852 3.497831 -3.173846
v -3.357979 3.711841 -3.252367
v -3.162360 3.711841 -3.171338
v -3.357979 4.004683 -3.288394
v -3.136884 4.004683 -3.196814
v -3.357979 4.204811 -3.342895
v -3.579074 4.004683 -3.196814
v -3.670655 4.004683 -2.975719
v -3.617611 4.204811 -3.235351
v -3.725155 4.204811 -2.975719
v -3.666573 4.459071 -3.284312
v -3.794397 4.459071 -2.975719
v -3.357979 4.459071 -3.412137
v -3.049385 4.459071 -3.284312
v -3.357979 4.459071 -2.975719
v -3.357979 4.459071 -2.539301
v -2.921561 4.459071 -2.975719
v -3.049385 4.459071 -2.667125
v -2.990803 4.204811 -2.975719
v -3.045303 4.004683 -2.975719
v -3.098346 4.204811 -3.235351
v -3.098346 4.204811 -2.716086
v -3.136884 4.004683 -2.754623
v -3.357979 4.204811 -2.608542
v -3.357979 4.004683 -2.663043
v -3.617611 4.204811 -2.716086
v -3.579074 4.004683 -2.754623
v -3.666573 4.459071 -2.667125
v -3.553598 3.711841 -2.780100
v -3.357979 3.711841 -2.699072
v -3.357979 3.497831 -2.695524
v -3.162360 3.711841 -2.780100
v -3.159852 3.497831 -2.777592
v -3.081332 3.711841 -2.975719
v -3.077785 3.497831 -2.975719
v -3.357979 0.834606 -5.056462
v -3.139563 0.834606 -4.965991
v -3.576395 0.834606 -4.965991
v -3.357979 0.834606 -4.747575
v -3.357979 1.673657 -5.056462
v -3.357979 1.766885 -5.056462
v -3.576395 1.673657 -4.965991
v -3.139563 1.673657 -4.965991
v -3.139563 1.766885 -4.965991
v -3.049092 1.673657 -4.747575
v -3.049092 0.834606 -4.747575
v -3.049092 1.766885 -4.747575
v -3.139563 1.673657 -4.529159
v -3.139563 0.834606 -4.529159
v -3.139563 1.766885 -4.529159
v -3.357979 1.673657 -4.438689
v -3.357979 0.834606 -4.438689
v -3.357979 1.766885 -4.438689
v -3.576395 1.673657 -4.529159
v -3.576395 0.834606 -4.529159
v -3.576395 1.766885 -4.529159
v -3.666866 1.673657 -4.747575
v -3.666866 0.834606 -4.747575
v -3.666866 1.766885 -4.747575
v -3.576395 1.766885 -4.965991
v -3.638173 3.497831 -4.747575
v -3.634626 3.711841 -4.747575
v -3.556106 3.497831 -4.549448
v -3.556106 3.497831 -4.945702
v -3.553598 3.711841 -4.943193
v -3.357979 3.497831 -5.027770
v -3.159852 3.497831 -4.945702
v -3.357979 3.711841 -5.024222
v -3.162360 3.711841 -4.943193
v -3.357979 4.004683 -5.060251
v -3.136884 4.004683 -4.968670
v -3.357979 4.204811 -5.114751
v -3.579074 4.004683 -4.968670
v -3.670655 4.004683 -4.747575
v -3.617611 4.204811 -5.007208
v -3.725155 4.204811 -4.747575
v -3.666573 4.459071 -5.056169
v -3.794397 4.459071 -4.747575
v -3.357979 4.459071 -5.183993
v -3.049385 4.459071 -5.056169
v -3.357979 4.459071 -4.747575
v -3.357979 4.459071 -4.311158
v -2.921561 4.459071 -4.747575
v -3.049385 4.459071 -4.438981
v -2.990803 4.204811 -4.747575
v -3.045303 4.004683 -4.747575
v -3.098346 4.204811 -5.007208
v -3.098346 4.204811 -4.487943
v -3.136884 4.004683 -4.526480
v -3.357979 4.204811 -4.380399
v -3.357979 4.004683 -4.434899
v -3.617611 4.204811 -4.487943
v -3.579074 4.004683 -4.526480
v -3.666573 4.459071 -4.438981
v -3.553598 3.711841 -4.551956
v -3.357979 3.711841 -4.470928
v -3.357979 3.497831 -4.467381
v -3.162360 3.711841 -4.551956
v -3.159852 3.497831 -4.549448
v -3.081332 3.711841 -4.747575
v -3.077785 3.497831 -4.747575
v 3.357979 0.834607 3.802819
v 3.139563 0.834607 3.893290
v 3.576395 0.834607 3.893290
v 3.357979 0.834607 4.111706
v 3.357979 1.673657 3.802819
v 3.357979 1.766885 3.802819
v 3.576395 1.673657 3.893290
v 3.139563 1.673657 3.893290
v 3.139563 1.766885 3.893290
v 3.049092 1.673657 4.111706
v 3.049092 0.834607 4.111706
v 3.049092 1.766885 4.111706
v 3.139563 1.673657 4.330122
v 3.139563 0.834607 4.330122
v 3.139563 1.766885 4.330122
v 3.357979 1.673657 4.420593
v 3.357979 0.834607 4.420593
v 3.357979 1.766885 4.420593
v 3.576395 1.673657 4.330122
v 3.576395 0.834607 4.330122
v 3.576395 1.766885 4.330122
v 3.666865 1.673657 4.111706
v 3.666865 0.834607 4.111706
v 3.666865 1.766885 4.111706
v 3.576395 1.766885 3.893290
v 3.638173 3.497831 4.111706
v 3.634626 3.711841 4.111706
v 3.556105 3.497831 4.309834
v 3.556105 3.497831 3.913579
v 3.553597 3.711841 3.916088
v 3.357979 3.497831 3.831512
v 3.159852 3.497831 3.913579
v 3.357979 3.711841 3.835059
v 3.162360 3.711841 3.916088
v 3.357979 4.004683 3.799031
v 3.136884 4.004683 3.890611
v 3.357979 4.204811 3.744530
v 3.579074 4.004683 3.890611
v 3.670655 4.004683 4.111706
v 3.617611 4.204811 3.852074
v 3.725154 4.204811 4.111706
v 3.666572 4.459071 3.803112
v 3.794396 4.459071 4.111706
v 3.357979 4.459071 3.675288
v 3.049385 4.459071 3.803112
v 3.357979 4.459071 4.111706
v 3.357979 4.459071 4.548124
v 2.921561 4.459071 4.111706
v 3.049385 4.459071 4.420300
v 2.990803 4.204811 4.111706
v 3.045302 4.004683 4.111706
v 3.098346 4.204811 3.852074
v 3.098346 4.204811 4.371339
v 3.136884 4.004683 4.332801
v 3.357979 4.204811 4.478882
v 3.357979 4.004683 4.424382
v 3.617611 4.204811 4.371339
v 3.579074 4.004683 4.332801
v 3.666572 4.459071 4.420300
v 3.553597 3.711841 4.307325
v 3.357979 3.711841 4.388353
v 3.357979 3.497831 4.391901
v 3.162360 3.711841 4.307325
v 3.159852 3.497831 4.309834
v 3.081332 3.711841 4.111706
v 3.077784 3.497831 4.111706
v 3.357979 0.834607 2.030963
v 3.139563 0.834607 2.121434
v 3.576395 0.834607 2.121434
v 3.357979 0.834607 2.339850
v 3.357979 1.673657 2.030963
v 3.357979 1.766885 2.030963
v 3.576395 1.673657 2.121434
v 3.139563 1.673657 2.121434
v 3.139563 1.766885 2.121434
v 3.049092 1.673657 2.339850
v 3.049092 0.834607 2.339850
v 3.049092 1.766885 2.339850
v 3.139563 1.673657 2.558266
v 3.139563 0.834607 2.558266
v 3.139563 1.766885 2.558266
v 3.357979 1.673657 2.648736
v 3.357979 0.834607 2.648736
v 3.357979 1.766885 2.648736
v 3.576395 1.673657 2.558266
v 3.576395 0.834607 2.558266
v 3.576395 1.766885 2.558266
v 3.666865 1.673657 2.339850
v 3.666865 0.834607 2.339850
v 3.666865 1.766885 2.339850
v 3.576395 1.766885 2.121434
v 3.638173 3.497831 2.339850
v 3.634626 3.711841 2.339850
v 3.556105 3.497831 2.537977
v 3.556105 3.497831 2.141723
v 3.553597 3.711841 2.144231
v 3.357979 3.497831 2.059656
v 3.159852 3.497831 2.141723
v 3.357979 3.711841 2.063203
v 3.162360 3.711841 2.144231
v 3.357979 4.004683 2.027174
v 3.136884 4.004683 2.118755
v 3.357979 4.204811 1.972674
v 3.579074 4.004683 2.118755
v 3.670655 4.004683 2.339850
v 3.617611 4.204811 2.080217
v 3.725154 4.204811 2.339850
v 3.666572 4.459071 2.031256
v 3.794396 4.459071 2.339850
v 3.357979 4.459071 1.903432
v 3.049385 4.459071 2.031256
v 3.357979 4.459071 2.339850
v 3.357979 4.459071 2.776268
v 2.921561 4.459071 2.339850
v 3.049385 4.459071 2.648444
v 2.990803 4.204811 2.339850
v 3.045302 4.004683 2.339850
v 3.098346 4.204811 2.080217
v 3.098346 4.204811 2.599483
v 3.136884 4.004683 2.560945
v 3.357979 4.204811 2.707026
v 3.357979 4.004683 2.652525
v 3.617611 4.204811 2.599483
v 3.579074 4.004683 2.560945
v 3.666572 4.459071 2.648444
v 3.553597 3.711841 2.535469
v 3.357979 3.711841 2.616497
v 3.357979 3.497831 2.620044
v 3.162360 3.711841 2.535469
v 3.159852 3.497831 2.537977
v 3.081332 3.711841 2.339850
v 3.077784 3.497831 2.339850
v 3.357979 0.834607 0.259107
v 3.139563 0.834607 0.349578
v 3.576395 0.834607 0.349578
v 3.357979 0.834607 0.567993
v 3.357979 1.673657 0.259107
v 3.357979 1.766885 0.259107
v 3.576395 1.673657 0.349578
v 3.139563 1.673657 0.349578
v 3.139563 1.766885 0.349578
v 3.049092 1.673657 0.567993
v 3.049092 0.834607 0.567993
v 3.049092 1.766885 0.567993
v 3.139563 1.673657 0.786409
v 3.139563 0.834607 0.786409
v 3.139563 1.766885 0.786409
v 3.357979 1.673657 0.876880
v 3.357979 0.834607 0.876880
v 3.357979 1.766885 0.876880
v 3.576395 1.673657 0.786409
v 3.576395 0.834607 0.786409
v 3.576395 1.766885 0.786409
v 3.666865 1.673657 0.567993
v 3.666865 0.834607 0.567993
v 3.666865 1.766885 0.567993
v 3.576395 1.766885 0.349578
v 3.638173 3.497831 0.567993
v 3.634626 3.711841 0.567993
v 3.556105 3.497831 0.766121
v 3.556105 3.497831 0.369866
v 3.553597 3.711841 0.372375
v 3.357979 3.497831 0.287799
v 3.159852 3.497831 0.369866
v 3.357979 3.711841 0.291346
v 3.162360 3.711841 0.372375
v 3.357979 4.004683 0.255318
v 3.136884 4.004683 0.346898
v 3.357979 4.204811 0.200818
v 3.579074 4.004683 0.346898
v 3.670655 4.004683 0.567993
v 3.617611 4.204811 0.308361
v 3.725154 4.204811 0.567993
v 3.666572 4.459071 0.259400
v 3.794396 4.459071 0.567993
v 3.357979 4.459071 0.131576
v 3.049385 4.459071 0.259400
v 3.357979 4.459071 0.567993
v 3.357979 4.459071 1.004411
v 2.921561 4.459071 0.567993
v 3.049385 4.459071 0.876587
v 2.990803 4.204811 0.567993
v 3.045302 4.004683 0.567993
v 3.098346 4.204811 0.308361
v 3.098346 4.204811 0.827626
v 3.136884 4.004683 0.789088
v 3.357979 4.204811 0.935169
v 3.357979 4.004683 0.880669
v 3.617611 4.204811 0.827626
v 3.579074 4.004683 0.789088
v 3.666572 4.459071 0.876587
v 3.553597 3.711841 0.763612
v 3.357979 3.711841 0.844640
v 3.357979 3.497831 0.848188
v 3.162360 3.711841 0.763612
v 3.159852 3.497831 0.766121
v 3.081332 3.711841 0.567993
v 3.077784 3.497831 0.567993
v 3.357979 0.834607 -1.512749
v 3.139563 0.834607 -1.422279
v 3.576395 0.834607 -1.422279
v 3.357979 0.834607 -1.203863
v 3.357979 1.673657 -1.512749
v 3.357979 1.766885 -1.512749
v 3.576395 1.673657 -1.422279
v 3.139563 1.673657 -1.422279
v 3.139563 1.766885 -1.422279
v 3.049092 1.673657 -1.203863
v 3.049092 0.834607 -1.203863
v 3.049092 1.766885 -1.203863
v 3.139563 1.673657 -0.985447
v 3.139563 0.834607 -0.985447
v 3.139563 1.766885 -0.985447
v 3.357979 1.673657 -0.894976
v 3.357979 0.834607 -0.894976
v 3.357979 1.766885 -0.894976
v 3.576395 1.673657 -0.985447
v 3.576395 0.834607 -0.985447
v 3.576395 1.766885 -0.985447
v 3.666865 1.673657 -1.203863
v 3.666865 0.834607 -1.203863
v 3.666865 1.766885 -1.203863
v 3.576395 1.766885 -1.422279
v 3.638173 3.497831 -1.203863
v 3.634626 3.711841 -1.203863
v 3.556105 3.497831 -1.005736
v 3.556105 3.497831 -1.401990
v 3.553597 3.711841 -1.399481
v 3.357979 3.497831 -1.484056
v 3.159852 3.497831 -1.401990
v 3.357979 3.711841 -1.480510
v 3.162360 3.711841 -1.399481
v 3.357979 4.004683 -1.516538
v 3.136884 4.004683 -1.424958
v 3.357979 4.204811 -1.571038
v 3.579074 4.004683 -1.424958
v 3.670655 4.004683 -1.203863
v 3.617611 4.204811 -1.463495
v 3.725154 4.204811 -1.203863
v 3.666572 4.459071 -1.512456
v 3.794396 4.459071 -1.203863
v 3.357979 4.459071 -1.640280
v 3.049385 4.459071 -1.512456
v 3.357979 4.459071 -1.203863
v 3.357979 4.459071 -0.767445
v 2.921561 4.459071 -1.203863
v 3.049385 4.459071 -0.895269
v 2.990803 4.204811 -1.203863
v 3.045302 4.004683 -1.203863
v 3.098346 4.204811 -1.463495
v 3.098346 4.204811 -0.944231
v 3.136884 4.004683 -0.982767
v 3.357979 4.204811 -0.836686
v 3.357979 4.004683 -0.891187
v 3.617611 4.204811 -0.944231
v 3.579074 4.004683 -0.982767
v 3.666572 4.459071 -0.895269
v 3.553597 3.711841 -1.008244
v 3.357979 3.711841 -0.927216
v 3.357979 3.497831 -0.923668
v 3.162360 3.711841 -1.008244
v 3.159852 3.497831 -1.005736
v 3.081332 3.711841 -1.203863
v 3.077784 3.497831 -1.203863
v 3.357979 0.834607 -3.284606
v 3.139563 0.834607 -3.194135
v 3.576395 0.834607 -3.194135
v 3.357979 0.834607 -2.975719
v 3.357979 1.673657 -3.284606
v 3.357979 1.766885 -3.284606
v 3.576395 1.673657 -3.194135
v 3.139563 1.673657 -3.194135
v 3.139563 1.766885 -3.194135
v 3.049092 1.673657 -2.975719
v 3.049092 0.834607 -2.975719
v 3.049092 1.766885 -2.975719
v 3.139563 1.673657 -2.757303
v 3.139563 0.834607 -2.757303
v 3.139563 1.766885 -2.757303
v 3.357979 1.673657 -2.666832
v 3.357979 0.834607 -2.666832
v 3.357979 1.766885 -2.666832
v 3.576395 1.673657 -2.757303
v 3.576395 0.834607 -2.757303
v 3.576395 1.766885 -2.757303
v 3.666865 1.673657 -2.975719
v 3.666865 0.834607 -2.975719
v 3.666865 1.766885 -2.975719
v 3.576395 1.766885 -3.194135
v 3.638173 3.497831 -2.975719
v 3.634626 3.711841 -2.975719
v 3.556105 3.497831 -2.777593
v 3.556105 3.497831 -3.173846
v 3.553597 3.711841 -3.171338
v 3.357979 3.497831 -3.255913
v 3.159852 3.497831 -3.173846
v 3.357979 3.711841 -3.252367
v 3.162360 3.711841 -3.171338
v 3.357979 4.004683 -3.288394
v 3.136884 4.004683 -3.196814
v 3.357979 4.204811 -3.342895
v 3.579074 4.004683 -3.196814
v 3.670655 4.004683 -2.975719
v 3.617611 4.204811 -3.235351
v 3.725154 4.204811 -2.975719
v 3.666572 4.459071 -3.284312
v 3.794396 4.459071 -2.975719
v 3.357979 4.459071 -3.412137
v 3.049385 4.459071 -3.284312
v 3.357979 4.459071 -2.975719
v 3.357979 4.459071 -2.539302
v 2.921561 4.459071 -2.975719
v 3.049385 4.459071 -2.667125
v 2.990803 4.204811 -2.975719
v 3.045302 4.004683 -2.975719
v 3.098346 4.204811 -3.235351
v 3.098346 4.204811 -2.716087
v 3.136884 4.004683 -2.754623
v 3.357979 4.204811 -2.608542
v 3.357979 4.004683 -2.663043
v 3.617611 4.204811 -2.716087
v 3.579074 4.004683 -2.754623
v 3.666572 4.459071 -2.667125
v 3.553597 3.711841 -2.780100
v 3.357979 3.711841 -2.699072
v 3.357979 3.497831 -2.695524
v 3.162360 3.711841 -2.780100
v 3.159852 3.497831 -2.777593
v 3.081332 3.711841 -2.975719
v 3.077784 3.497831 -2.975719
v 3.357979 0.834607 -5.056462
v 3.139563 0.834607 -4.965991
v 3.576395 0.834607 -4.965991
v 3.357979 0.834607 -4.747575
v 3.357979 1.673657 -5.056462
v 3.357979 1.766885 -5.056462
v 3.576395 1.673657 -4.965991
v 3.139563 1.673657 -4.965991
v 3.139563 1.766885 -4.965991
v 3.049092 1.673657 -4.747575
v 3.049092 0.834607 -4.747575
v 3.049092 1.766885 -4.747575
v 3.139563 1.673657 -4.529159
v 3.139563 0.834607 -4.529159
v 3.139563 1.766885 -4.529159
v 3.357979 1.673657 -4.438689
v 3.357979 0.834607 -4.438689
v 3.357979 1.766885 -4.438689
v 3.576395 1.673657 -4.529159
v 3.576395 0.834607 -4.529159
v 3.576395 1.766885 -4.529159
v 3.666865 1.673657 -4.747575
v 3.666865 0.834607 -4.747575
v 3.666865 1.766885 -4.747575
v 3.576395 1.766885 -4.965991
v 3.638173 3.497831 -4.747575
v 3.634626 3.711841 -4.747575
v 3.556105 3.497831 -4.549448
v 3.556105 3.497831 -4.945702
v 3.553597 3.711841 -4.943193
v 3.357979 3.497831 -5.027770
v 3.159852 3.497831 -4.945702
v 3.357979 3.711841 -5.024222
v 3.162360 3.711841 -4.943193
v 3.357979 4.004683 -5.060251
v 3.136884 4.004683 -4.968670
v 3.357979 4.204811 -5.114751
v 3.579074 4.004683 -4.968670
v 3.670655 4.004683 -4.747575
v 3.617611 4.204811 -5.007208
v 3.725154 4.204811 -4.747575
v 3.666572 4.459071 -5.056169
v 3.794396 4.459071 -4.747575
v 3.357979 4.459071 -5.183993
v 3.049385 4.459071 -5.056169
v 3.357979 4.459071 -4.747575
v 3.357979 4.459071 -4.311158
v 2.921561 4.459071 -4.747575
v 3.049385 4.459071 -4.438981
v 2.990803 4.204811 -4.747575
v 3.045302 4.004683 -4.747575
v 3.098346 4.204811 -5.007208
v 3.098346 4.204811 -4.487944
v 3.136884 4.004683 -4.526480
v 3.357979 4.204811 -4.380399
v 3.357979 4.004683 -4.434899
v 3.617611 4.204811 -4.487944
v 3.579074 4.004683 -4.526480
v 3.666572 4.459071 -4.438981
v 3.553597 3.711841 -4.551956
v 3.357979 3.711841 -4.470928
v 3.357979 3.497831 -4.467381
v 3.162360 3.711841 -4.551956
v 3.159852 3.497831 -4.549448
v 3.081332 3.711841 -4.747575
v 3.077784 3.497831 -4.747575
vn -0.4102 -0.0000 0.9120
vn -0.8193 -0.0000 0.5734
vn -0.9766 -0.0000 0.2151
vn -0.4102 -0.0000 -0.9120
vn -0.8193 -0.0000 -0.5734
vn -0.9766 -0.0000 -0.2151
vn 0.9766 -0.0000 -0.2151
vn 0.8193 -0.0000 -0.5734
vn 0.4102 -0.0000 -0.9120
vn 0.4102 -0.0000 0.9120
vn 0.8193 -0.0000 0.5734
vn 0.9766 -0.0000 0.2151
vn -0.0000 -1.0000 -0.0000
vn -1.0000 -0.0000 -0.0000
vn -0.0000 -0.0000 1.0000
vn -0.0000 1.0000 -0.0000
vn -0.0000 -0.0000 -1.0000
vn 1.0000 -0.0000 -0.0000
vn 0.4294 -0.9031 -0.0000
vn -0.1303 0.2740 0.9529
vn 0.1565 -0.9877 -0.0000
vn -0.0000 0.0011 -1.0000
vn -0.4294 0.9031 -0.0000
vn 0.4294 0.9031 -0.0000
vn -0.1565 -0.9877 -0.0000
vn -0.4294 -0.9031 -0.0000
vn -0.0000 0.0045 1.0000
vn 0.1303 0.2740 -0.9529
vn -0.1303 0.2740 -0.9529
vn 0.1303 0.2740 0.9529
vn 0.3827 -0.0000 -0.9239
vn -0.3827 -0.0000 -0.9239
vn 0.9239 -0.0000 -0.3827
vn 0.9239 -0.0000 0.3827
vn 0.3827 -0.0000 0.9239
vn -0.3827 -0.0000 0.9239
vn -0.9239 -0.0000 0.3827
vn -0.9239 -0.0000 -0.3827
vn -0.9238 0.0153 0.3826
vn -0.9238 0.0153 -0.3826
vn -0.3826 0.0153 -0.9238
vn 0.3826 0.0153 -0.9238
vn 0.3802 -0.1129 -0.9180
vn -0.3802 -0.1129 -0.9180
vn 0.3711 -0.2440 -0.8960
vn -0.3711 -0.2440 -0.8960
vn -0.9180 -0.1129 -0.3802
vn -0.8960 -0.2440 -0.3711
vn 0.8960 -0.2440 -0.3711
vn 0.8960 -0.2440 0.3711
vn 0.3711 -0.2440 0.8960
vn -0.3711 -0.2440 0.8960
vn -0.8960 -0.2440 0.3711
vn -0.9180 -0.1129 0.3802
vn -0.3802 -0.1129 0.9180
vn -0.3826 0.0153 0.9238
vn 0.3826 0.0153 0.9238
vn 0.3802 -0.1129 0.9180
vn 0.9238 0.0153 0.3826
vn 0.9180 -0.1129 0.3802
vn 0.9238 0.0153 -0.3826
vn 0.9180 -0.1129 -0.3802
vt 0.728025 0.622741
vt 0.805382 0.620017
vt 0.805382 0.622741
vt 0.728025 0.620017
vt 0.805382 0.617292
vt 0.728025 0.617292
vt 0.805382 0.614568
vt 0.805382 0.539723
vt 0.728025 0.542448
vt 0.728025 0.539723
vt 0.805382 0.542448
vt 0.728025 0.545172
vt 0.805382 0.545172
vt 0.728025 0.547897
vt 0.805382 0.464878
vt 0.728025 0.467603
vt 0.728025 0.464878
vt 0.805382 0.467603
vt 0.728025 0.470327
vt 0.805382 0.470327
vt 0.728025 0.473052
vt 0.805382 0.390034
vt 0.728025 0.392758
vt 0.728025 0.390034
vt 0.805382 0.392758
vt 0.728025 0.395483
vt 0.805382 0.395483
vt 0.728025 0.398207
vt 0.523889 0.000000
vt 0.797739 0.020319
vt 0.777420 0.294168
vt 0.728025 0.614568
vt 0.805382 0.547897
vt 0.805382 0.323363
vt 0.728025 0.343682
vt 0.707705 0.617531
vt 0.433856 0.597212
vt 0.805382 0.473052
vt 0.805382 0.398207
vt 0.523889 0.294168
vt 0.503570 0.273849
vt 0.514007 0.291058
vt 0.506681 0.283732
vt 0.503570 0.020319
vt 0.506681 0.010437
vt 0.514007 0.003111
vt 0.777420 0.000000
vt 0.787302 0.003111
vt 0.794628 0.010437
vt 0.797739 0.273849
vt 0.794628 0.283732
vt 0.787302 0.291058
vt 0.728025 0.323363
vt 0.433856 0.343682
vt 0.454175 0.323363
vt 0.436967 0.333799
vt 0.444293 0.326473
vt 0.707705 0.323363
vt 0.717588 0.326473
vt 0.724914 0.333799
vt 0.728025 0.597212
vt 0.724914 0.607095
vt 0.717588 0.614421
vt 0.454175 0.617531
vt 0.444293 0.614421
vt 0.436967 0.607095
vt 0.125420 0.431337
vt 0.125422 0.000000
vt 0.129833 0.000000
vt 0.129940 0.431337
vt 0.417553 0.350181
vt 0.417553 0.593603
vt 0.413242 0.618703
vt 0.413242 0.336531
vt 0.633142 0.803160
vt 0.633142 0.810102
vt 0.593245 0.808940
vt 0.593245 0.802249
vt 0.423644 0.336531
vt 0.433856 0.336531
vt 0.433856 -0.000000
vt 0.423644 0.000000
vt 0.503570 0.073899
vt 0.433856 0.073899
vt 0.433856 0.161681
vt 0.503570 0.161681
vt 0.503570 0.071235
vt 0.433856 0.071235
vt 0.413242 -0.000000
vt 0.403030 -0.000000
vt 0.403030 0.336531
vt 0.413242 0.336531
vt 0.140342 -0.000000
vt 0.140341 0.336531
vt 0.503570 0.002713
vt 0.433856 0.002713
vt 0.129940 0.336531
vt 0.129940 -0.000000
vt 0.503570 0.000000
vt 0.433856 0.000000
vt 0.125418 0.000000
vt 0.125418 0.431338
vt 0.120898 0.431337
vt 0.120925 -0.000000
vt 0.512976 0.617531
vt 0.512976 0.855705
vt 0.433856 0.631057
vt 0.413242 0.000000
vt 0.423644 0.336531
vt 0.392628 0.673061
vt 0.129939 0.673061
vt 0.129939 0.336531
vt 0.392628 0.336531
vt 0.633142 0.617531
vt 0.633142 0.624602
vt 0.593245 0.625637
vt 0.593245 0.618693
vt 0.116486 1.000000
vt 0.116486 0.500000
vt 0.120898 0.500000
vt 0.120898 1.000000
vt 0.004252 1.000000
vt 0.004252 0.500000
vt 0.000000 1.000000
vt 0.000000 0.500000
vt 0.004252 0.000000
vt 0.000000 0.000000
vt 0.116485 -0.000000
vt 0.633142 0.803160
vt 0.673040 0.802249
vt 0.673040 0.808940
vt 0.673040 0.625637
vt 0.125418 0.862674
vt 0.129829 0.862674
vt 0.593245 0.617531
vt 0.553111 0.852301
vt 0.512976 0.617531
vt 0.433856 0.164345
vt 0.503570 0.164345
vt 0.433856 0.232867
vt 0.503570 0.232867
vt 0.120898 -0.000000
vt 0.673040 0.618693
vt 0.413242 0.350181
vt 0.413242 0.593603
vt 0.408931 0.618702
vt 0.408931 0.336531
vt 0.503570 0.235580
vt 0.433856 0.235580
vt 0.433856 0.323363
vt 0.503570 0.323363
vt 0.125418 0.862675
vt 0.120925 0.862675
vt 0.419333 0.593604
vt 0.419333 0.350181
vt 0.423644 0.336531
vt 0.423644 0.618703
vt 0.392628 0.593603
vt 0.392628 0.350181
vt 0.396939 0.336531
vt 0.396939 0.618703
vt 0.797739 0.123932
vt 0.853508 0.123932
vt 0.853508 0.139423
vt 0.797739 0.139423
vt 0.705648 0.671507
vt 0.697736 0.671507
vt 0.692142 0.677101
vt 0.701692 0.681057
vt 0.797739 0.232373
vt 0.853508 0.232373
vt 0.853508 0.247864
vt 0.797739 0.247864
vt 0.711243 0.677101
vt 0.711243 0.685013
vt 0.859705 0.232373
vt 0.859705 0.247864
vt 0.859705 0.123932
vt 0.859705 0.139423
vt 0.853508 0.154915
vt 0.797739 0.154915
vt 0.859705 0.154915
vt 0.853508 0.170407
vt 0.797739 0.170407
vt 0.859705 0.170407
vt 0.853508 0.185898
vt 0.797739 0.185898
vt 0.859705 0.185898
vt 0.853508 0.201389
vt 0.797739 0.201389
vt 0.859705 0.201389
vt 0.853508 0.216881
vt 0.797739 0.216881
vt 0.859705 0.216881
vt 0.522654 0.323363
vt 0.511475 0.323363
vt 0.503570 0.315458
vt 0.517064 0.309869
vt 0.530558 0.315458
vt 0.530558 0.304279
vt 0.511475 0.296375
vt 0.522654 0.296375
vt 0.503570 0.304279
vt 0.697736 0.690608
vt 0.705648 0.690608
vt 0.692142 0.685013
vt 0.129940 0.673061
vt 0.185709 0.673061
vt 0.185709 0.688553
vt 0.129940 0.688553
vt 0.719129 0.650114
vt 0.713534 0.644519
vt 0.705622 0.644519
vt 0.709579 0.654070
vt 0.129940 0.781502
vt 0.185709 0.781502
vt 0.185709 0.796993
vt 0.129940 0.796993
vt 0.719129 0.658026
vt 0.713534 0.663620
vt 0.191906 0.781502
vt 0.191906 0.796993
vt 0.191906 0.673061
vt 0.191906 0.688553
vt 0.185709 0.704044
vt 0.129940 0.704044
vt 0.191906 0.704044
vt 0.185709 0.719536
vt 0.129940 0.719536
vt 0.191906 0.719536
vt 0.185709 0.735027
vt 0.129940 0.735027
vt 0.191906 0.735027
vt 0.185709 0.750519
vt 0.129940 0.750519
vt 0.191906 0.750519
vt 0.185709 0.766011
vt 0.129940 0.766011
vt 0.191906 0.766011
vt 0.584534 0.304279
vt 0.584534 0.315458
vt 0.576629 0.323363
vt 0.571040 0.309869
vt 0.576629 0.296375
vt 0.565450 0.296375
vt 0.557546 0.315458
vt 0.557546 0.304279
vt 0.565450 0.323363
vt 0.700028 0.658026
vt 0.705622 0.663620
vt 0.700028 0.650114
vt 0.797739 0.000000
vt 0.853508 0.000000
vt 0.853508 0.015492
vt 0.797739 0.015492
vt 0.713535 0.625418
vt 0.705623 0.625418
vt 0.700028 0.631012
vt 0.709579 0.634968
vt 0.797739 0.108441
vt 0.853508 0.108441
vt 0.853508 0.123932
vt 0.719129 0.631012
vt 0.719129 0.638924
vt 0.859704 0.108441
vt 0.859704 0.123932
vt 0.859704 0.000000
vt 0.859704 0.015492
vt 0.853508 0.030983
vt 0.797739 0.030983
vt 0.859704 0.030983
vt 0.853508 0.046474
vt 0.797739 0.046475
vt 0.859704 0.046474
vt 0.853508 0.061966
vt 0.797739 0.061966
vt 0.859704 0.061966
vt 0.853508 0.077458
vt 0.797739 0.077458
vt 0.859704 0.077458
vt 0.853508 0.092949
vt 0.797739 0.092949
vt 0.859704 0.092949
vt 0.584534 0.315458
vt 0.584534 0.304279
vt 0.592438 0.296375
vt 0.598028 0.309869
vt 0.592438 0.323363
vt 0.603617 0.323363
vt 0.611521 0.304279
vt 0.611521 0.315458
vt 0.603617 0.296375
vt 0.705623 0.644519
vt 0.713535 0.644519
vt 0.700028 0.638924
vt 0.789990 0.746673
vt 0.845760 0.746673
vt 0.845760 0.762165
vt 0.789990 0.762165
vt 0.686547 0.671507
vt 0.678635 0.671507
vt 0.673040 0.677101
vt 0.682591 0.681057
vt 0.789990 0.855114
vt 0.845760 0.855114
vt 0.845760 0.870605
vt 0.789990 0.870605
vt 0.692142 0.677101
vt 0.692142 0.685013
vt 0.851957 0.855114
vt 0.851957 0.870605
vt 0.851957 0.746673
vt 0.851957 0.762165
vt 0.845760 0.777656
vt 0.789990 0.777656
vt 0.851957 0.777656
vt 0.845760 0.793148
vt 0.789990 0.793148
vt 0.851957 0.793148
vt 0.845760 0.808639
vt 0.789990 0.808639
vt 0.851957 0.808639
vt 0.845760 0.824131
vt 0.789990 0.824131
vt 0.851957 0.824131
vt 0.845760 0.839622
vt 0.789990 0.839622
vt 0.851957 0.839622
vt 0.423644 0.653595
vt 0.423644 0.664774
vt 0.415740 0.672679
vt 0.410150 0.659185
vt 0.415740 0.645691
vt 0.404561 0.645691
vt 0.396656 0.664774
vt 0.396656 0.653595
vt 0.404561 0.672679
vt 0.678635 0.690608
vt 0.686547 0.690608
vt 0.673040 0.685013
vt 0.783794 0.622741
vt 0.783794 0.638233
vt 0.728025 0.638233
vt 0.697736 0.709710
vt 0.692142 0.715304
vt 0.692142 0.723216
vt 0.701692 0.719260
vt 0.728025 0.731182
vt 0.783794 0.731182
vt 0.783794 0.746673
vt 0.728025 0.746673
vt 0.705648 0.709710
vt 0.711243 0.715304
vt 0.789990 0.731182
vt 0.789990 0.622741
vt 0.789990 0.638233
vt 0.783794 0.653725
vt 0.728025 0.653725
vt 0.789990 0.653725
vt 0.783794 0.669216
vt 0.728025 0.669216
vt 0.789990 0.669216
vt 0.783794 0.684707
vt 0.728025 0.684707
vt 0.789990 0.684707
vt 0.783794 0.700199
vt 0.728025 0.700199
vt 0.789990 0.700199
vt 0.783794 0.715690
vt 0.728025 0.715690
vt 0.789990 0.715690
vt 0.619426 0.296375
vt 0.630605 0.296375
vt 0.625015 0.309869
vt 0.619426 0.323363
vt 0.638509 0.315458
vt 0.630605 0.323363
vt 0.638509 0.304279
vt 0.705648 0.728811
vt 0.711243 0.723216
vt 0.697736 0.728811
vt 0.805382 0.323363
vt 0.861152 0.323363
vt 0.861152 0.338854
vt 0.805382 0.338854
vt 0.673040 0.715304
vt 0.673040 0.723216
vt 0.678635 0.728811
vt 0.682591 0.719260
vt 0.805382 0.431803
vt 0.861152 0.431803
vt 0.861152 0.447295
vt 0.805382 0.447295
vt 0.678635 0.709710
vt 0.686547 0.709710
vt 0.867348 0.431803
vt 0.867348 0.447295
vt 0.867348 0.323363
vt 0.867348 0.338854
vt 0.861152 0.354346
vt 0.805382 0.354346
vt 0.867348 0.354346
vt 0.861152 0.369837
vt 0.805382 0.369837
vt 0.867348 0.369837
vt 0.861152 0.385329
vt 0.805382 0.385329
vt 0.867348 0.385329
vt 0.861152 0.400820
vt 0.805382 0.400820
vt 0.867348 0.400820
vt 0.861152 0.416312
vt 0.805382 0.416312
vt 0.867348 0.416312
vt 0.673401 0.323363
vt 0.665497 0.315458
vt 0.665497 0.304279
vt 0.678991 0.309869
vt 0.684580 0.323363
vt 0.692485 0.315458
vt 0.684580 0.296375
vt 0.692485 0.304279
vt 0.673401 0.296375
vt 0.692142 0.723216
vt 0.692142 0.715304
vt 0.686547 0.728811
vt 0.191906 0.688553
vt 0.247675 0.688553
vt 0.247675 0.673061
vt 0.711586 0.309856
vt 0.721137 0.313812
vt 0.717181 0.323363
vt 0.711586 0.317768
vt 0.191906 0.781502
vt 0.247675 0.796993
vt 0.247675 0.781502
vt 0.717181 0.304261
vt 0.725093 0.304261
vt 0.253872 0.796993
vt 0.253872 0.781502
vt 0.253872 0.688553
vt 0.253872 0.673061
vt 0.191906 0.704045
vt 0.247675 0.704045
vt 0.253872 0.704045
vt 0.191906 0.719536
vt 0.247675 0.719536
vt 0.253872 0.719536
vt 0.247675 0.735027
vt 0.253872 0.735027
vt 0.191906 0.750519
vt 0.247675 0.750519
vt 0.253872 0.750519
vt 0.191906 0.766010
vt 0.247675 0.766010
vt 0.253872 0.766010
vt 0.396656 0.637786
vt 0.410150 0.632197
vt 0.404561 0.618703
vt 0.396656 0.626607
vt 0.404561 0.645691
vt 0.415739 0.645691
vt 0.423644 0.637786
vt 0.423644 0.626607
vt 0.415739 0.618703
vt 0.730687 0.309856
vt 0.730687 0.317768
vt 0.725093 0.323363
vt 0.253872 0.688553
vt 0.309641 0.688553
vt 0.309641 0.673061
vt 0.711243 0.696203
vt 0.701692 0.700159
vt 0.697736 0.690608
vt 0.705648 0.690608
vt 0.253872 0.781502
vt 0.309641 0.796993
vt 0.309641 0.781502
vt 0.711243 0.704115
vt 0.705648 0.709710
vt 0.315838 0.796993
vt 0.315838 0.781502
vt 0.315838 0.688553
vt 0.315838 0.673061
vt 0.253872 0.704044
vt 0.309641 0.704044
vt 0.315838 0.704044
vt 0.253872 0.719536
vt 0.309641 0.719536
vt 0.315838 0.719536
vt 0.309641 0.735027
vt 0.315838 0.735027
vt 0.253872 0.750519
vt 0.309641 0.750519
vt 0.315838 0.750519
vt 0.309641 0.766010
vt 0.315838 0.766010
vt 0.665497 0.315458
vt 0.652003 0.309869
vt 0.646414 0.323363
vt 0.657592 0.323363
vt 0.665497 0.304279
vt 0.657592 0.296375
vt 0.646414 0.296375
vt 0.638509 0.304279
vt 0.638509 0.315458
vt 0.697736 0.709710
vt 0.692142 0.704115
vt 0.692142 0.696203
vt 0.728025 0.762165
vt 0.783794 0.762165
vt 0.686547 0.690608
vt 0.682591 0.700159
vt 0.673040 0.696203
vt 0.678635 0.690608
vt 0.728025 0.855114
vt 0.728025 0.870605
vt 0.783794 0.870605
vt 0.783794 0.855114
vt 0.692142 0.696203
vt 0.692142 0.704115
vt 0.789990 0.870605
vt 0.728025 0.777656
vt 0.783794 0.777656
vt 0.728025 0.793148
vt 0.783794 0.793148
vt 0.789990 0.793148
vt 0.728025 0.808640
vt 0.783794 0.808640
vt 0.789990 0.808640
vt 0.728025 0.824131
vt 0.783794 0.824131
vt 0.728025 0.839622
vt 0.783794 0.839622
vt 0.789990 0.839622
vt 0.423644 0.680583
vt 0.410150 0.686173
vt 0.415739 0.699666
vt 0.423644 0.691762
vt 0.415739 0.672679
vt 0.404561 0.672679
vt 0.396656 0.680583
vt 0.396656 0.691762
vt 0.404561 0.699666
vt 0.686547 0.709709
vt 0.678635 0.709709
vt 0.673040 0.704115
vt 0.371607 0.688553
vt 0.371607 0.673061
vt 0.398948 0.699666
vt 0.394992 0.709217
vt 0.385441 0.705261
vt 0.391036 0.699666
vt 0.315838 0.781502
vt 0.371607 0.796993
vt 0.371607 0.781502
vt 0.404543 0.705261
vt 0.404543 0.713173
vt 0.377804 0.796993
vt 0.377804 0.781502
vt 0.377804 0.688553
vt 0.377804 0.673061
vt 0.315838 0.704045
vt 0.371607 0.704045
vt 0.377804 0.704045
vt 0.315838 0.719536
vt 0.371607 0.719536
vt 0.377804 0.719536
vt 0.371607 0.735027
vt 0.377804 0.735027
vt 0.315838 0.750519
vt 0.371607 0.750519
vt 0.377804 0.750519
vt 0.371607 0.766010
vt 0.377804 0.766010
vt 0.700028 0.625436
vt 0.686534 0.631025
vt 0.692123 0.644519
vt 0.700028 0.636615
vt 0.692123 0.617531
vt 0.680945 0.617531
vt 0.673040 0.625436
vt 0.673040 0.636615
vt 0.680945 0.644519
vt 0.398948 0.718768
vt 0.391036 0.718768
vt 0.385441 0.713173
vt 0.789990 0.638233
vt 0.845760 0.638233
vt 0.845760 0.622741
vt 0.698079 0.304261
vt 0.702035 0.313812
vt 0.692485 0.317768
vt 0.692485 0.309856
vt 0.789990 0.746673
vt 0.845760 0.746673
vt 0.845760 0.731182
vt 0.705991 0.304261
vt 0.711586 0.309856
vt 0.851956 0.746673
vt 0.851956 0.731182
vt 0.851956 0.638233
vt 0.851956 0.622741
vt 0.789990 0.653724
vt 0.845760 0.653724
vt 0.851956 0.653724
vt 0.789990 0.669216
vt 0.845760 0.669216
vt 0.851956 0.669216
vt 0.789990 0.684707
vt 0.845760 0.684707
vt 0.851956 0.684707
vt 0.789990 0.700198
vt 0.845760 0.700198
vt 0.851956 0.700198
vt 0.789990 0.715690
vt 0.845760 0.715690
vt 0.851956 0.715690
vt 0.700028 0.663602
vt 0.686534 0.658013
vt 0.680944 0.671507
vt 0.692123 0.671507
vt 0.700028 0.652423
vt 0.692123 0.644519
vt 0.680944 0.644519
vt 0.673040 0.652423
vt 0.673040 0.663602
vt 0.711586 0.317768
vt 0.705991 0.323363
vt 0.698079 0.323363
vt 0.805382 0.462786
vt 0.861152 0.462786
vt 0.861152 0.447295
vt 0.418049 0.699666
vt 0.414093 0.709217
vt 0.404543 0.705261
vt 0.410137 0.699666
vt 0.805382 0.555735
vt 0.805382 0.571226
vt 0.861152 0.571226
vt 0.861152 0.555735
vt 0.423644 0.705261
vt 0.423644 0.713173
vt 0.867348 0.571226
vt 0.867348 0.555735
vt 0.867348 0.462786
vt 0.867348 0.447295
vt 0.805382 0.478278
vt 0.861152 0.478278
vt 0.867348 0.478278
vt 0.805382 0.493769
vt 0.861152 0.493769
vt 0.867348 0.493769
vt 0.805382 0.509260
vt 0.861152 0.509260
vt 0.867348 0.509260
vt 0.805382 0.524752
vt 0.861152 0.524752
vt 0.867348 0.524752
vt 0.805382 0.540244
vt 0.861152 0.540244
vt 0.867348 0.540244
vt 0.557546 0.304279
vt 0.544052 0.309869
vt 0.549641 0.323363
vt 0.557546 0.315458
vt 0.549641 0.296375
vt 0.538463 0.296375
vt 0.530558 0.304279
vt 0.530558 0.315458
vt 0.538463 0.323363
vt 0.418049 0.718768
vt 0.410137 0.718768
vt 0.404543 0.713173
s 0
usemtl UniV_Grid_2K
f 6/1/1 3/2/1 1/3/1
f 8/4/2 4/5/2 3/2/2
f 7/6/3 2/7/3 4/5/3
f 10/8/4 15/9/4 13/10/4
f 12/11/5 16/12/5 15/9/5
f 11/13/6 14/14/6 16/12/6
f 26/15/7 31/16/7 29/17/7
f 28/18/8 32/19/8 31/16/8
f 27/20/9 30/21/9 32/19/9
f 18/22/10 23/23/10 21/24/10
f 20/25/11 24/26/11 23/23/11
f 19/27/12 22/28/12 24/26/12
f 26/29/13 18/30/13 2/31/13
f 5/32/14 9/33/14 2/7/14
f 21/24/15 1/34/15 18/22/15
f 14/35/16 6/36/16 22/37/16
f 13/10/17 25/38/17 10/8/17
f 29/17/18 17/39/18 26/15/18
f 6/1/1 8/4/1 3/2/1
f 8/4/2 7/6/2 4/5/2
f 7/6/3 5/32/3 2/7/3
f 10/8/4 12/11/4 15/9/4
f 12/11/5 11/13/5 16/12/5
f 11/13/6 9/33/6 14/14/6
f 26/15/7 28/18/7 31/16/7
f 28/18/8 27/20/8 32/19/8
f 27/20/9 25/38/9 30/21/9
f 18/22/10 20/25/10 23/23/10
f 20/25/11 19/27/11 24/26/11
f 19/27/12 17/39/12 22/28/12
f 2/31/13 9/40/13 10/41/13
f 9/40/13 11/42/13 10/41/13
f 11/42/13 12/43/13 10/41/13
f 10/41/13 25/44/13 26/29/13
f 25/44/13 27/45/13 26/29/13
f 27/45/13 28/46/13 26/29/13
f 26/29/13 17/47/13 18/30/13
f 17/47/13 19/48/13 18/30/13
f 19/48/13 20/49/13 18/30/13
f 18/30/13 1/50/13 2/31/13
f 1/50/13 3/51/13 2/31/13
f 3/51/13 4/52/13 2/31/13
f 2/31/13 10/41/13 26/29/13
f 5/32/14 14/14/14 9/33/14
f 21/24/15 6/53/15 1/34/15
f 22/37/16 29/54/16 30/55/16
f 29/54/16 31/56/16 30/55/16
f 31/56/16 32/57/16 30/55/16
f 30/55/16 13/58/16 14/35/16
f 13/58/16 15/59/16 14/35/16
f 15/59/16 16/60/16 14/35/16
f 14/35/16 5/61/16 6/36/16
f 5/61/16 7/62/16 6/36/16
f 7/62/16 8/63/16 6/36/16
f 6/36/16 21/64/16 22/37/16
f 21/64/16 23/65/16 22/37/16
f 23/65/16 24/66/16 22/37/16
f 22/37/16 30/55/16 14/35/16
f 13/10/17 30/21/17 25/38/17
f 29/17/18 22/28/18 17/39/18
f 34/67/19 33/68/19 37/69/19 59/70/19
f 33/71/20 34/72/20 54/73/20 35/74/20
f 37/75/21 33/76/21 35/77/21 52/78/21
f 36/79/16 58/80/16 37/81/16 33/82/16
f 33/83/15 38/84/15 39/85/15 36/86/15
f 37/87/14 40/88/14 38/84/14 33/83/14
f 38/89/13 40/90/13 41/91/13 39/92/13
f 40/90/13 42/93/13 43/94/13 41/91/13
f 37/87/14 45/95/14 42/96/14 40/88/14
f 64/97/13 43/94/13 42/93/13 44/98/13
f 48/99/14 44/100/14 42/96/14 45/95/14
f 48/101/19 63/102/19 46/103/19 45/104/19
f 45/105/22 46/106/22 47/107/22
f 48/82/16 45/108/16 47/92/16 62/109/16
f 47/110/13 58/111/13 37/112/13 45/113/13
f 48/114/21 45/115/21 49/116/21 50/117/21
f 45/115/21 37/75/21 52/78/21 49/116/21
f 49/118/23 51/119/23 61/120/23 50/121/23
f 52/122/23 53/123/23 51/119/23 49/118/23
f 35/124/23 54/125/23 53/123/23 52/122/23
f 55/126/24 53/123/24 54/125/24 56/127/24
f 57/128/24 51/119/24 53/123/24 55/126/24
f 36/76/25 58/129/25 55/130/25 56/131/25
f 58/129/25 47/115/25 57/132/25 55/130/25
f 36/133/26 34/67/26 59/70/26 58/134/26
f 58/135/27 59/136/27 37/137/27
f 36/86/18 39/85/18 41/138/18 58/139/18
f 41/138/18 43/140/18 47/141/18 58/139/18
f 60/142/24 61/120/24 51/119/24 57/128/24
f 47/115/25 62/114/25 60/143/25 57/132/25
f 62/144/28 63/145/28 61/146/28 60/147/28
f 62/148/17 64/149/17 44/150/17 48/151/17
f 63/102/26 62/152/26 47/153/26 46/103/26
f 47/141/18 43/140/18 64/149/18 62/148/18
f 63/154/29 48/155/29 50/156/29 61/157/29
f 34/158/30 36/159/30 56/160/30 54/161/30
f 65/162/31 69/163/31 72/164/31 66/165/31
f 65/166/13 66/167/13 75/168/13 68/169/13
f 67/170/32 71/171/32 69/172/32 65/173/32
f 67/174/13 65/166/13 68/169/13 87/175/13
f 71/171/32 89/176/32 70/177/32 69/172/32
f 69/163/31 70/178/31 73/179/31 72/164/31
f 66/165/33 72/164/33 74/180/33 75/181/33
f 72/164/33 73/179/33 76/182/33 74/180/33
f 75/181/34 74/180/34 77/183/34 78/184/34
f 74/180/34 76/182/34 79/185/34 77/183/34
f 78/184/35 77/183/35 80/186/35 81/187/35
f 77/183/35 79/185/35 82/188/35 80/186/35
f 81/187/36 80/186/36 83/189/36 84/190/36
f 80/186/36 82/188/36 85/191/36 83/189/36
f 84/190/37 83/189/37 86/192/37 87/193/37
f 83/189/37 85/191/37 88/194/37 86/192/37
f 87/193/38 86/192/38 71/171/38 67/170/38
f 86/192/38 88/194/38 89/176/38 71/171/38
f 88/194/39 85/191/39 92/191/39 90/194/39
f 89/176/40 88/194/40 90/194/40 93/176/40
f 93/176/40 90/194/40 91/194/40 94/176/40
f 90/194/39 92/191/39 124/191/39 91/194/39
f 95/177/41 93/176/41 94/176/41 97/177/41
f 70/177/41 89/176/41 93/176/41 95/177/41
f 73/179/42 70/178/42 95/178/42 96/179/42
f 96/179/42 95/178/42 97/178/42 98/179/42
f 98/179/43 97/178/43 99/178/43 100/179/43
f 97/177/44 94/176/44 102/176/44 99/177/44
f 100/179/45 99/178/45 101/178/45 116/179/45
f 99/177/46 102/176/46 104/176/46 101/177/46
f 94/176/47 91/194/47 103/194/47 102/176/47
f 102/176/48 103/194/48 105/194/48 104/176/48
f 104/176/48 105/194/48 107/194/48 106/176/48
f 101/177/46 104/176/46 106/176/46 108/177/46
f 108/195/16 106/196/16 107/197/16 110/198/16
f 116/179/45 101/178/45 108/178/45 109/179/45
f 109/199/16 108/195/16 110/198/16 112/200/16
f 112/200/16 110/198/16 111/201/16 113/202/16
f 110/198/16 107/197/16 123/203/16 111/201/16
f 114/182/49 116/179/49 109/179/49 112/182/49
f 117/185/50 114/182/50 112/182/50 113/185/50
f 118/185/50 115/182/50 114/182/50 117/185/50
f 115/182/49 100/179/49 116/179/49 114/182/49
f 120/188/51 118/185/51 117/185/51 119/188/51
f 119/188/51 117/185/51 113/185/51 111/188/51
f 122/191/52 120/188/52 119/188/52 121/191/52
f 121/191/52 119/188/52 111/188/52 123/191/52
f 103/194/53 122/191/53 121/191/53 105/194/53
f 105/194/53 121/191/53 123/191/53 107/194/53
f 91/194/54 124/191/54 122/191/54 103/194/54
f 124/191/55 125/188/55 120/188/55 122/191/55
f 92/191/56 126/188/56 125/188/56 124/191/56
f 126/188/57 128/185/57 127/185/57 125/188/57
f 125/188/58 127/185/58 118/185/58 120/188/58
f 128/185/59 130/182/59 129/182/59 127/185/59
f 127/185/60 129/182/60 115/182/60 118/185/60
f 130/182/61 96/179/61 98/179/61 129/182/61
f 129/182/62 98/179/62 100/179/62 115/182/62
f 76/182/61 73/179/61 96/179/61 130/182/61
f 79/185/59 76/182/59 130/182/59 128/185/59
f 82/188/57 79/185/57 128/185/57 126/188/57
f 85/191/56 82/188/56 126/188/56 92/191/56
f 87/175/13 68/169/13 81/204/13 84/205/13
f 68/169/13 75/168/13 78/206/13 81/204/13
f 131/207/31 135/208/31 138/209/31 132/210/31
f 131/211/13 132/212/13 141/213/13 134/214/13
f 133/215/32 137/216/32 135/217/32 131/218/32
f 133/219/13 131/211/13 134/214/13 153/220/13
f 137/216/32 155/221/32 136/222/32 135/217/32
f 135/208/31 136/223/31 139/224/31 138/209/31
f 132/210/33 138/209/33 140/225/33 141/226/33
f 138/209/33 139/224/33 142/227/33 140/225/33
f 141/226/34 140/225/34 143/228/34 144/229/34
f 140/225/34 142/227/34 145/230/34 143/228/34
f 144/229/35 143/228/35 146/231/35 147/232/35
f 143/228/35 145/230/35 148/233/35 146/231/35
f 147/232/36 146/231/36 149/234/36 150/235/36
f 146/231/36 148/233/36 151/236/36 149/234/36
f 150/235/37 149/234/37 152/237/37 153/238/37
f 149/234/37 151/236/37 154/239/37 152/237/37
f 153/238/38 152/237/38 137/216/38 133/215/38
f 152/237/38 154/239/38 155/221/38 137/216/38
f 154/239/39 151/236/39 158/236/39 156/239/39
f 155/221/40 154/239/40 156/239/40 159/221/40
f 159/221/40 156/239/40 157/239/40 160/221/40
f 156/239/39 158/236/39 190/236/39 157/239/39
f 161/222/41 159/221/41 160/221/41 163/222/41
f 136/222/41 155/221/41 159/221/41 161/222/41
f 139/224/42 136/223/42 161/223/42 162/224/42
f 162/224/42 161/223/42 163/223/42 164/224/42
f 164/224/43 163/223/43 165/223/43 166/224/43
f 163/222/44 160/221/44 168/221/44 165/222/44
f 166/224/45 165/223/45 167/223/45 182/224/45
f 165/222/46 168/221/46 170/221/46 167/222/46
f 160/221/47 157/239/47 169/239/47 168/221/47
f 168/221/48 169/239/48 171/239/48 170/221/48
f 170/221/48 171/239/48 173/239/48 172/221/48
f 167/222/46 170/221/46 172/221/46 174/222/46
f 174/240/16 172/241/16 173/242/16 176/243/16
f 182/224/45 167/223/45 174/223/45 175/224/45
f 175/244/16 174/240/16 176/243/16 178/245/16
f 178/245/16 176/243/16 177/246/16 179/247/16
f 176/243/16 173/242/16 189/248/16 177/246/16
f 180/227/49 182/224/49 175/224/49 178/227/49
f 183/230/50 180/227/50 178/227/50 179/230/50
f 184/230/50 181/227/50 180/227/50 183/230/50
f 181/227/49 166/224/49 182/224/49 180/227/49
f 186/233/51 184/230/51 183/230/51 185/233/51
f 185/233/51 183/230/51 179/230/51 177/233/51
f 188/236/52 186/233/52 185/233/52 187/236/52
f 187/236/52 185/233/52 177/233/52 189/236/52
f 169/239/53 188/236/53 187/236/53 171/239/53
f 171/239/53 187/236/53 189/236/53 173/239/53
f 157/239/54 190/236/54 188/236/54 169/239/54
f 190/236/55 191/233/55 186/233/55 188/236/55
f 158/236/56 192/233/56 191/233/56 190/236/56
f 192/233/57 194/230/57 193/230/57 191/233/57
f 191/233/58 193/230/58 184/230/58 186/233/58
f 194/230/59 196/227/59 195/227/59 193/230/59
f 193/230/60 195/227/60 181/227/60 184/230/60
f 196/227/61 162/224/61 164/224/61 195/227/61
f 195/227/62 164/224/62 166/224/62 181/227/62
f 142/227/61 139/224/61 162/224/61 196/227/61
f 145/230/59 142/227/59 196/227/59 194/230/59
f 148/233/57 145/230/57 194/230/57 192/233/57
f 151/236/56 148/233/56 192/233/56 158/236/56
f 153/220/13 134/214/13 147/249/13 150/250/13
f 134/214/13 141/213/13 144/251/13 147/249/13
f 197/252/31 201/253/31 204/254/31 198/255/31
f 197/256/13 198/257/13 207/258/13 200/259/13
f 199/260/32 203/261/32 201/262/32 197/162/32
f 199/263/13 197/256/13 200/259/13 219/264/13
f 203/261/32 221/265/32 202/266/32 201/262/32
f 201/253/31 202/267/31 205/268/31 204/254/31
f 198/255/33 204/254/33 206/269/33 207/270/33
f 204/254/33 205/268/33 208/271/33 206/269/33
f 207/270/34 206/269/34 209/272/34 210/273/34
f 206/269/34 208/271/34 211/274/34 209/272/34
f 210/273/35 209/272/35 212/275/35 213/276/35
f 209/272/35 211/274/35 214/277/35 212/275/35
f 213/276/36 212/275/36 215/278/36 216/279/36
f 212/275/36 214/277/36 217/280/36 215/278/36
f 216/279/37 215/278/37 218/281/37 219/282/37
f 215/278/37 217/280/37 220/283/37 218/281/37
f 219/282/38 218/281/38 203/261/38 199/260/38
f 218/281/38 220/283/38 221/265/38 203/261/38
f 220/283/39 217/280/39 224/280/39 222/283/39
f 221/265/40 220/283/40 222/283/40 225/265/40
f 225/265/40 222/283/40 223/283/40 226/265/40
f 222/283/39 224/280/39 256/280/39 223/283/39
f 227/266/41 225/265/41 226/265/41 229/266/41
f 202/266/41 221/265/41 225/265/41 227/266/41
f 205/268/42 202/267/42 227/267/42 228/268/42
f 228/268/42 227/267/42 229/267/42 230/268/42
f 230/268/43 229/267/43 231/267/43 232/268/43
f 229/266/44 226/265/44 234/265/44 231/266/44
f 232/268/45 231/267/45 233/267/45 248/268/45
f 231/266/46 234/265/46 236/265/46 233/266/46
f 226/265/47 223/283/47 235/283/47 234/265/47
f 234/265/48 235/283/48 237/283/48 236/265/48
f 236/265/48 237/283/48 239/283/48 238/265/48
f 233/266/46 236/265/46 238/265/46 240/266/46
f 240/284/16 238/285/16 239/286/16 242/287/16
f 248/268/45 233/267/45 240/267/45 241/268/45
f 241/288/16 240/284/16 242/287/16 244/289/16
f 244/289/16 242/287/16 243/290/16 245/291/16
f 242/287/16 239/286/16 255/292/16 243/290/16
f 246/271/49 248/268/49 241/268/49 244/271/49
f 249/274/50 246/271/50 244/271/50 245/274/50
f 250/274/50 247/271/50 246/271/50 249/274/50
f 247/271/49 232/268/49 248/268/49 246/271/49
f 252/277/51 250/274/51 249/274/51 251/277/51
f 251/277/51 249/274/51 245/274/51 243/277/51
f 254/280/52 252/277/52 251/277/52 253/280/52
f 253/280/52 251/277/52 243/277/52 255/280/52
f 235/283/53 254/280/53 253/280/53 237/283/53
f 237/283/53 253/280/53 255/280/53 239/283/53
f 223/283/54 256/280/54 254/280/54 235/283/54
f 256/280/55 257/277/55 252/277/55 254/280/55
f 224/280/56 258/277/56 257/277/56 256/280/56
f 258/277/57 260/274/57 259/274/57 257/277/57
f 257/277/58 259/274/58 250/274/58 252/277/58
f 260/274/59 262/271/59 261/271/59 259/274/59
f 259/274/60 261/271/60 247/271/60 250/274/60
f 262/271/61 228/268/61 230/268/61 261/271/61
f 261/271/62 230/268/62 232/268/62 247/271/62
f 208/271/61 205/268/61 228/268/61 262/271/61
f 211/274/59 208/271/59 262/271/59 260/274/59
f 214/277/57 211/274/57 260/274/57 258/277/57
f 217/280/56 214/277/56 258/277/56 224/280/56
f 219/264/13 200/259/13 213/293/13 216/294/13
f 200/259/13 207/258/13 210/295/13 213/293/13
f 263/296/31 267/297/31 270/298/31 264/299/31
f 263/300/13 264/301/13 273/302/13 266/303/13
f 265/304/32 269/305/32 267/306/32 263/307/32
f 265/308/13 263/300/13 266/303/13 285/309/13
f 269/305/32 287/310/32 268/311/32 267/306/32
f 267/297/31 268/312/31 271/313/31 270/298/31
f 264/299/33 270/298/33 272/314/33 273/315/33
f 270/298/33 271/313/33 274/316/33 272/314/33
f 273/315/34 272/314/34 275/317/34 276/318/34
f 272/314/34 274/316/34 277/319/34 275/317/34
f 276/318/35 275/317/35 278/320/35 279/321/35
f 275/317/35 277/319/35 280/322/35 278/320/35
f 279/321/36 278/320/36 281/323/36 282/324/36
f 278/320/36 280/322/36 283/325/36 281/323/36
f 282/324/37 281/323/37 284/326/37 285/327/37
f 281/323/37 283/325/37 286/328/37 284/326/37
f 285/327/38 284/326/38 269/305/38 265/304/38
f 284/326/38 286/328/38 287/310/38 269/305/38
f 286/328/39 283/325/39 290/325/39 288/328/39
f 287/310/40 286/328/40 288/328/40 291/310/40
f 291/310/40 288/328/40 289/328/40 292/310/40
f 288/328/39 290/325/39 322/325/39 289/328/39
f 293/311/41 291/310/41 292/310/41 295/311/41
f 268/311/41 287/310/41 291/310/41 293/311/41
f 271/313/42 268/312/42 293/312/42 294/313/42
f 294/313/42 293/312/42 295/312/42 296/313/42
f 296/313/43 295/312/43 297/312/43 298/313/43
f 295/311/44 292/310/44 300/310/44 297/311/44
f 298/313/45 297/312/45 299/312/45 314/313/45
f 297/311/46 300/310/46 302/310/46 299/311/46
f 292/310/47 289/328/47 301/328/47 300/310/47
f 300/310/48 301/328/48 303/328/48 302/310/48
f 302/310/48 303/328/48 305/328/48 304/310/48
f 299/311/46 302/310/46 304/310/46 306/311/46
f 306/329/16 304/330/16 305/331/16 308/332/16
f 314/313/45 299/312/45 306/312/45 307/313/45
f 307/333/16 306/329/16 308/332/16 310/334/16
f 310/334/16 308/332/16 309/335/16 311/336/16
f 308/332/16 305/331/16 321/337/16 309/335/16
f 312/316/49 314/313/49 307/313/49 310/316/49
f 315/319/50 312/316/50 310/316/50 311/319/50
f 316/319/50 313/316/50 312/316/50 315/319/50
f 313/316/49 298/313/49 314/313/49 312/316/49
f 318/322/51 316/319/51 315/319/51 317/322/51
f 317/322/51 315/319/51 311/319/51 309/322/51
f 320/325/52 318/322/52 317/322/52 319/325/52
f 319/325/52 317/322/52 309/322/52 321/325/52
f 301/328/53 320/325/53 319/325/53 303/328/53
f 303/328/53 319/325/53 321/325/53 305/328/53
f 289/328/54 322/325/54 320/325/54 301/328/54
f 322/325/55 323/322/55 318/322/55 320/325/55
f 290/325/56 324/322/56 323/322/56 322/325/56
f 324/322/57 326/319/57 325/319/57 323/322/57
f 323/322/58 325/319/58 316/319/58 318/322/58
f 326/319/59 328/316/59 327/316/59 325/319/59
f 325/319/60 327/316/60 313/316/60 316/319/60
f 328/316/61 294/313/61 296/313/61 327/316/61
f 327/316/62 296/313/62 298/313/62 313/316/62
f 274/316/61 271/313/61 294/313/61 328/316/61
f 277/319/59 274/316/59 328/316/59 326/319/59
f 280/322/57 277/319/57 326/319/57 324/322/57
f 283/325/56 280/322/56 324/322/56 290/325/56
f 285/309/13 266/303/13 279/338/13 282/339/13
f 266/303/13 273/302/13 276/340/13 279/338/13
f 329/1/31 333/341/31 336/342/31 330/343/31
f 329/344/13 330/345/13 339/346/13 332/347/13
f 331/348/32 335/349/32 333/350/32 329/351/32
f 331/352/13 329/344/13 332/347/13 351/353/13
f 335/349/32 353/354/32 334/296/32 333/350/32
f 333/341/31 334/355/31 337/356/31 336/342/31
f 330/343/33 336/342/33 338/357/33 339/358/33
f 336/342/33 337/356/33 340/359/33 338/357/33
f 339/358/34 338/357/34 341/360/34 342/361/34
f 338/357/34 340/359/34 343/362/34 341/360/34
f 342/361/35 341/360/35 344/363/35 345/364/35
f 341/360/35 343/362/35 346/365/35 344/363/35
f 345/364/36 344/363/36 347/366/36 348/367/36
f 344/363/36 346/365/36 349/368/36 347/366/36
f 348/367/37 347/366/37 350/369/37 351/370/37
f 347/366/37 349/368/37 352/371/37 350/369/37
f 351/370/38 350/369/38 335/349/38 331/348/38
f 350/369/38 352/371/38 353/354/38 335/349/38
f 352/371/39 349/368/39 356/368/39 354/371/39
f 353/354/40 352/371/40 354/371/40 357/354/40
f 357/354/40 354/371/40 355/371/40 358/354/40
f 354/371/39 356/368/39 388/368/39 355/371/39
f 359/296/41 357/354/41 358/354/41 361/296/41
f 334/296/41 353/354/41 357/354/41 359/296/41
f 337/356/42 334/355/42 359/355/42 360/356/42
f 360/356/42 359/355/42 361/355/42 362/356/42
f 362/356/43 361/355/43 363/355/43 364/356/43
f 361/296/44 358/354/44 366/354/44 363/296/44
f 364/356/45 363/355/45 365/355/45 380/356/45
f 363/296/46 366/354/46 368/354/46 365/296/46
f 358/354/47 355/371/47 367/371/47 366/354/47
f 366/354/48 367/371/48 369/371/48 368/354/48
f 368/354/48 369/371/48 371/371/48 370/354/48
f 365/296/46 368/354/46 370/354/46 372/296/46
f 372/290/16 370/372/16 371/373/16 374/374/16
f 380/356/45 365/355/45 372/355/45 373/356/45
f 373/291/16 372/290/16 374/374/16 376/375/16
f 376/375/16 374/374/16 375/376/16 377/377/16
f 374/374/16 371/373/16 387/378/16 375/376/16
f 378/359/49 380/356/49 373/356/49 376/359/49
f 381/362/50 378/359/50 376/359/50 377/362/50
f 382/362/50 379/359/50 378/359/50 381/362/50
f 379/359/49 364/356/49 380/356/49 378/359/49
f 384/365/51 382/362/51 381/362/51 383/365/51
f 383/365/51 381/362/51 377/362/51 375/365/51
f 386/368/52 384/365/52 383/365/52 385/368/52
f 385/368/52 383/365/52 375/365/52 387/368/52
f 367/371/53 386/368/53 385/368/53 369/371/53
f 369/371/53 385/368/53 387/368/53 371/371/53
f 355/371/54 388/368/54 386/368/54 367/371/54
f 388/368/55 389/365/55 384/365/55 386/368/55
f 356/368/56 390/365/56 389/365/56 388/368/56
f 390/365/57 392/362/57 391/362/57 389/365/57
f 389/365/58 391/362/58 382/362/58 384/365/58
f 392/362/59 394/359/59 393/359/59 391/362/59
f 391/362/60 393/359/60 379/359/60 382/362/60
f 394/359/61 360/356/61 362/356/61 393/359/61
f 393/359/62 362/356/62 364/356/62 379/359/62
f 340/359/61 337/356/61 360/356/61 394/359/61
f 343/362/59 340/359/59 394/359/59 392/362/59
f 346/365/57 343/362/57 392/362/57 390/365/57
f 349/368/56 346/365/56 390/365/56 356/368/56
f 351/353/13 332/347/13 345/379/13 348/380/13
f 332/347/13 339/346/13 342/381/13 345/379/13
f 395/382/31 399/383/31 402/384/31 396/385/31
f 395/386/13 396/387/13 405/388/13 398/389/13
f 397/390/32 401/391/32 399/392/32 395/393/32
f 397/394/13 395/386/13 398/389/13 417/395/13
f 401/391/32 419/396/32 400/397/32 399/392/32
f 399/383/31 400/398/31 403/399/31 402/384/31
f 396/385/33 402/384/33 404/400/33 405/401/33
f 402/384/33 403/399/33 406/402/33 404/400/33
f 405/401/34 404/400/34 407/403/34 408/404/34
f 404/400/34 406/402/34 409/405/34 407/403/34
f 408/404/35 407/403/35 410/406/35 411/407/35
f 407/403/35 409/405/35 412/408/35 410/406/35
f 411/407/36 410/406/36 413/409/36 414/410/36
f 410/406/36 412/408/36 415/411/36 413/409/36
f 414/410/37 413/409/37 416/412/37 417/413/37
f 413/409/37 415/411/37 418/414/37 416/412/37
f 417/413/38 416/412/38 401/391/38 397/390/38
f 416/412/38 418/414/38 419/396/38 401/391/38
f 418/414/39 415/411/39 422/411/39 420/414/39
f 419/396/40 418/414/40 420/414/40 423/396/40
f 423/396/40 420/414/40 421/414/40 424/396/40
f 420/414/39 422/411/39 454/411/39 421/414/39
f 425/397/41 423/396/41 424/396/41 427/397/41
f 400/397/41 419/396/41 423/396/41 425/397/41
f 403/399/42 400/398/42 425/398/42 426/399/42
f 426/399/42 425/398/42 427/398/42 428/399/42
f 428/399/43 427/398/43 429/398/43 430/399/43
f 427/397/44 424/396/44 432/396/44 429/397/44
f 430/399/45 429/398/45 431/398/45 446/399/45
f 429/397/46 432/396/46 434/396/46 431/397/46
f 424/396/47 421/414/47 433/414/47 432/396/47
f 432/396/48 433/414/48 435/414/48 434/396/48
f 434/396/48 435/414/48 437/414/48 436/396/48
f 431/397/46 434/396/46 436/396/46 438/397/46
f 438/415/16 436/416/16 437/417/16 440/418/16
f 446/399/45 431/398/45 438/398/45 439/399/45
f 439/419/16 438/415/16 440/418/16 442/420/16
f 442/420/16 440/418/16 441/421/16 443/422/16
f 440/418/16 437/417/16 453/423/16 441/421/16
f 444/402/49 446/399/49 439/399/49 442/402/49
f 447/405/50 444/402/50 442/402/50 443/405/50
f 448/405/50 445/402/50 444/402/50 447/405/50
f 445/402/49 430/399/49 446/399/49 444/402/49
f 450/408/51 448/405/51 447/405/51 449/408/51
f 449/408/51 447/405/51 443/405/51 441/408/51
f 452/411/52 450/408/52 449/408/52 451/411/52
f 451/411/52 449/408/52 441/408/52 453/411/52
f 433/414/53 452/411/53 451/411/53 435/414/53
f 435/414/53 451/411/53 453/411/53 437/414/53
f 421/414/54 454/411/54 452/411/54 433/414/54
f 454/411/55 455/408/55 450/408/55 452/411/55
f 422/411/56 456/408/56 455/408/56 454/411/56
f 456/408/57 458/405/57 457/405/57 455/408/57
f 455/408/58 457/405/58 448/405/58 450/408/58
f 458/405/59 460/402/59 459/402/59 457/405/59
f 457/405/60 459/402/60 445/402/60 448/405/60
f 460/402/61 426/399/61 428/399/61 459/402/61
f 459/402/62 428/399/62 430/399/62 445/402/62
f 406/402/61 403/399/61 426/399/61 460/402/61
f 409/405/59 406/402/59 460/402/59 458/405/59
f 412/408/57 409/405/57 458/405/57 456/408/57
f 415/411/56 412/408/56 456/408/56 422/411/56
f 417/395/13 398/389/13 411/424/13 414/425/13
f 398/389/13 405/388/13 408/426/13 411/424/13
f 461/223/32 462/427/32 468/428/32 465/429/32
f 461/430/13 464/431/13 471/432/13 462/433/13
f 463/434/31 461/222/31 465/435/31 467/436/31
f 463/437/13 483/438/13 464/431/13 461/430/13
f 467/436/31 465/435/31 466/439/31 485/440/31
f 465/429/32 468/428/32 469/441/32 466/442/32
f 462/427/38 471/443/38 470/444/38 468/428/38
f 468/428/38 470/444/38 472/445/38 469/441/38
f 471/443/37 474/446/37 473/447/37 470/444/37
f 470/444/37 473/447/37 475/448/37 472/445/37
f 474/446/36 477/233/36 476/449/36 473/447/36
f 473/447/36 476/449/36 478/450/36 475/448/36
f 477/233/35 480/451/35 479/452/35 476/449/35
f 476/449/35 479/452/35 481/453/35 478/450/35
f 480/451/34 483/454/34 482/455/34 479/452/34
f 479/452/34 482/455/34 484/456/34 481/453/34
f 483/454/33 463/434/33 467/436/33 482/455/33
f 482/455/33 467/436/33 485/440/33 484/456/33
f 484/456/59 486/456/59 488/453/59 481/453/59
f 485/440/61 489/440/61 486/456/61 484/456/61
f 489/440/61 490/440/61 487/456/61 486/456/61
f 486/456/59 487/456/59 520/453/59 488/453/59
f 491/439/42 493/439/42 490/440/42 489/440/42
f 466/439/42 491/439/42 489/440/42 485/440/42
f 469/441/41 492/441/41 491/442/41 466/442/41
f 492/441/41 494/441/41 493/442/41 491/442/41
f 494/441/44 496/441/44 495/442/44 493/442/44
f 493/439/43 495/439/43 498/440/43 490/440/43
f 496/441/46 512/441/46 497/442/46 495/442/46
f 495/439/45 497/439/45 500/440/45 498/440/45
f 490/440/62 498/440/62 499/456/62 487/456/62
f 498/440/49 500/440/49 501/456/49 499/456/49
f 500/440/49 502/440/49 503/456/49 501/456/49
f 497/439/45 504/439/45 502/440/45 500/440/45
f 504/457/16 506/458/16 503/459/16 502/460/16
f 512/441/46 505/441/46 504/442/46 497/442/46
f 505/461/16 508/462/16 506/458/16 504/457/16
f 508/462/16 509/463/16 507/464/16 506/458/16
f 506/458/16 507/464/16 519/465/16 503/459/16
f 510/445/48 508/445/48 505/441/48 512/441/48
f 513/448/53 509/448/53 508/445/53 510/445/53
f 514/448/53 513/448/53 510/445/53 511/445/53
f 511/445/48 510/445/48 512/441/48 496/441/48
f 516/450/52 515/450/52 513/448/52 514/448/52
f 515/450/52 507/450/52 509/448/52 513/448/52
f 518/453/51 517/453/51 515/450/51 516/450/51
f 517/453/51 519/453/51 507/450/51 515/450/51
f 499/456/50 501/456/50 517/453/50 518/453/50
f 501/456/50 503/456/50 519/453/50 517/453/50
f 487/456/60 499/456/60 518/453/60 520/453/60
f 520/453/58 518/453/58 516/450/58 521/450/58
f 488/453/57 520/453/57 521/450/57 522/450/57
f 522/450/56 521/450/56 523/448/56 524/448/56
f 521/450/55 516/450/55 514/448/55 523/448/55
f 524/448/39 523/448/39 525/445/39 526/445/39
f 523/448/54 514/448/54 511/445/54 525/445/54
f 526/445/40 525/445/40 494/441/40 492/441/40
f 525/445/47 511/445/47 496/441/47 494/441/47
f 472/445/40 526/445/40 492/441/40 469/441/40
f 475/448/39 524/448/39 526/445/39 472/445/39
f 478/450/56 522/450/56 524/448/56 475/448/56
f 481/453/57 488/453/57 522/450/57 478/450/57
f 483/438/13 480/466/13 477/467/13 464/431/13
f 464/431/13 477/467/13 474/468/13 471/432/13
f 527/442/32 528/469/32 534/470/32 531/471/32
f 527/472/13 530/473/13 537/474/13 528/475/13
f 529/476/31 527/439/31 531/477/31 533/478/31
f 529/479/13 549/480/13 530/473/13 527/472/13
f 533/478/31 531/477/31 532/481/31 551/482/31
f 531/471/32 534/470/32 535/483/32 532/484/32
f 528/469/38 537/485/38 536/486/38 534/470/38
f 534/470/38 536/486/38 538/487/38 535/483/38
f 537/485/37 540/488/37 539/489/37 536/486/37
f 536/486/37 539/489/37 541/490/37 538/487/37
f 540/488/36 543/450/36 542/491/36 539/489/36
f 539/489/36 542/491/36 544/492/36 541/490/36
f 543/450/35 546/493/35 545/494/35 542/491/35
f 542/491/35 545/494/35 547/495/35 544/492/35
f 546/493/34 549/456/34 548/496/34 545/494/34
f 545/494/34 548/496/34 550/497/34 547/495/34
f 549/456/33 529/476/33 533/478/33 548/496/33
f 548/496/33 533/478/33 551/482/33 550/497/33
f 550/497/59 552/497/59 554/495/59 547/495/59
f 551/482/61 555/482/61 552/497/61 550/497/61
f 555/482/61 556/482/61 553/497/61 552/497/61
f 552/497/59 553/497/59 586/495/59 554/495/59
f 557/481/42 559/481/42 556/482/42 555/482/42
f 532/481/42 557/481/42 555/482/42 551/482/42
f 535/483/41 558/483/41 557/484/41 532/484/41
f 558/483/41 560/483/41 559/484/41 557/484/41
f 560/483/44 562/483/44 561/484/44 559/484/44
f 559/481/43 561/481/43 564/482/43 556/482/43
f 562/483/46 578/483/46 563/484/46 561/484/46
f 561/481/45 563/481/45 566/482/45 564/482/45
f 556/482/62 564/482/62 565/497/62 553/497/62
f 564/482/49 566/482/49 567/497/49 565/497/49
f 566/482/49 568/482/49 569/497/49 567/497/49
f 563/481/45 570/481/45 568/482/45 566/482/45
f 570/498/16 572/499/16 569/500/16 568/501/16
f 578/483/46 571/483/46 570/484/46 563/484/46
f 571/502/16 574/503/16 572/499/16 570/498/16
f 574/503/16 575/504/16 573/505/16 572/499/16
f 572/499/16 573/505/16 585/506/16 569/500/16
f 576/487/48 574/487/48 571/483/48 578/483/48
f 579/490/53 575/490/53 574/487/53 576/487/53
f 580/490/53 579/490/53 576/487/53 577/487/53
f 577/487/48 576/487/48 578/483/48 562/483/48
f 582/492/52 581/492/52 579/490/52 580/490/52
f 581/492/52 573/492/52 575/490/52 579/490/52
f 584/495/51 583/495/51 581/492/51 582/492/51
f 583/495/51 585/495/51 573/492/51 581/492/51
f 565/497/50 567/497/50 583/495/50 584/495/50
f 567/497/50 569/497/50 585/495/50 583/495/50
f 553/497/60 565/497/60 584/495/60 586/495/60
f 586/495/58 584/495/58 582/492/58 587/492/58
f 554/495/57 586/495/57 587/492/57 588/492/57
f 588/492/56 587/492/56 589/490/56 590/490/56
f 587/492/55 582/492/55 580/490/55 589/490/55
f 590/490/39 589/490/39 591/487/39 592/487/39
f 589/490/54 580/490/54 577/487/54 591/487/54
f 592/487/40 591/487/40 560/483/40 558/483/40
f 591/487/47 577/487/47 562/483/47 560/483/47
f 538/487/40 592/487/40 558/483/40 535/483/40
f 541/490/39 590/490/39 592/487/39 538/487/39
f 544/492/56 588/492/56 590/490/56 541/490/56
f 547/495/57 554/495/57 588/492/57 544/492/57
f 549/480/13 546/507/13 543/508/13 530/473/13
f 530/473/13 543/508/13 540/509/13 537/474/13
f 593/351/32 594/510/32 600/511/32 597/350/32
f 593/512/13 596/513/13 603/514/13 594/515/13
f 595/516/31 593/517/31 597/518/31 599/519/31
f 595/520/13 615/521/13 596/513/13 593/512/13
f 599/519/31 597/518/31 598/522/31 617/304/31
f 597/350/32 600/511/32 601/299/32 598/296/32
f 594/510/38 603/523/38 602/524/38 600/511/38
f 600/511/38 602/524/38 604/315/38 601/299/38
f 603/523/37 606/525/37 605/526/37 602/524/37
f 602/524/37 605/526/37 607/527/37 604/315/37
f 606/525/36 609/528/36 608/529/36 605/526/36
f 605/526/36 608/529/36 610/530/36 607/527/36
f 609/528/35 612/531/35 611/532/35 608/529/35
f 608/529/35 611/532/35 613/324/35 610/530/35
f 612/531/34 615/533/34 614/534/34 611/532/34
f 611/532/34 614/534/34 616/535/34 613/324/34
f 615/533/33 595/516/33 599/519/33 614/534/33
f 614/534/33 599/519/33 617/304/33 616/535/33
f 616/535/59 618/535/59 620/324/59 613/324/59
f 617/304/61 621/304/61 618/535/61 616/535/61
f 621/304/61 622/304/61 619/535/61 618/535/61
f 618/535/59 619/535/59 652/324/59 620/324/59
f 623/522/42 625/522/42 622/304/42 621/304/42
f 598/522/42 623/522/42 621/304/42 617/304/42
f 601/299/41 624/299/41 623/296/41 598/296/41
f 624/299/41 626/299/41 625/296/41 623/296/41
f 626/299/44 628/299/44 627/296/44 625/296/44
f 625/522/43 627/522/43 630/304/43 622/304/43
f 628/299/46 644/299/46 629/296/46 627/296/46
f 627/522/45 629/522/45 632/304/45 630/304/45
f 622/304/62 630/304/62 631/535/62 619/535/62
f 630/304/49 632/304/49 633/535/49 631/535/49
f 632/304/49 634/304/49 635/535/49 633/535/49
f 629/522/45 636/522/45 634/304/45 632/304/45
f 636/536/16 638/537/16 635/538/16 634/539/16
f 644/299/46 637/299/46 636/296/46 629/296/46
f 637/540/16 640/541/16 638/537/16 636/536/16
f 640/541/16 641/542/16 639/543/16 638/537/16
f 638/537/16 639/543/16 651/544/16 635/538/16
f 642/315/48 640/315/48 637/299/48 644/299/48
f 645/527/53 641/527/53 640/315/53 642/315/53
f 646/527/53 645/527/53 642/315/53 643/315/53
f 643/315/48 642/315/48 644/299/48 628/299/48
f 648/530/52 647/530/52 645/527/52 646/527/52
f 647/530/52 639/530/52 641/527/52 645/527/52
f 650/324/51 649/324/51 647/530/51 648/530/51
f 649/324/51 651/324/51 639/530/51 647/530/51
f 631/535/50 633/535/50 649/324/50 650/324/50
f 633/535/50 635/535/50 651/324/50 649/324/50
f 619/535/60 631/535/60 650/324/60 652/324/60
f 652/324/58 650/324/58 648/530/58 653/530/58
f 620/324/57 652/324/57 653/530/57 654/530/57
f 654/530/56 653/530/56 655/527/56 656/527/56
f 653/530/55 648/530/55 646/527/55 655/527/55
f 656/527/39 655/527/39 657/315/39 658/315/39
f 655/527/54 646/527/54 643/315/54 657/315/54
f 658/315/40 657/315/40 626/299/40 624/299/40
f 657/315/47 643/315/47 628/299/47 626/299/47
f 604/315/40 658/315/40 624/299/40 601/299/40
f 607/527/39 656/527/39 658/315/39 604/315/39
f 610/530/56 654/530/56 656/527/56 607/527/56
f 613/324/57 620/324/57 654/530/57 610/530/57
f 615/521/13 612/545/13 609/546/13 596/513/13
f 596/513/13 609/546/13 606/547/13 603/514/13
f 659/484/32 660/483/32 666/548/32 663/549/32
f 659/550/13 662/551/13 669/552/13 660/553/13
f 661/554/31 659/481/31 663/555/31 665/556/31
f 661/557/13 681/558/13 662/551/13 659/550/13
f 665/556/31 663/555/31 664/559/31 683/560/31
f 663/549/32 666/548/32 667/561/32 664/562/32
f 660/483/38 669/563/38 668/564/38 666/548/38
f 666/548/38 668/564/38 670/565/38 667/561/38
f 669/563/37 672/566/37 671/567/37 668/564/37
f 668/564/37 671/567/37 673/568/37 670/565/37
f 672/566/36 675/492/36 674/569/36 671/567/36
f 671/567/36 674/569/36 676/570/36 673/568/36
f 675/492/35 678/571/35 677/572/35 674/569/35
f 674/569/35 677/572/35 679/573/35 676/570/35
f 678/571/34 681/497/34 680/574/34 677/572/34
f 677/572/34 680/574/34 682/575/34 679/573/34
f 681/497/33 661/554/33 665/556/33 680/574/33
f 680/574/33 665/556/33 683/560/33 682/575/33
f 682/575/59 684/575/59 686/573/59 679/573/59
f 683/560/61 687/560/61 684/575/61 682/575/61
f 687/560/61 688/560/61 685/575/61 684/575/61
f 684/575/59 685/575/59 718/573/59 686/573/59
f 689/559/42 691/559/42 688/560/42 687/560/42
f 664/559/42 689/559/42 687/560/42 683/560/42
f 667/561/41 690/561/41 689/562/41 664/562/41
f 690/561/41 692/561/41 691/562/41 689/562/41
f 692/561/44 694/561/44 693/562/44 691/562/44
f 691/559/43 693/559/43 696/560/43 688/560/43
f 694/561/46 710/561/46 695/562/46 693/562/46
f 693/559/45 695/559/45 698/560/45 696/560/45
f 688/560/62 696/560/62 697/575/62 685/575/62
f 696/560/49 698/560/49 699/575/49 697/575/49
f 698/560/49 700/560/49 701/575/49 699/575/49
f 695/559/45 702/559/45 700/560/45 698/560/45
f 702/576/16 704/577/16 701/578/16 700/579/16
f 710/561/46 703/561/46 702/562/46 695/562/46
f 703/580/16 706/581/16 704/577/16 702/576/16
f 706/581/16 707/582/16 705/583/16 704/577/16
f 704/577/16 705/583/16 717/584/16 701/578/16
f 708/565/48 706/565/48 703/561/48 710/561/48
f 711/568/53 707/568/53 706/565/53 708/565/53
f 712/568/53 711/568/53 708/565/53 709/565/53
f 709/565/48 708/565/48 710/561/48 694/561/48
f 714/570/52 713/570/52 711/568/52 712/568/52
f 713/570/52 705/570/52 707/568/52 711/568/52
f 716/573/51 715/573/51 713/570/51 714/570/51
f 715/573/51 717/573/51 705/570/51 713/570/51
f 697/575/50 699/575/50 715/573/50 716/573/50
f 699/575/50 701/575/50 717/573/50 715/573/50
f 685/575/60 697/575/60 716/573/60 718/573/60
f 718/573/58 716/573/58 714/570/58 719/570/58
f 686/573/57 718/573/57 719/570/57 720/570/57
f 720/570/56 719/570/56 721/568/56 722/568/56
f 719/570/55 714/570/55 712/568/55 721/568/55
f 722/568/39 721/568/39 723/565/39 724/565/39
f 721/568/54 712/568/54 709/565/54 723/565/54
f 724/565/40 723/565/40 692/561/40 690/561/40
f 723/565/47 709/565/47 694/561/47 692/561/47
f 670/565/40 724/565/40 690/561/40 667/561/40
f 673/568/39 722/568/39 724/565/39 670/565/39
f 676/570/56 720/570/56 722/568/56 673/568/56
f 679/573/57 686/573/57 720/570/57 676/570/57
f 681/558/13 678/585/13 675/586/13 662/551/13
f 662/551/13 675/586/13 672/587/13 669/552/13
f 725/355/32 726/588/32 732/589/32 729/590/32
f 725/591/13 728/592/13 735/593/13 726/594/13
f 727/354/31 725/595/31 729/596/31 731/597/31
f 727/598/13 747/599/13 728/592/13 725/591/13
f 731/597/31 729/596/31 730/600/31 749/601/31
f 729/590/32 732/589/32 733/602/32 730/603/32
f 726/588/38 735/604/38 734/605/38 732/589/38
f 732/589/38 734/605/38 736/606/38 733/602/38
f 735/604/37 738/607/37 737/608/37 734/605/37
f 734/605/37 737/608/37 739/609/37 736/606/37
f 738/607/36 741/610/36 740/611/36 737/608/36
f 737/608/36 740/611/36 742/612/36 739/609/36
f 741/610/35 744/613/35 743/614/35 740/611/35
f 740/611/35 743/614/35 745/615/35 742/612/35
f 744/613/34 747/616/34 746/617/34 743/614/34
f 743/614/34 746/617/34 748/618/34 745/615/34
f 747/616/33 727/354/33 731/597/33 746/617/33
f 746/617/33 731/597/33 749/601/33 748/618/33
f 748/618/59 750/618/59 752/615/59 745/615/59
f 749/601/61 753/601/61 750/618/61 748/618/61
f 753/601/61 754/601/61 751/618/61 750/618/61
f 750/618/59 751/618/59 784/615/59 752/615/59
f 755/600/42 757/600/42 754/601/42 753/601/42
f 730/600/42 755/600/42 753/601/42 749/601/42
f 733/602/41 756/602/41 755/603/41 730/603/41
f 756/602/41 758/602/41 757/603/41 755/603/41
f 758/602/44 760/602/44 759/603/44 757/603/44
f 757/600/43 759/600/43 762/601/43 754/601/43
f 760/602/46 776/602/46 761/603/46 759/603/46
f 759/600/45 761/600/45 764/601/45 762/601/45
f 754/601/62 762/601/62 763/618/62 751/618/62
f 762/601/49 764/601/49 765/618/49 763/618/49
f 764/601/49 766/601/49 767/618/49 765/618/49
f 761/600/45 768/600/45 766/601/45 764/601/45
f 768/619/16 770/620/16 767/621/16 766/622/16
f 776/602/46 769/602/46 768/603/46 761/603/46
f 769/623/16 772/624/16 770/620/16 768/619/16
f 772/624/16 773/625/16 771/626/16 770/620/16
f 770/620/16 771/626/16 783/627/16 767/621/16
f 774/606/48 772/606/48 769/602/48 776/602/48
f 777/609/53 773/609/53 772/606/53 774/606/53
f 778/609/53 777/609/53 774/606/53 775/606/53
f 775/606/48 774/606/48 776/602/48 760/602/48
f 780/612/52 779/612/52 777/609/52 778/609/52
f 779/612/52 771/612/52 773/609/52 777/609/52
f 782/615/51 781/615/51 779/612/51 780/612/51
f 781/615/51 783/615/51 771/612/51 779/612/51
f 763/618/50 765/618/50 781/615/50 782/615/50
f 765/618/50 767/618/50 783/615/50 781/615/50
f 751/618/60 763/618/60 782/615/60 784/615/60
f 784/615/58 782/615/58 780/612/58 785/612/58
f 752/615/57 784/615/57 785/612/57 786/612/57
f 786/612/56 785/612/56 787/609/56 788/609/56
f 785/612/55 780/612/55 778/609/55 787/609/55
f 788/609/39 787/609/39 789/606/39 790/606/39
f 787/609/54 778/609/54 775/606/54 789/606/54
f 790/606/40 789/606/40 758/602/40 756/602/40
f 789/606/47 775/606/47 760/602/47 758/602/47
f 736/606/40 790/606/40 756/602/40 733/602/40
f 739/609/39 788/609/39 790/606/39 736/606/39
f 742/612/56 786/612/56 788/609/56 739/609/56
f 745/615/57 752/615/57 786/612/57 742/612/57
f 747/599/13 744/628/13 741/629/13 728/592/13
f 728/592/13 741/629/13 738/630/13 735/593/13
f 791/393/32 792/631/32 798/632/32 795/633/32
f 791/634/13 794/635/13 801/636/13 792/637/13
f 793/638/31 791/639/31 795/640/31 797/641/31
f 793/642/13 813/643/13 794/635/13 791/634/13
f 797/641/31 795/640/31 796/644/31 815/645/31
f 795/633/32 798/632/32 799/646/32 796/647/32
f 792/631/38 801/648/38 800/649/38 798/632/38
f 798/632/38 800/649/38 802/650/38 799/646/38
f 801/648/37 804/651/37 803/652/37 800/649/37
f 800/649/37 803/652/37 805/653/37 802/650/37
f 804/651/36 807/654/36 806/655/36 803/652/36
f 803/652/36 806/655/36 808/656/36 805/653/36
f 807/654/35 810/657/35 809/658/35 806/655/35
f 806/655/35 809/658/35 811/659/35 808/656/35
f 810/657/34 813/660/34 812/661/34 809/658/34
f 809/658/34 812/661/34 814/662/34 811/659/34
f 813/660/33 793/638/33 797/641/33 812/661/33
f 812/661/33 797/641/33 815/645/33 814/662/33
f 814/662/59 816/662/59 818/659/59 811/659/59
f 815/645/61 819/645/61 816/662/61 814/662/61
f 819/645/61 820/645/61 817/662/61 816/662/61
f 816/662/59 817/662/59 850/659/59 818/659/59
f 821/644/42 823/644/42 820/645/42 819/645/42
f 796/644/42 821/644/42 819/645/42 815/645/42
f 799/646/41 822/646/41 821/647/41 796/647/41
f 822/646/41 824/646/41 823/647/41 821/647/41
f 824/646/44 826/646/44 825/647/44 823/647/44
f 823/644/43 825/644/43 828/645/43 820/645/43
f 826/646/46 842/646/46 827/647/46 825/647/46
f 825/644/45 827/644/45 830/645/45 828/645/45
f 820/645/62 828/645/62 829/662/62 817/662/62
f 828/645/49 830/645/49 831/662/49 829/662/49
f 830/645/49 832/645/49 833/662/49 831/662/49
f 827/644/45 834/644/45 832/645/45 830/645/45
f 834/663/16 836/664/16 833/665/16 832/666/16
f 842/646/46 835/646/46 834/647/46 827/647/46
f 835/667/16 838/668/16 836/664/16 834/663/16
f 838/668/16 839/669/16 837/670/16 836/664/16
f 836/664/16 837/670/16 849/671/16 833/665/16
f 840/650/48 838/650/48 835/646/48 842/646/48
f 843/653/53 839/653/53 838/650/53 840/650/53
f 844/653/53 843/653/53 840/650/53 841/650/53
f 841/650/48 840/650/48 842/646/48 826/646/48
f 846/656/52 845/656/52 843/653/52 844/653/52
f 845/656/52 837/656/52 839/653/52 843/653/52
f 848/659/51 847/659/51 845/656/51 846/656/51
f 847/659/51 849/659/51 837/656/51 845/656/51
f 829/662/50 831/662/50 847/659/50 848/659/50
f 831/662/50 833/662/50 849/659/50 847/659/50
f 817/662/60 829/662/60 848/659/60 850/659/60
f 850/659/58 848/659/58 846/656/58 851/656/58
f 818/659/57 850/659/57 851/656/57 852/656/57
f 852/656/56 851/656/56 853/653/56 854/653/56
f 851/656/55 846/656/55 844/653/55 853/653/55
f 854/653/39 853/653/39 855/650/39 856/650/39
f 853/653/54 844/653/54 841/650/54 855/650/54
f 856/650/40 855/650/40 824/646/40 822/646/40
f 855/650/47 841/650/47 826/646/47 824/646/47
f 802/650/40 856/650/40 822/646/40 799/646/40
f 805/653/39 854/653/39 856/650/39 802/650/39
f 808/656/56 852/656/56 854/653/56 805/653/56
f 811/659/57 818/659/57 852/656/57 808/656/57
f 813/643/13 810/672/13 807/673/13 794/635/13
f 794/635/13 807/673/13 804/674/13 801/636/13
