# Blender 5.1.2
# www.blender.org
mtllib jabali de erimanto.mtl
o jabali
v -2.913745 2.619909 -0.695631
v -1.209325 2.410732 -0.729037
v -3.020906 2.509773 0.000000
v -3.187921 3.057852 -0.756397
v -2.193034 2.504026 -0.888795
v -0.629620 2.666920 -0.888795
v -1.218544 2.255940 0.000000
v -3.462504 3.052171 0.000000
v -2.194229 3.105554 -1.230605
v -0.426815 2.497103 0.000000
v -2.193034 2.274088 0.000000
v -3.755319 3.491216 -1.450169
v 0.012098 2.989182 -1.328488
v -3.828129 3.698038 0.000000
v 0.138143 2.881251 0.000000
v -3.617221 6.619292 -1.292819
v -0.062818 6.718866 -1.225520
v -3.949494 7.630352 0.000000
v -2.301551 7.177958 -1.687296
v 0.216821 7.195384 0.000000
v -2.248286 8.207594 0.000000
v -3.657129 7.724087 0.000000
v -0.285693 7.201864 0.000000
v 4.153504 5.182487 0.000000
v 0.137256 5.482870 -1.130222
v 0.279701 4.371935 -1.241820
v -2.440880 6.215067 -1.929735
v -3.939833 5.706833 -1.375574
v -3.908519 4.681478 -1.567061
v -3.815432 2.920707 0.000000
v 4.205956 6.532687 0.000000
v 4.179730 5.857587 0.000000
v 4.106544 7.222378 0.000000
v 2.768089 7.377819 0.000000
v 2.297046 3.726681 -1.471873
v 4.085870 4.368260 -1.907973
v 4.027866 5.110482 0.000000
v 2.689411 4.343403 0.000000
v 2.266378 6.582581 -1.667034
v 4.060637 6.584682 -1.621384
v 2.045027 4.444547 -1.822975
v 4.201711 5.164577 -2.003985
v 2.002369 5.553636 -1.966246
v 4.182698 5.983639 -1.893372
v -5.669578 3.383617 0.000000
v -5.192086 3.198394 -1.513306
v -4.399849 7.202869 0.000000
v -4.291067 6.646502 -1.270253
v -4.896850 4.371077 -1.566484
v -4.839122 6.300971 0.000000
v -4.678538 5.487314 -1.540457
v -5.278396 4.853403 0.000000
v -3.541213 2.881368 -0.936686
v -4.870112 2.534357 -1.170165
v -5.239333 2.677581 0.000000
v -4.127986 3.256138 -1.752801
v -2.476362 3.246707 -2.610549
v 0.415545 2.657634 -1.598957
v 0.751078 4.320434 -1.502069
v -4.303976 4.694489 -1.886665
v 0.480547 5.579762 -1.289308
v -2.508823 5.049407 -2.777755
v -2.639303 6.468454 -2.259264
v -4.455874 5.852278 -1.587590
v 4.775048 2.856965 0.000000
v 4.704034 2.042738 -1.888400
v 2.918590 1.401159 -1.471873
v 4.649410 2.784960 0.000000
v 3.291542 1.909947 -0.059213
v 2.695260 0.669258 -1.057616
v 3.593814 0.785026 -1.256521
v 2.944266 0.915967 -0.370557
v 2.803377 0.314781 -1.122827
v 3.671307 0.054977 -1.321732
v 3.131214 0.438848 -0.435768
v 4.547338 2.817912 -2.180688
v 4.340156 3.593086 -2.180688
v 4.235047 4.335308 0.000000
v 4.442229 3.560134 0.000000
v 4.567867 3.632139 0.000000
v 4.360685 4.407312 0.000000
v 2.554713 2.951507 -1.764161
v 2.761894 2.176333 -1.764161
v 3.090832 2.721099 -0.039475
v 2.890121 3.532251 -0.019738
v -2.887961 1.939810 -1.061342
v -2.342150 1.966012 -1.321812
v -1.482749 1.725081 -1.134064
v -3.199619 2.177846 -1.442414
v -1.130269 1.902091 -1.375577
v -2.497119 2.043543 -2.079782
v -3.404316 2.048724 -1.608642
v -0.908666 1.719980 -1.524139
v -3.510178 0.257446 -1.336909
v -3.363672 0.264479 -1.406824
v -3.132993 0.199808 -1.356429
v -3.593833 0.321339 -1.439196
v -3.392646 0.319435 -1.545260
v -3.038381 0.247321 -1.421255
v -3.405269 0.285290 -1.610277
v -3.648777 0.286680 -1.483814
v -2.978898 0.198439 -1.461132
v -2.949465 2.583197 -0.463754
v -2.985186 2.546485 -0.231877
v -1.215471 2.307538 -0.243012
v -1.212398 2.359135 -0.486024
v -3.279449 3.055958 -0.504265
v -3.370976 3.054064 -0.252132
v -0.562018 2.610314 -0.592530
v -0.494417 2.553709 -0.296265
v -2.193034 2.427380 -0.592530
v -2.193034 2.350734 -0.296265
v -3.779589 3.560157 -0.966780
v -3.803859 3.629097 -0.483390
v 0.054113 2.953205 -0.885659
v 0.096128 2.917228 -0.442829
v -3.727979 6.956312 -0.861879
v -3.838737 7.293332 -0.430940
v 0.030395 6.809119 -0.817013
v 0.123608 7.021858 -0.408507
v 4.251150 4.749524 -1.289894
v 4.202327 4.966005 -0.644947
v 4.313774 5.486756 -1.315319
v 4.246752 5.672172 -0.657660
v 4.287677 6.208026 -1.219398
v 4.246817 6.370357 -0.609699
v 2.600852 7.112740 -0.555679
v 2.433615 6.847661 -1.111356
v 4.091241 7.009813 -0.540462
v 4.075939 6.797247 -1.080923
v 2.427834 3.932255 -0.981248
v 2.558623 4.137829 -0.490624
v -5.351250 3.260135 -1.008870
v -5.510414 3.321876 -0.504435
v -4.327328 7.013848 -1.020414
v -4.363588 7.209877 -0.510207
v -5.151214 4.692627 -0.522161
v -5.024032 4.531852 -1.044323
v -4.785594 6.029752 -0.513486
v -4.732066 5.758533 -1.026972
v -3.632619 2.894481 -0.624457
v -3.724025 2.907594 -0.312229
v -4.993186 2.582098 -0.780110
v -5.116260 2.629839 -0.390055
v 3.042907 1.570755 -1.000986
v 3.167225 1.740351 -0.530099
v 4.685826 2.290145 -1.258934
v 4.667618 2.537553 -0.629467
v 2.778262 0.751494 -0.828596
v 2.861264 0.833731 -0.599576
v 3.611629 0.902078 -0.961199
v 3.629444 1.019131 -0.665878
v 2.912656 0.356137 -0.893808
v 3.021935 0.397492 -0.664788
v 3.735202 0.154657 -1.026411
v 3.799097 0.254337 -0.731090
v 4.426337 4.190831 -0.742376
v 4.491988 3.974349 -1.484752
v 4.633518 3.415657 -0.742376
v 4.699169 3.199175 -1.484752
v 2.666516 3.145088 -1.182686
v 2.778318 3.338670 -0.601212
v 2.871540 2.357922 -1.189265
v 2.981186 2.539510 -0.614370
v -6.438148 2.382254 -1.341144
v -6.484584 2.546536 -0.836709
v -6.764346 1.688324 -1.112384
v -6.800252 1.815356 -0.722328
v -10.152040 3.550485 -1.828887
v -10.157465 3.569676 -1.769960
v -10.190146 3.469420 -1.802164
v -10.194341 3.484260 -1.756598
v -2.913745 2.619909 0.695631
v -1.209325 2.410732 0.729037
v -3.187921 3.057852 0.756397
v -2.193034 2.504026 0.888795
v -0.629620 2.666920 0.888795
v -2.194229 3.105554 1.230605
v -3.755319 3.491216 1.450169
v 0.012098 2.989182 1.328488
v -3.617221 6.619292 1.292819
v -0.062818 6.718866 1.225520
v -2.301551 7.177958 1.687296
v 0.137256 5.482870 1.130222
v 0.279701 4.371935 1.241820
v -2.440880 6.215067 1.929735
v -3.939833 5.706833 1.375574
v -3.908519 4.681478 1.567061
v 2.297046 3.726681 1.471873
v 4.085870 4.368260 1.907973
v 2.266378 6.582581 1.667034
v 4.060637 6.584682 1.621384
v 2.045027 4.444547 1.822975
v 4.201711 5.164577 2.003985
v 2.002369 5.553636 1.966246
v 4.182698 5.983639 1.893372
v -5.192086 3.198394 1.513306
v -4.291067 6.646502 1.270253
v -4.896850 4.371077 1.566484
v -4.678538 5.487314 1.540457
v -3.541213 2.881368 0.936686
v -4.870112 2.534357 1.170165
v -4.127986 3.256138 1.752801
v -2.476362 3.246707 2.610549
v 0.415545 2.657634 1.598957
v 0.751078 4.320434 1.502069
v -4.303976 4.694489 1.886665
v 0.480547 5.579762 1.289308
v -2.508823 5.049407 2.777755
v -2.639303 6.468454 2.259264
v -4.455874 5.852278 1.587590
v 4.704034 2.042738 1.888400
v 2.918590 1.401159 1.471873
v 3.291542 1.909947 0.059213
v 2.695260 0.669258 1.057616
v 3.593814 0.785026 1.256521
v 2.944266 0.915967 0.370557
v 2.803377 0.314781 1.122827
v 3.671307 0.054977 1.321732
v 3.131214 0.438848 0.435768
v 4.547338 2.817912 2.180688
v 4.340156 3.593086 2.180688
v 2.554713 2.951507 1.764161
v 2.761894 2.176333 1.764161
v 3.090832 2.721099 0.039475
v 2.890121 3.532251 0.019738
v -2.887961 1.939810 1.061342
v -2.342150 1.966012 1.321812
v -1.482749 1.725081 1.134064
v -3.199619 2.177846 1.442414
v -1.130269 1.902091 1.375577
v -2.497119 2.043543 2.079782
v -3.404316 2.048724 1.608642
v -0.908666 1.719980 1.524139
v -3.510178 0.257446 1.336909
v -3.363672 0.264479 1.406824
v -3.132993 0.199808 1.356429
v -3.593833 0.321339 1.439196
v -3.392646 0.319435 1.545260
v -3.038381 0.247321 1.421255
v -3.405269 0.285290 1.610277
v -3.648777 0.286680 1.483814
v -2.978898 0.198439 1.461132
v -2.949465 2.583197 0.463754
v -2.985186 2.546485 0.231877
v -1.215471 2.307538 0.243012
v -1.212398 2.359135 0.486024
v -3.279449 3.055958 0.504265
v -3.370976 3.054064 0.252132
v -0.562018 2.610314 0.592530
v -0.494417 2.553709 0.296265
v -2.193034 2.427380 0.592530
v -2.193034 2.350734 0.296265
v -3.779589 3.560157 0.966780
v -3.803859 3.629097 0.483390
v 0.054113 2.953205 0.885659
v 0.096128 2.917228 0.442829
v -3.727979 6.956312 0.861879
v -3.838737 7.293332 0.430940
v 0.030395 6.809119 0.817013
v 0.123608 7.021858 0.408507
v 4.251150 4.749524 1.289894
v 4.202327 4.966005 0.644947
v 4.313774 5.486756 1.315319
v 4.246752 5.672172 0.657660
v 4.287677 6.208026 1.219398
v 4.246817 6.370357 0.609699
v 2.600852 7.112740 0.555679
v 2.433615 6.847661 1.111356
v 4.091241 7.009813 0.540462
v 4.075939 6.797247 1.080923
v 2.427834 3.932255 0.981248
v 2.558623 4.137829 0.490624
v -5.351250 3.260135 1.008870
v -5.510414 3.321876 0.504435
v -4.327328 7.013848 1.020414
v -4.363588 7.209877 0.510207
v -5.151214 4.692627 0.522161
v -5.024032 4.531852 1.044323
v -4.785594 6.029752 0.513486
v -4.732066 5.758533 1.026972
v -3.632619 2.894481 0.624457
v -3.724025 2.907594 0.312229
v -4.993186 2.582098 0.780110
v -5.116260 2.629839 0.390055
v 3.042907 1.570755 1.000986
v 3.167225 1.740351 0.530099
v 4.685826 2.290145 1.258934
v 4.667618 2.537553 0.629467
v 2.778262 0.751494 0.828596
v 2.861264 0.833731 0.599576
v 3.611629 0.902078 0.961199
v 3.629444 1.019131 0.665878
v 2.912656 0.356137 0.893808
v 3.021935 0.397492 0.664788
v 3.735202 0.154657 1.026411
v 3.799097 0.254337 0.731090
v 4.426337 4.190831 0.742376
v 4.491988 3.974349 1.484752
v 4.633518 3.415657 0.742376
v 4.699169 3.199175 1.484752
v 2.666516 3.145088 1.182686
v 2.778318 3.338670 0.601212
v 2.871540 2.357922 1.189265
v 2.981186 2.539510 0.614370
v -6.438148 2.382254 1.341144
v -6.484584 2.546536 0.836709
v -6.764346 1.688324 1.112384
v -6.800252 1.815356 0.722328
v -10.152040 3.550485 1.828887
v -10.157465 3.569676 1.769960
v -10.190146 3.469420 1.802164
v -10.194341 3.484260 1.756598
v -0.211438 7.040946 -0.408301
v -2.271457 7.759682 -0.734008
v -3.642980 7.332390 -0.458360
v -0.211438 7.040946 0.408301
v -2.271457 7.759682 0.734008
v -3.642980 7.332390 0.458360
v -0.149406 6.906513 0.749398
v -2.284108 7.515131 1.134760
v -3.630212 6.978922 0.871984
v -0.149406 6.906513 -0.749398
v -2.284108 7.515131 -1.134760
v -3.630212 6.978922 -0.871984
vn -0.7931 -0.5542 -0.2527
vn -0.3441 -0.4170 -0.8413
vn 0.0554 -0.5316 -0.8452
vn 0.2919 -0.9304 -0.2216
vn -0.2592 -0.9406 -0.2194
vn -0.0242 -0.9726 -0.2314
vn -0.4320 -0.3578 -0.8279
vn -0.8273 -0.5561 -0.0795
vn 0.3812 -0.9086 -0.1704
vn 0.4322 -0.1276 0.8927
vn 0.2692 0.0717 -0.9604
vn 0.1216 0.7028 -0.7009
vn -0.0000 -0.0000 1.0000
vn -0.3931 0.2503 -0.8848
vn 0.3735 0.8842 -0.2806
vn -0.4315 0.7345 -0.5238
vn -0.2357 0.7352 -0.6355
vn 0.2911 0.8600 -0.4192
vn 0.9827 0.0526 -0.1776
vn 0.9820 -0.1254 -0.1409
vn 0.0456 0.8054 0.5909
vn 0.0442 -0.0744 -0.9963
vn -0.6287 -0.0045 0.7777
vn 0.4591 -0.0415 0.8874
vn -0.5283 -0.2187 0.8204
vn 0.2302 -0.3961 -0.8889
vn 0.0653 0.0952 -0.9933
vn 0.4661 -0.1449 0.8728
vn -0.3618 -0.0435 -0.9312
vn -0.0203 -0.0176 -0.9996
vn -0.1510 -0.1224 -0.9809
vn -0.0506 -0.2870 -0.9566
vn -0.0614 0.9147 -0.3995
vn 0.0851 0.9081 -0.4099
vn -0.2887 0.0939 -0.9528
vn -0.0079 0.3313 -0.9435
vn 0.3486 -0.9314 0.1047
vn 0.9961 0.0692 -0.0550
vn -0.9094 0.3765 -0.1769
vn -0.9200 0.2411 -0.3089
vn -0.9240 0.2679 -0.2730
vn 0.0803 0.1406 -0.9868
vn 0.1764 -0.9745 0.1383
vn -0.8364 -0.5097 -0.2015
vn 0.9878 0.0765 0.1357
vn 0.2036 -0.4859 -0.8500
vn -0.4408 -0.1111 -0.8907
vn -0.4376 0.2280 -0.8698
vn 0.3389 -0.0487 -0.9396
vn 0.3831 0.2962 -0.8749
vn -0.0351 0.7820 0.6223
vn -0.5198 -0.2286 0.8231
vn 0.9983 0.0218 0.0537
vn 0.4010 0.0189 0.9159
vn -0.9589 -0.1227 0.2557
vn -0.0245 -0.0187 0.9995
vn 0.4995 -0.5175 0.6948
vn -0.0845 -0.3665 -0.9266
vn -0.2127 0.0807 -0.9738
vn -0.0903 -0.4154 -0.9052
vn -0.9257 0.3476 0.1491
vn -0.1922 -0.9299 0.3136
vn 0.8183 0.3890 -0.4232
vn -0.8287 -0.3447 0.4409
vn -0.3047 0.2357 -0.9228
vn -0.2079 -0.0556 -0.9766
vn 0.9634 0.2682 -0.0042
vn 0.9660 0.2582 0.0101
vn -0.0001 -0.0125 0.9999
vn -0.0124 -0.0156 0.9998
vn -0.8616 -0.3801 0.3365
vn -0.9336 -0.2474 0.2591
vn 0.9112 0.2435 -0.3322
vn 0.9201 0.3305 -0.2100
vn 0.6051 -0.7078 0.3644
vn -0.6773 0.1451 0.7213
vn -0.4609 0.0011 -0.8875
vn -0.1947 0.0680 0.9785
vn 0.6187 -0.6681 0.4133
vn 0.3014 -0.3551 0.8849
vn -0.8206 -0.3445 0.4559
vn -0.2261 -0.0485 0.9729
vn -0.1736 -0.9129 -0.3695
vn -0.0672 -0.8820 -0.4664
vn -0.3349 -0.8059 0.4882
vn 0.2138 -0.8813 0.4213
vn -0.7159 0.1532 0.6812
vn 0.2405 -0.3644 -0.8996
vn 0.4229 -0.2966 0.8563
vn 0.2940 -0.3634 0.8840
vn -0.9361 -0.2399 0.2571
vn -0.9349 -0.2436 0.2581
vn -0.9151 -0.2636 0.3052
vn -0.8911 -0.3206 0.3210
vn 0.9572 0.2891 -0.0112
vn -0.8151 -0.3735 0.4429
vn -0.8212 -0.3607 0.4421
vn 0.9707 0.1488 -0.1889
vn 0.9570 0.2034 -0.2070
vn -0.1552 -0.9566 0.2468
vn -0.1639 -0.9377 0.3064
vn -0.9414 0.2885 0.1750
vn -0.9340 0.3185 0.1621
vn 0.9809 0.1903 0.0402
vn -0.9357 -0.2135 0.2810
vn -0.9486 -0.1676 0.2685
vn 0.7887 -0.5719 0.2257
vn 0.7982 -0.5603 0.2211
vn 0.9372 0.3336 0.1019
vn 0.9717 0.2034 0.1203
vn 0.3809 -0.2845 -0.8797
vn 0.2150 -0.9651 0.1493
vn 0.1958 -0.9700 0.1438
vn -0.9444 0.2104 -0.2525
vn -0.9337 0.2422 -0.2639
vn -0.9250 0.2244 -0.3066
vn -0.9224 0.2334 -0.3079
vn -0.8668 0.3275 -0.3759
vn -0.9225 0.3141 -0.2243
vn 0.4711 -0.8791 0.0725
vn 0.4146 -0.9058 0.0878
vn 0.0218 0.9152 -0.4024
vn 0.0506 0.9125 -0.4060
vn -0.0331 0.9407 -0.3377
vn -0.0627 0.9009 -0.4295
vn 0.9956 -0.0222 0.0909
vn 0.9966 0.0100 0.0821
vn 0.9934 -0.0499 0.1037
vn 0.9914 -0.0706 0.1100
vn 0.9518 0.2973 -0.0758
vn 0.9914 0.0468 -0.1222
vn -0.4103 0.8387 -0.3582
vn 0.0817 0.8726 -0.4815
vn 0.5179 -0.8360 -0.1815
vn 0.4487 -0.8761 -0.1763
vn -0.6405 -0.7674 -0.0309
vn -0.7377 -0.6729 -0.0548
vn -0.0485 -0.9717 -0.2313
vn -0.0364 -0.9722 -0.2314
vn -0.2225 -0.9500 -0.2190
vn -0.2419 -0.9452 -0.2192
vn 0.3299 -0.9172 -0.2235
vn 0.3094 -0.9245 -0.2225
vn -0.7587 -0.6026 -0.2475
vn -0.7746 -0.5810 -0.2500
vn 0.0228 -0.3226 -0.9462
vn 0.3829 -0.8817 0.2756
vn -0.3149 0.1337 0.9397
vn -0.5412 0.7903 -0.2873
vn -0.9103 0.3615 -0.2015
vn -0.4850 -0.8437 0.2301
vn -0.1798 0.2274 0.9571
vn 0.3209 0.9089 -0.2665
vn -0.7931 -0.5542 0.2527
vn -0.3441 -0.4170 0.8413
vn 0.0554 -0.5316 0.8452
vn 0.2919 -0.9304 0.2216
vn -0.2592 -0.9406 0.2194
vn -0.0242 -0.9726 0.2314
vn -0.4320 -0.3578 0.8279
vn -0.8273 -0.5561 0.0795
vn 0.3812 -0.9086 0.1704
vn 0.4322 -0.1276 -0.8927
vn 0.2692 0.0717 0.9604
vn 0.1216 0.7028 0.7009
vn -0.3931 0.2503 0.8848
vn 0.3735 0.8842 0.2806
vn -0.4315 0.7345 0.5238
vn -0.2357 0.7352 0.6355
vn 0.2911 0.8600 0.4192
vn 0.9827 0.0526 0.1776
vn 0.9820 -0.1254 0.1409
vn 0.0456 0.8054 -0.5909
vn 0.0442 -0.0744 0.9963
vn -0.6287 -0.0045 -0.7777
vn 0.4591 -0.0415 -0.8874
vn -0.5283 -0.2187 -0.8204
vn 0.2302 -0.3961 0.8889
vn 0.0653 0.0952 0.9933
vn 0.4661 -0.1449 -0.8728
vn -0.3618 -0.0435 0.9312
vn -0.0203 -0.0176 0.9996
vn -0.1510 -0.1224 0.9809
vn -0.0506 -0.2870 0.9566
vn -0.0614 0.9147 0.3995
vn 0.0851 0.9081 0.4099
vn -0.2887 0.0939 0.9528
vn -0.0079 0.3313 0.9435
vn 0.3486 -0.9314 -0.1047
vn 0.9961 0.0692 0.0550
vn -0.9094 0.3765 0.1769
vn -0.9200 0.2411 0.3089
vn -0.9240 0.2679 0.2730
vn 0.0803 0.1406 0.9868
vn 0.1764 -0.9745 -0.1383
vn -0.8364 -0.5097 0.2015
vn 0.9878 0.0765 -0.1357
vn 0.2036 -0.4859 0.8500
vn -0.4408 -0.1111 0.8907
vn -0.4376 0.2280 0.8698
vn 0.3389 -0.0487 0.9396
vn 0.3831 0.2962 0.8749
vn -0.0351 0.7820 -0.6223
vn -0.5198 -0.2286 -0.8231
vn 0.9983 0.0218 -0.0537
vn 0.4010 0.0189 -0.9159
vn -0.9589 -0.1227 -0.2557
vn -0.0245 -0.0187 -0.9995
vn 0.4995 -0.5175 -0.6948
vn -0.0845 -0.3665 0.9266
vn -0.2127 0.0807 0.9738
vn -0.0903 -0.4154 0.9052
vn -0.9257 0.3476 -0.1491
vn -0.1922 -0.9299 -0.3136
vn 0.8183 0.3890 0.4232
vn -0.8287 -0.3447 -0.4409
vn -0.3047 0.2357 0.9228
vn -0.2079 -0.0556 0.9766
vn 0.9634 0.2682 0.0042
vn 0.9660 0.2582 -0.0101
vn -0.0001 -0.0125 -0.9999
vn -0.0124 -0.0156 -0.9998
vn -0.8616 -0.3801 -0.3365
vn -0.9336 -0.2474 -0.2591
vn 0.9112 0.2435 0.3322
vn 0.9201 0.3305 0.2100
vn 0.6051 -0.7078 -0.3644
vn -0.6773 0.1451 -0.7213
vn -0.4609 0.0011 0.8875
vn -0.1947 0.0680 -0.9785
vn 0.6187 -0.6681 -0.4133
vn 0.3014 -0.3551 -0.8849
vn -0.8206 -0.3445 -0.4559
vn -0.2261 -0.0485 -0.9729
vn -0.1736 -0.9129 0.3695
vn -0.0672 -0.8820 0.4664
vn -0.3349 -0.8059 -0.4882
vn 0.2138 -0.8813 -0.4213
vn -0.7159 0.1532 -0.6812
vn 0.2405 -0.3644 0.8996
vn 0.4229 -0.2966 -0.8563
vn 0.2940 -0.3634 -0.8840
vn -0.9361 -0.2399 -0.2571
vn -0.9349 -0.2436 -0.2581
vn -0.9151 -0.2636 -0.3052
vn -0.8911 -0.3206 -0.3210
vn 0.9572 0.2891 0.0112
vn -0.8151 -0.3735 -0.4429
vn -0.8212 -0.3607 -0.4421
vn 0.9707 0.1488 0.1889
vn 0.9570 0.2034 0.2070
vn -0.1552 -0.9566 -0.2468
vn -0.1639 -0.9377 -0.3064
vn -0.9414 0.2885 -0.1750
vn -0.9340 0.3185 -0.1621
vn -0.9357 -0.2135 -0.2810
vn -0.9486 -0.1676 -0.2685
vn 0.7887 -0.5719 -0.2257
vn 0.7982 -0.5603 -0.2211
vn 0.9372 0.3336 -0.1019
vn 0.9717 0.2034 -0.1203
vn 0.3809 -0.2845 0.8797
vn 0.2150 -0.9651 -0.1493
vn 0.1958 -0.9700 -0.1438
vn -0.9444 0.2104 0.2525
vn -0.9337 0.2422 0.2639
vn -0.9250 0.2244 0.3066
vn -0.9224 0.2334 0.3079
vn -0.8668 0.3275 0.3759
vn -0.9225 0.3141 0.2243
vn 0.4711 -0.8791 -0.0725
vn 0.4146 -0.9058 -0.0878
vn 0.0218 0.9152 0.4024
vn 0.0506 0.9125 0.4060
vn -0.0331 0.9407 0.3377
vn -0.0627 0.9009 0.4295
vn 0.9956 -0.0222 -0.0909
vn 0.9966 0.0100 -0.0821
vn 0.9934 -0.0499 -0.1037
vn 0.9914 -0.0706 -0.1100
vn 0.9518 0.2973 0.0758
vn 0.9914 0.0468 0.1222
vn -0.4103 0.8387 0.3582
vn 0.0817 0.8726 0.4815
vn 0.5179 -0.8360 0.1815
vn 0.4487 -0.8761 0.1763
vn -0.6405 -0.7674 0.0309
vn -0.7377 -0.6729 0.0548
vn -0.0485 -0.9717 0.2313
vn -0.0364 -0.9722 0.2314
vn -0.2225 -0.9500 0.2190
vn -0.2419 -0.9452 0.2192
vn 0.3299 -0.9172 0.2235
vn 0.3094 -0.9245 0.2225
vn -0.7587 -0.6026 0.2475
vn -0.7746 -0.5810 0.2500
vn 0.0228 -0.3226 0.9462
vn 0.3829 -0.8817 -0.2756
vn -0.3149 0.1337 -0.9397
vn -0.5412 0.7903 0.2873
vn -0.9103 0.3615 0.2015
vn -0.4850 -0.8437 -0.2301
vn -0.1798 0.2274 -0.9571
vn 0.3209 0.9089 0.2665
vn -0.3092 0.7787 -0.5460
vn 0.3860 0.8211 -0.4204
vn 0.0281 0.9248 -0.3793
vn -0.3092 0.7787 0.5460
vn 0.3860 0.8211 0.4204
vn 0.0281 0.9248 0.3793
vn -0.3738 0.7476 0.5490
vn 0.3376 0.8472 0.4103
vn 0.1471 0.8952 0.4207
vn -0.3738 0.7476 -0.5490
vn 0.3376 0.8472 -0.4103
vn 0.1471 0.8952 -0.4207
vn 0.9809 0.1903 -0.0402
vt 0.410631 0.241651
vt 0.394582 0.250475
vt 0.393853 0.242194
vt 0.405924 0.236684
vt 0.390755 0.213904
vt 0.409540 0.216817
vt 0.412004 0.170428
vt 0.419202 0.189514
vt 0.435285 0.191861
vt 0.433994 0.165238
vt 0.445509 0.163709
vt 0.443700 0.193363
vt 0.416095 0.247139
vt 0.426720 0.222315
vt 0.436415 0.225525
vt 0.422303 0.253016
vt 0.999646 0.146952
vt 0.921817 0.140871
vt 0.930853 0.086843
vt 0.977369 0.088768
vt 0.396681 0.259858
vt 0.399731 0.270175
vt 0.369003 0.282220
vt 0.364434 0.261096
vt 0.422776 0.167406
vt 0.389014 0.143739
vt 0.407764 0.140642
vt 0.431056 0.277680
vt 0.442963 0.213075
vt 0.464515 0.234385
vt 0.283102 0.121104
vt 0.239459 0.228320
vt 0.203776 0.213386
vt 0.229219 0.122630
vt 0.569651 0.245220
vt 0.551232 0.218328
vt 0.583973 0.207505
vt 0.593597 0.224993
vt 0.737730 0.331539
vt 0.731787 0.329963
vt 0.731787 0.295898
vt 0.737730 0.297474
vt 0.230186 0.295899
vt 0.200556 0.269763
vt 0.205852 0.121350
vt 0.211517 0.114675
vt 0.177233 0.266813
vt 0.180753 0.208441
vt 0.176807 0.271068
vt 0.595392 0.912663
vt 0.624822 0.899330
vt 0.620146 0.933776
vt 0.591564 0.942818
vt 0.594422 0.880771
vt 0.622490 0.865319
vt 0.327278 0.447437
vt 0.456932 0.444182
vt 0.468671 0.457974
vt 0.311714 0.462065
vt 0.552259 0.117216
vt 0.551800 0.068798
vt 0.599581 0.065318
vt 0.591625 0.103795
vt 0.302330 0.290000
vt 0.281380 0.341841
vt 0.258255 0.337201
vt 0.283039 0.274434
vt 0.493352 0.406792
vt 0.515157 0.419190
vt 0.358165 0.218117
vt 0.354040 0.194248
vt 0.417558 0.185602
vt 0.419931 0.199152
vt 0.799734 0.096118
vt 0.859411 0.059707
vt 0.555089 0.166453
vt 0.587268 0.150078
vt 0.523254 0.348589
vt 0.550524 0.348784
vt 0.332077 0.121391
vt 0.294380 0.034973
vt 0.341087 0.042432
vt 0.004677 0.535011
vt 0.000354 0.487696
vt 0.091709 0.463912
vt 0.094527 0.498897
vt 0.376566 0.041758
vt 0.016593 0.568530
vt 0.091437 0.533164
vt 0.192918 0.107816
vt 0.176193 0.101784
vt 0.176872 0.000354
vt 0.201026 0.007881
vt 0.020576 0.388731
vt 0.026378 0.362275
vt 0.083584 0.362275
vt 0.083980 0.386936
vt 0.249874 0.022844
vt 0.008877 0.441623
vt 0.084887 0.436257
vt 0.397661 0.032280
vt 0.535935 0.793364
vt 0.563262 0.785701
vt 0.568636 0.822513
vt 0.537761 0.833048
vt 0.536628 0.799398
vt 0.631392 0.181754
vt 0.656191 0.199402
vt 0.639353 0.255378
vt 0.612692 0.243193
vt 0.630532 0.057285
vt 0.652124 0.050923
vt 0.662418 0.120917
vt 0.636583 0.115792
vt 0.563883 0.011784
vt 0.571424 0.000354
vt 0.627194 0.020978
vt 0.614176 0.030848
vt 0.613048 0.062245
vt 0.594959 0.044630
vt 0.603296 0.038702
vt 0.334363 0.284744
vt 0.332656 0.270299
vt 0.551232 0.037553
vt 0.996588 0.211159
vt 0.913191 0.212848
vt 0.997199 0.264898
vt 0.908701 0.274737
vt 0.775020 0.164167
vt 0.775020 0.220319
vt 0.275052 0.389818
vt 0.248425 0.392227
vt 0.589518 0.774898
vt 0.599176 0.812428
vt 0.572828 0.307560
vt 0.588900 0.295898
vt 0.618336 0.302831
vt 0.597274 0.329259
vt 0.878036 0.366018
vt 0.852957 0.359085
vt 0.865389 0.325540
vt 0.886343 0.331868
vt 0.918364 0.774381
vt 0.850853 0.771987
vt 0.841109 0.737865
vt 0.909642 0.741451
vt 0.555884 0.417992
vt 0.551232 0.347918
vt 0.584247 0.409569
vt 0.046202 0.632780
vt 0.120634 0.597279
vt 0.129016 0.632079
vt 0.054584 0.667581
vt 0.681643 0.774732
vt 0.649823 0.797931
vt 0.631447 0.772603
vt 0.669863 0.763941
vt 0.687412 0.811221
vt 0.631447 0.871788
vt 0.879354 0.291372
vt 0.889725 0.294749
vt 0.595602 0.457555
vt 0.584686 0.457572
vt 0.590990 0.418701
vt 0.604048 0.422157
vt 0.600637 0.845509
vt 0.630739 0.830254
vt 0.878434 0.275446
vt 0.889246 0.276828
vt 0.108531 0.565436
vt 0.034100 0.600938
vt 0.566556 0.890755
vt 0.539306 0.900490
vt 0.538735 0.866746
vt 0.569821 0.856384
vt 0.935822 0.840236
vt 0.870328 0.840235
vt 0.860593 0.806110
vt 0.927091 0.807309
vt 0.884286 0.435865
vt 0.862255 0.428470
vt 0.851999 0.393117
vt 0.877377 0.400577
vt 0.628663 0.796716
vt 0.609547 0.960033
vt 0.586740 0.969198
vt 0.737730 0.399670
vt 0.731787 0.398094
vt 0.731787 0.364028
vt 0.737730 0.365604
vt 0.516532 0.275121
vt 0.501977 0.258329
vt 0.505385 0.148894
vt 0.509497 0.153583
vt 0.483792 0.130220
vt 0.484490 0.133971
vt 0.979096 0.008015
vt 0.991660 0.008347
vt 0.495498 0.142328
vt 0.497064 0.319398
vt 0.531835 0.275817
vt 0.621045 0.431098
vt 0.618140 0.424792
vt 0.623215 0.421107
vt 0.627328 0.429798
vt 0.618140 0.441123
vt 0.621764 0.444980
vt 0.630456 0.429514
vt 0.623838 0.448064
vt 0.625623 0.418701
vt 0.490557 0.136776
vt 0.959302 0.000354
vt 0.514206 0.153895
vt 0.928164 0.415442
vt 0.902775 0.408024
vt 0.903123 0.372992
vt 0.928185 0.379975
vt 0.928270 0.450910
vt 0.906289 0.443351
vt 0.910479 0.301463
vt 0.900103 0.298113
vt 0.900058 0.278202
vt 0.910871 0.279568
vt 0.624580 0.329833
vt 0.611697 0.329831
vt 0.629390 0.305464
vt 0.640802 0.308070
vt 0.617432 0.457572
vt 0.606517 0.457553
vt 0.617111 0.425596
vt 0.928270 0.344510
vt 0.907308 0.338202
vt 0.540383 0.957961
vt 0.541087 0.987702
vt 0.517793 0.979437
vt 0.514176 0.951513
vt 0.640802 0.401461
vt 0.612864 0.405113
vt 0.360738 0.240114
vt 0.330768 0.255792
vt 0.328654 0.241198
vt 0.728135 0.737865
vt 0.764642 0.741113
vt 0.756213 0.816216
vt 0.729758 0.803625
vt 0.557025 0.024069
vt 0.613110 0.110242
vt 0.608414 0.165662
vt 0.444247 0.136437
vt 0.426045 0.138218
vt 0.418593 0.022574
vt 0.439434 0.012672
vt 0.014740 0.415180
vt 0.084418 0.411597
vt 0.225302 0.015470
vt 0.539782 0.929138
vt 0.567650 0.920785
vt 0.566211 0.950371
vt 0.563904 0.978318
vt 0.615619 0.763941
vt 0.623359 0.295190
vt 0.595003 0.269243
vt 0.427094 0.190596
vt 0.417776 0.219352
vt 0.734116 0.982229
vt 0.728135 0.980312
vt 0.784246 0.747096
vt 0.769283 0.816609
vt 0.819175 0.756120
vt 0.799486 0.812603
vt 0.840401 0.765481
vt 0.820541 0.824672
vt 0.620782 0.457411
vt 0.618140 0.457411
vt 0.618294 0.453446
vt 0.620337 0.453446
vt 0.737953 0.984673
vt 0.744026 0.984565
vt 0.746639 0.985590
vt 0.154688 0.712236
vt 0.161930 0.709097
vt 0.174364 0.722180
vt 0.166876 0.729265
vt 0.164067 0.683973
vt 0.188242 0.685207
vt 0.157837 0.649495
vt 0.168599 0.627844
vt 0.139322 0.649355
vt 0.129724 0.649483
vt 0.132743 0.616692
vt 0.144904 0.619989
vt 0.146884 0.715492
vt 0.138677 0.718891
vt 0.131397 0.686762
vt 0.142784 0.685684
vt 0.728135 0.609372
vt 0.750412 0.551187
vt 0.796928 0.549262
vt 0.805964 0.603290
vt 0.159131 0.735988
vt 0.180381 0.756219
vt 0.165210 0.767644
vt 0.151282 0.742633
vt 0.156872 0.623659
vt 0.174939 0.597226
vt 0.193424 0.602226
vt 0.614138 0.553304
vt 0.644761 0.516769
vt 0.666636 0.530691
vt 0.651541 0.578296
vt 0.301864 0.595322
vt 0.356866 0.608012
vt 0.361812 0.708507
vt 0.321380 0.715147
vt 0.755893 0.245220
vt 0.731948 0.224993
vt 0.741571 0.207505
vt 0.774312 0.218328
vt 0.350842 0.767798
vt 0.313627 0.787133
vt 0.381648 0.611780
vt 0.377116 0.603453
vt 0.375618 0.770919
vt 0.386872 0.709072
vt 0.374886 0.775420
vt 0.483166 0.914789
vt 0.488337 0.945047
vt 0.459077 0.937212
vt 0.452790 0.902565
vt 0.482838 0.882456
vt 0.453668 0.867915
vt 0.468479 0.691393
vt 0.455692 0.708165
vt 0.443785 0.554042
vt 0.458432 0.563652
vt 0.773286 0.117216
vt 0.733919 0.103795
vt 0.725963 0.065318
vt 0.773745 0.068798
vt 0.625644 0.699905
vt 0.642893 0.717271
vt 0.583761 0.747989
vt 0.576855 0.725747
vt 0.473829 0.505428
vt 0.488500 0.523738
vt 0.681928 0.603493
vt 0.682759 0.546781
vt 0.694490 0.545878
vt 0.702963 0.601080
vt 0.868370 0.522126
vt 0.928047 0.558537
vt 0.770455 0.166453
vt 0.738276 0.150078
vt 0.532027 0.462773
vt 0.536679 0.486935
vt 0.253097 0.587517
vt 0.255719 0.506203
vt 0.304803 0.505485
vt 0.004677 0.189538
vt 0.094527 0.225652
vt 0.091709 0.260637
vt 0.000354 0.236853
vt 0.219587 0.500823
vt 0.016593 0.156019
vt 0.091437 0.191385
vt 0.398293 0.600035
vt 0.407290 0.491529
vt 0.434631 0.486988
vt 0.417630 0.596961
vt 0.020576 0.335818
vt 0.083980 0.337613
vt 0.353138 0.500082
vt 0.084887 0.288292
vt 0.008877 0.282926
vt 0.199347 0.488352
vt 0.539287 0.791265
vt 0.538786 0.797456
vt 0.538769 0.831868
vt 0.506906 0.822181
vt 0.511095 0.784369
vt 0.694153 0.181754
vt 0.712852 0.243193
vt 0.686192 0.255378
vt 0.669353 0.199402
vt 0.695012 0.057285
vt 0.688961 0.115792
vt 0.663126 0.120917
vt 0.673420 0.050923
vt 0.761661 0.011784
vt 0.711369 0.030848
vt 0.698350 0.020978
vt 0.754120 0.000354
vt 0.712496 0.062245
vt 0.722248 0.038702
vt 0.730586 0.044630
vt 0.195405 0.780983
vt 0.185970 0.789263
vt 0.774312 0.037553
vt 0.814590 0.675267
vt 0.731193 0.673578
vt 0.819080 0.737157
vt 0.730582 0.727318
vt 0.952760 0.626586
vt 0.952760 0.682738
vt 0.530376 0.736836
vt 0.530714 0.763233
vt 0.475346 0.812999
vt 0.483841 0.774232
vt 0.693411 0.295898
vt 0.709483 0.307560
vt 0.685038 0.329259
vt 0.663976 0.302831
vt 0.825254 0.366019
vt 0.816948 0.331868
vt 0.837902 0.325540
vt 0.850334 0.359085
vt 0.918366 0.906092
vt 0.909642 0.939022
vt 0.841109 0.942604
vt 0.850855 0.908483
vt 0.731079 0.347918
vt 0.726427 0.417993
vt 0.698064 0.409569
vt 0.046202 0.091769
vt 0.054584 0.056968
vt 0.129016 0.092470
vt 0.120634 0.127270
vt 0.046414 0.020941
vt 0.053354 0.006551
vt 0.092243 0.000354
vt 0.084568 0.030689
vt 0.813565 0.294749
vt 0.823937 0.291372
vt 0.562147 0.418718
vt 0.570594 0.454116
vt 0.557536 0.457572
vt 0.551232 0.418701
vt 0.475128 0.846832
vt 0.443785 0.832457
vt 0.814044 0.276828
vt 0.824856 0.275446
vt 0.034100 0.123612
vt 0.108531 0.159113
vt 0.511458 0.891525
vt 0.506914 0.856749
vt 0.538872 0.866240
vt 0.927094 0.873164
vt 0.860596 0.874360
vt 0.819004 0.435865
vt 0.825914 0.400577
vt 0.851291 0.393117
vt 0.841036 0.428470
vt 0.444571 0.798053
vt 0.494413 0.971378
vt 0.470997 0.963222
vt 0.601491 0.480029
vt 0.704279 0.466167
vt 0.708758 0.468328
vt 0.618063 0.489511
vt 0.724258 0.482261
vt 0.727426 0.482148
vt 0.736120 0.470766
vt 0.748684 0.470434
vt 0.715716 0.475065
vt 0.566756 0.504487
vt 0.598461 0.467119
vt 0.640576 0.431098
vt 0.634293 0.429798
vt 0.638405 0.421107
vt 0.643480 0.424792
vt 0.643480 0.441123
vt 0.639857 0.444980
vt 0.637783 0.448064
vt 0.631164 0.429514
vt 0.635997 0.418701
vt 0.721001 0.477966
vt 0.768478 0.462773
vt 0.703361 0.462773
vt 0.775127 0.415442
vt 0.775105 0.379975
vt 0.800168 0.372992
vt 0.800515 0.408024
vt 0.775020 0.450910
vt 0.797002 0.443351
vt 0.792811 0.301463
vt 0.792420 0.279568
vt 0.803233 0.278202
vt 0.803188 0.298113
vt 0.657731 0.329833
vt 0.641510 0.308070
vt 0.652921 0.305464
vt 0.670614 0.329831
vt 0.583978 0.418701
vt 0.583657 0.450677
vt 0.573063 0.418720
vt 0.775020 0.344510
vt 0.795982 0.338202
vt 0.641510 0.401461
vt 0.669448 0.405113
vt 0.211021 0.733663
vt 0.214858 0.765252
vt 0.205020 0.772985
vt 0.195746 0.744896
vt 0.000354 0.916014
vt 0.001977 0.850254
vt 0.028432 0.837663
vt 0.036861 0.912766
vt 0.768520 0.024069
vt 0.717130 0.165662
vt 0.712434 0.110242
vt 0.137906 0.588425
vt 0.159336 0.462773
vt 0.179280 0.475660
vt 0.156464 0.592635
vt 0.084418 0.312952
vt 0.014740 0.309369
vt 0.380160 0.496011
vt 0.511489 0.921850
vt 0.456676 0.763941
vt 0.702185 0.295190
vt 0.730541 0.269243
vt 0.153675 0.684730
vt 0.148714 0.649371
vt 0.000354 0.673567
vt 0.006335 0.671650
vt 0.041503 0.837270
vt 0.056465 0.906783
vt 0.071706 0.841276
vt 0.091395 0.897759
vt 0.092761 0.829207
vt 0.112620 0.888398
vt 0.618140 0.452738
vt 0.618585 0.448772
vt 0.620627 0.448772
vt 0.620781 0.452738
vt 0.010173 0.669206
vt 0.016245 0.669314
vt 0.018859 0.668289
vt 0.129881 0.258352
vt 0.129724 0.196777
vt 0.163342 0.204687
vt 0.154674 0.263103
vt 0.172481 0.118960
vt 0.190137 0.120610
vt 0.129724 0.271258
vt 0.153190 0.271436
vt 0.427667 0.774853
vt 0.400076 0.773216
vt 0.405879 0.709471
vt 0.443077 0.709493
vt 0.398477 0.614452
vt 0.417721 0.616842
vt 0.424285 0.789262
vt 0.399231 0.782434
s 0
f 103/1/1 107/2/1 4/3/1 1/4/1
f 1/4/2 4/3/2 9/5/2 5/6/2
f 5/6/3 9/5/3 6/7/3 2/8/3
f 105/9/4 110/10/4 10/11/4 7/12/4
f 104/13/5 112/14/5 11/15/5 3/16/5
f 112/14/6 105/9/6 7/12/6 11/15/6
f 56/17/7 57/18/7 91/19/7 92/20/7
f 108/21/8 8/22/8 14/23/8 114/24/8
f 109/25/9 6/7/9 13/26/9 115/27/9
f 9/28/10 4/3/10 86/29/10 87/30/10
f 25/31/11 27/32/11 19/33/11 17/34/11
f 117/35/12 16/36/12 48/37/12 135/38/12
f 80/39/13 79/40/13 68/41/13 65/42/13
f 27/32/14 28/43/14 16/44/14 19/33/14
f 323/45/15 119/46/15 17/34/15
f 325/47/16 324/48/16 19/33/16 16/44/16
f 117/49/17 325/47/17 16/44/17
f 324/48/18 323/45/18 17/34/18 19/33/18
f 123/50/19 42/51/19 44/52/19 125/53/19
f 121/54/20 36/55/20 42/51/20 123/50/20
f 27/56/21 25/57/21 61/58/21 63/59/21
f 29/60/22 12/61/22 46/62/22 49/63/22
f 12/64/23 29/65/23 60/66/23 56/67/23
f 25/57/24 26/68/24 59/69/24 61/58/24
f 12/70/25 56/71/25 92/72/25 89/73/25
f 57/18/26 58/74/26 93/75/26 91/19/26
f 28/76/27 29/60/27 49/63/27 51/77/27
f 26/68/28 13/78/28 58/79/28 59/69/28
f 26/80/29 25/31/29 43/81/29 41/82/29
f 41/83/30 43/84/30 44/85/30 42/86/30
f 13/26/31 26/80/31 41/82/31 35/87/31
f 35/88/32 41/83/32 42/86/32 36/89/32
f 120/90/33 20/91/33 34/92/33 127/93/33
f 127/94/34 34/95/34 33/96/34 129/97/34
f 25/31/35 17/34/35 39/98/35 43/81/35
f 43/84/36 39/99/36 40/100/36 44/85/36
f 115/27/37 13/26/37 35/87/37 131/101/37
f 68/102/38 148/103/38 159/104/38 80/105/38 65/106/38
f 139/107/39 50/108/39 47/109/39 136/110/39
f 134/111/40 45/112/40 52/113/40 137/114/40
f 137/114/41 52/113/41 50/108/41 139/107/41
f 16/36/42 28/76/42 51/77/42 48/37/42
f 142/115/43 30/116/43 55/117/43 144/118/43
f 133/119/44 46/62/44 54/120/44 143/121/44
f 114/24/45 14/23/45 30/122/45 142/123/45
f 46/62/46 12/61/46 53/124/46 54/120/46
f 57/18/47 56/17/47 60/125/47 62/126/47
f 62/126/48 60/125/48 64/127/48 63/128/48
f 58/74/49 57/18/49 62/126/49 59/129/49
f 59/129/50 62/126/50 63/128/50 61/130/50
f 28/131/51 27/56/51 63/59/51 64/132/51
f 29/65/52 28/131/52 64/132/52 60/66/52
f 148/103/53 147/133/53 160/134/53 159/104/53
f 72/135/54 75/136/54 156/137/54 152/138/54
f 163/139/55 83/140/55 67/141/55 145/142/55
f 79/143/56 84/144/56 69/145/56 68/146/56
f 68/147/57 69/148/57 72/135/57 152/138/57 148/149/57
f 83/150/58 76/151/58 66/152/58 67/153/58
f 70/154/59 71/155/59 74/156/59 73/157/59
f 67/158/60 66/159/60 71/155/60 70/154/60
f 145/142/61 67/141/61 70/160/61 149/161/61
f 153/162/62 73/163/62 74/164/62 155/165/62
f 36/55/63 121/54/63 158/166/63 77/167/63
f 149/161/64 70/160/64 73/168/64 153/169/64
f 35/88/65 36/89/65 77/170/65 82/171/65
f 82/171/66 77/170/66 76/151/66 83/150/66
f 122/172/67 24/173/67 81/174/67 157/175/67
f 157/175/68 81/174/68 80/105/68 159/104/68
f 37/176/69 38/177/69 85/178/69 78/179/69
f 78/179/70 85/178/70 84/144/70 79/143/70
f 131/180/71 35/181/71 82/182/71 161/183/71
f 161/183/72 82/182/72 83/140/72 163/139/72
f 158/166/73 160/134/73 76/184/73 77/167/73
f 44/52/74 40/185/74 130/186/74 125/53/74
f 24/187/13 37/188/13 78/189/13 81/190/13
f 81/190/13 78/189/13 79/40/13 80/39/13
f 90/191/75 88/192/75 96/193/75 99/194/75
f 89/73/76 92/72/76 101/195/76 97/196/76
f 92/20/77 91/19/77 100/197/77 101/198/77
f 88/192/78 87/30/78 95/199/78 96/193/78
f 13/78/79 6/200/79 88/192/79 90/191/79
f 58/79/80 13/78/80 90/191/80 93/201/80
f 4/3/81 12/70/81 89/73/81 86/29/81
f 6/200/82 9/28/82 87/30/82 88/192/82
f 95/202/83 94/203/83 97/204/83 98/205/83
f 96/206/84 95/202/84 98/205/84 99/207/84
f 99/207/85 98/205/85 100/208/85 102/209/85
f 98/205/86 97/204/86 101/210/86 100/208/86
f 86/29/87 89/73/87 97/196/87 94/211/87
f 91/19/88 93/75/88 102/212/88 100/197/88
f 87/30/89 86/29/89 94/211/89 95/199/89
f 93/201/90 90/191/90 99/194/90 102/213/90
f 85/214/91 162/215/91 164/216/91 84/217/91
f 162/215/92 161/183/92 163/139/92 164/216/92
f 38/218/93 132/219/93 162/215/93 85/214/93
f 132/219/94 131/180/94 161/183/94 162/215/94
f 158/166/68 157/175/68 159/104/68 160/134/68
f 121/54/95 122/172/95 157/175/95 158/166/95
f 72/220/96 150/221/96 154/222/96 75/223/96
f 150/221/97 149/161/97 153/169/97 154/222/97
f 71/224/98 151/225/98 155/226/98 74/227/98
f 151/225/99 152/138/99 156/137/99 155/226/99
f 75/228/100 154/229/100 156/230/100
f 154/229/101 153/162/101 155/165/101 156/230/101
f 69/231/102 146/232/102 150/221/102 72/220/102
f 146/232/103 145/142/103 149/161/103 150/221/103
f 31/233/104 33/234/104 270/235/104 267/236/104
f 84/217/105 164/216/105 146/232/105 69/231/105
f 164/216/106 163/139/106 145/142/106 146/232/106
f 66/237/107 147/238/107 151/225/107 71/224/107
f 147/238/108 148/149/108 152/138/108 151/225/108
f 12/70/109 113/239/109 141/240/109 53/241/109
f 113/239/110 114/24/110 142/123/110 141/240/110
f 45/112/44 134/111/44 144/118/44 55/117/44
f 133/242/111 143/243/111 167/244/111 165/245/111
f 53/124/112 141/246/112 143/121/112 54/120/112
f 141/246/113 142/115/113 144/118/113 143/121/113
f 49/63/114 138/247/114 140/248/114 51/77/114
f 138/247/115 137/114/115 139/107/115 140/248/115
f 46/62/116 133/119/116 138/247/116 49/63/116
f 133/119/117 134/111/117 137/114/117 138/247/117
f 51/77/118 140/248/118 135/38/118 48/37/118
f 140/248/119 139/107/119 136/110/119 135/38/119
f 15/249/120 116/250/120 132/251/120 38/252/120
f 116/250/121 115/27/121 131/101/121 132/251/121
f 39/99/122 128/253/122 130/254/122 40/100/122
f 128/253/123 127/94/123 129/97/123 130/254/123
f 17/34/124 119/46/124 128/255/124 39/98/124
f 119/46/125 120/90/125 127/93/125 128/255/125
f 32/256/126 124/257/126 126/258/126 31/233/126
f 124/257/127 123/50/127 125/53/127 126/258/127
f 24/173/128 122/172/128 124/257/128 32/256/128
f 122/172/129 121/54/129 123/50/129 124/257/129
f 126/258/130 125/53/130 130/186/130 129/259/130
f 160/134/131 147/133/131 66/260/131 76/184/131
f 18/261/132 118/262/132 136/110/132 47/109/132
f 118/262/133 117/35/133 135/38/133 136/110/133
f 10/11/134 110/10/134 116/250/134 15/249/134
f 110/10/135 109/25/135 115/27/135 116/250/135
f 4/3/136 107/2/136 113/239/136 12/70/136
f 107/2/137 108/21/137 114/24/137 113/239/137
f 5/6/138 2/8/138 106/263/138 111/264/138
f 111/264/139 106/263/139 105/9/139 112/14/139
f 1/4/140 5/6/140 111/264/140 103/1/140
f 103/1/141 111/264/141 112/14/141 104/13/141
f 2/8/142 6/7/142 109/25/142 106/263/142
f 106/263/143 109/25/143 110/10/143 105/9/143
f 3/16/144 8/22/144 108/21/144 104/13/144
f 104/13/145 108/21/145 107/2/145 103/1/145
f 165/245/146 167/244/146 171/265/146 169/266/146
f 143/243/147 144/267/147 168/268/147 167/244/147
f 144/267/148 134/269/148 166/270/148 168/268/148
f 134/269/149 133/271/149 165/272/149 166/270/149
f 170/273/150 169/274/150 171/275/150 172/276/150
f 167/244/151 168/268/151 172/277/151 171/265/151
f 168/268/152 166/270/152 170/278/152 172/277/152
f 166/270/153 165/272/153 169/279/153 170/278/153
f 244/280/154 173/281/154 175/282/154 248/283/154
f 173/281/155 176/284/155 178/285/155 175/282/155
f 176/284/156 174/286/156 177/287/156 178/285/156
f 246/288/157 7/289/157 10/290/157 251/291/157
f 245/292/158 3/293/158 11/294/158 253/295/158
f 253/295/159 11/294/159 7/289/159 246/288/159
f 203/296/160 233/297/160 232/298/160 204/299/160
f 249/300/161 255/301/161 14/302/161 8/303/161
f 250/304/162 256/305/162 180/306/162 177/287/162
f 178/307/163 228/308/163 227/309/163 175/310/163
f 184/311/164 182/312/164 183/313/164 186/314/164
f 258/315/165 276/316/165 198/317/165 181/318/165
f 186/314/166 183/313/166 181/319/166 187/320/166
f 320/321/167 182/312/167 260/322/167
f 322/323/168 181/319/168 183/313/168 321/324/168
f 258/325/169 181/319/169 322/323/169
f 321/324/170 183/313/170 182/312/170 320/321/170
f 264/326/171 266/327/171 196/328/171 194/329/171
f 262/330/172 264/326/172 194/329/172 190/331/172
f 186/332/173 210/333/173 208/334/173 184/335/173
f 188/336/174 199/337/174 197/338/174 179/339/174
f 179/340/175 203/341/175 207/342/175 188/343/175
f 184/335/176 208/334/176 206/344/176 185/345/176
f 179/346/177 230/347/177 233/348/177 203/349/177
f 204/299/178 232/298/178 234/350/178 205/351/178
f 187/352/179 200/353/179 199/337/179 188/336/179
f 185/345/180 206/344/180 205/354/180 180/355/180
f 185/356/181 193/357/181 195/358/181 184/311/181
f 193/359/182 194/360/182 196/361/182 195/362/182
f 180/306/183 189/363/183 193/357/183 185/356/183
f 189/364/184 190/365/184 194/360/184 193/359/184
f 261/366/185 268/367/185 34/368/185 20/369/185
f 268/370/186 270/371/186 33/96/186 34/95/186
f 184/311/187 195/358/187 191/372/187 182/312/187
f 195/362/188 196/361/188 192/373/188 191/374/188
f 256/305/189 272/375/189 189/363/189 180/306/189
f 68/376/190 65/377/190 80/378/190 300/379/190 289/380/190
f 280/381/191 277/382/191 47/383/191 50/384/191
f 275/385/192 278/386/192 52/387/192 45/388/192
f 278/386/193 280/381/193 50/384/193 52/387/193
f 181/318/194 198/317/194 200/353/194 187/352/194
f 283/389/195 285/390/195 55/391/195 30/392/195
f 274/393/196 284/394/196 202/395/196 197/338/196
f 255/301/197 283/396/197 30/397/197 14/302/197
f 197/338/198 202/395/198 201/398/198 179/339/198
f 204/299/199 209/399/199 207/400/199 203/296/199
f 209/399/200 210/401/200 211/402/200 207/400/200
f 205/351/201 206/403/201 209/399/201 204/299/201
f 206/403/202 208/404/202 210/401/202 209/399/202
f 187/405/203 211/406/203 210/333/203 186/332/203
f 188/343/204 207/342/204 211/406/204 187/405/204
f 289/380/205 300/379/205 301/407/205 288/408/205
f 220/409/206 217/410/206 293/411/206 297/412/206
f 304/413/207 286/414/207 213/415/207 224/416/207
f 79/417/208 68/418/208 214/419/208 225/420/208
f 217/410/209 214/421/209 68/422/209 289/423/209 293/411/209
f 224/424/210 213/425/210 212/426/210 221/427/210
f 215/428/211 218/429/211 219/430/211 216/431/211
f 213/425/212 215/428/212 216/431/212 212/426/212
f 286/414/213 290/432/213 215/433/213 213/415/213
f 294/434/214 296/435/214 219/436/214 218/437/214
f 299/438/215 262/330/215 190/331/215 222/439/215
f 290/432/216 294/440/216 218/441/216 215/433/216
f 189/364/217 223/442/217 222/443/217 190/365/217
f 223/442/218 224/424/218 221/427/218 222/443/218
f 263/444/219 298/445/219 81/446/219 24/173/219
f 298/445/220 300/379/220 80/378/220 81/446/220
f 37/176/221 78/447/221 226/448/221 38/177/221
f 78/447/222 79/417/222 225/420/222 226/448/222
f 272/449/223 302/450/223 223/451/223 189/452/223
f 302/450/224 304/413/224 224/416/224 223/451/224
f 301/407/225 299/438/225 222/439/225 221/453/225
f 196/328/226 266/327/226 271/454/226 192/455/226
f 231/456/227 240/457/227 237/458/227 229/459/227
f 230/347/228 238/460/228 242/461/228 233/348/228
f 233/297/229 242/462/229 241/463/229 232/298/229
f 229/459/230 237/458/230 236/464/230 228/308/230
f 180/355/231 231/456/231 229/459/231 177/465/231
f 205/354/232 234/466/232 231/456/232 180/355/232
f 175/310/233 227/309/233 230/347/233 179/346/233
f 177/465/234 229/459/234 228/308/234 178/307/234
f 236/467/235 239/468/235 238/469/235 235/470/235
f 237/471/236 240/472/236 239/468/236 236/467/236
f 240/472/237 243/473/237 241/474/237 239/468/237
f 239/468/238 241/474/238 242/475/238 238/469/238
f 227/309/239 235/476/239 238/460/239 230/347/239
f 232/298/240 241/463/240 243/477/240 234/350/240
f 228/308/241 236/464/241 235/476/241 227/309/241
f 234/466/242 243/478/242 240/457/242 231/456/242
f 226/479/243 225/480/243 305/481/243 303/482/243
f 303/482/244 305/481/244 304/413/244 302/450/244
f 38/483/245 226/479/245 303/482/245 273/484/245
f 273/484/246 303/482/246 302/450/246 272/449/246
f 299/438/220 301/407/220 300/379/220 298/445/220
f 262/330/247 299/438/247 298/445/247 263/444/247
f 217/485/248 220/486/248 295/487/248 291/488/248
f 291/488/249 295/487/249 294/440/249 290/432/249
f 216/489/250 219/490/250 296/491/250 292/492/250
f 292/492/251 296/491/251 297/412/251 293/411/251
f 220/493/252 297/494/252 295/495/252
f 295/495/253 297/494/253 296/435/253 294/434/253
f 214/496/254 217/485/254 291/488/254 287/497/254
f 287/497/255 291/488/255 290/432/255 286/414/255
f 225/480/256 214/496/256 287/497/256 305/481/256
f 305/481/257 287/497/257 286/414/257 304/413/257
f 212/498/258 216/489/258 292/492/258 288/499/258
f 288/499/259 292/492/259 293/411/259 289/423/259
f 179/500/260 201/501/260 282/502/260 254/503/260
f 254/503/261 282/502/261 283/396/261 255/301/261
f 45/388/196 55/391/196 285/390/196 275/385/196
f 274/504/262 306/505/262 308/506/262 284/507/262
f 201/398/263 202/395/263 284/394/263 282/508/263
f 282/508/264 284/394/264 285/390/264 283/389/264
f 199/337/265 200/353/265 281/509/265 279/510/265
f 279/510/266 281/509/266 280/381/266 278/386/266
f 197/338/267 199/337/267 279/510/267 274/393/267
f 274/393/268 279/510/268 278/386/268 275/385/268
f 200/353/269 198/317/269 276/316/269 281/509/269
f 281/509/270 276/316/270 277/382/270 280/381/270
f 15/511/271 38/512/271 273/513/271 257/514/271
f 257/514/272 273/513/272 272/375/272 256/305/272
f 191/374/273 192/373/273 271/515/273 269/516/273
f 269/516/274 271/515/274 270/371/274 268/370/274
f 182/312/275 191/372/275 269/517/275 260/322/275
f 260/322/276 269/517/276 268/367/276 261/366/276
f 32/256/277 31/233/277 267/236/277 265/518/277
f 265/518/278 267/236/278 266/327/278 264/326/278
f 24/173/279 32/256/279 265/518/279 263/444/279
f 263/444/280 265/518/280 264/326/280 262/330/280
f 267/236/281 270/235/281 271/454/281 266/327/281
f 301/407/282 221/453/282 212/519/282 288/408/282
f 18/520/283 47/383/283 277/382/283 259/521/283
f 259/521/284 277/382/284 276/316/284 258/315/284
f 10/290/285 15/511/285 257/514/285 251/291/285
f 251/291/286 257/514/286 256/305/286 250/304/286
f 175/282/287 179/500/287 254/503/287 248/283/287
f 248/283/288 254/503/288 255/301/288 249/300/288
f 176/284/289 252/522/289 247/523/289 174/286/289
f 252/522/290 253/295/290 246/288/290 247/523/290
f 173/281/291 244/280/291 252/522/291 176/284/291
f 244/280/292 245/292/292 253/295/292 252/522/292
f 174/286/293 247/523/293 250/304/293 177/287/293
f 247/523/294 246/288/294 251/291/294 250/304/294
f 3/293/295 245/292/295 249/300/295 8/303/295
f 245/292/296 244/280/296 248/283/296 249/300/296
f 306/505/297 310/524/297 312/525/297 308/506/297
f 284/507/298 308/506/298 309/526/298 285/527/298
f 285/527/299 309/526/299 307/528/299 275/529/299
f 275/529/300 307/528/300 306/530/300 274/531/300
f 311/532/301 313/533/301 312/534/301 310/535/301
f 308/506/302 312/525/302 313/536/302 309/526/302
f 309/526/303 313/536/303 311/537/303 307/528/303
f 307/528/304 311/537/304 310/538/304 306/530/304
f 22/539/305 21/540/305 315/541/305 316/542/305
f 21/540/306 23/543/306 314/544/306 315/541/306
f 23/543/307 20/91/307 120/90/307 314/544/307
f 18/545/17 22/539/17 316/542/17 118/546/17
f 22/547/308 319/548/308 318/549/308 21/550/308
f 21/550/309 318/549/309 317/551/309 23/552/309
f 23/552/310 317/551/310 261/366/310 20/369/310
f 18/553/169 259/554/169 319/548/169 22/547/169
f 319/548/311 322/323/311 321/324/311 318/549/311
f 318/549/312 321/324/312 320/321/312 317/551/312
f 317/551/313 320/321/313 260/322/313 261/366/313
f 259/554/169 258/325/169 322/323/169 319/548/169
f 316/542/314 315/541/314 324/48/314 325/47/314
f 315/541/315 314/544/315 323/45/315 324/48/315
f 314/544/316 120/90/316 119/46/316 323/45/316
f 118/546/17 316/542/17 325/47/17 117/49/17
f 31/233/317 126/258/317 129/259/317 33/234/317
