# Blender 5.1.2
# www.blender.org
mtllib Base v3.mtl
o Cylinder
v 0.000000 -0.093539 -6.792751
v 0.000000 0.192904 -5.896232
v 2.599473 -0.093539 -6.275684
v 2.256391 0.192904 -5.447408
v 4.803200 -0.093539 -4.803200
v 4.169266 0.192904 -4.169266
v 6.275684 -0.093539 -2.599473
v 5.447408 0.192904 -2.256391
v 6.792751 -0.093539 0.000000
v 5.896232 0.192904 0.000000
v 6.275684 -0.093539 2.599473
v 5.447408 0.192904 2.256391
v 4.803200 -0.093539 4.803200
v 4.169266 0.192904 4.169266
v 2.599473 -0.093539 6.275684
v 2.256391 0.192904 5.447408
v 0.000000 -0.093539 6.792751
v 0.000000 0.192904 5.896232
v -2.599473 -0.093539 6.275684
v -2.256391 0.192904 5.447408
v -4.803200 -0.093539 4.803200
v -4.169266 0.192904 4.169266
v -6.275684 -0.093539 2.599473
v -5.447408 0.192904 2.256391
v -6.792751 -0.093539 0.000000
v -5.896232 0.192904 0.000000
v -6.275684 -0.093539 -2.599473
v -5.447408 0.192904 -2.256391
v -4.803200 -0.093539 -4.803200
v -4.169266 0.192904 -4.169266
v -2.599473 -0.093539 -6.275684
v -2.256391 0.192904 -5.447408
v 1.013753 0.571265 -1.013752
v 0.000000 0.571265 -1.013752
v -1.013752 0.571265 -1.013752
v 1.013753 0.571265 1.013753
v 0.000000 0.571265 1.013753
v -1.013752 0.571265 1.013753
v 1.013753 0.571265 0.000000
v -1.013752 0.571265 0.000000
v 0.000000 0.571265 0.000000
v 1.013753 0.571265 -2.447415
v 0.000000 0.571265 -2.649063
v 1.873170 0.571265 -1.873170
v 2.447415 0.571265 -1.013752
v 2.649063 0.571265 0.000000
v 2.447415 0.571265 1.013753
v 1.873170 0.571265 1.873170
v 1.013753 0.571265 2.447415
v 0.000000 0.571265 2.649063
v -1.013752 0.571265 2.447415
v -1.873170 0.571265 1.873170
v -2.447415 0.571265 1.013753
v -2.649063 0.571265 0.000000
v -2.447415 0.571265 -1.013752
v -1.873170 0.571265 -1.873170
v -1.013752 0.571265 -2.447415
v 2.108762 0.571265 -5.091000
v 2.256391 0.192904 -5.447408
v 2.182576 0.520574 -5.269204
v 2.236612 0.382084 -5.399659
v 0.000000 0.192904 -5.896232
v 0.000000 0.571265 -5.510459
v 0.000000 0.382084 -5.844548
v 0.000000 0.520574 -5.703345
v 3.896483 0.571265 -3.896483
v 4.169266 0.192904 -4.169266
v 4.032874 0.520574 -4.032874
v 4.132720 0.382084 -4.132720
v 5.091000 0.571265 -2.108762
v 5.447408 0.192904 -2.256391
v 5.269204 0.520574 -2.182576
v 5.399659 0.382084 -2.236612
v 5.510459 0.571265 0.000000
v 5.896232 0.192904 0.000000
v 5.703345 0.520574 0.000000
v 5.844548 0.382084 0.000000
v 5.091000 0.571265 2.108762
v 5.447408 0.192904 2.256391
v 5.269204 0.520574 2.182576
v 5.399659 0.382084 2.236612
v 3.896483 0.571265 3.896483
v 4.169266 0.192904 4.169266
v 4.032874 0.520574 4.032874
v 4.132720 0.382084 4.132720
v 2.108762 0.571265 5.091000
v 2.256391 0.192904 5.447408
v 2.182576 0.520574 5.269204
v 2.236612 0.382084 5.399659
v 0.000000 0.571265 5.510459
v 0.000000 0.192904 5.896232
v 0.000000 0.520574 5.703345
v 0.000000 0.382084 5.844548
v -2.108762 0.571265 5.091000
v -2.256391 0.192904 5.447408
v -2.182576 0.520574 5.269204
v -2.236612 0.382084 5.399659
v -3.896483 0.571265 3.896483
v -4.169266 0.192904 4.169266
v -4.032874 0.520574 4.032874
v -4.132720 0.382084 4.132720
v -5.091000 0.571265 2.108762
v -5.447408 0.192904 2.256391
v -5.269204 0.520574 2.182576
v -5.399659 0.382084 2.236612
v -5.510459 0.571265 0.000000
v -5.896232 0.192904 0.000000
v -5.703345 0.520574 0.000000
v -5.844548 0.382084 0.000000
v -5.091000 0.571265 -2.108762
v -5.447408 0.192904 -2.256391
v -5.269204 0.520574 -2.182576
v -5.399659 0.382084 -2.236612
v -3.896483 0.571265 -3.896483
v -4.169266 0.192904 -4.169266
v -4.032874 0.520574 -4.032874
v -4.132720 0.382084 -4.132720
v -2.108762 0.571265 -5.091000
v -2.256391 0.192904 -5.447408
v -2.182576 0.520574 -5.269204
v -2.236612 0.382084 -5.399659
v 2.487709 0.192904 -6.005860
v 2.599473 -0.093539 -6.275684
v 2.566738 0.109007 -6.196654
v 0.000000 -0.093539 -6.792751
v 0.000000 0.192904 -6.500697
v 0.000000 0.109007 -6.707210
v 4.596686 0.192904 -4.596686
v 4.803200 -0.093539 -4.803200
v 4.742714 0.109007 -4.742714
v 6.005860 0.192904 -2.487709
v 6.275684 -0.093539 -2.599473
v 6.196654 0.109007 -2.566738
v 6.500697 0.192904 0.000000
v 6.792751 -0.093539 0.000000
v 6.707210 0.109007 0.000000
v 6.005860 0.192904 2.487709
v 6.275684 -0.093539 2.599473
v 6.196654 0.109007 2.566738
v 4.596686 0.192904 4.596686
v 4.803200 -0.093539 4.803200
v 4.742714 0.109007 4.742714
v 2.487709 0.192904 6.005860
v 2.599473 -0.093539 6.275684
v 2.566738 0.109007 6.196654
v 0.000000 0.192904 6.500697
v 0.000000 -0.093539 6.792751
v 0.000000 0.109007 6.707210
v -2.487709 0.192904 6.005860
v -2.599473 -0.093539 6.275684
v -2.566738 0.109007 6.196654
v -4.596686 0.192904 4.596686
v -4.803200 -0.093539 4.803200
v -4.742714 0.109007 4.742714
v -6.005860 0.192904 2.487709
v -6.275684 -0.093539 2.599473
v -6.196654 0.109007 2.566738
v -6.500697 0.192904 0.000000
v -6.792751 -0.093539 0.000000
v -6.707210 0.109007 0.000000
v -6.005860 0.192904 -2.487709
v -6.275684 -0.093539 -2.599473
v -6.196654 0.109007 -2.566738
v -4.596686 0.192904 -4.596686
v -4.803200 -0.093539 -4.803200
v -4.742714 0.109007 -4.742714
v -2.487709 0.192904 -6.005860
v -2.599473 -0.093539 -6.275684
v -2.566738 0.109007 -6.196654
v 0.000000 -0.093539 0.000000
v 0.000000 -0.093539 2.599473
v 0.000000 -0.093539 -2.599473
v 2.599474 -0.093539 2.599473
v 2.599473 -0.093539 0.000000
v 2.599474 -0.093539 -2.599473
v -2.599474 -0.093539 -2.599473
v -2.599473 -0.093539 0.000000
v -2.599474 -0.093539 2.599473
vn -0.0000 1.0000 -0.0000
vn -0.0000 -1.0000 -0.0000
vn 0.1884 0.2588 -0.9474
vn 0.1379 0.7071 -0.6935
vn 0.0505 0.9659 -0.2538
vn 0.5366 0.2588 -0.8031
vn 0.3928 0.7071 -0.5879
vn 0.1438 0.9659 -0.2152
vn 0.8031 0.2588 -0.5366
vn 0.5879 0.7071 -0.3928
vn 0.2152 0.9659 -0.1438
vn 0.9474 0.2588 -0.1884
vn 0.6935 0.7071 -0.1379
vn 0.2538 0.9659 -0.0505
vn 0.9474 0.2588 0.1884
vn 0.6935 0.7071 0.1379
vn 0.2538 0.9659 0.0505
vn 0.8031 0.2588 0.5366
vn 0.5879 0.7071 0.3928
vn 0.2152 0.9659 0.1438
vn 0.5366 0.2588 0.8031
vn 0.3928 0.7071 0.5879
vn 0.1438 0.9659 0.2152
vn 0.1884 0.2588 0.9474
vn 0.1379 0.7071 0.6935
vn 0.0505 0.9659 0.2538
vn -0.1884 0.2588 0.9474
vn -0.1379 0.7071 0.6935
vn -0.0505 0.9659 0.2538
vn -0.5366 0.2588 0.8031
vn -0.3928 0.7071 0.5879
vn -0.1438 0.9659 0.2152
vn -0.8031 0.2588 0.5366
vn -0.5879 0.7071 0.3928
vn -0.2152 0.9659 0.1438
vn -0.9474 0.2588 0.1884
vn -0.6935 0.7071 0.1379
vn -0.2538 0.9659 0.0505
vn -0.9474 0.2588 -0.1884
vn -0.6935 0.7071 -0.1379
vn -0.2538 0.9659 -0.0505
vn -0.8031 0.2588 -0.5366
vn -0.5879 0.7071 -0.3928
vn -0.2152 0.9659 -0.1438
vn -0.5366 0.2588 -0.8031
vn -0.3928 0.7071 -0.5879
vn -0.1438 0.9659 -0.2152
vn -0.1884 0.2588 -0.9474
vn -0.1379 0.7071 -0.6935
vn -0.0505 0.9659 -0.2538
vn 0.1802 0.3827 -0.9061
vn 0.0747 0.9239 -0.3753
vn 0.5133 0.3827 -0.7682
vn 0.2126 0.9239 -0.3182
vn 0.7682 0.3827 -0.5133
vn 0.3182 0.9239 -0.2126
vn 0.9061 0.3827 -0.1802
vn 0.3753 0.9239 -0.0747
vn 0.9061 0.3827 0.1802
vn 0.3753 0.9239 0.0747
vn 0.7682 0.3827 0.5133
vn 0.3182 0.9239 0.2126
vn 0.5133 0.3827 0.7682
vn 0.2126 0.9239 0.3182
vn 0.1802 0.3827 0.9061
vn 0.0747 0.9239 0.3753
vn -0.1802 0.3827 0.9061
vn -0.0747 0.9239 0.3753
vn -0.5133 0.3827 0.7682
vn -0.2126 0.9239 0.3182
vn -0.7682 0.3827 0.5133
vn -0.3182 0.9239 0.2126
vn -0.9061 0.3827 0.1802
vn -0.3753 0.9239 0.0747
vn -0.9061 0.3827 -0.1802
vn -0.3753 0.9239 -0.0747
vn -0.7682 0.3827 -0.5133
vn -0.3182 0.9239 -0.2126
vn -0.5133 0.3827 -0.7682
vn -0.2126 0.9239 -0.3182
vn -0.1802 0.3827 -0.9061
vn -0.0747 0.9239 -0.3753
vn -0.1889 -0.0000 0.9820
vn -0.4132 -0.0000 0.9106
vn 0.1889 -0.0000 0.9820
vn -0.8053 -0.0000 0.5929
vn -0.9855 -0.0000 0.1699
vn -0.9855 -0.0000 -0.1699
vn -0.8053 -0.0000 -0.5929
vn -0.4132 -0.0000 -0.9106
vn -0.1889 -0.0000 -0.9820
vn 0.1889 -0.0000 -0.9820
vn 0.4132 -0.0000 -0.9106
vn 0.8053 -0.0000 -0.5929
vn 0.9855 -0.0000 -0.1699
vn 0.9855 -0.0000 0.1699
vn 0.8053 -0.0000 0.5929
vn 0.4132 -0.0000 0.9106
vt 0.893257 0.086942
vt 0.913058 0.106743
vt 0.874962 0.114321
vt 0.867385 0.076225
vt 0.826445 0.151976
vt 0.831803 0.178914
vt 0.793707 0.186491
vt 0.782990 0.160619
vt 0.813509 0.206293
vt 0.839381 0.217010
vt 0.923775 0.132615
vt 0.880321 0.141259
vt 0.813509 0.086942
vt 0.839381 0.076225
vt 0.848024 0.119679
vt 0.821086 0.125038
vt 0.867385 0.217010
vt 0.858741 0.173555
vt 0.885679 0.168197
vt 0.893257 0.206293
vt 0.853383 0.146617
vt 0.506694 0.816080
vt 0.526117 0.913728
vt 0.459801 0.886259
vt 0.409045 0.835503
vt 0.782990 0.132616
vt 0.793707 0.106743
vt 0.923775 0.160619
vt 0.683844 0.342610
vt 0.648534 0.407197
vt 0.643353 0.403548
vt 0.678206 0.340275
vt 0.638138 0.399866
vt 0.672531 0.337915
vt 0.632849 0.396118
vt 0.666774 0.335505
vt 0.703213 0.274786
vt 0.697479 0.273811
vt 0.691707 0.272819
vt 0.685851 0.271793
vt 0.706574 0.207957
vt 0.701100 0.208310
vt 0.695589 0.208652
vt 0.689997 0.208977
vt 0.694759 0.146241
vt 0.689885 0.147815
vt 0.684978 0.149382
vt 0.679998 0.150947
vt 0.669636 0.093643
vt 0.665625 0.096197
vt 0.661583 0.098753
vt 0.657476 0.101326
vt 0.634667 0.052092
vt 0.631636 0.055348
vt 0.628579 0.058617
vt 0.625470 0.061916
vt 0.593053 0.022549
vt 0.591057 0.026244
vt 0.589043 0.029957
vt 0.586990 0.033712
vt 0.547817 0.005318
vt 0.546862 0.009206
vt 0.545895 0.013115
vt 0.544906 0.017074
vt 0.501703 0.000191
vt 0.501755 0.004049
vt 0.501803 0.007931
vt 0.501844 0.011863
vt 0.457180 0.006590
vt 0.458175 0.010220
vt 0.459174 0.013871
vt 0.460183 0.017572
vt 0.416457 0.023615
vt 0.418309 0.026837
vt 0.420173 0.030077
vt 0.422060 0.033360
vt 0.381507 0.050117
vt 0.383916 0.052976
vt 0.386593 0.055633
vt 0.389424 0.058172
vt 0.461704 0.540327
vt 0.382233 0.552415
vt 0.381565 0.545582
vt 0.459897 0.533822
vt 0.381507 0.538659
vt 0.458082 0.527273
vt 0.381803 0.531684
vt 0.456248 0.520631
vt 0.535022 0.509933
vt 0.531788 0.504115
vt 0.528534 0.498256
vt 0.525239 0.492308
vt 0.598272 0.464314
vt 0.593899 0.459477
vt 0.589498 0.454602
vt 0.585039 0.449645
vt 0.729248 0.229561
vt 0.706956 0.175743
vt 0.203732 0.947099
vt 0.141515 0.947102
vt 0.141493 0.947035
vt 0.203685 0.947046
vt 0.084034 0.923296
vt 0.084039 0.923226
vt 0.770439 0.270752
vt 0.706956 0.117491
vt 0.040039 0.879306
vt 0.040071 0.879242
vt 0.261212 0.923288
vt 0.261149 0.923257
vt 0.824257 0.293044
vt 0.305206 0.879291
vt 0.305136 0.879287
vt 0.882509 0.293044
vt 0.329016 0.821807
vt 0.328949 0.821830
vt 0.936327 0.270752
vt 0.329015 0.759585
vt 0.328962 0.759632
vt 0.913058 0.186491
vt 0.977517 0.229561
vt 0.305205 0.702099
vt 0.305174 0.702162
vt 0.999809 0.175743
vt 0.261208 0.658098
vt 0.261203 0.658168
vt 0.999809 0.117491
vt 0.203721 0.634281
vt 0.203744 0.634348
vt 0.977517 0.063673
vt 0.141496 0.634275
vt 0.141543 0.634328
vt 0.936327 0.022483
vt 0.084005 0.658080
vt 0.084068 0.658111
vt 0.882509 0.000191
vt 0.039998 0.702074
vt 0.040068 0.702092
vt 0.824257 0.000191
vt 0.016223 0.759614
vt 0.040027 0.702134
vt 0.040098 0.702125
vt 0.016290 0.759592
vt 0.770439 0.022483
vt 0.016227 0.821828
vt 0.016280 0.821782
vt 0.729248 0.063673
vt 0.252335 0.590897
vt 0.198809 0.611662
vt 0.197686 0.607150
vt 0.250001 0.586649
vt 0.196543 0.602578
vt 0.247628 0.582345
vt 0.300987 0.555559
vt 0.297472 0.551866
vt 0.293901 0.548129
vt 0.341156 0.506370
vt 0.336551 0.503538
vt 0.331876 0.500677
vt 0.369120 0.444833
vt 0.363593 0.443167
vt 0.357985 0.441490
vt 0.381125 0.373535
vt 0.374985 0.373280
vt 0.368755 0.373033
vt 0.375264 0.297155
vt 0.368904 0.298418
vt 0.362452 0.299711
vt 0.350759 0.220569
vt 0.344587 0.223369
vt 0.338328 0.226219
vt 0.307966 0.148742
vt 0.302392 0.153001
vt 0.296741 0.157331
vt 0.248342 0.086538
vt 0.243757 0.092088
vt 0.239111 0.097724
vt 0.174517 0.038510
vt 0.171278 0.045085
vt 0.167997 0.051758
vt 0.090242 0.008650
vt 0.088649 0.015894
vt 0.087036 0.023243
vt 0.000316 0.000191
vt 0.000191 0.007691
vt 0.000870 0.015266
vt 0.041794 0.589262
vt 0.000191 0.556919
vt 0.003128 0.553681
vt 0.044004 0.585505
vt 0.006437 0.550732
vt 0.046243 0.581696
vt 0.090532 0.610052
vt 0.091722 0.605810
vt 0.092924 0.601507
vt 0.143826 0.617858
vt 0.143893 0.613355
vt 0.143955 0.608791
vt 0.138327 0.963135
vt 0.074953 0.936888
vt 0.742439 0.697407
vt 0.742508 0.697393
vt 0.742508 0.769201
vt 0.742439 0.769187
vt 0.715028 0.835542
vt 0.714970 0.835503
vt 0.206921 0.963132
vt 0.714970 0.631091
vt 0.715028 0.631052
vt 0.026448 0.888388
vt 0.664253 0.886318
vt 0.664213 0.886259
vt 0.270295 0.936880
vt 0.597911 0.913797
vt 0.597897 0.913728
vt 0.318799 0.888373
vt 0.526104 0.913797
vt 0.345050 0.824996
vt 0.459762 0.886318
vt 0.345050 0.756396
vt 0.408987 0.835542
vt 0.318799 0.693016
vt 0.381507 0.769201
vt 0.381576 0.769187
vt 0.270292 0.644504
vt 0.381507 0.697393
vt 0.381576 0.697407
vt 0.206912 0.618246
vt 0.408987 0.631052
vt 0.409045 0.631091
vt 0.138308 0.618239
vt 0.459762 0.580276
vt 0.459801 0.580335
vt 0.074923 0.644485
vt 0.526104 0.552797
vt 0.526117 0.552866
vt 0.026406 0.692989
vt 0.597911 0.552797
vt 0.597897 0.552866
vt 0.000191 0.756426
vt 0.026435 0.693054
vt 0.664253 0.580276
vt 0.664213 0.580335
vt 0.000195 0.825019
vt 0.644790 0.788611
vt 0.575742 0.802345
vt 0.479225 0.677984
vt 0.492959 0.747032
vt 0.617321 0.650515
vt 0.631055 0.719563
vt 0.562007 0.733297
vt 0.548273 0.664249
s 0
f 52/1/1 51/2/1 38/3/1 53/4/1
f 34/5/1 33/6/1 42/7/1 43/8/1
f 44/9/1 42/7/1 33/6/1 45/10/1
f 51/2/1 50/11/1 37/12/1 38/3/1
f 55/13/1 54/14/1 40/15/1 35/16/1
f 46/17/1 45/10/1 33/6/1 39/18/1
f 46/17/1 39/18/1 36/19/1 47/20/1
f 39/18/1 41/21/1 37/12/1 36/19/1
f 173/22/2 11/23/2 13/24/2 15/25/2
f 41/21/1 40/15/1 38/3/1 37/12/1
f 40/15/1 54/14/1 53/4/1 38/3/1
f 35/16/1 34/5/1 43/8/1 57/26/1
f 56/27/1 55/13/1 35/16/1 57/26/1
f 37/12/1 50/11/1 49/28/1 36/19/1
f 34/5/1 35/16/1 40/15/1 41/21/1
f 33/6/1 34/5/1 41/21/1 39/18/1
f 59/29/3 62/30/3 64/31/3 61/32/3
f 61/32/4 64/31/4 65/33/4 60/34/4
f 60/34/5 65/33/5 63/35/5 58/36/5
f 67/37/6 59/29/6 61/32/6 69/38/6
f 69/38/7 61/32/7 60/34/7 68/39/7
f 68/39/8 60/34/8 58/36/8 66/40/8
f 71/41/9 67/37/9 69/38/9 73/42/9
f 73/42/10 69/38/10 68/39/10 72/43/10
f 72/43/11 68/39/11 66/40/11 70/44/11
f 75/45/12 71/41/12 73/42/12 77/46/12
f 77/46/13 73/42/13 72/43/13 76/47/13
f 76/47/14 72/43/14 70/44/14 74/48/14
f 79/49/15 75/45/15 77/46/15 81/50/15
f 81/50/16 77/46/16 76/47/16 80/51/16
f 80/51/17 76/47/17 74/48/17 78/52/17
f 83/53/18 79/49/18 81/50/18 85/54/18
f 85/54/19 81/50/19 80/51/19 84/55/19
f 84/55/20 80/51/20 78/52/20 82/56/20
f 87/57/21 83/53/21 85/54/21 89/58/21
f 89/58/22 85/54/22 84/55/22 88/59/22
f 88/59/23 84/55/23 82/56/23 86/60/23
f 91/61/24 87/57/24 89/58/24 93/62/24
f 93/62/25 89/58/25 88/59/25 92/63/25
f 92/63/26 88/59/26 86/60/26 90/64/26
f 95/65/27 91/61/27 93/62/27 97/66/27
f 97/66/28 93/62/28 92/63/28 96/67/28
f 96/67/29 92/63/29 90/64/29 94/68/29
f 99/69/30 95/65/30 97/66/30 101/70/30
f 101/70/31 97/66/31 96/67/31 100/71/31
f 100/71/32 96/67/32 94/68/32 98/72/32
f 103/73/33 99/69/33 101/70/33 105/74/33
f 105/74/34 101/70/34 100/71/34 104/75/34
f 104/75/35 100/71/35 98/72/35 102/76/35
f 107/77/36 103/73/36 105/74/36 109/78/36
f 109/78/37 105/74/37 104/75/37 108/79/37
f 108/79/38 104/75/38 102/76/38 106/80/38
f 111/81/39 107/82/39 109/83/39 113/84/39
f 113/84/40 109/83/40 108/85/40 112/86/40
f 112/86/41 108/85/41 106/87/41 110/88/41
f 115/89/42 111/81/42 113/84/42 117/90/42
f 117/90/43 113/84/43 112/86/43 116/91/43
f 116/91/44 112/86/44 110/88/44 114/92/44
f 119/93/45 115/89/45 117/90/45 121/94/45
f 121/94/46 117/90/46 116/91/46 120/95/46
f 120/95/47 116/91/47 114/92/47 118/96/47
f 62/30/48 119/93/48 121/94/48 64/31/48
f 64/31/49 121/94/49 120/95/49 65/33/49
f 65/33/50 120/95/50 118/96/50 63/35/50
f 43/8/1 42/7/1 58/97/1 63/98/1
f 6/99/1 4/100/1 59/101/1 67/102/1
f 4/100/1 2/103/1 62/104/1 59/101/1
f 42/7/1 44/9/1 66/105/1 58/97/1
f 57/26/1 43/8/1 63/98/1 118/106/1
f 2/103/1 32/107/1 119/108/1 62/104/1
f 8/109/1 6/99/1 67/102/1 71/110/1
f 44/9/1 45/10/1 70/111/1 66/105/1
f 10/112/1 8/109/1 71/110/1 75/113/1
f 45/10/1 46/17/1 74/114/1 70/111/1
f 12/115/1 10/112/1 75/113/1 79/116/1
f 46/17/1 47/20/1 78/117/1 74/114/1
f 14/118/1 12/115/1 79/116/1 83/119/1
f 47/20/1 48/120/1 82/121/1 78/117/1
f 16/122/1 14/118/1 83/119/1 87/123/1
f 48/120/1 49/28/1 86/124/1 82/121/1
f 18/125/1 16/122/1 87/123/1 91/126/1
f 49/28/1 50/11/1 90/127/1 86/124/1
f 20/128/1 18/125/1 91/126/1 95/129/1
f 50/11/1 51/2/1 94/130/1 90/127/1
f 22/131/1 20/128/1 95/129/1 99/132/1
f 51/2/1 52/1/1 98/133/1 94/130/1
f 24/134/1 22/131/1 99/132/1 103/135/1
f 52/1/1 53/4/1 102/136/1 98/133/1
f 26/137/1 24/134/1 103/135/1 107/138/1
f 53/4/1 54/14/1 106/139/1 102/136/1
f 28/140/1 26/141/1 107/142/1 111/143/1
f 54/14/1 55/13/1 110/144/1 106/139/1
f 30/145/1 28/140/1 111/143/1 115/146/1
f 55/13/1 56/27/1 114/147/1 110/144/1
f 32/107/1 30/145/1 115/146/1 119/108/1
f 56/27/1 57/26/1 118/106/1 114/147/1
f 123/148/51 125/149/51 127/150/51 124/151/51
f 124/151/52 127/150/52 126/152/52 122/153/52
f 129/154/53 123/148/53 124/151/53 130/155/53
f 130/155/54 124/151/54 122/153/54 128/156/54
f 132/157/55 129/154/55 130/155/55 133/158/55
f 133/158/56 130/155/56 128/156/56 131/159/56
f 135/160/57 132/157/57 133/158/57 136/161/57
f 136/161/58 133/158/58 131/159/58 134/162/58
f 138/163/59 135/160/59 136/161/59 139/164/59
f 139/164/60 136/161/60 134/162/60 137/165/60
f 141/166/61 138/163/61 139/164/61 142/167/61
f 142/167/62 139/164/62 137/165/62 140/168/62
f 144/169/63 141/166/63 142/167/63 145/170/63
f 145/170/64 142/167/64 140/168/64 143/171/64
f 147/172/65 144/169/65 145/170/65 148/173/65
f 148/173/66 145/170/66 143/171/66 146/174/66
f 150/175/67 147/172/67 148/173/67 151/176/67
f 151/176/68 148/173/68 146/174/68 149/177/68
f 153/178/69 150/175/69 151/176/69 154/179/69
f 154/179/70 151/176/70 149/177/70 152/180/70
f 156/181/71 153/178/71 154/179/71 157/182/71
f 157/182/72 154/179/72 152/180/72 155/183/72
f 159/184/73 156/181/73 157/182/73 160/185/73
f 160/185/74 157/182/74 155/183/74 158/186/74
f 162/187/75 159/188/75 160/189/75 163/190/75
f 163/190/76 160/189/76 158/191/76 161/192/76
f 165/193/77 162/187/77 163/190/77 166/194/77
f 166/194/78 163/190/78 161/192/78 164/195/78
f 168/196/79 165/193/79 166/194/79 169/197/79
f 169/197/80 166/194/80 164/195/80 167/198/80
f 125/149/81 168/196/81 169/197/81 127/150/81
f 127/150/82 169/197/82 167/198/82 126/152/82
f 2/103/1 4/100/1 122/199/1 126/200/1
f 1/201/83 125/202/83 123/203/83 3/204/83
f 3/204/84 123/203/84 129/205/84 5/206/84
f 4/100/1 6/99/1 128/207/1 122/199/1
f 31/208/85 168/209/85 125/202/85 1/201/85
f 32/107/1 2/103/1 126/200/1 167/210/1
f 5/206/86 129/205/86 132/211/86 7/212/86
f 6/99/1 8/109/1 131/213/1 128/207/1
f 7/212/87 132/211/87 135/214/87 9/215/87
f 8/109/1 10/112/1 134/216/1 131/213/1
f 9/215/88 135/214/88 138/217/88 11/23/88
f 10/112/1 12/115/1 137/218/1 134/216/1
f 11/23/89 138/217/89 141/219/89 13/24/89
f 12/115/1 14/118/1 140/220/1 137/218/1
f 13/24/90 141/219/90 144/221/90 15/25/90
f 14/118/1 16/122/1 143/222/1 140/220/1
f 15/25/91 144/221/91 147/223/91 17/224/91
f 16/122/1 18/125/1 146/225/1 143/222/1
f 17/224/92 147/223/92 150/226/92 19/227/92
f 18/125/1 20/128/1 149/228/1 146/225/1
f 19/227/93 150/226/93 153/229/93 21/230/93
f 20/128/1 22/131/1 152/231/1 149/228/1
f 21/230/94 153/229/94 156/232/94 23/233/94
f 22/131/1 24/134/1 155/234/1 152/231/1
f 23/233/95 156/232/95 159/235/95 25/236/95
f 24/134/1 26/137/1 158/237/1 155/234/1
f 25/236/96 159/235/96 162/238/96 27/239/96
f 26/141/1 28/140/1 161/240/1 158/241/1
f 27/239/97 162/238/97 165/242/97 29/243/97
f 28/140/1 30/145/1 164/244/1 161/240/1
f 29/243/98 165/242/98 168/209/98 31/208/98
f 30/145/1 32/107/1 167/210/1 164/244/1
f 175/245/2 7/212/2 9/215/2 174/246/2
f 178/247/2 171/248/2 17/224/2 19/227/2
f 176/249/2 172/250/2 170/251/2 177/252/2
f 177/252/2 170/251/2 171/248/2 178/247/2
f 174/246/2 9/215/2 11/23/2 173/22/2
f 31/208/2 1/201/2 172/250/2 176/249/2
f 3/204/2 5/206/2 7/212/2 175/245/2
f 172/250/2 175/245/2 174/246/2 170/251/2
f 170/251/2 174/246/2 173/22/2 171/248/2
f 171/248/2 173/22/2 15/25/2 17/224/2
f 1/201/2 3/204/2 175/245/2 172/250/2
f 25/236/2 177/252/2 178/247/2 23/233/2
f 27/239/2 176/249/2 177/252/2 25/236/2
f 29/243/2 31/208/2 176/249/2 27/239/2
f 23/233/2 178/247/2 19/227/2 21/230/2
f 47/20/1 36/19/1 49/28/1 48/120/1
