# Blender 5.1.2
# www.blender.org
mtllib gastraphetes.mtl
o scorpio
v 1.000000 7.324671 7.870935
v 1.000000 9.324671 7.870935
v 0.495282 7.932748 -7.783421
v 0.327760 7.932748 -7.783421
v 0.327760 8.920757 -7.783421
v 0.660890 7.324671 7.870935
v 0.345659 8.852417 7.870935
v 0.495282 7.932748 -7.517604
v 0.172035 8.687461 -7.517604
v 0.327760 7.932748 -7.517604
v 0.345659 8.852417 7.253093
v 0.660890 7.324671 7.253093
v 1.000000 7.324671 7.253093
v 0.495282 8.591420 -7.783421
v 0.495282 8.262084 -7.783421
v 1.000000 8.658004 7.870935
v 1.000000 7.991337 7.870935
v 0.450736 8.343168 7.870935
v 0.555813 7.833920 7.870935
v 0.327760 8.591420 -7.783421
v 0.327760 8.262084 -7.783421
v 0.510250 8.594862 -7.508056
v 0.495282 8.262084 -7.517604
v 1.000000 8.658004 7.253093
v 1.000000 7.991337 7.253093
v 1.000000 7.324671 6.694018
v 0.345659 8.852417 6.694018
v 0.660890 7.324671 6.694018
v 1.000000 7.991337 6.694018
v 1.000000 8.658004 6.694018
v 10.000280 8.234734 0.502842
v 10.000280 7.549818 0.502842
v 10.000280 7.484486 0.093399
v 10.000280 8.162654 0.093399
v 1.898669 8.658004 6.694018
v 2.797502 8.658004 6.613241
v 3.697400 8.658004 6.009280
v 4.598176 8.658004 4.938728
v 5.499441 8.658004 3.487292
v 6.400806 8.690952 2.082711
v 7.301882 8.499072 1.000412
v 8.202280 8.271118 0.332440
v 9.101612 8.162657 0.093399
v 9.101612 7.484488 0.093399
v 8.202281 7.591625 0.332439
v 7.301883 7.818295 1.000411
v 6.400806 8.014221 2.082710
v 5.499441 7.991337 3.496015
v 4.598176 7.991337 4.946532
v 3.697400 7.991337 6.009280
v 2.797502 7.991337 6.613241
v 1.898669 7.991337 6.694018
v 1.898669 8.658004 7.253093
v 2.797502 8.658004 7.172316
v 3.697400 8.658004 6.568356
v 4.598176 8.658004 5.466764
v 5.499441 8.658004 3.952754
v 6.400806 8.717223 2.605511
v 7.301882 8.595536 1.457017
v 8.202280 8.345204 0.750131
v 9.101612 8.234738 0.502842
v 1.898669 7.991337 7.253093
v 2.797502 7.991337 7.172316
v 3.697400 7.991337 6.568356
v 4.598176 7.991337 5.481650
v 5.499441 7.991337 3.976565
v 6.400806 8.039105 2.610912
v 7.301882 7.909842 1.457017
v 8.202280 7.659394 0.750131
v 9.101612 7.549822 0.502842
v 0.001278 7.932748 -7.783421
v 0.001278 8.920757 -7.783421
v 0.000000 7.324671 7.870935
v 0.000000 8.852417 7.870935
v 0.001278 7.932748 -7.517604
v 0.001278 8.687461 -7.517604
v 0.000000 7.324671 7.253093
v 0.000000 8.852417 7.253093
v 0.001278 8.262084 -7.783421
v 0.001278 8.591420 -7.783421
v 0.000000 7.833920 7.870935
v 0.000000 8.343168 7.870935
v 0.000000 8.852417 6.694018
v 0.000000 7.324671 6.694018
v 10.018408 9.747200 2.819252
v 10.018408 9.808423 3.242415
v 10.018408 9.118464 3.242415
v 10.018408 9.041576 2.819252
v 1.901841 8.658004 7.253093
v 2.803682 8.658004 7.253093
v 3.705523 8.658004 7.253093
v 4.607363 8.658004 7.125340
v 5.509204 8.658004 6.468605
v 6.411045 8.658004 5.489995
v 7.312885 8.818016 4.458249
v 8.214726 9.069592 3.556342
v 9.116568 9.118461 3.242415
v 9.116567 9.808420 3.242415
v 8.214725 9.742813 3.556342
v 7.312885 9.484683 4.458249
v 6.411044 9.324671 5.489994
v 5.509203 9.324671 6.468604
v 4.607363 9.324671 7.125340
v 3.705522 9.324671 7.253093
v 2.803681 9.324671 7.253093
v 1.901841 9.324671 7.253093
v 1.901841 9.324671 6.694018
v 2.803682 9.324671 6.694018
v 3.705523 9.324671 6.694018
v 4.607363 9.324671 6.566265
v 5.509204 9.324671 5.909529
v 6.411045 9.333227 4.930920
v 7.312885 9.540644 3.891465
v 8.214726 9.712096 3.075458
v 9.116568 9.747195 2.819252
v 9.116567 9.041572 2.819252
v 8.214725 9.023727 3.075458
v 7.312885 8.873977 3.891465
v 6.411044 8.666560 4.930919
v 5.509203 8.658004 5.909529
v 4.607363 8.658004 6.566265
v 3.705522 8.658004 6.694018
v 2.803681 8.658004 6.694018
v 1.901841 8.658004 6.694018
v 0.330825 8.920757 -7.783421
v 0.495282 8.756300 -7.783421
v 0.413054 8.898724 -7.783421
v 0.473249 8.838529 -7.783421
v 0.361929 8.824512 -7.517604
v 0.496755 8.757510 -7.516655
v 0.428606 8.850601 -7.517604
v 0.477416 8.825634 -7.517604
v 1.000000 8.991765 6.694018
v 0.730056 9.129846 6.694018
v 1.000000 9.324671 7.252896
v 1.332906 9.324671 6.694018
v 0.963834 9.132116 6.694018
v 0.865028 9.182657 6.694018
v 0.327760 8.756088 -7.783421
v 0.001278 8.756088 -7.783421
v 0.327760 8.838423 -7.783421
v 0.001278 8.838423 -7.783421
v 0.660890 0.298137 4.225970
v 0.660890 0.298137 4.785045
v 0.000000 0.298137 4.785045
v 0.000000 0.298137 4.225970
v 0.000000 0.948309 5.013416
v 0.660890 0.948309 5.013416
v 0.000000 0.948309 4.454341
v 0.660890 0.948309 4.454341
v 5.309278 0.435899 -2.159902
v 4.648388 0.435899 -2.159902
v 4.648388 1.086071 -1.931531
v 5.309278 1.086071 -1.931531
v 0.918641 7.422691 4.403150
v 0.317671 8.825827 4.403150
v 0.607190 7.422691 4.403150
v 0.918641 8.034981 4.403150
v 0.921054 8.647826 4.404689
v 0.000000 7.422691 4.403150
v 0.000000 8.825827 4.403150
v 0.670715 9.080626 4.403150
v 0.794678 9.129131 4.403150
v 0.885425 9.082712 4.403150
v 0.918879 8.954003 4.403304
v 0.324671 8.832477 4.976116
v 0.620621 7.398175 4.976116
v 0.938990 8.024065 4.976116
v 0.940799 8.650372 4.977270
v 0.000000 7.398175 4.976116
v 0.000000 8.832477 4.976116
v 0.685557 9.092937 4.976116
v 0.938990 7.398175 4.976116
v 0.812273 9.142518 4.976116
v 0.905036 9.095069 4.976116
v 0.939168 8.963448 4.976231
v 4.225332 1.073534 -1.350344
v 4.225332 0.423361 -1.578715
v 4.886222 0.423361 -1.578715
v 4.886222 1.073534 -1.350344
v -1.000000 7.324671 7.870935
v -1.000000 9.324671 7.870935
v -0.495282 7.932748 -7.783421
v -0.327760 7.932748 -7.783421
v -0.327760 8.920757 -7.783421
v -0.660890 7.324671 7.870935
v -0.345659 8.852417 7.870935
v -0.495282 7.932748 -7.517604
v -0.172035 8.687461 -7.517604
v -0.327760 7.932748 -7.517604
v -0.345659 8.852417 7.253093
v -0.660890 7.324671 7.253093
v -1.000000 7.324671 7.253093
v -0.495282 8.591420 -7.783421
v -0.495282 8.262084 -7.783421
v -1.000000 8.658004 7.870935
v -1.000000 7.991337 7.870935
v -0.450736 8.343168 7.870935
v -0.555813 7.833920 7.870935
v -0.327760 8.591420 -7.783421
v -0.327760 8.262084 -7.783421
v -0.510250 8.594862 -7.508056
v -0.495282 8.262084 -7.517604
v -1.000000 8.658004 7.253093
v -1.000000 7.991337 7.253093
v -1.000000 7.324671 6.694018
v -0.345659 8.852417 6.694018
v -0.660890 7.324671 6.694018
v -1.000000 7.991337 6.694018
v -1.000000 8.658004 6.694018
v -10.000280 8.234734 0.502842
v -10.000280 7.549818 0.502842
v -10.000280 7.484486 0.093399
v -10.000280 8.162654 0.093399
v -1.898669 8.658004 6.694018
v -2.797502 8.658004 6.613241
v -3.697400 8.658004 6.009280
v -4.598176 8.658004 4.938728
v -5.499441 8.658004 3.487292
v -6.400806 8.690952 2.082711
v -7.301882 8.499072 1.000412
v -8.202280 8.271118 0.332440
v -9.101612 8.162657 0.093399
v -9.101612 7.484488 0.093399
v -8.202281 7.591625 0.332439
v -7.301883 7.818295 1.000411
v -6.400806 8.014221 2.082710
v -5.499441 7.991337 3.496015
v -4.598176 7.991337 4.946532
v -3.697400 7.991337 6.009280
v -2.797502 7.991337 6.613241
v -1.898669 7.991337 6.694018
v -1.898669 8.658004 7.253093
v -2.797502 8.658004 7.172316
v -3.697400 8.658004 6.568356
v -4.598176 8.658004 5.466764
v -5.499441 8.658004 3.952754
v -6.400806 8.717223 2.605511
v -7.301882 8.595536 1.457017
v -8.202280 8.345204 0.750131
v -9.101612 8.234738 0.502842
v -1.898669 7.991337 7.253093
v -2.797502 7.991337 7.172316
v -3.697400 7.991337 6.568356
v -4.598176 7.991337 5.481650
v -5.499441 7.991337 3.976565
v -6.400806 8.039105 2.610912
v -7.301882 7.909842 1.457017
v -8.202280 7.659394 0.750131
v -9.101612 7.549822 0.502842
v -0.001278 7.932748 -7.783421
v -0.001278 8.920757 -7.783421
v -0.001278 7.932748 -7.517604
v -0.001278 8.687461 -7.517604
v -0.001278 8.262084 -7.783421
v -0.001278 8.591420 -7.783421
v -10.018408 9.747200 2.819252
v -10.018408 9.808423 3.242415
v -10.018408 9.118464 3.242415
v -10.018408 9.041576 2.819252
v -1.901841 8.658004 7.253093
v -2.803682 8.658004 7.253093
v -3.705523 8.658004 7.253093
v -4.607363 8.658004 7.125340
v -5.509204 8.658004 6.468605
v -6.411045 8.658004 5.489995
v -7.312885 8.818016 4.458249
v -8.214726 9.069592 3.556342
v -9.116568 9.118461 3.242415
v -9.116567 9.808420 3.242415
v -8.214725 9.742813 3.556342
v -7.312885 9.484683 4.458249
v -6.411044 9.324671 5.489994
v -5.509203 9.324671 6.468604
v -4.607363 9.324671 7.125340
v -3.705522 9.324671 7.253093
v -2.803681 9.324671 7.253093
v -1.901841 9.324671 7.253093
v -1.901841 9.324671 6.694018
v -2.803682 9.324671 6.694018
v -3.705523 9.324671 6.694018
v -4.607363 9.324671 6.566265
v -5.509204 9.324671 5.909529
v -6.411045 9.333227 4.930920
v -7.312885 9.540644 3.891465
v -8.214726 9.712096 3.075458
v -9.116568 9.747195 2.819252
v -9.116567 9.041572 2.819252
v -8.214725 9.023727 3.075458
v -7.312885 8.873977 3.891465
v -6.411044 8.666560 4.930919
v -5.509203 8.658004 5.909529
v -4.607363 8.658004 6.566265
v -3.705522 8.658004 6.694018
v -2.803681 8.658004 6.694018
v -1.901841 8.658004 6.694018
v -0.330825 8.920757 -7.783421
v -0.495282 8.756300 -7.783421
v -0.413054 8.898724 -7.783421
v -0.473249 8.838529 -7.783421
v -0.361929 8.824512 -7.517604
v -0.496755 8.757510 -7.516655
v -0.428606 8.850601 -7.517604
v -0.477416 8.825634 -7.517604
v -1.000000 8.991765 6.694018
v -0.730056 9.129846 6.694018
v -1.000000 9.324671 7.252896
v -1.332906 9.324671 6.694018
v -0.963834 9.132116 6.694018
v -0.865028 9.182657 6.694018
v -0.327760 8.756088 -7.783421
v -0.001278 8.756088 -7.783421
v -0.327760 8.838423 -7.783421
v -0.001278 8.838423 -7.783421
v -0.660890 0.298137 4.225970
v -0.660890 0.298137 4.785045
v -0.660890 0.948309 5.013416
v -0.660890 0.948309 4.454341
v -5.309278 0.435899 -2.159902
v -4.648388 0.435899 -2.159902
v -4.648388 1.086071 -1.931531
v -5.309278 1.086071 -1.931531
v -0.918641 7.422691 4.403150
v -0.317671 8.825827 4.403150
v -0.607190 7.422691 4.403150
v -0.918641 8.034981 4.403150
v -0.921054 8.647826 4.404689
v -0.670715 9.080626 4.403150
v -0.794678 9.129131 4.403150
v -0.885425 9.082712 4.403150
v -0.918879 8.954003 4.403304
v -0.324671 8.832477 4.976116
v -0.620621 7.398175 4.976116
v -0.938990 8.024065 4.976116
v -0.940799 8.650372 4.977270
v -0.685557 9.092937 4.976116
v -0.938990 7.398175 4.976116
v -0.812273 9.142518 4.976116
v -0.905036 9.095069 4.976116
v -0.939168 8.963448 4.976231
v -4.225332 1.073534 -1.350344
v -4.225332 0.423361 -1.578715
v -4.886222 0.423361 -1.578715
v -4.886222 1.073534 -1.350344
vn 1.0000 -0.0000 -0.0000
vn -0.0000 -1.0000 -0.0000
vn -0.5852 0.8109 -0.0000
vn -0.0000 -0.0000 1.0000
vn -0.0000 -0.0000 -1.0000
vn -0.0000 -0.3314 0.9435
vn 0.9994 -0.0222 -0.0275
vn 0.9994 -0.0014 -0.0350
vn 0.9994 -0.0000 -0.0355
vn -0.0000 -0.9991 -0.0427
vn -0.0000 0.9849 -0.1734
vn -0.0000 -0.9875 0.1576
vn 0.0770 -0.9967 0.0246
vn -0.0335 -0.9925 0.1173
vn -0.1229 -0.9763 0.1779
vn -0.0758 -0.9845 0.1584
vn 0.0895 -0.0000 0.9960
vn 0.5573 -0.0000 0.8303
vn 0.7720 0.0071 0.6356
vn 0.8585 0.0149 0.5126
vn 0.8326 0.0120 0.5537
vn 0.7876 0.0024 0.6162
vn 0.6175 -0.0000 0.7866
vn 0.2651 -0.0000 0.9642
vn -0.0000 1.0000 -0.0000
vn -0.0913 0.9955 -0.0265
vn 0.0187 0.9921 -0.1243
vn 0.1138 0.9751 -0.1902
vn 0.0726 0.9821 -0.1736
vn -0.0895 -0.0000 -0.9960
vn -0.5573 -0.0000 -0.8303
vn -0.7640 -0.0038 -0.6452
vn -0.8494 -0.0065 -0.5276
vn -0.8423 -0.0035 -0.5389
vn -0.7685 -0.0000 -0.6398
vn -0.5958 -0.0000 -0.8031
vn -0.2569 -0.0000 -0.9664
vn -0.0000 0.9999 -0.0116
vn -0.0000 0.7516 0.6596
vn -0.0000 -0.9839 0.1788
vn -0.0000 0.9897 -0.1432
vn 0.0036 1.0000 0.0077
vn -0.1364 0.9890 0.0567
vn -0.2103 0.9773 0.0235
vn -0.0872 0.9911 -0.1008
vn -0.0036 -1.0000 -0.0077
vn 0.1364 -0.9890 -0.0567
vn 0.2086 -0.9780 -0.0094
vn 0.0789 -0.9878 0.1341
vn -0.1403 -0.0000 -0.9901
vn -0.5887 -0.0000 -0.8084
vn -0.7354 -0.0000 -0.6777
vn -0.7553 -0.0000 -0.6553
vn -0.6709 -0.0000 -0.7415
vn -0.2733 -0.0000 -0.9619
vn -0.0001 0.0001 1.0000
vn 0.1403 -0.0000 0.9901
vn 0.5887 -0.0000 0.8084
vn 0.7354 -0.0000 0.6777
vn 0.7529 -0.0000 0.6581
vn 0.7071 -0.0000 0.7071
vn 0.3287 -0.0000 0.9444
vn -0.0263 0.9641 0.2641
vn 0.6143 0.7862 0.0675
vn 0.9642 0.2653 -0.0044
vn -0.3644 0.9312 -0.0106
vn 0.4551 0.8897 -0.0348
vn 0.9675 0.2500 -0.0384
vn -0.5431 0.7647 0.3467
vn 0.9987 0.0403 -0.0306
vn 0.9994 0.0025 -0.0350
vn -0.5852 0.8109 -0.0023
vn -0.3604 0.9211 -0.1470
vn 0.4317 0.8439 -0.3187
vn -0.0000 0.3314 -0.9435
vn -0.0000 -0.9998 -0.0216
vn -0.0000 -0.7072 0.7070
vn 0.7940 -0.2015 0.5736
vn 0.9988 0.0326 -0.0353
vn 0.9652 0.2587 -0.0385
vn 0.4551 0.8898 -0.0348
vn 0.9992 -0.0180 -0.0351
vn 0.9994 0.0060 -0.0350
vn 0.9672 0.2511 -0.0385
vn 0.8940 0.3061 0.3271
vn 0.9994 -0.0033 -0.0350
vn -0.0000 0.9998 0.0216
vn -0.7940 0.2015 -0.5736
vn -0.8955 -0.2901 -0.3376
vn -0.0000 0.7070 -0.7072
vn -1.0000 -0.0000 -0.0000
vn 0.5852 0.8109 -0.0000
vn -0.9994 -0.0222 -0.0275
vn -0.9994 -0.0014 -0.0350
vn -0.9994 -0.0000 -0.0355
vn -0.0770 -0.9967 0.0246
vn 0.0335 -0.9925 0.1173
vn 0.1229 -0.9763 0.1779
vn 0.0758 -0.9845 0.1584
vn -0.0895 -0.0000 0.9960
vn -0.5573 -0.0000 0.8303
vn -0.7720 0.0071 0.6356
vn -0.8585 0.0149 0.5126
vn -0.8326 0.0120 0.5537
vn -0.7876 0.0024 0.6162
vn -0.6175 -0.0000 0.7866
vn -0.2651 -0.0000 0.9642
vn 0.0913 0.9955 -0.0265
vn -0.0187 0.9921 -0.1243
vn -0.1138 0.9751 -0.1902
vn -0.0726 0.9821 -0.1736
vn 0.0895 -0.0000 -0.9960
vn 0.5573 -0.0000 -0.8303
vn 0.7640 -0.0038 -0.6452
vn 0.8494 -0.0065 -0.5276
vn 0.8423 -0.0035 -0.5389
vn 0.7685 -0.0000 -0.6398
vn 0.5958 -0.0000 -0.8031
vn 0.2569 -0.0000 -0.9664
vn -0.0036 1.0000 0.0077
vn 0.1364 0.9890 0.0567
vn 0.2103 0.9773 0.0235
vn 0.0872 0.9911 -0.1008
vn 0.0036 -1.0000 -0.0077
vn -0.1364 -0.9890 -0.0567
vn -0.2086 -0.9780 -0.0094
vn -0.0789 -0.9878 0.1341
vn 0.1403 -0.0000 -0.9901
vn 0.5887 -0.0000 -0.8084
vn 0.7354 -0.0000 -0.6777
vn 0.7553 -0.0000 -0.6553
vn 0.6709 -0.0000 -0.7415
vn 0.2733 -0.0000 -0.9619
vn 0.0001 0.0001 1.0000
vn -0.1403 -0.0000 0.9901
vn -0.5887 -0.0000 0.8084
vn -0.7354 -0.0000 0.6777
vn -0.7529 -0.0000 0.6581
vn -0.7071 -0.0000 0.7071
vn -0.3287 -0.0000 0.9444
vn 0.0263 0.9641 0.2641
vn -0.6143 0.7862 0.0675
vn -0.9642 0.2653 -0.0044
vn 0.3644 0.9312 -0.0106
vn -0.4551 0.8897 -0.0348
vn -0.9675 0.2500 -0.0384
vn 0.5431 0.7647 0.3467
vn -0.9987 0.0403 -0.0306
vn -0.9994 0.0025 -0.0350
vn 0.5852 0.8109 -0.0023
vn 0.3604 0.9211 -0.1470
vn 0.2773 0.9138 -0.2969
vn -0.7940 -0.2015 0.5736
vn -0.9988 0.0326 -0.0353
vn -0.9652 0.2587 -0.0385
vn -0.4551 0.8898 -0.0348
vn -0.9992 -0.0180 -0.0351
vn -0.9994 0.0060 -0.0350
vn -0.9672 0.2511 -0.0385
vn -0.8940 0.3061 0.3271
vn -0.9994 -0.0033 -0.0350
vn 0.7940 0.2015 -0.5736
vn 0.8955 -0.2901 -0.3376
vn -0.4459 0.8547 -0.2656
vt 0.522733 0.806253
vt 0.486100 0.806511
vt 0.486070 0.802196
vt 0.522703 0.801940
vt 0.944652 0.704571
vt 0.966302 0.704300
vt 0.966305 0.709373
vt 0.944726 0.709534
vt 0.942931 0.459384
vt 0.914958 0.460269
vt 0.914917 0.457556
vt 0.942844 0.456666
vt 0.902983 0.704744
vt 0.902977 0.709664
vt 0.966470 0.794112
vt 0.966509 0.836473
vt 0.924904 0.806504
vt 0.931556 0.774149
vt 0.903066 0.545927
vt 0.903058 0.538412
vt 0.917665 0.536741
vt 0.919131 0.544728
vt 0.903203 0.581117
vt 0.922117 0.580638
vt 0.922366 0.582609
vt 0.903000 0.582943
vt 0.931967 0.580005
vt 0.932377 0.582203
vt 0.764097 0.543349
vt 0.727790 0.543349
vt 0.727790 0.507595
vt 0.764097 0.507595
vt 0.944571 0.700085
vt 0.966272 0.699684
vt 0.200217 0.447990
vt 0.238122 0.447990
vt 0.238122 0.497535
vt 0.200217 0.497535
vt 0.596024 0.809643
vt 0.559394 0.809900
vt 0.559367 0.805997
vt 0.595999 0.805740
vt 0.000610 0.448963
vt 0.037867 0.449097
vt 0.037689 0.498467
vt 0.000432 0.498333
vt 0.563358 0.914730
vt 0.545263 0.914858
vt 0.545253 0.913002
vt 0.563345 0.912875
vt 0.527163 0.914927
vt 0.526955 0.912849
vt 0.903167 0.562795
vt 0.920854 0.562013
vt 0.966420 0.751755
vt 0.938181 0.741821
vt 0.559337 0.801683
vt 0.595970 0.801427
vt 0.930120 0.561106
vt 0.927821 0.543344
vt 0.557684 0.822365
vt 0.523273 0.822575
vt 0.522766 0.810160
vt 0.592072 0.822122
vt 0.941781 0.685585
vt 0.961868 0.685111
vt 0.903001 0.685871
vt 0.902988 0.700300
vt 0.041638 0.501339
vt 0.004011 0.501204
vt 0.264560 0.940728
vt 0.269443 0.940755
vt 0.269166 0.990125
vt 0.264282 0.990097
vt 0.041460 0.550709
vt 0.003833 0.550574
vt 0.783639 0.450137
vt 0.788184 0.450761
vt 0.781473 0.499673
vt 0.776928 0.499049
vt 0.785457 0.000432
vt 0.789317 0.001008
vt 0.782033 0.049838
vt 0.778174 0.049262
vt 0.775306 0.098760
vt 0.771447 0.098185
vt 0.772182 0.148279
vt 0.768323 0.147704
vt 0.772219 0.198318
vt 0.768524 0.197767
vt 0.774928 0.248783
vt 0.771610 0.248288
vt 0.777625 0.299218
vt 0.773722 0.298740
vt 0.783521 0.350097
vt 0.777629 0.349243
vt 0.789317 0.400990
vt 0.784632 0.400345
vt 0.063094 0.999568
vt 0.026469 0.999437
vt 0.026646 0.950067
vt 0.063270 0.950198
vt 0.026822 0.900685
vt 0.063447 0.900815
vt 0.026999 0.851068
vt 0.063624 0.851198
vt 0.027178 0.801004
vt 0.063803 0.801119
vt 0.027366 0.750389
vt 0.063991 0.750491
vt 0.030174 0.699971
vt 0.067428 0.700100
vt 0.023254 0.649792
vt 0.060924 0.649928
vt 0.009674 0.600032
vt 0.047351 0.600168
vt 0.324101 0.495082
vt 0.328002 0.495015
vt 0.328852 0.544378
vt 0.324951 0.544445
vt 0.329139 0.593759
vt 0.325237 0.593827
vt 0.325775 0.643263
vt 0.321873 0.643330
vt 0.318939 0.692874
vt 0.315254 0.692937
vt 0.309226 0.742562
vt 0.305977 0.742618
vt 0.300678 0.792341
vt 0.296754 0.792280
vt 0.289996 0.841792
vt 0.283812 0.841790
vt 0.275652 0.891335
vt 0.270645 0.891308
vt 0.030086 0.000432
vt 0.066711 0.000567
vt 0.066529 0.049937
vt 0.029905 0.049802
vt 0.066348 0.099319
vt 0.029723 0.099185
vt 0.066166 0.148936
vt 0.029541 0.148802
vt 0.065982 0.198983
vt 0.029357 0.198840
vt 0.065800 0.249522
vt 0.029175 0.249378
vt 0.067428 0.300007
vt 0.030250 0.299873
vt 0.056706 0.350045
vt 0.019306 0.349910
vt 0.044004 0.399684
vt 0.006674 0.399549
vt 0.914193 0.470278
vt 0.903055 0.470205
vt 0.903055 0.462679
vt 0.914986 0.462714
vt 0.902940 0.774163
vt 0.902954 0.741865
vt 0.903056 0.460245
vt 0.915419 0.529821
vt 0.903235 0.532053
vt 0.902904 0.523787
vt 0.908265 0.523549
vt 0.902934 0.806512
vt 0.903056 0.457552
vt 0.242346 0.500488
vt 0.203581 0.500488
vt 0.242346 0.550033
vt 0.203581 0.550033
vt 0.280311 0.048739
vt 0.275286 0.049884
vt 0.264282 0.001577
vt 0.269308 0.000432
vt 0.724065 0.451626
vt 0.728517 0.452086
vt 0.723426 0.501368
vt 0.718974 0.500908
vt 0.730332 0.052699
vt 0.734221 0.052377
vt 0.738310 0.101752
vt 0.734421 0.102074
vt 0.742400 0.151128
vt 0.738511 0.151450
vt 0.745601 0.200577
vt 0.741712 0.200899
vt 0.745122 0.250331
vt 0.741233 0.250653
vt 0.742404 0.300270
vt 0.738487 0.300593
vt 0.738350 0.350940
vt 0.733397 0.351694
vt 0.732370 0.402511
vt 0.728624 0.402221
vt 0.323248 0.445544
vt 0.327149 0.445477
vt 0.322395 0.396007
vt 0.326296 0.395940
vt 0.321542 0.346470
vt 0.325443 0.346402
vt 0.319797 0.296948
vt 0.323699 0.296880
vt 0.314361 0.247489
vt 0.318263 0.247422
vt 0.306650 0.198072
vt 0.310580 0.198002
vt 0.296492 0.147733
vt 0.301496 0.147989
vt 0.286515 0.098183
vt 0.290623 0.097323
vt 0.263418 0.947966
vt 0.226793 0.947966
vt 0.226793 0.898421
vt 0.263418 0.898421
vt 0.226793 0.848876
vt 0.263418 0.848876
vt 0.226793 0.799323
vt 0.263418 0.799323
vt 0.226793 0.749567
vt 0.263418 0.749567
vt 0.226323 0.699554
vt 0.262948 0.699554
vt 0.214928 0.649481
vt 0.251553 0.649481
vt 0.205509 0.599610
vt 0.243326 0.599610
vt 0.226793 0.000432
vt 0.263418 0.000432
vt 0.263418 0.049977
vt 0.226793 0.049977
vt 0.263418 0.099522
vt 0.226793 0.099522
vt 0.263418 0.149066
vt 0.226793 0.149066
vt 0.263418 0.198619
vt 0.226793 0.198619
vt 0.263418 0.248375
vt 0.226793 0.248375
vt 0.263418 0.298388
vt 0.226793 0.298388
vt 0.254627 0.348454
vt 0.218002 0.348454
vt 0.240806 0.398397
vt 0.203822 0.398397
vt 0.245082 0.997510
vt 0.237372 0.999497
vt 0.226793 0.979221
vt 0.915358 0.529723
vt 0.916092 0.524981
vt 0.919046 0.525275
vt 0.919167 0.528530
vt 0.509929 0.917150
vt 0.511246 0.914406
vt 0.514122 0.913602
vt 0.513876 0.915545
vt 0.518004 0.913181
vt 0.518188 0.914979
vt 0.929573 0.469949
vt 0.931487 0.462321
vt 0.936511 0.462536
vt 0.934230 0.469953
vt 0.493197 0.825147
vt 0.490703 0.812864
vt 0.496481 0.810906
vt 0.498620 0.823312
vt 0.504425 0.810287
vt 0.506070 0.822727
vt 0.925968 0.534666
vt 0.727752 0.021550
vt 0.730130 0.003001
vt 0.263418 0.997510
vt 0.645118 0.292109
vt 0.645118 0.255802
vt 0.649021 0.255802
vt 0.649021 0.292109
vt 0.916591 0.533038
vt 0.923551 0.530640
vt 0.903130 0.535083
vt 0.490042 0.801427
vt 0.486070 0.000432
vt 0.486410 0.011045
vt 0.492421 0.708266
vt 0.492447 0.720021
vt 0.906128 0.005059
vt 0.905874 0.001165
vt 0.941621 0.000432
vt 0.941875 0.004326
vt 0.772221 0.851186
vt 0.768323 0.851360
vt 0.768323 0.500711
vt 0.772221 0.500537
vt 0.636216 0.935299
vt 0.599908 0.935299
vt 0.599909 0.584651
vt 0.636216 0.584651
vt 0.764097 0.893998
vt 0.727790 0.893998
vt 0.685639 0.547479
vt 0.685639 0.583787
vt 0.649885 0.583787
vt 0.649885 0.547479
vt 0.604023 0.023674
vt 0.604023 0.059981
vt 0.599909 0.036740
vt 0.599908 0.000432
vt 0.837026 0.435081
vt 0.809502 0.455203
vt 0.790181 0.035456
vt 0.819491 0.014028
vt 0.905897 0.240797
vt 0.941644 0.240064
vt 0.941621 0.263667
vt 0.905874 0.264400
vt 0.913922 0.472793
vt 0.928948 0.472488
vt 0.506619 0.826876
vt 0.523443 0.826717
vt 0.499333 0.827449
vt 0.494028 0.829242
vt 0.933534 0.472439
vt 0.903054 0.472690
vt 0.940814 0.680763
vt 0.903098 0.681091
vt 0.960269 0.680374
vt 0.557113 0.826522
vt 0.590752 0.826284
vt 0.841170 0.436166
vt 0.838785 0.000432
vt 0.599044 0.355440
vt 0.593254 0.410796
vt 0.486070 0.800563
vt 0.546985 0.357022
vt 0.480989 0.433404
vt 0.485205 0.433570
vt 0.412519 0.861437
vt 0.395723 0.844854
vt 0.868142 0.455793
vt 0.868142 0.021796
vt 0.876662 0.948066
vt 0.876661 0.952448
vt 0.839330 0.952448
vt 0.839330 0.948051
vt 0.861309 0.704507
vt 0.861211 0.709471
vt 0.839571 0.709276
vt 0.839551 0.704171
vt 0.863181 0.459375
vt 0.863268 0.456658
vt 0.891195 0.457554
vt 0.891153 0.460266
vt 0.839380 0.794094
vt 0.874318 0.774134
vt 0.880961 0.806501
vt 0.839330 0.836473
vt 0.903027 0.545928
vt 0.886962 0.544724
vt 0.888429 0.536738
vt 0.903036 0.538412
vt 0.902881 0.581117
vt 0.903083 0.582945
vt 0.883719 0.582604
vt 0.883968 0.580633
vt 0.873708 0.582195
vt 0.874118 0.579998
vt 0.691482 0.543349
vt 0.691482 0.507595
vt 0.861418 0.700019
vt 0.839822 0.699557
vt 0.199353 0.447990
vt 0.199353 0.497535
vt 0.161448 0.497535
vt 0.161448 0.447990
vt 0.950394 0.944231
vt 0.950396 0.948134
vt 0.913763 0.948107
vt 0.913770 0.944205
vt 0.135110 0.448963
vt 0.135288 0.498333
vt 0.098031 0.498467
vt 0.097853 0.449097
vt 0.917067 0.839411
vt 0.917065 0.841265
vt 0.898983 0.841254
vt 0.898982 0.839400
vt 0.880698 0.841525
vt 0.880892 0.839447
vt 0.885235 0.562009
vt 0.902922 0.562795
vt 0.867714 0.741786
vt 0.839442 0.751713
vt 0.950396 0.952448
vt 0.913760 0.952448
vt 0.875970 0.561100
vt 0.878272 0.543339
vt 0.911985 0.931758
vt 0.877169 0.944173
vt 0.877597 0.931764
vt 0.946361 0.931780
vt 0.864236 0.685547
vt 0.844209 0.685056
vt 0.131709 0.501204
vt 0.094082 0.501339
vt 0.330280 0.049829
vt 0.330003 0.000460
vt 0.334886 0.000432
vt 0.335163 0.049802
vt 0.094260 0.550710
vt 0.131887 0.550574
vt 0.752143 0.450137
vt 0.758854 0.499050
vt 0.754308 0.499673
vt 0.747597 0.450761
vt 0.750324 0.000432
vt 0.757608 0.049262
vt 0.753748 0.049838
vt 0.746465 0.001008
vt 0.764335 0.098185
vt 0.760475 0.098760
vt 0.767459 0.147704
vt 0.763599 0.148279
vt 0.767257 0.197767
vt 0.763563 0.198318
vt 0.764171 0.248288
vt 0.760854 0.248783
vt 0.762059 0.298740
vt 0.758156 0.299218
vt 0.758153 0.349243
vt 0.752260 0.350097
vt 0.751149 0.400345
vt 0.746465 0.400990
vt 0.072626 0.999568
vt 0.072450 0.950198
vt 0.109074 0.950067
vt 0.109251 0.999437
vt 0.072273 0.900815
vt 0.108898 0.900685
vt 0.072096 0.851198
vt 0.108721 0.851068
vt 0.071917 0.801119
vt 0.108542 0.801004
vt 0.071729 0.750491
vt 0.108354 0.750389
vt 0.068292 0.700100
vt 0.105546 0.699971
vt 0.074796 0.649928
vt 0.112466 0.649792
vt 0.088369 0.600168
vt 0.126046 0.600032
vt 0.389821 0.495475
vt 0.390671 0.446112
vt 0.394573 0.446179
vt 0.393723 0.495542
vt 0.390957 0.396730
vt 0.394859 0.396797
vt 0.387594 0.347227
vt 0.391495 0.347294
vt 0.380974 0.297619
vt 0.384659 0.297683
vt 0.371698 0.247939
vt 0.374946 0.247995
vt 0.362475 0.198276
vt 0.366398 0.198215
vt 0.349532 0.148767
vt 0.355716 0.148765
vt 0.336366 0.099249
vt 0.341372 0.099221
vt 0.105634 0.000432
vt 0.105815 0.049802
vt 0.069191 0.049937
vt 0.069009 0.000567
vt 0.105997 0.099185
vt 0.069372 0.099319
vt 0.106179 0.148802
vt 0.069554 0.148936
vt 0.106363 0.198840
vt 0.069738 0.198983
vt 0.106545 0.249378
vt 0.069920 0.249522
vt 0.105470 0.299873
vt 0.068292 0.300007
vt 0.116414 0.349910
vt 0.079014 0.350045
vt 0.129046 0.399550
vt 0.091716 0.399684
vt 0.891916 0.470275
vt 0.891125 0.462712
vt 0.890677 0.529818
vt 0.897833 0.523547
vt 0.903193 0.523787
vt 0.902861 0.532053
vt 0.157225 0.500488
vt 0.195990 0.500488
vt 0.157224 0.550033
vt 0.195989 0.550033
vt 0.346032 0.941817
vt 0.335028 0.990125
vt 0.330003 0.988980
vt 0.341006 0.940673
vt 0.696574 0.050174
vt 0.691482 0.000892
vt 0.695935 0.000432
vt 0.701026 0.049714
vt 0.702841 0.449102
vt 0.706930 0.399726
vt 0.710819 0.400048
vt 0.706730 0.449424
vt 0.711020 0.350350
vt 0.714908 0.350673
vt 0.714220 0.300901
vt 0.718109 0.301223
vt 0.713742 0.251147
vt 0.717631 0.251469
vt 0.710996 0.201207
vt 0.714913 0.201530
vt 0.705906 0.150107
vt 0.710859 0.150861
vt 0.701133 0.099579
vt 0.704879 0.099289
vt 0.392870 0.545080
vt 0.388968 0.545012
vt 0.392017 0.594617
vt 0.388115 0.594550
vt 0.391164 0.644154
vt 0.387262 0.644087
vt 0.389419 0.693676
vt 0.385518 0.693609
vt 0.383983 0.743135
vt 0.380082 0.743068
vt 0.376301 0.792554
vt 0.372371 0.792485
vt 0.367216 0.842567
vt 0.362213 0.842824
vt 0.356343 0.893234
vt 0.352235 0.892374
vt 0.136152 0.947966
vt 0.136152 0.898421
vt 0.172777 0.898421
vt 0.172777 0.947966
vt 0.136152 0.848876
vt 0.172777 0.848876
vt 0.136152 0.799324
vt 0.172777 0.799324
vt 0.136152 0.749567
vt 0.172777 0.749567
vt 0.136622 0.699554
vt 0.173247 0.699554
vt 0.148017 0.649481
vt 0.184642 0.649481
vt 0.156244 0.599610
vt 0.194061 0.599610
vt 0.172777 0.000432
vt 0.172777 0.049977
vt 0.136152 0.049977
vt 0.136152 0.000432
vt 0.172777 0.099522
vt 0.136152 0.099522
vt 0.172777 0.149066
vt 0.136152 0.149066
vt 0.172777 0.198619
vt 0.136152 0.198619
vt 0.172777 0.248375
vt 0.136152 0.248375
vt 0.172777 0.298388
vt 0.136152 0.298389
vt 0.181568 0.348454
vt 0.144943 0.348454
vt 0.195749 0.398397
vt 0.158764 0.398397
vt 0.154488 0.997510
vt 0.172777 0.979222
vt 0.162198 0.999497
vt 0.890738 0.529720
vt 0.886930 0.528526
vt 0.887051 0.525272
vt 0.890006 0.524978
vt 0.863655 0.837337
vt 0.867609 0.838915
vt 0.867868 0.840856
vt 0.864988 0.840071
vt 0.871922 0.839454
vt 0.871750 0.841252
vt 0.876537 0.469943
vt 0.871879 0.469946
vt 0.869600 0.462528
vt 0.874624 0.462315
vt 0.847529 0.929394
vt 0.852961 0.931190
vt 0.850909 0.943597
vt 0.845124 0.941684
vt 0.860407 0.931724
vt 0.858846 0.944162
vt 0.880128 0.534661
vt 0.700261 0.480251
vt 0.702639 0.498799
vt 0.136152 0.997510
vt 0.649021 0.328417
vt 0.645118 0.328417
vt 0.882545 0.530636
vt 0.889504 0.533035
vt 0.902965 0.535083
vt 0.694383 0.506731
vt 0.691482 0.501368
vt 0.690618 0.511171
vt 0.686504 0.487930
vt 0.686504 0.023674
vt 0.690618 0.000432
vt 0.869263 0.259773
vt 0.905010 0.260541
vt 0.904752 0.264435
vt 0.869006 0.263667
vt 0.773085 0.851186
vt 0.773085 0.500537
vt 0.776984 0.500711
vt 0.776984 0.851360
vt 0.672523 0.584651
vt 0.672523 0.935300
vt 0.691482 0.893998
vt 0.685639 0.036740
vt 0.649885 0.036740
vt 0.649885 0.000432
vt 0.685639 0.000432
vt 0.604023 0.560545
vt 0.599909 0.583787
vt 0.599909 0.547479
vt 0.604023 0.524238
vt 0.450430 0.418284
vt 0.395723 0.000432
vt 0.428265 0.016534
vt 0.869264 0.024035
vt 0.869264 0.000432
vt 0.905010 0.001201
vt 0.905010 0.024804
vt 0.877160 0.472482
vt 0.892187 0.472790
vt 0.877740 0.927625
vt 0.860929 0.927576
vt 0.853644 0.927051
vt 0.848331 0.925294
vt 0.872575 0.472433
vt 0.902917 0.681090
vt 0.865213 0.680732
vt 0.845786 0.680332
vt 0.945013 0.927629
vt 0.911390 0.927606
vt 0.834371 0.892113
vt 0.818623 0.456658
vt 0.838466 0.469439
vt 0.838466 0.890857
vt 0.784177 0.500537
vt 0.784177 0.736275
vt 0.777848 0.772027
vt 0.777848 0.536289
vt 0.446310 0.001319
vt 0.808239 0.912846
vt 0.790181 0.479224
vt 0.718973 0.000432
s 0
f 24/1/1 135/2/1 2/3/1 16/4/1
f 12/5/2 13/6/2 1/7/2 6/8/2
f 135/9/3 11/10/3 7/11/3 2/12/3
f 77/13/2 12/5/2 6/8/2 73/14/2
f 16/15/4 2/16/4 7/17/4 18/18/4
f 80/19/5 140/20/5 139/21/5 20/22/5
f 71/23/2 4/24/2 10/25/2 75/26/2
f 4/24/2 3/27/2 8/28/2 10/25/2
f 148/29/6 147/30/6 145/31/6 144/32/6
f 28/33/2 26/34/2 13/6/2 12/5/2
f 98/35/4 97/36/4 87/37/4 86/38/4
f 26/39/1 29/40/1 25/41/1 13/42/1
f 44/43/5 43/44/5 34/45/5 33/46/5
f 3/47/1 15/48/1 23/49/1 8/50/1
f 15/48/7 14/51/7 22/52/7 23/49/7
f 71/23/5 79/53/5 21/54/5 4/24/5
f 79/53/5 80/19/5 20/22/5 21/54/5
f 1/7/4 17/55/4 19/56/4 6/8/4
f 17/55/4 16/15/4 18/18/4 19/56/4
f 13/42/1 25/41/1 17/57/1 1/58/1
f 25/41/1 24/1/1 16/4/1 17/57/1
f 4/24/5 21/54/5 15/59/5 3/27/5
f 21/54/5 20/22/5 14/60/5 15/59/5
f 168/61/8 169/62/8 30/63/8 29/40/8
f 173/64/9 168/61/9 29/40/9 26/39/9
f 167/65/10 173/66/10 26/34/10 28/33/10
f 170/67/10 167/65/10 28/33/10 84/68/10
f 33/46/1 34/45/1 31/69/1 32/70/1
f 43/71/11 61/72/11 31/73/11 34/74/11
f 61/75/4 70/76/4 32/70/4 31/69/4
f 70/77/12 44/78/12 33/79/12 32/80/12
f 25/81/2 29/82/2 52/83/2 62/84/2
f 62/84/2 52/83/2 51/85/2 63/86/2
f 63/86/2 51/85/2 50/87/2 64/88/2
f 64/88/2 50/87/2 49/89/2 65/90/2
f 65/90/2 49/89/2 48/91/2 66/92/2
f 66/92/13 48/91/13 47/93/13 67/94/13
f 67/94/14 47/93/14 46/95/14 68/96/14
f 68/96/15 46/95/15 45/97/15 69/98/15
f 69/98/16 45/97/16 44/78/16 70/77/16
f 24/99/4 25/100/4 62/101/4 53/102/4
f 53/102/17 62/101/17 63/103/17 54/104/17
f 54/104/18 63/103/18 64/105/18 55/106/18
f 55/106/19 64/105/19 65/107/19 56/108/19
f 56/108/20 65/107/20 66/109/20 57/110/20
f 57/110/21 66/109/21 67/111/21 58/112/21
f 58/112/22 67/111/22 68/113/22 59/114/22
f 59/114/23 68/113/23 69/115/23 60/116/23
f 60/116/24 69/115/24 70/76/24 61/75/24
f 30/117/25 24/118/25 53/119/25 35/120/25
f 35/120/25 53/119/25 54/121/25 36/122/25
f 36/122/25 54/121/25 55/123/25 37/124/25
f 37/124/25 55/123/25 56/125/25 38/126/25
f 38/126/25 56/125/25 57/127/25 39/128/25
f 39/128/26 57/127/26 58/129/26 40/130/26
f 40/130/27 58/129/27 59/131/27 41/132/27
f 41/132/28 59/131/28 60/133/28 42/134/28
f 42/134/29 60/133/29 61/72/29 43/71/29
f 29/135/5 30/136/5 35/137/5 52/138/5
f 52/138/30 35/137/30 36/139/30 51/140/30
f 51/140/31 36/139/31 37/141/31 50/142/31
f 50/142/32 37/141/32 38/143/32 49/144/32
f 49/144/33 38/143/33 39/145/33 48/146/33
f 48/146/34 39/145/34 40/147/34 47/148/34
f 47/148/35 40/147/35 41/149/35 46/150/35
f 46/150/36 41/149/36 42/151/36 45/152/36
f 45/152/37 42/151/37 43/44/37 44/43/37
f 166/153/38 171/154/38 83/155/38 27/156/38
f 19/56/4 18/18/4 82/157/4 81/158/4
f 6/8/4 19/56/4 81/158/4 73/14/4
f 27/156/25 83/155/25 78/159/25 11/10/25
f 5/160/39 72/161/39 76/162/39 9/163/39
f 18/18/4 7/17/4 74/164/4 82/157/4
f 11/10/25 78/159/25 74/165/25 7/11/25
f 88/166/1 85/167/1 86/38/1 87/37/1
f 116/168/5 115/169/5 85/167/5 88/166/5
f 97/170/40 116/171/40 88/172/40 87/173/40
f 115/174/41 98/175/41 86/176/41 85/177/41
f 107/178/25 106/179/25 105/180/25 108/181/25
f 108/181/25 105/180/25 104/182/25 109/183/25
f 109/183/25 104/182/25 103/184/25 110/185/25
f 110/185/25 103/184/25 102/186/25 111/187/25
f 111/187/42 102/186/42 101/188/42 112/189/42
f 112/189/43 101/188/43 100/190/43 113/191/43
f 113/191/44 100/190/44 99/192/44 114/193/44
f 114/193/45 99/192/45 98/175/45 115/174/45
f 24/118/2 30/117/2 124/194/2 89/195/2
f 89/195/2 124/194/2 123/196/2 90/197/2
f 90/197/2 123/196/2 122/198/2 91/199/2
f 91/199/2 122/198/2 121/200/2 92/201/2
f 92/201/2 121/200/2 120/202/2 93/203/2
f 93/203/46 120/202/46 119/204/46 94/205/46
f 94/205/47 119/204/47 118/206/47 95/207/47
f 95/207/48 118/206/48 117/208/48 96/209/48
f 96/209/49 117/208/49 116/171/49 97/170/49
f 124/210/5 107/211/5 108/212/5 123/213/5
f 123/213/5 108/212/5 109/214/5 122/215/5
f 122/215/50 109/214/50 110/216/50 121/217/50
f 121/217/51 110/216/51 111/218/51 120/219/51
f 120/219/52 111/218/52 112/220/52 119/221/52
f 119/221/53 112/220/53 113/222/53 118/223/53
f 118/223/54 113/222/54 114/224/54 117/225/54
f 117/225/55 114/224/55 115/169/55 116/168/55
f 135/226/56 24/227/56 89/228/56 106/229/56
f 106/229/4 89/228/4 90/230/4 105/231/4
f 105/231/4 90/230/4 91/232/4 104/233/4
f 104/233/57 91/232/57 92/234/57 103/235/57
f 103/235/58 92/234/58 93/236/58 102/237/58
f 102/237/59 93/236/59 94/238/59 101/239/59
f 101/239/60 94/238/60 95/240/60 100/241/60
f 100/241/61 95/240/61 96/242/61 99/243/61
f 99/243/62 96/242/62 97/36/62 98/35/62
f 133/244/5 137/245/5 136/246/5
f 125/247/63 129/248/63 131/249/63 127/250/63
f 127/251/64 131/252/64 132/253/64 128/254/64
f 128/254/65 132/253/65 130/255/65 126/256/65
f 172/257/66 134/258/66 138/259/66 174/260/66
f 174/261/67 138/262/67 137/263/67 175/264/67
f 175/264/68 137/263/68 133/265/68 176/266/68
f 125/247/69 5/160/69 9/163/69 129/248/69
f 14/51/70 126/256/70 130/255/70 22/52/70
f 20/22/5 139/21/5 126/267/5 14/60/5
f 169/62/71 176/266/71 133/265/71 30/63/71
f 172/257/72 166/153/72 27/156/72 134/258/72
f 136/268/25 135/269/25 106/179/25 107/178/25
f 135/9/3 134/258/3 27/156/3 11/10/3
f 30/270/5 133/244/5 136/246/5 107/211/5 124/210/5
f 146/271/2 143/272/2 144/273/2 145/274/2
f 126/267/5 139/21/5 141/275/5 128/276/5
f 139/21/5 140/20/5 142/277/5 141/275/5
f 141/275/5 142/277/5 72/161/5 5/160/5
f 128/276/5 141/275/5 5/160/5 125/247/5 127/250/5
f 135/9/73 138/259/73 134/258/73
f 137/263/74 138/262/74 135/278/74
f 341/279/6 342/280/6 178/281/6 177/282/6
f 150/283/1 148/284/1 144/285/1 143/286/1
f 28/287/1 12/288/1 148/289/1 150/290/1
f 84/291/75 28/292/75 150/293/75 149/294/75
f 12/295/6 77/296/6 147/30/6 148/29/6
f 153/297/75 154/298/75 151/299/75 152/300/75
f 179/301/76 178/302/76 152/303/76 151/304/76
f 167/305/77 170/306/77 177/307/77 180/308/77
f 180/309/78 179/310/78 151/311/78 154/312/78
f 129/248/72 9/163/72 156/313/72 162/314/72
f 22/52/79 130/255/79 165/315/79 159/316/79
f 132/253/80 164/317/80 165/315/80 130/255/80
f 131/252/81 163/318/81 164/317/81 132/253/81
f 129/248/66 162/314/66 163/319/66 131/249/66
f 9/163/38 76/162/38 161/320/38 156/313/38
f 75/26/10 10/25/10 157/321/10 160/322/10
f 10/25/10 8/28/10 155/323/10 157/321/10
f 8/50/9 23/49/9 158/324/9 155/325/9
f 23/49/82 22/52/82 159/316/82 158/324/82
f 162/314/72 156/313/72 166/153/72 172/257/72
f 159/316/83 165/315/83 176/266/83 169/62/83
f 164/317/84 175/264/84 176/266/84 165/315/84
f 163/318/67 174/261/67 175/264/67 164/317/67
f 162/314/66 172/257/66 174/260/66 163/319/66
f 156/313/38 161/320/38 171/154/38 166/153/38
f 157/326/85 167/305/85 180/308/85 154/327/85
f 157/321/10 155/323/10 173/66/10 167/65/10
f 155/325/9 158/324/9 168/61/9 173/64/9
f 158/324/86 159/316/86 169/62/86 168/61/86
f 150/283/78 143/286/78 179/310/78 180/309/78
f 149/328/87 150/329/87 180/330/87 177/282/87
f 143/272/76 146/271/76 178/302/76 179/301/76
f 146/331/88 149/328/88 177/282/88 178/281/88
f 170/332/89 160/333/89 153/334/89 177/335/89
f 160/336/90 157/326/90 154/327/90 153/337/90
f 204/338/91 196/339/91 182/340/91 307/341/91
f 192/342/2 186/343/2 181/344/2 193/345/2
f 307/346/92 182/347/92 187/348/92 191/349/92
f 77/13/2 73/14/2 186/343/2 192/342/2
f 196/350/4 198/351/4 187/352/4 182/353/4
f 256/354/5 200/355/5 311/356/5 312/357/5
f 251/358/2 253/359/2 190/360/2 184/361/2
f 184/361/2 190/360/2 188/362/2 183/363/2
f 317/364/6 316/365/6 145/31/6 147/30/6
f 208/366/2 192/342/2 193/345/2 206/367/2
f 270/368/4 258/369/4 259/370/4 269/371/4
f 206/372/91 193/373/91 205/374/91 209/375/91
f 224/376/5 213/377/5 214/378/5 223/379/5
f 183/380/91 188/381/91 203/382/91 195/383/91
f 195/383/93 203/382/93 202/384/93 194/385/93
f 251/358/5 184/361/5 201/386/5 255/387/5
f 255/387/5 201/386/5 200/355/5 256/354/5
f 181/344/4 186/343/4 199/388/4 197/389/4
f 197/389/4 199/388/4 198/351/4 196/350/4
f 193/373/91 181/390/91 197/391/91 205/374/91
f 205/374/91 197/391/91 196/339/91 204/338/91
f 184/361/5 183/363/5 195/392/5 201/386/5
f 201/386/5 195/392/5 194/393/5 200/355/5
f 334/394/94 209/375/94 210/395/94 335/396/94
f 337/397/95 206/372/95 209/375/95 334/394/95
f 333/398/10 208/366/10 206/367/10 337/399/10
f 170/67/10 84/68/10 208/366/10 333/398/10
f 213/377/91 212/400/91 211/401/91 214/378/91
f 223/402/11 214/403/11 211/404/11 241/405/11
f 241/406/4 211/401/4 212/400/4 250/407/4
f 250/408/12 212/409/12 213/410/12 224/411/12
f 205/412/2 242/413/2 232/414/2 209/415/2
f 242/413/2 243/416/2 231/417/2 232/414/2
f 243/416/2 244/418/2 230/419/2 231/417/2
f 244/418/2 245/420/2 229/421/2 230/419/2
f 245/420/2 246/422/2 228/423/2 229/421/2
f 246/422/96 247/424/96 227/425/96 228/423/96
f 247/424/97 248/426/97 226/427/97 227/425/97
f 248/426/98 249/428/98 225/429/98 226/427/98
f 249/428/99 250/408/99 224/411/99 225/429/99
f 204/430/4 233/431/4 242/432/4 205/433/4
f 233/431/100 234/434/100 243/435/100 242/432/100
f 234/434/101 235/436/101 244/437/101 243/435/101
f 235/436/102 236/438/102 245/439/102 244/437/102
f 236/438/103 237/440/103 246/441/103 245/439/103
f 237/440/104 238/442/104 247/443/104 246/441/104
f 238/442/105 239/444/105 248/445/105 247/443/105
f 239/444/106 240/446/106 249/447/106 248/445/106
f 240/446/107 241/406/107 250/407/107 249/447/107
f 210/448/25 215/449/25 233/450/25 204/451/25
f 215/449/25 216/452/25 234/453/25 233/450/25
f 216/452/25 217/454/25 235/455/25 234/453/25
f 217/454/25 218/456/25 236/457/25 235/455/25
f 218/456/25 219/458/25 237/459/25 236/457/25
f 219/458/108 220/460/108 238/461/108 237/459/108
f 220/460/109 221/462/109 239/463/109 238/461/109
f 221/462/110 222/464/110 240/465/110 239/463/110
f 222/464/111 223/402/111 241/405/111 240/465/111
f 209/466/5 232/467/5 215/468/5 210/469/5
f 232/467/112 231/470/112 216/471/112 215/468/112
f 231/470/113 230/472/113 217/473/113 216/471/113
f 230/472/114 229/474/114 218/475/114 217/473/114
f 229/474/115 228/476/115 219/477/115 218/475/115
f 228/476/116 227/478/116 220/479/116 219/477/116
f 227/478/117 226/480/117 221/481/117 220/479/117
f 226/480/118 225/482/118 222/483/118 221/481/118
f 225/482/119 224/376/119 223/379/119 222/483/119
f 332/484/38 207/485/38 83/155/38 171/154/38
f 199/388/4 81/158/4 82/157/4 198/351/4
f 186/343/4 73/14/4 81/158/4 199/388/4
f 207/485/25 191/349/25 78/159/25 83/155/25
f 185/486/39 189/487/39 254/488/39 252/489/39
f 198/351/4 82/157/4 74/164/4 187/352/4
f 191/349/25 187/348/25 74/165/25 78/159/25
f 260/490/91 259/370/91 258/369/91 257/491/91
f 288/492/5 260/490/5 257/491/5 287/493/5
f 269/494/40 259/495/40 260/496/40 288/497/40
f 287/498/41 257/499/41 258/500/41 270/501/41
f 279/502/25 280/503/25 277/504/25 278/505/25
f 280/503/25 281/506/25 276/507/25 277/504/25
f 281/506/25 282/508/25 275/509/25 276/507/25
f 282/508/25 283/510/25 274/511/25 275/509/25
f 283/510/120 284/512/120 273/513/120 274/511/120
f 284/512/121 285/514/121 272/515/121 273/513/121
f 285/514/122 286/516/122 271/517/122 272/515/122
f 286/516/123 287/498/123 270/501/123 271/517/123
f 204/451/2 261/518/2 296/519/2 210/448/2
f 261/518/2 262/520/2 295/521/2 296/519/2
f 262/520/2 263/522/2 294/523/2 295/521/2
f 263/522/2 264/524/2 293/525/2 294/523/2
f 264/524/2 265/526/2 292/527/2 293/525/2
f 265/526/124 266/528/124 291/529/124 292/527/124
f 266/528/125 267/530/125 290/531/125 291/529/125
f 267/530/126 268/532/126 289/533/126 290/531/126
f 268/532/127 269/494/127 288/497/127 289/533/127
f 296/534/5 295/535/5 280/536/5 279/537/5
f 295/535/5 294/538/5 281/539/5 280/536/5
f 294/538/128 293/540/128 282/541/128 281/539/128
f 293/540/129 292/542/129 283/543/129 282/541/129
f 292/542/130 291/544/130 284/545/130 283/543/130
f 291/544/131 290/546/131 285/547/131 284/545/131
f 290/546/132 289/548/132 286/549/132 285/547/132
f 289/548/133 288/492/133 287/493/133 286/549/133
f 307/550/134 278/551/134 261/552/134 204/553/134
f 278/551/4 277/554/4 262/555/4 261/552/4
f 277/554/4 276/556/4 263/557/4 262/555/4
f 276/556/135 275/558/135 264/559/135 263/557/135
f 275/558/136 274/560/136 265/561/136 264/559/136
f 274/560/137 273/562/137 266/563/137 265/561/137
f 273/562/138 272/564/138 267/565/138 266/563/138
f 272/564/139 271/566/139 268/567/139 267/565/139
f 271/566/140 270/368/140 269/371/140 268/567/140
f 305/568/5 308/569/5 309/570/5
f 297/571/141 299/572/141 303/573/141 301/574/141
f 299/575/142 300/576/142 304/577/142 303/578/142
f 300/576/143 298/579/143 302/580/143 304/577/143
f 336/581/144 338/582/144 310/583/144 306/584/144
f 338/585/145 339/586/145 309/587/145 310/588/145
f 339/586/146 340/589/146 305/590/146 309/587/146
f 297/571/147 301/574/147 189/487/147 185/486/147
f 194/385/148 202/384/148 302/580/148 298/579/148
f 200/355/5 194/393/5 298/591/5 311/356/5
f 335/396/149 210/395/149 305/590/149 340/589/149
f 336/581/150 306/584/150 207/485/150 332/484/150
f 308/592/25 279/502/25 278/505/25 307/593/25
f 307/346/92 191/349/92 207/485/92 306/584/92
f 210/594/5 296/534/5 279/537/5 308/569/5 305/568/5
f 146/271/2 145/274/2 316/595/2 315/596/2
f 298/591/5 300/597/5 313/598/5 311/356/5
f 311/356/5 313/598/5 314/599/5 312/357/5
f 313/598/5 185/486/5 252/489/5 314/599/5
f 300/597/5 299/572/5 297/571/5 185/486/5 313/598/5
f 307/346/151 306/584/151 310/583/151
f 308/592/152 307/593/152 310/600/152 309/601/152
f 321/602/87 341/603/87 177/604/87 153/605/87
f 318/606/91 315/607/91 316/608/91 317/609/91
f 208/610/91 318/611/91 317/612/91 192/613/91
f 84/291/75 149/294/75 318/614/75 208/615/75
f 192/616/6 317/364/6 147/30/6 77/296/6
f 321/617/75 320/618/75 319/619/75 322/620/75
f 343/621/76 319/622/76 320/623/76 342/624/76
f 333/625/77 344/626/77 341/627/77 170/332/77
f 344/628/153 322/629/153 319/630/153 343/631/153
f 301/574/150 328/632/150 324/633/150 189/487/150
f 202/384/154 327/634/154 331/635/154 302/580/154
f 304/577/155 302/580/155 331/635/155 330/636/155
f 303/578/156 304/577/156 330/636/156 329/637/156
f 301/574/144 303/573/144 329/638/144 328/632/144
f 189/487/38 324/633/38 161/320/38 254/488/38
f 253/359/10 160/639/10 325/640/10 190/360/10
f 190/360/10 325/640/10 323/641/10 188/362/10
f 188/381/95 323/642/95 326/643/95 203/382/95
f 203/382/157 326/643/157 327/634/157 202/384/157
f 328/632/150 336/581/150 332/484/150 324/633/150
f 327/634/158 335/396/158 340/589/158 331/635/158
f 330/636/159 331/635/159 340/589/159 339/586/159
f 329/637/156 330/636/156 339/586/156 338/585/156
f 328/632/144 329/638/144 338/582/144 336/581/144
f 324/633/38 332/484/38 171/154/38 161/320/38
f 325/644/160 322/645/160 344/646/160 333/647/160
f 325/640/10 333/398/10 337/399/10 323/641/10
f 323/642/95 337/397/95 334/394/95 326/643/95
f 326/643/161 334/394/161 335/396/161 327/634/161
f 318/606/153 344/628/153 343/631/153 315/607/153
f 149/648/87 341/649/87 344/650/87 318/651/87
f 315/596/76 343/621/76 342/624/76 146/271/76
f 146/331/162 342/280/162 341/279/162 149/328/162
f 170/332/163 341/627/163 321/652/163 160/333/163
f 160/653/90 321/654/90 322/645/90 325/644/90
f 342/624/76 320/623/76 152/303/76 178/302/76
f 320/618/75 321/617/75 153/297/75 152/300/75
f 136/268/164 137/655/164 135/269/164
