# Blender 5.1.2
# www.blender.org
mtllib Tile.mtl
o piso
v -10.274561 -12.354738 0.000000
v -10.274561 -0.093539 0.000000
v -5.137281 -12.354738 -8.594359
v -5.137281 -0.093539 -8.594359
v 5.137280 -12.354738 -8.594359
v 5.137280 -0.093539 -8.594359
v 10.274561 -12.354738 -0.000000
v 10.274561 -0.093539 -0.000000
v 5.137281 -12.354738 8.594359
v 5.137281 -0.093539 8.594359
v -5.137280 -12.354738 8.594359
v -5.137280 -0.093539 8.594359
vn -0.8583 -0.0000 -0.5131
vn -0.0000 -0.0000 -1.0000
vn 0.8583 -0.0000 -0.5131
vn 0.8583 -0.0000 0.5131
vn -0.0000 1.0000 -0.0000
vn -0.0000 -0.0000 1.0000
vn -0.8583 -0.0000 0.5131
vn -0.0000 -1.0000 -0.0000
vt 1.000000 0.500000
vt 1.000000 1.000000
vt 0.833333 1.000000
vt 0.833333 0.500000
vt 0.666667 1.000000
vt 0.666667 0.500000
vt 0.500000 1.000000
vt 0.500000 0.500000
vt 0.333333 1.000000
vt 0.333333 0.500000
vt 0.250000 0.490000
vt 0.042154 0.370000
vt 0.042154 0.130000
vt 0.250000 0.010000
vt 0.166667 1.000000
vt 0.166667 0.500000
vt -0.000000 1.000000
vt -0.000000 0.500000
vt 0.750000 0.490000
vt 0.957846 0.370000
vt 0.957846 0.130000
vt 0.750000 0.010000
vt 0.457846 0.370000
vt 0.457846 0.130000
vt 0.542154 0.370000
vt 0.542154 0.130000
s 0
f 1/1/1 2/2/1 4/3/1 3/4/1
f 3/4/2 4/3/2 6/5/2 5/6/2
f 5/6/3 6/5/3 8/7/3 7/8/3
f 7/8/4 8/7/4 10/9/4 9/10/4
f 2/11/5 12/12/5 10/13/5 8/14/5
f 9/10/6 10/9/6 12/15/6 11/16/6
f 11/16/7 12/15/7 2/17/7 1/18/7
f 1/19/8 3/20/8 5/21/8 7/22/8
f 4/23/5 2/11/5 8/14/5 6/24/5
f 11/25/8 1/19/8 7/22/8 9/26/8
