# Blender 5.1.2
# www.blender.org
mtllib cuerpo.mtl
o cubo_cool
v -0.000001 11.351817 3.275751
v -0.000001 11.312027 3.293493
v -0.000001 11.270285 3.122102
v -0.000001 11.251043 2.861979
v 0.000001 11.179786 2.569398
v -0.000001 11.111858 2.599685
v -0.000001 10.727268 2.599685
v -0.959446 11.351818 2.316306
v -0.964644 11.312027 2.328850
v -0.914451 11.270286 2.207655
v -0.838263 11.251044 2.023724
v -0.752562 11.179787 1.816838
v -0.761436 11.111858 1.838250
v -0.761422 10.727269 1.838256
v 0.959445 11.351818 2.316306
v 0.964643 11.312027 2.328850
v 0.914450 11.270286 2.207654
v 0.838264 11.251044 2.023723
v 0.752562 11.179787 1.816839
v 0.761435 11.111858 1.838249
v 0.761422 10.727269 1.838256
v -0.000001 14.151058 2.027627
v 0.000001 13.995776 2.096866
v -0.593869 14.151059 1.433750
v -0.614157 13.995777 1.482708
v 0.593868 14.151059 1.433750
v 0.614156 13.995777 1.482708
v -0.000001 14.260859 1.159078
v -0.339469 14.260860 0.819599
v 0.339469 14.260860 0.819599
v 0.000001 11.043747 1.678873
v 0.000001 10.795380 1.678873
v -0.491738 11.043747 1.187141
v -0.491725 10.795381 1.187147
v 0.491738 11.043747 1.187142
v 0.491725 10.795381 1.187149
v -0.000001 10.555046 3.372819
v -0.000001 10.587893 2.928761
v -0.000002 10.659229 2.608518
v -0.987868 10.555046 2.384944
v -0.857803 10.587893 2.070955
v -0.764016 10.659229 1.844503
v 0.987867 10.555046 2.384943
v 0.857802 10.587893 2.070955
v 0.764014 10.659229 1.844502
v 0.000001 0.755836 7.037011
v 0.000001 -0.093536 7.037011
v -0.000001 1.483378 6.090980
v -0.000001 1.361373 6.090980
v -0.000001 1.569648 5.448179
v -0.000001 0.755836 6.090980
v -2.061093 0.755836 4.975917
v -2.061093 -0.093536 4.975917
v -1.784005 1.483378 4.306973
v -1.784007 1.361374 4.306973
v -1.784007 0.755836 4.306973
v -2.730036 0.755836 4.306974
v -1.595731 1.569648 3.852448
v 2.061093 0.755836 4.975918
v 2.061093 -0.093536 4.975918
v 1.784004 1.483378 4.306973
v 1.784006 1.361374 4.306973
v 1.784006 0.755836 4.306973
v 2.730037 0.755836 4.306974
v 1.595731 1.569648 3.852447
v -0.000000 1.569648 4.539120
v -0.686675 1.569648 3.852445
v 0.686674 1.569648 3.852445
v -1.329477 1.569649 3.209643
v 1.329476 1.569649 3.209643
v -1.433750 14.151060 1.433750
v -1.482708 13.995779 1.482707
v -2.316307 11.351818 2.316306
v -2.328852 11.312028 2.328851
v -2.207661 11.270287 2.207661
v -2.023725 11.251045 2.023725
v -1.816839 11.179787 1.816838
v -1.838256 11.111859 1.838255
v -1.838256 10.727269 1.838255
v -2.023725 11.251044 0.838263
v -1.816839 11.179787 0.752561
v -1.838251 11.111858 0.761435
v -1.838257 10.727269 0.761422
v -2.316307 11.351818 0.959445
v -2.328851 11.312027 0.964643
v -2.207655 11.270286 0.914451
v -3.275752 11.351817 0.000000
v -3.293494 11.312027 -0.000000
v -3.122103 11.270285 0.000000
v -2.861979 11.251043 0.000000
v -2.569396 11.179786 0.000001
v -2.599686 11.111858 -0.000000
v -2.599686 10.727268 -0.000000
v -1.433750 14.151059 0.593869
v -1.482708 13.995777 0.614156
v -0.819593 14.260861 0.819592
v -2.027628 14.151058 0.000000
v -2.096864 13.995776 0.000001
v -1.159078 14.260859 0.000000
v -1.433750 14.151059 -0.593869
v -1.482708 13.995777 -0.614155
v -1.187142 11.043748 1.187142
v -1.187142 10.795381 1.187142
v -1.187142 11.043747 0.491738
v -1.187148 10.795381 0.491724
v -1.678871 11.043747 0.000001
v -1.678871 10.795380 0.000001
v -1.187142 11.043747 -0.491737
v -1.187147 10.795381 -0.491723
v -2.316307 11.351818 -0.959445
v -2.207655 11.270286 -0.914450
v -2.328851 11.312027 -0.964643
v -1.816839 11.179787 -0.752561
v -2.023723 11.251044 -0.838263
v -1.838251 11.111858 -0.761435
v -1.838257 10.727269 -0.761423
v -2.384944 10.555047 2.384944
v -2.070946 10.587894 2.070946
v -1.844501 10.659230 1.844501
v -2.070955 10.587893 0.857802
v -1.844503 10.659229 0.764015
v -2.384944 10.555046 0.987867
v -3.372820 10.555046 0.000000
v -2.928762 10.587893 0.000000
v -2.608518 10.659229 0.000001
v -2.384944 10.555046 -0.987867
v -1.844503 10.659229 -0.764014
v -2.070956 10.587893 -0.857801
v -4.975918 0.755836 4.975918
v -4.975918 -0.093536 4.975918
v -4.306974 1.483378 4.306973
v -4.306974 1.361374 4.306973
v -3.852444 1.569649 3.852444
v -4.306974 0.755836 4.306973
v -3.209644 1.569649 3.209643
v -4.306975 0.755836 2.730036
v -3.852449 1.569648 1.595731
v -4.975918 0.755836 2.061093
v -4.975918 -0.093536 2.061093
v -4.306974 1.483378 1.784004
v -4.306974 1.361374 1.784006
v -4.306974 0.755836 1.784006
v -7.037011 0.755836 0.000000
v -7.037011 -0.093536 0.000000
v -6.090981 1.483378 0.000000
v -6.090981 1.361373 0.000000
v -5.448179 1.569648 0.000000
v -6.090981 0.755836 0.000000
v -3.209644 1.569649 1.329477
v -3.852445 1.569648 0.686675
v -4.539121 1.569648 -0.000000
v -3.852446 1.569648 -0.686675
v -3.209644 1.569649 -1.329477
v -4.306974 1.483378 -1.784004
v -4.306974 1.361374 -1.784006
v -4.306974 0.755836 -1.784006
v -4.975919 0.755836 -2.061091
v -4.975919 -0.093536 -2.061091
v -3.852449 1.569648 -1.595731
v -4.306974 0.755836 -2.730037
v 1.433749 14.151060 1.433750
v 1.482708 13.995779 1.482708
v 2.316306 11.351818 2.316306
v 2.328852 11.312028 2.328852
v 2.207659 11.270287 2.207659
v 2.023724 11.251045 2.023724
v 1.816838 11.179787 1.816838
v 1.838255 11.111859 1.838255
v 1.838255 10.727269 1.838255
v 2.023723 11.251044 0.838264
v 1.816839 11.179787 0.752562
v 1.838249 11.111858 0.761435
v 1.838256 10.727269 0.761422
v 2.316306 11.351818 0.959445
v 2.328850 11.312027 0.964643
v 2.207654 11.270286 0.914450
v 0.819593 14.260861 0.819593
v 1.433749 14.151059 0.593869
v 1.482707 13.995777 0.614158
v 0.819598 14.260860 0.339471
v 1.159078 14.260859 0.000000
v 0.819599 14.260860 -0.339469
v 2.027627 14.151058 0.000000
v 2.096867 13.995776 0.000000
v 1.433749 14.151059 -0.593869
v 1.482708 13.995777 -0.614157
v 1.187140 11.043748 1.187141
v 1.187140 10.795381 1.187141
v 1.187141 11.043747 0.491738
v 1.187148 10.795381 0.491725
v 1.678873 11.043747 0.000000
v 1.678873 10.795380 0.000000
v 1.187141 11.043747 -0.491738
v 1.187148 10.795381 -0.491725
v 2.569396 11.179786 0.000002
v 2.861979 11.251043 -0.000000
v 2.599685 11.111858 -0.000000
v 2.599685 10.727268 -0.000000
v 3.275751 11.351817 -0.000000
v 3.122102 11.270285 -0.000000
v 3.293493 11.312027 -0.000000
v 2.316306 11.351818 -0.959445
v 2.207654 11.270286 -0.914450
v 2.328850 11.312027 -0.964643
v 1.816838 11.179787 -0.752561
v 2.023724 11.251044 -0.838263
v 1.838250 11.111858 -0.761435
v 1.838256 10.727269 -0.761422
v 2.384942 10.555047 2.384943
v 2.070945 10.587894 2.070946
v 1.844501 10.659230 1.844501
v 2.070954 10.587893 0.857802
v 1.844502 10.659229 0.764015
v 2.384943 10.555046 0.987867
v 2.608516 10.659229 -0.000000
v 2.928761 10.587893 -0.000000
v 3.372819 10.555046 -0.000000
v 2.384943 10.555046 -0.987867
v 1.844502 10.659229 -0.764015
v 2.070954 10.587893 -0.857802
v 4.975918 0.755836 4.975918
v 4.975918 -0.093536 4.975918
v 4.306973 1.483378 4.306973
v 4.306973 1.361374 4.306973
v 3.852443 1.569649 3.852444
v 4.306973 0.755836 4.306973
v 3.209643 1.569649 3.209643
v 4.306975 0.755836 2.730037
v 3.852448 1.569648 1.595731
v 4.975918 0.755836 2.061094
v 4.975918 -0.093536 2.061094
v 4.306973 1.483378 1.784004
v 4.306973 1.361374 1.784006
v 4.306973 0.755836 1.784006
v 3.209642 1.569649 1.329477
v 3.852444 1.569648 0.686675
v 4.539119 1.569648 0.000000
v 3.852444 1.569648 -0.686675
v 3.209642 1.569649 -1.329477
v 5.448178 1.569648 0.000000
v 6.090979 1.483378 0.000000
v 6.090979 1.361373 0.000000
v 6.090979 0.755836 0.000000
v 7.037011 0.755836 0.000000
v 7.037011 -0.093536 0.000000
v 4.306973 1.483378 -1.784004
v 4.306973 1.361374 -1.784006
v 4.306973 0.755836 -1.784006
v 4.975918 0.755836 -2.061093
v 4.975918 -0.093536 -2.061093
v 3.852448 1.569648 -1.595731
v 4.306975 0.755836 -2.730036
v -0.339466 14.260861 -0.339467
v 0.339466 14.260861 0.339468
v -0.339466 14.260861 0.339467
v 0.339466 14.260861 -0.339466
v -0.000001 14.260859 -1.159078
v -0.819594 14.260861 -0.819593
v -0.593869 14.151059 -1.433750
v -0.614156 13.995777 -1.482707
v 0.819592 14.260861 -0.819593
v 0.593868 14.151059 -1.433750
v 0.614156 13.995777 -1.482708
v -0.000001 14.151058 -2.027627
v 0.000002 13.995776 -2.096865
v -1.187141 11.043748 -1.187141
v -1.187141 10.795381 -1.187141
v -0.491738 11.043747 -1.187141
v -0.491724 10.795381 -1.187146
v 0.491738 11.043747 -1.187142
v 0.491724 10.795381 -1.187149
v 1.187140 11.043748 -1.187141
v 1.187140 10.795381 -1.187141
v 0.000002 11.043747 -1.678871
v 0.000002 10.795380 -1.678871
v -1.433750 14.151060 -1.433750
v -1.482709 13.995779 -1.482708
v -1.816839 11.179787 -1.816838
v -1.838256 11.111859 -1.838256
v -1.838256 10.727269 -1.838256
v -0.752562 11.179787 -1.816838
v -0.838263 11.251044 -2.023723
v -0.761436 11.111858 -1.838250
v -0.761423 10.727269 -1.838257
v -2.023725 11.251045 -2.023725
v -2.316307 11.351818 -2.316306
v -2.207661 11.270287 -2.207661
v -2.328852 11.312028 -2.328851
v -0.959446 11.351818 -2.316306
v -0.914451 11.270286 -2.207654
v -0.964644 11.312027 -2.328850
v 1.433749 14.151060 -1.433750
v 1.482708 13.995779 -1.482708
v 0.752561 11.179787 -1.816838
v 0.838263 11.251044 -2.023725
v 0.761435 11.111858 -1.838250
v 0.761422 10.727269 -1.838257
v 1.816838 11.179787 -1.816838
v 1.838255 11.111859 -1.838256
v 1.838255 10.727269 -1.838256
v 0.959445 11.351818 -2.316306
v 0.914450 11.270286 -2.207654
v 0.964643 11.312027 -2.328850
v 2.023724 11.251045 -2.023725
v 2.316306 11.351818 -2.316306
v 2.207659 11.270287 -2.207660
v 2.328852 11.312028 -2.328852
v -0.000001 11.179786 -2.569395
v -0.000000 11.251043 -2.861979
v -0.000001 11.111858 -2.599686
v -0.000001 10.727268 -2.599686
v -0.000000 11.351817 -3.275751
v -0.000000 11.270285 -3.122102
v -0.000001 11.312027 -3.293493
v -1.844501 10.659230 -1.844501
v -0.764015 10.659229 -1.844502
v -0.857803 10.587893 -2.070955
v -2.070946 10.587894 -2.070946
v -2.384944 10.555047 -2.384944
v -0.987868 10.555046 -2.384944
v 0.764014 10.659229 -1.844502
v 0.857802 10.587893 -2.070955
v 1.844501 10.659230 -1.844501
v 0.987867 10.555046 -2.384944
v 2.070945 10.587894 -2.070946
v 2.384942 10.555047 -2.384943
v -0.000001 10.659229 -2.608517
v -0.000000 10.587893 -2.928761
v -0.000000 10.555046 -3.372820
v -1.329477 1.569649 -3.209643
v 1.329476 1.569649 -3.209643
v -0.686676 1.569648 -3.852445
v 0.686674 1.569648 -3.852445
v -0.000001 1.569648 -4.539120
v -3.209644 1.569649 -3.209643
v -1.595731 1.569648 -3.852448
v -2.730038 0.755836 -4.306972
v -3.852444 1.569649 -3.852444
v -4.306974 1.483378 -4.306973
v -4.306974 1.361374 -4.306973
v -4.306974 0.755836 -4.306973
v -4.975918 0.755836 -4.975917
v -4.975918 -0.093536 -4.975917
v -1.784005 1.483378 -4.306973
v -1.784007 1.361374 -4.306973
v -1.784007 0.755836 -4.306973
v -2.061093 0.755836 -4.975917
v -2.061093 -0.093536 -4.975917
v 1.595730 1.569648 -3.852448
v 3.209642 1.569649 -3.209643
v 2.730038 0.755836 -4.306973
v 1.784004 1.483378 -4.306973
v 1.784006 1.361374 -4.306973
v 1.784006 0.755836 -4.306973
v 2.061093 0.755836 -4.975918
v 2.061093 -0.093536 -4.975918
v 3.852443 1.569649 -3.852444
v 4.306973 1.483378 -4.306973
v 4.306973 1.361374 -4.306973
v 4.306973 0.755836 -4.306973
v 4.975918 0.755836 -4.975919
v 4.975918 -0.093536 -4.975919
v -0.000000 1.569648 -5.448179
v -0.000001 1.483378 -6.090979
v -0.000001 1.361373 -6.090979
v -0.000001 0.755836 -6.090979
v 0.000000 0.755836 -7.037011
v 0.000000 -0.093536 -7.037011
v 0.339468 14.260860 -0.819600
v -0.339469 14.260860 -0.819600
v -0.819600 14.260860 0.339469
v -0.819600 14.260860 -0.339470
vn -0.7071 -0.0000 0.7071
vn -0.7071 -0.0000 -0.7071
vn 0.7071 -0.0000 -0.7071
vn 0.7071 -0.0000 0.7071
vn -0.0000 -1.0000 -0.0000
vn -0.0000 1.0000 -0.0000
vn -0.1319 0.9825 0.1319
vn -0.1319 0.9825 -0.1319
vn 0.1319 0.9825 -0.1319
vn 0.1319 0.9825 0.1319
vn -0.7041 0.0915 0.7041
vn -0.2125 0.9538 0.2125
vn -0.0736 0.9946 0.0736
vn -0.7041 0.0914 -0.7041
vn -0.2125 0.9538 -0.2125
vn -0.0736 0.9946 -0.0736
vn 0.7041 0.0914 -0.7041
vn 0.2125 0.9538 -0.2125
vn 0.0736 0.9946 -0.0736
vn 0.7041 0.0914 0.7041
vn 0.2125 0.9538 0.2125
vn 0.0736 0.9946 0.0736
vn -0.2303 -0.9455 0.2303
vn -0.6744 0.3007 0.6744
vn -0.2303 -0.9455 -0.2303
vn -0.6744 0.3007 -0.6744
vn 0.2303 -0.9455 -0.2303
vn 0.6744 0.3007 -0.6744
vn 0.2303 -0.9455 0.2303
vn 0.6744 0.3007 0.6744
vn -0.7041 0.0914 0.7041
vn -0.0736 -0.9946 0.0736
vn -0.0736 -0.9946 -0.0736
vn 0.0736 -0.9946 0.0736
vn 0.0736 -0.9946 -0.0736
vn -0.1244 0.9844 0.1244
vn -0.1244 0.9844 -0.1244
vn 0.1244 0.9844 -0.1244
vn 0.1244 0.9844 0.1244
vn -1.0000 -0.0000 -0.0000
vn -0.0000 -0.0000 -1.0000
vn 1.0000 -0.0000 -0.0000
vn -0.0000 -0.0000 1.0000
vn -0.1865 0.9825 -0.0000
vn -0.0000 0.9825 -0.1865
vn 0.1865 0.9825 -0.0000
vn -0.0000 0.9825 0.1865
vn -0.9958 0.0914 -0.0000
vn -0.3005 0.9538 -0.0000
vn -0.1040 0.9946 -0.0000
vn -0.0000 0.0914 -0.9958
vn -0.0000 0.9538 -0.3005
vn -0.0000 0.9946 -0.1040
vn 0.9958 0.0914 -0.0000
vn 0.3005 0.9538 -0.0000
vn 0.1040 0.9946 -0.0000
vn -0.0000 0.0914 0.9958
vn -0.0000 0.9538 0.3005
vn -0.0000 0.9946 0.1040
vn -0.3257 -0.9455 -0.0000
vn -0.9537 0.3007 -0.0000
vn -0.0000 -0.9455 -0.3257
vn -0.0000 0.3007 -0.9537
vn 0.3257 -0.9455 -0.0000
vn 0.9537 0.3007 -0.0000
vn -0.0000 -0.9455 0.3257
vn -0.0000 0.3007 0.9537
vn -0.1040 -0.9946 -0.0000
vn -0.0000 -0.9946 -0.1040
vn -0.0000 -0.9946 0.1040
vn 0.1040 -0.9946 -0.0000
vn -0.3256 -0.9455 -0.0000
vn -0.0000 -0.9455 -0.3256
vn 0.3256 -0.9455 -0.0000
vn -0.0000 -0.9455 0.3256
vn -0.1760 0.9844 -0.0000
vn -0.0000 0.9844 -0.1760
vn 0.1760 0.9844 -0.0000
vn -0.0000 0.9844 0.1760
vt 0.494408 0.479039
vt 0.567909 0.479039
vt 0.567909 0.526914
vt 0.494408 0.526914
vt 0.567909 0.670540
vt 0.494408 0.670540
vt 0.494408 0.622665
vt 0.567909 0.622665
vt 0.567909 0.718415
vt 0.494408 0.718415
vt 0.567909 0.096038
vt 0.494408 0.096038
vt 0.494408 0.048162
vt 0.567909 0.048162
vt 0.494408 0.287538
vt 0.494408 0.239663
vt 0.567909 0.239663
vt 0.567909 0.287538
vt 0.567909 0.143913
vt 0.494408 0.143913
vt 0.494408 0.431164
vt 0.567909 0.431164
vt 0.567909 0.335413
vt 0.494408 0.335413
vt 0.044518 0.830378
vt 0.062839 0.786147
vt 0.107070 0.804468
vt 0.169622 0.830378
vt 0.213853 0.848699
vt 0.195532 0.892930
vt 0.169622 0.955482
vt 0.151301 0.999713
vt 0.107070 0.981392
vt 0.044518 0.955482
vt 0.000287 0.937161
vt 0.018608 0.892930
vt 0.694569 0.852455
vt 0.676248 0.808224
vt 0.670302 0.793869
vt 0.684657 0.799815
vt 0.700515 0.838100
vt 0.650338 0.745672
vt 0.632017 0.701442
vt 0.646372 0.707388
vt 0.662230 0.745672
vt 0.656284 0.760028
vt 0.676248 0.683120
vt 0.690603 0.677174
vt 0.684657 0.691530
vt 0.738800 0.657211
vt 0.783031 0.638889
vt 0.777084 0.653245
vt 0.738800 0.669103
vt 0.724444 0.663157
vt 0.831227 0.783957
vt 0.815369 0.745672
vt 0.821315 0.731317
vt 0.827262 0.745672
vt 0.845583 0.789903
vt 0.801352 0.683120
vt 0.807298 0.697476
vt 0.792942 0.691530
vt 0.738800 0.822242
vt 0.753155 0.828188
vt 0.738800 0.834134
vt 0.801352 0.808224
vt 0.786996 0.814171
vt 0.792942 0.799815
vt 0.262856 0.951494
vt 0.248671 0.917249
vt 0.262466 0.922963
vt 0.268570 0.937699
vt 0.214427 0.834576
vt 0.228222 0.840290
vt 0.234325 0.855026
vt 0.228612 0.868820
vt 0.848656 0.548678
vt 0.808997 0.560695
vt 0.802976 0.551487
vt 0.838450 0.540739
vt 0.743408 0.577343
vt 0.702819 0.585695
vt 0.708003 0.573849
vt 0.744308 0.566378
vt 0.568484 0.414677
vt 0.579041 0.414677
vt 0.579041 0.456116
vt 0.568484 0.456116
vt 0.579041 0.538994
vt 0.579041 0.580433
vt 0.568484 0.580433
vt 0.568484 0.538994
vt 0.248671 0.820392
vt 0.242958 0.834186
vt 0.325631 0.799942
vt 0.310895 0.806046
vt 0.297100 0.800332
vt 0.331345 0.786147
vt 0.681415 0.550212
vt 0.688858 0.542111
vt 0.681415 0.396683
vt 0.702819 0.361200
vt 0.708003 0.373046
vt 0.688858 0.404784
vt 0.579041 0.621872
vt 0.568484 0.621872
vt 0.579041 0.041726
vt 0.579041 0.083165
vt 0.568484 0.083165
vt 0.568484 0.041726
vt 0.365979 0.897351
vt 0.359875 0.882615
vt 0.365589 0.868821
vt 0.379773 0.903065
vt 0.345529 0.820392
vt 0.331735 0.814678
vt 0.838450 0.406156
vt 0.802976 0.395408
vt 0.808997 0.386200
vt 0.848656 0.398217
vt 0.744308 0.380516
vt 0.743408 0.369552
vt 0.579041 0.248921
vt 0.568484 0.248921
vt 0.568484 0.207482
vt 0.579041 0.207482
vt 0.568484 0.124604
vt 0.579041 0.124604
vt 0.283306 0.931595
vt 0.297100 0.937309
vt 0.345529 0.917249
vt 0.351243 0.903455
vt 0.840140 0.503712
vt 0.850546 0.507282
vt 0.840140 0.443183
vt 0.850546 0.439613
vt 0.568484 0.373238
vt 0.579041 0.373238
vt 0.568484 0.290360
vt 0.579041 0.290360
vt 0.631443 0.414677
vt 0.631443 0.456116
vt 0.631443 0.538994
vt 0.631443 0.580433
vt 0.631443 0.621872
vt 0.631443 0.041726
vt 0.631443 0.083165
vt 0.631443 0.373238
vt 0.631443 0.248921
vt 0.631443 0.290360
vt 0.631443 0.207482
vt 0.631443 0.124604
vt 0.631443 0.732417
vt 0.609950 0.732417
vt 0.609950 0.720995
vt 0.631442 0.720995
vt 0.609950 0.698151
vt 0.609950 0.686729
vt 0.631443 0.686729
vt 0.631443 0.698151
vt 0.609950 0.789527
vt 0.609950 0.778105
vt 0.631443 0.778105
vt 0.631442 0.789527
vt 0.631443 0.812371
vt 0.631443 0.823792
vt 0.609950 0.823793
vt 0.609950 0.812370
vt 0.609950 0.766683
vt 0.631442 0.766683
vt 0.609950 0.743839
vt 0.631442 0.743839
vt 0.609950 0.835214
vt 0.631443 0.835214
vt 0.631443 0.675308
vt 0.609950 0.675307
vt 0.637425 0.531871
vt 0.643314 0.531991
vt 0.642643 0.549725
vt 0.636757 0.549545
vt 0.634540 0.602553
vt 0.635314 0.584884
vt 0.641195 0.585184
vt 0.640419 0.602913
vt 0.940173 0.773665
vt 0.921991 0.786221
vt 0.915972 0.781449
vt 0.931600 0.769767
vt 0.894624 0.806051
vt 0.880136 0.815569
vt 0.879922 0.808558
vt 0.892596 0.799936
vt 0.948199 0.777455
vt 0.926937 0.790287
vt 0.896208 0.811233
vt 0.880192 0.822309
vt 0.639025 0.620605
vt 0.633151 0.620185
vt 0.634540 0.390449
vt 0.633151 0.372817
vt 0.639025 0.372397
vt 0.640419 0.390089
vt 0.865908 0.807015
vt 0.867428 0.801401
vt 0.865908 0.654183
vt 0.880136 0.645629
vt 0.879922 0.652640
vt 0.867428 0.659797
vt 0.864623 0.811759
vt 0.864623 0.649439
vt 0.880192 0.638889
vt 0.643314 0.461010
vt 0.637425 0.461131
vt 0.636757 0.443457
vt 0.642643 0.443277
vt 0.635314 0.408118
vt 0.641195 0.407818
vt 0.931600 0.691431
vt 0.915972 0.679749
vt 0.921991 0.674977
vt 0.940173 0.687533
vt 0.892596 0.661262
vt 0.894625 0.655147
vt 0.926938 0.670912
vt 0.948199 0.683744
vt 0.896208 0.649965
vt 0.637478 0.514185
vt 0.643367 0.514245
vt 0.637478 0.478817
vt 0.643367 0.478757
vt 0.929776 0.749128
vt 0.937932 0.750842
vt 0.929776 0.712071
vt 0.937932 0.710357
vt 0.944623 0.752288
vt 0.944623 0.708911
vt 0.572739 0.804829
vt 0.589441 0.818013
vt 0.581432 0.821662
vt 0.566789 0.809494
vt 0.542812 0.790324
vt 0.529754 0.781673
vt 0.530339 0.774740
vt 0.545125 0.784169
vt 0.453906 0.820703
vt 0.449102 0.822614
vt 0.432341 0.810457
vt 0.438051 0.805938
vt 0.409714 0.794186
vt 0.399479 0.788848
vt 0.399091 0.786147
vt 0.410504 0.789106
vt 0.515985 0.787525
vt 0.514844 0.781570
vt 0.515985 0.932382
vt 0.529755 0.938234
vt 0.530339 0.945167
vt 0.514845 0.938337
vt 0.391666 0.795881
vt 0.390219 0.792463
vt 0.391666 0.928346
vt 0.399479 0.935379
vt 0.399091 0.938080
vt 0.390219 0.931764
vt 0.581432 0.898244
vt 0.589441 0.901893
vt 0.572740 0.915078
vt 0.566790 0.910413
vt 0.542813 0.929583
vt 0.545125 0.935738
vt 0.449102 0.901613
vt 0.453906 0.903525
vt 0.438051 0.918290
vt 0.432340 0.913771
vt 0.410504 0.935121
vt 0.409714 0.930041
vt 0.588671 0.839963
vt 0.580736 0.841642
vt 0.588671 0.879943
vt 0.580736 0.878265
vt 0.452459 0.842174
vt 0.444860 0.843573
vt 0.452459 0.882054
vt 0.444860 0.880654
vt 0.178241 0.006438
vt 0.201171 0.007306
vt 0.185303 0.784943
vt 0.169364 0.784340
vt 0.154444 0.783775
vt 0.109469 0.003562
vt 0.132393 0.004566
vt 0.092742 0.781256
vt 0.077825 0.780603
vt 0.061890 0.779904
vt 0.851828 0.890519
vt 0.854935 0.873108
vt 0.867735 0.870893
vt 0.865728 0.882137
vt 0.882733 0.838457
vt 0.876609 0.848099
vt 0.868677 0.837812
vt 0.878160 0.822883
vt 0.086593 0.001759
vt 0.045990 0.778652
vt 0.031105 0.777479
vt 0.384652 0.003562
vt 0.407527 0.001759
vt 0.463016 0.777479
vt 0.448131 0.778652
vt 0.432230 0.779904
vt 0.911291 0.907979
vt 0.894210 0.903392
vt 0.893098 0.890450
vt 0.904129 0.893412
vt 0.868677 0.895895
vt 0.876609 0.885609
vt 0.918090 0.891651
vt 0.908520 0.882868
vt 0.914755 0.866853
vt 0.918650 0.856116
vt 0.933776 0.850227
vt 0.927744 0.866853
vt 0.224117 0.007374
vt 0.216184 0.785035
vt 0.201253 0.784991
vt 0.270003 0.007374
vt 0.292950 0.007306
vt 0.308818 0.784943
vt 0.292868 0.784991
vt 0.277937 0.785035
vt 0.908520 0.850840
vt 0.918090 0.842056
vt 0.893098 0.843257
vt 0.894209 0.830315
vt 0.315880 0.006438
vt 0.339677 0.783775
vt 0.324757 0.784340
vt 0.361728 0.004566
vt 0.416295 0.780603
vt 0.401379 0.781256
vt 0.430662 0.829454
vt 0.418721 0.819647
vt 0.406489 0.804692
vt 0.400203 0.798711
vt 0.395083 0.803360
vt 0.395083 0.920867
vt 0.400203 0.925516
vt 0.426361 0.846633
vt 0.430662 0.894773
vt 0.426361 0.877594
vt 0.418721 0.904580
vt 0.406489 0.919535
vt 0.888879 0.221731
vt 0.892326 0.221972
vt 0.889432 0.244191
vt 0.886000 0.243830
vt 0.883203 0.288489
vt 0.879857 0.310645
vt 0.876477 0.309926
vt 0.879805 0.287890
vt 0.598312 0.813823
vt 0.593901 0.815906
vt 0.575697 0.802464
vt 0.579120 0.799633
vt 0.546253 0.781058
vt 0.530601 0.770778
vt 0.530855 0.766864
vt 0.547499 0.777357
vt 0.873897 0.332244
vt 0.870549 0.331409
vt 0.873897 0.022155
vt 0.879857 0.043755
vt 0.876477 0.044474
vt 0.870549 0.022990
vt 0.514277 0.778549
vt 0.513523 0.775011
vt 0.514277 0.941358
vt 0.530601 0.949129
vt 0.530856 0.953043
vt 0.513523 0.944896
vt 0.892326 0.132427
vt 0.888879 0.132668
vt 0.886000 0.110569
vt 0.889432 0.110208
vt 0.879805 0.066510
vt 0.883203 0.065910
vt 0.593901 0.904000
vt 0.598313 0.906083
vt 0.579121 0.920274
vt 0.575698 0.917443
vt 0.547500 0.942550
vt 0.546253 0.938849
vt 0.889106 0.199446
vt 0.892554 0.199567
vt 0.889106 0.154953
vt 0.892554 0.154833
vt 0.597164 0.838111
vt 0.592612 0.839116
vt 0.597165 0.881795
vt 0.592612 0.880791
vt 0.657893 0.870378
vt 0.665368 0.872844
vt 0.654562 0.877296
vt 0.682976 0.881661
vt 0.680010 0.888743
vt 0.676172 0.877704
vt 0.632017 0.901085
vt 0.635491 0.887702
vt 0.650106 0.887790
vt 0.647526 0.894890
vt 0.644064 0.866952
vt 0.651015 0.854802
vt 0.646370 0.204764
vt 0.659822 0.205705
vt 0.657980 0.219851
vt 0.644588 0.218443
vt 0.654014 0.248055
vt 0.651884 0.262160
vt 0.638693 0.259355
vt 0.640753 0.245715
vt 0.671512 0.905679
vt 0.664502 0.902931
vt 0.675113 0.899039
vt 0.664682 0.857838
vt 0.687854 0.868262
vt 0.699194 0.876474
vt 0.648089 0.275912
vt 0.635024 0.272652
vt 0.648089 0.078488
vt 0.651884 0.092239
vt 0.638693 0.095045
vt 0.635024 0.081747
vt 0.677166 0.921394
vt 0.684875 0.909916
vt 0.694714 0.889736
vt 0.659822 0.148694
vt 0.646370 0.149636
vt 0.644588 0.135957
vt 0.657980 0.134548
vt 0.640753 0.108685
vt 0.654014 0.106345
vt 0.643777 0.908324
vt 0.654233 0.898312
vt 0.663948 0.917397
vt 0.646510 0.190970
vt 0.659967 0.191440
vt 0.646510 0.163430
vt 0.659967 0.162960
vt 0.494408 0.574789
vt 0.567909 0.574789
vt 0.494408 0.766290
vt 0.567909 0.766290
vt 0.494408 0.000287
vt 0.567909 0.000287
vt 0.494408 0.191788
vt 0.567909 0.191788
vt 0.567909 0.383289
vt 0.494408 0.383289
vt 0.000287 0.848699
vt 0.062839 0.999713
vt 0.151301 0.786147
vt 0.213853 0.937161
vt 0.646372 0.783957
vt 0.632017 0.789903
vt 0.700515 0.653245
vt 0.694569 0.638890
vt 0.700515 0.653245
vt 0.694569 0.638889
vt 0.831227 0.707388
vt 0.845583 0.701441
vt 0.783031 0.852455
vt 0.777084 0.838100
vt 0.228222 0.897351
vt 0.214427 0.903065
vt 0.240039 0.868820
vt 0.262856 0.786147
vt 0.268570 0.799942
vt 0.256752 0.828472
vt 0.778907 0.579675
vt 0.782089 0.592208
vt 0.644250 0.531883
vt 0.655615 0.525716
vt 0.568484 0.497555
vt 0.579041 0.497555
vt 0.579041 0.663311
vt 0.568484 0.663311
vt 0.297100 0.811759
vt 0.268570 0.799942
vt 0.262856 0.786147
vt 0.379773 0.834576
vt 0.365979 0.840290
vt 0.337448 0.828472
vt 0.655615 0.421179
vt 0.644250 0.415012
vt 0.782089 0.354687
vt 0.778907 0.367220
vt 0.568484 0.000287
vt 0.579041 0.000287
vt 0.579041 0.166043
vt 0.568484 0.166043
vt 0.331345 0.951494
vt 0.325631 0.937699
vt 0.337448 0.909169
vt 0.354161 0.868820
vt 0.874471 0.473447
vt 0.861540 0.473447
vt 0.579041 0.331799
vt 0.568484 0.331799
vt 0.256752 0.909169
vt 0.297100 0.925882
vt 0.631443 0.497555
vt 0.631443 0.523456
vt 0.631443 0.637411
vt 0.631443 0.663311
vt 0.631443 0.000287
vt 0.631443 0.026188
vt 0.631443 0.140142
vt 0.631443 0.166043
vt 0.631443 0.471655
vt 0.631443 0.331799
vt 0.631443 0.357700
vt 0.631443 0.305899
vt 0.631443 0.191944
vt 0.631442 0.755261
vt 0.609950 0.755261
vt 0.609950 0.709573
vt 0.631442 0.709573
vt 0.609950 0.800949
vt 0.631442 0.800949
vt 0.631443 0.846636
vt 0.609950 0.846636
vt 0.609950 0.663886
vt 0.631442 0.663886
vt 0.636343 0.567227
vt 0.642228 0.567467
vt 0.637887 0.638315
vt 0.632017 0.637835
vt 0.913764 0.805429
vt 0.908973 0.798655
vt 0.850263 0.807155
vt 0.853178 0.801349
vt 0.918151 0.812245
vt 0.846157 0.811933
vt 0.632017 0.355167
vt 0.637887 0.354687
vt 0.642228 0.425535
vt 0.636343 0.425775
vt 0.853178 0.659850
vt 0.850263 0.654043
vt 0.913764 0.655769
vt 0.908973 0.662543
vt 0.846157 0.649265
vt 0.918151 0.648954
vt 0.637786 0.496501
vt 0.643676 0.496501
vt 0.949561 0.730599
vt 0.939752 0.730599
vt 0.958710 0.730599
vt 0.563879 0.786575
vt 0.559176 0.792956
vt 0.501193 0.787103
vt 0.498523 0.781062
vt 0.428010 0.788900
vt 0.425744 0.792281
vt 0.380764 0.797727
vt 0.380348 0.794354
vt 0.501193 0.932804
vt 0.498523 0.938845
vt 0.559176 0.926951
vt 0.563879 0.933331
vt 0.380348 0.929873
vt 0.380764 0.926501
vt 0.425743 0.931946
vt 0.428010 0.935327
vt 0.589463 0.859953
vt 0.598576 0.859953
vt 0.456345 0.862114
vt 0.461667 0.862114
vt 0.000287 0.775498
vt 0.063694 0.000287
vt 0.155301 0.005901
vt 0.123571 0.783053
vt 0.865728 0.851571
vt 0.851827 0.843188
vt 0.904129 0.840295
vt 0.911291 0.825729
vt 0.370550 0.783053
vt 0.338820 0.005901
vt 0.430427 0.000287
vt 0.493834 0.775498
vt 0.878161 0.910824
vt 0.882734 0.895250
vt 0.846157 0.857753
vt 0.862066 0.860977
vt 0.933776 0.883480
vt 0.918650 0.877591
vt 0.247060 0.007774
vt 0.247060 0.785573
vt 0.416538 0.805591
vt 0.388283 0.804048
vt 0.388283 0.920179
vt 0.416538 0.918636
vt 0.435605 0.862114
vt 0.884218 0.266045
vt 0.887640 0.266526
vt 0.869013 0.354112
vt 0.865691 0.353159
vt 0.569000 0.779042
vt 0.566456 0.782798
vt 0.496011 0.778058
vt 0.494408 0.774493
vt 0.865691 0.001240
vt 0.869013 0.000287
vt 0.887640 0.087873
vt 0.884218 0.088354
vt 0.496011 0.941849
vt 0.494408 0.945414
vt 0.566457 0.937109
vt 0.569001 0.940865
vt 0.893890 0.177200
vt 0.890434 0.177200
vt 0.603639 0.859953
vt 0.608645 0.859953
vt 0.678116 0.853029
vt 0.673124 0.870041
vt 0.643485 0.232193
vt 0.656839 0.234071
vt 0.644979 0.289835
vt 0.632017 0.286116
vt 0.682540 0.855020
vt 0.656839 0.120328
vt 0.643485 0.122206
vt 0.632017 0.068284
vt 0.644979 0.064565
vt 0.672373 0.891461
vt 0.668371 0.880605
vt 0.650509 0.920314
vt 0.657328 0.905155
vt 0.660818 0.177200
vt 0.647332 0.177200
vt 0.682100 0.896094
vt 0.697341 0.903507
vt 0.657594 0.884813
vt 0.647675 0.880608
vt 0.661693 0.895451
vt 0.632017 0.874122
s 0
usemtl 
f 46/1/1 52/4/1 53/3/1 47/2/1
f 144/5/1 139/8/1 138/7/1 143/6/1
f 143/6/2 157/10/2 158/9/2 144/5/2
f 368/11/2 348/14/2 347/13/2 367/12/2
f 244/15/3 245/18/3 250/17/3 249/16/3
f 367/12/3 355/20/3 356/19/3 368/11/3
f 46/1/4 47/2/4 60/22/4 59/21/4
f 244/15/4 230/24/4 231/23/4 245/18/4
f 53/25/5 139/36/5 144/35/5 158/34/5 348/33/5 368/32/5 356/31/5 250/30/5 245/29/5 231/28/5 60/27/5 47/26/5
f 46/37/6 51/41/6 56/40/6 57/39/6 52/38/6
f 138/42/6 136/46/6 142/45/6 148/44/6 143/43/6
f 148/44/6 156/49/6 160/48/6 157/47/6 143/43/6
f 347/50/6 337/54/6 346/53/6 366/52/6 367/51/6
f 243/55/6 244/59/6 249/58/6 252/57/6 248/56/6
f 366/52/6 354/62/6 351/61/6 355/60/6 367/51/6
f 46/37/6 59/65/6 64/64/6 63/63/6 51/41/6
f 243/55/6 234/68/6 228/67/6 230/66/6 244/59/6
f 50/69/6 66/72/6 67/71/6 58/70/6
f 147/73/6 137/76/6 150/75/6 151/74/6
f 48/77/7 50/80/7 58/79/7 54/78/7
f 140/81/7 137/84/7 147/83/7 145/82/7
f 48/85/1 54/88/1 55/87/1 49/86/1
f 141/89/1 140/92/1 145/91/1 146/90/1
f 147/73/6 151/74/6 152/94/6 159/93/6
f 334/95/6 363/98/6 336/97/6 332/96/6
f 147/83/8 159/100/8 154/99/8 145/82/8
f 344/101/8 336/104/8 363/103/8 364/102/8
f 145/91/2 154/106/2 155/105/2 146/90/2
f 345/107/2 344/110/2 364/109/2 365/108/2
f 237/111/6 240/114/6 251/113/6 238/112/6
f 334/95/6 333/116/6 349/115/6 363/98/6
f 240/117/9 241/120/9 246/119/9 251/118/9
f 349/121/9 352/122/9 364/102/9 363/103/9
f 242/123/3 247/126/3 246/125/3 241/124/3
f 352/127/3 353/128/3 365/108/3 364/109/3
f 50/69/6 65/130/6 68/129/6 66/72/6
f 237/111/6 236/132/6 229/131/6 240/114/6
f 48/77/10 61/134/10 65/133/10 50/80/10
f 229/135/10 232/136/10 241/120/10 240/117/10
f 49/86/4 62/138/4 61/137/4 48/85/4
f 232/139/4 233/140/4 242/123/4 241/124/4
f 49/86/1 55/87/1 56/142/1 51/141/1
f 146/90/1 148/144/1 142/143/1 141/89/1
f 146/90/2 155/105/2 156/145/2 148/144/2
f 365/108/2 366/147/2 346/146/2 345/107/2
f 51/141/4 63/148/4 62/138/4 49/86/4
f 242/123/4 233/140/4 234/150/4 243/149/4
f 243/149/3 248/151/3 247/126/3 242/123/3
f 365/108/3 353/128/3 354/152/3 366/147/3
f 192/153/3 194/156/3 193/155/3 191/154/3
f 270/157/3 271/160/3 275/159/3 274/158/3
f 33/161/1 34/164/1 32/163/1 31/162/1
f 105/165/1 104/168/1 106/167/1 107/166/1
f 32/163/4 36/170/4 35/169/4 31/162/4
f 189/171/4 190/172/4 192/153/4 191/154/4
f 108/173/2 109/174/2 107/166/2 106/167/2
f 269/175/2 268/176/2 274/158/2 275/159/2
f 7/177/11 14/180/11 42/179/11 39/178/11
f 93/181/11 125/184/11 121/183/11 83/182/11
f 38/185/12 39/188/12 42/187/12 41/186/12
f 120/189/12 121/192/12 125/191/12 124/190/12
f 37/193/13 38/185/13 41/186/13 40/194/13
f 122/195/13 120/189/13 124/190/13 123/196/13
f 93/181/14 116/198/14 127/197/14 125/184/14
f 311/199/14 327/202/14 316/201/14 284/200/14
f 124/190/15 125/191/15 127/204/15 128/203/15
f 317/205/15 316/208/15 327/207/15 328/206/15
f 123/196/16 124/190/16 128/203/16 126/209/16
f 320/210/16 317/205/16 328/206/16 329/211/16
f 215/212/17 219/215/17 208/214/17 198/213/17
f 297/216/17 321/217/17 327/202/17 311/199/17
f 215/218/18 216/221/18 220/220/18 219/219/18
f 321/222/18 322/223/18 328/206/18 327/207/18
f 216/221/19 217/225/19 218/224/19 220/220/19
f 322/223/19 324/226/19 329/211/19 328/206/19
f 39/178/20 45/228/20 21/227/20 7/177/20
f 173/229/20 213/230/20 215/212/20 198/213/20
f 38/185/21 44/232/21 45/231/21 39/188/21
f 213/233/21 212/234/21 216/221/21 215/218/21
f 37/193/22 43/235/22 44/232/22 38/185/22
f 212/234/22 214/236/22 217/225/22 216/221/22
f 11/237/23 12/240/23 5/239/23 4/238/23
f 81/241/23 80/244/23 90/243/23 91/242/23
f 5/245/24 12/248/24 13/247/24 6/246/24
f 82/249/24 81/252/24 91/251/24 92/250/24
f 90/243/25 114/254/25 113/253/25 91/242/25
f 281/255/25 282/258/25 309/257/25 308/256/25
f 91/251/26 113/260/26 115/259/26 92/250/26
f 283/261/26 281/264/26 308/263/26 310/262/26
f 195/265/27 205/268/27 206/267/27 196/266/27
f 309/257/27 295/270/27 294/269/27 308/256/27
f 197/271/28 207/274/28 205/273/28 195/272/28
f 294/275/28 296/276/28 310/262/28 308/263/28
f 5/239/29 19/278/29 18/277/29 4/238/29
f 170/279/29 171/280/29 195/265/29 196/266/29
f 6/246/30 20/282/30 19/281/30 5/245/30
f 171/283/30 172/284/30 197/271/30 195/272/30
f 40/285/31 69/289/31 67/288/31 66/287/31 37/286/31
f 123/290/31 151/294/31 150/293/31 149/292/31 122/291/31
f 93/295/16 107/298/16 109/297/16 116/296/16
f 275/299/16 311/302/16 284/301/16 269/300/16
f 126/303/14 153/305/14 152/304/14 151/294/14 123/290/14
f 329/306/14 334/310/14 332/309/14 330/308/14 320/307/14
f 7/311/13 32/314/13 34/313/13 14/312/13
f 83/315/13 105/316/13 107/298/13 93/295/13
f 21/317/22 36/318/22 32/314/22 7/311/22
f 190/319/22 173/322/22 198/321/22 192/320/22
f 37/286/20 66/287/20 68/325/20 70/324/20 43/323/20
f 214/326/20 235/330/20 236/329/20 237/328/20 217/327/20
f 198/321/19 208/332/19 194/331/19 192/320/19
f 271/333/19 297/334/19 311/302/19 275/299/19
f 217/327/17 237/328/17 238/337/17 239/336/17 218/335/17
f 324/338/17 331/340/17 333/339/17 334/310/17 329/306/17
f 13/247/32 33/342/32 31/341/32 6/246/32
f 92/250/32 106/344/32 104/343/32 82/249/32
f 92/250/33 115/259/33 108/345/33 106/344/33
f 268/346/33 283/261/33 310/262/33 274/347/33
f 31/341/34 35/348/34 20/282/34 6/246/34
f 172/284/34 189/350/34 191/349/34 197/271/34
f 191/349/35 193/351/35 207/274/35 197/271/35
f 274/347/35 310/262/35 296/276/35 270/352/35
f 1/353/24 8/356/24 9/355/24 2/354/24
f 85/357/24 84/360/24 87/359/24 88/358/24
f 2/361/23 9/364/23 10/363/23 3/362/23
f 86/365/23 85/368/23 88/367/23 89/366/23
f 10/363/32 11/237/32 4/238/32 3/362/32
f 80/244/32 86/365/32 89/366/32 90/243/32
f 87/359/26 110/370/26 112/369/26 88/358/26
f 291/371/26 289/374/26 312/373/26 314/372/26
f 88/367/25 112/376/25 111/375/25 89/366/25
f 290/377/25 291/380/25 314/379/25 313/378/25
f 111/375/33 114/254/33 90/243/33 89/366/33
f 282/258/33 290/377/33 313/378/33 309/257/33
f 201/381/28 204/384/28 202/383/28 199/382/28
f 301/385/28 303/386/28 314/372/28 312/373/28
f 200/387/27 203/390/27 204/389/27 201/388/27
f 303/391/27 302/392/27 313/378/27 314/379/27
f 196/266/35 206/267/35 203/390/35 200/387/35
f 313/378/35 302/392/35 295/270/35 309/257/35
f 2/354/30 16/394/30 15/393/30 1/353/30
f 174/395/30 175/396/30 201/381/30 199/382/30
f 3/362/29 17/398/29 16/397/29 2/361/29
f 175/399/29 176/400/29 200/387/29 201/388/29
f 4/238/34 18/277/34 17/398/34 3/362/34
f 200/387/34 176/400/34 170/279/34 196/266/34
f 99/401/6 371/403/6 372/402/6
f 257/404/6 370/406/6 369/405/6
f 22/407/36 28/410/36 29/409/36 24/408/36
f 94/411/36 371/403/36 99/401/36 97/412/36
f 22/413/24 24/416/24 25/415/24 23/414/24
f 95/417/24 94/420/24 97/419/24 98/418/24
f 181/421/6 182/423/6 180/422/6
f 99/401/37 372/402/37 100/424/37 97/412/37
f 257/404/37 264/426/37 259/425/37 370/406/37
f 97/419/26 100/428/26 101/427/26 98/418/26
f 260/429/26 259/432/26 264/431/26 265/430/26
f 183/433/38 185/434/38 182/423/38 181/421/38
f 257/404/38 369/405/38 262/435/38 264/426/38
f 184/436/28 186/439/28 185/438/28 183/437/28
f 262/440/28 263/441/28 265/430/28 264/431/28
f 26/442/39 30/443/39 28/410/39 22/407/39
f 180/422/39 178/444/39 183/433/39 181/421/39
f 23/414/30 27/446/30 26/445/30 22/413/30
f 178/447/30 179/448/30 184/436/30 183/437/30
f 23/414/24 25/415/24 8/356/24 1/353/24
f 84/360/24 95/417/24 98/418/24 87/359/24
f 98/418/26 101/427/26 110/370/26 87/359/26
f 265/430/26 312/373/26 289/374/26 260/429/26
f 1/353/30 15/393/30 27/446/30 23/414/30
f 179/448/30 174/395/30 199/382/30 184/436/30
f 199/382/28 202/383/28 186/439/28 184/436/28
f 263/441/28 301/385/28 312/373/28 265/430/28
f 129/449/40 138/7/40 139/8/40 130/450/40
f 342/451/40 343/452/40 158/9/40 157/10/40
f 342/453/41 347/13/41 348/14/41 343/454/41
f 361/455/41 362/456/41 356/19/41 355/20/41
f 222/457/42 231/23/42 230/24/42 221/458/42
f 249/16/42 250/17/42 362/456/42 361/455/42
f 129/449/43 130/450/43 53/3/43 52/4/43
f 59/21/43 60/22/43 222/457/43 221/458/43
f 130/459/5 139/36/5 53/25/5
f 343/460/5 348/33/5 158/34/5
f 222/461/5 60/27/5 231/28/5
f 362/462/5 250/30/5 356/31/5
f 134/463/6 136/46/6 138/42/6 129/464/6
f 341/465/6 342/466/6 157/47/6 160/48/6
f 341/467/6 337/54/6 347/50/6 342/468/6
f 360/469/6 361/470/6 355/60/6 351/61/6
f 221/471/6 230/66/6 228/67/6 226/472/6
f 252/57/6 249/58/6 361/470/6 360/469/6
f 52/38/6 57/39/6 134/463/6 129/464/6
f 221/471/6 226/472/6 64/64/6 59/65/6
f 135/473/6 149/475/6 150/75/6 137/76/6 133/474/6
f 159/93/6 152/94/6 153/478/6 335/477/6 338/476/6
f 137/84/44 140/81/44 131/480/44 133/479/44
f 154/99/44 159/100/44 338/482/44 339/481/44
f 131/483/40 140/92/40 141/89/40 132/484/40
f 155/105/40 154/106/40 339/486/40 340/485/40
f 330/487/6 332/96/6 336/97/6 338/489/6 335/488/6
f 349/115/6 333/116/6 331/492/6 350/491/6 357/490/6
f 338/493/45 336/104/45 344/101/45 339/494/45
f 358/495/45 352/122/45 349/121/45 357/496/45
f 339/497/41 344/110/41 345/107/41 340/498/41
f 353/128/41 352/127/41 358/500/41 359/499/41
f 225/501/6 229/131/6 236/132/6 235/503/6 227/502/6
f 357/490/6 350/491/6 239/504/6 238/112/6 251/113/6
f 223/505/46 232/136/46 229/135/46 225/506/46
f 251/118/46 246/119/46 358/495/46 357/496/46
f 224/507/42 233/140/42 232/139/42 223/508/42
f 246/125/42 247/126/42 359/499/42 358/500/42
f 58/70/6 67/71/6 69/509/6 135/473/6 133/474/6
f 225/501/6 227/502/6 70/510/6 68/129/6 65/130/6
f 131/480/47 54/78/47 58/79/47 133/479/47
f 223/505/47 225/506/47 65/133/47 61/134/47
f 55/87/43 54/88/43 131/483/43 132/484/43
f 61/137/43 62/138/43 224/507/43 223/508/43
f 132/484/40 141/89/40 142/143/40 136/512/40 134/511/40
f 156/145/40 155/105/40 340/485/40 341/514/40 160/513/40
f 346/146/41 337/516/41 341/515/41 340/498/41 345/107/41
f 351/517/41 354/152/41 353/128/41 359/499/41 360/518/41
f 56/142/43 55/87/43 132/484/43 134/511/43 57/519/43
f 62/138/43 63/148/43 64/521/43 226/520/43 224/507/43
f 228/522/42 234/150/42 233/140/42 224/507/42 226/520/42
f 248/151/42 252/523/42 360/518/42 359/499/42 247/126/42
f 188/524/42 190/172/42 189/171/42 187/525/42
f 193/155/42 194/156/42 273/527/42 272/526/42
f 102/528/40 104/168/40 105/165/40 103/529/40
f 109/174/40 108/173/40 266/531/40 267/530/40
f 34/164/43 33/161/43 102/528/43 103/529/43
f 35/169/43 36/170/43 188/524/43 187/525/43
f 266/532/41 268/176/41 269/175/41 267/533/41
f 271/160/41 270/157/41 272/526/41 273/527/41
f 79/534/48 83/182/48 121/183/48 119/535/48
f 127/197/48 116/198/48 280/537/48 315/536/48
f 118/538/49 119/539/49 121/192/49 120/189/49
f 128/203/49 127/204/49 315/541/49 318/540/49
f 118/538/50 120/189/50 122/195/50 117/542/50
f 126/209/50 128/203/50 318/540/50 319/543/50
f 280/544/51 284/200/51 316/201/51 315/545/51
f 321/217/51 297/216/51 300/547/51 323/546/51
f 315/548/52 316/208/52 317/205/52 318/549/52
f 322/223/52 321/222/52 323/551/52 325/550/52
f 318/549/53 317/205/53 320/210/53 319/552/53
f 324/226/53 322/223/53 325/550/53 326/553/53
f 169/554/54 211/555/54 213/230/54 173/229/54
f 208/214/54 219/215/54 323/546/54 300/547/54
f 210/556/55 212/234/55 213/233/55 211/557/55
f 220/220/55 325/550/55 323/551/55 219/219/55
f 209/558/56 214/236/56 212/234/56 210/556/56
f 220/220/56 218/224/56 326/553/56 325/550/56
f 42/179/57 14/180/57 79/534/57 119/535/57
f 21/227/57 45/228/57 211/555/57 169/554/57
f 41/186/58 42/187/58 119/539/58 118/538/58
f 210/556/58 211/557/58 45/231/58 44/232/58
f 40/194/59 41/186/59 118/538/59 117/542/59
f 209/558/59 210/556/59 44/232/59 43/235/59
f 76/559/60 80/244/60 81/241/60 77/560/60
f 113/253/60 114/254/60 285/562/60 278/561/60
f 77/563/61 81/252/61 82/249/61 78/564/61
f 115/259/61 113/260/61 278/566/61 279/565/61
f 278/567/62 285/568/62 282/258/62 281/255/62
f 294/269/62 295/270/62 304/570/62 298/569/62
f 278/571/63 281/264/63 283/261/63 279/572/63
f 296/276/63 294/275/63 298/574/63 299/573/63
f 167/575/64 171/280/64 170/279/64 166/576/64
f 298/569/64 304/570/64 206/267/64 205/268/64
f 168/577/65 172/284/65 171/283/65 167/578/65
f 205/273/65 207/274/65 299/573/65 298/574/65
f 12/240/66 11/237/66 76/559/66 77/560/66
f 18/277/66 19/278/66 167/575/66 166/576/66
f 13/247/67 12/248/67 77/563/67 78/564/67
f 19/281/67 20/282/67 168/577/67 167/578/67
f 153/305/48 126/303/48 319/580/48 335/579/48
f 122/291/48 149/292/48 135/582/48 117/581/48
f 267/583/53 269/300/53 284/301/53 280/584/53
f 273/585/53 300/586/53 297/334/53 271/333/53
f 331/340/51 324/338/51 326/588/51 350/587/51
f 320/307/51 330/308/51 335/590/51 319/589/51
f 79/591/50 103/592/50 105/316/50 83/315/50
f 116/296/50 109/297/50 267/594/50 280/593/50
f 169/595/59 188/596/59 36/318/59 21/317/59
f 14/312/59 34/313/59 103/592/59 79/591/59
f 69/289/57 40/285/57 117/581/57 135/582/57
f 43/323/57 70/324/57 227/598/57 209/597/57
f 169/595/56 173/322/56 190/319/56 188/596/56
f 194/331/56 208/332/56 300/586/56 273/585/56
f 209/597/54 227/598/54 235/330/54 214/326/54
f 218/335/54 239/336/54 350/587/54 326/588/54
f 82/249/68 104/343/68 102/599/68 78/564/68
f 108/345/68 115/259/68 279/565/68 266/600/68
f 279/572/69 283/261/69 268/346/69 266/601/69
f 270/352/69 296/276/69 299/573/69 272/602/69
f 33/342/70 13/247/70 78/564/70 102/599/70
f 20/282/70 35/348/70 187/603/70 168/577/70
f 168/577/71 187/603/71 189/350/71 172/284/71
f 207/274/71 193/351/71 272/602/71 299/573/71
f 73/604/61 84/360/61 85/357/61 74/605/61
f 112/369/61 110/370/61 286/607/61 288/606/61
f 74/608/60 85/368/60 86/365/60 75/609/60
f 111/375/72 112/376/72 288/611/72 287/610/72
f 75/609/68 86/365/68 80/244/68 76/559/68
f 114/254/68 111/375/68 287/610/68 285/562/68
f 286/612/63 289/374/63 291/371/63 288/613/63
f 303/386/63 301/385/63 305/615/63 307/614/63
f 287/616/73 288/617/73 291/380/73 290/377/73
f 302/392/73 303/391/73 307/619/73 306/618/73
f 285/568/69 287/616/69 290/377/69 282/258/69
f 295/270/69 302/392/69 306/618/69 304/570/69
f 164/620/65 175/396/65 174/395/65 163/621/65
f 202/383/65 204/384/65 307/614/65 305/615/65
f 165/622/74 176/400/74 175/399/74 164/623/74
f 306/618/74 307/619/74 204/389/74 203/390/74
f 166/576/71 170/279/71 176/400/71 165/622/71
f 203/390/71 206/267/71 304/570/71 306/618/71
f 9/355/67 8/356/67 73/604/67 74/605/67
f 15/393/67 16/394/67 164/620/67 163/621/67
f 10/363/66 9/364/66 74/608/66 75/609/66
f 16/397/75 17/398/75 165/622/75 164/623/75
f 11/237/70 10/363/70 75/609/70 76/559/70
f 17/398/70 18/277/70 166/576/70 165/622/70
f 372/402/76 258/625/76 276/624/76 100/424/76
f 71/626/61 94/420/61 95/417/61 72/627/61
f 101/427/61 100/428/61 276/629/61 277/628/61
f 370/406/77 259/425/77 276/630/77 258/625/77
f 263/441/63 262/440/63 292/632/63 293/631/63
f 259/432/63 260/429/63 277/634/63 276/633/63
f 369/405/6 370/406/6 253/636/6 256/635/6
f 180/422/78 177/638/78 161/637/78 178/444/78
f 162/639/65 179/448/65 178/447/65 161/640/65
f 185/438/65 186/439/65 293/631/65 292/632/65
f 370/406/6 258/625/6 372/402/6 253/636/6
f 26/445/67 27/446/67 162/639/67 161/640/67
f 25/415/67 24/416/67 71/626/67 72/627/67
f 72/627/61 95/417/61 84/360/61 73/604/61
f 110/370/61 101/427/61 277/628/61 286/607/61
f 301/385/63 263/441/63 293/631/63 305/615/63
f 260/429/63 289/374/63 286/612/63 277/634/63
f 27/446/67 15/393/67 163/621/67 162/639/67
f 8/356/67 25/415/67 72/627/67 73/604/67
f 163/621/65 174/395/65 179/448/65 162/639/65
f 186/439/65 202/383/65 305/615/65 293/631/65
f 261/641/77 292/642/77 262/435/77 369/405/77
f 255/643/6 371/403/6 96/644/6 29/409/6
f 256/635/6 253/636/6 255/643/6 254/645/6
f 185/434/78 292/642/78 261/641/78 182/423/78
f 254/645/6 255/643/6 29/409/6 30/443/6
f 253/636/6 372/402/6 371/403/6 255/643/6
f 26/442/79 161/637/79 177/638/79 30/443/79
f 29/409/79 96/644/79 71/646/79 24/408/79
f 180/422/6 254/645/6 30/443/6 177/638/6
f 182/423/6 256/635/6 254/645/6 180/422/6
f 96/644/76 371/403/76 94/411/76 71/646/76
f 261/641/6 369/405/6 256/635/6 182/423/6
f 29/409/6 28/410/6 30/443/6
