# Blender 5.1.2
# www.blender.org
mtllib Palestra ares.mtl
o Cabeza
v -1.302837 3.898173 -0.223900
v -0.905715 4.297821 -0.256954
v -1.068275 3.876747 0.162534
v -1.393665 3.855516 -0.080478
v -1.295496 3.805917 -0.290846
v -1.288154 3.713660 -0.357792
v -1.351855 3.621690 -0.190682
v -0.902095 4.204879 -0.380457
v -0.898476 4.111938 -0.503961
v -0.277740 4.531646 -0.513386
v -0.299568 4.609746 -0.436211
v -0.255912 4.453547 -0.590561
v 0.135988 4.677803 -0.381081
v 0.089697 4.756247 -0.330013
v 0.182026 4.599231 -0.431960
v 0.493837 4.886462 -0.254727
v 0.458968 4.997095 -0.200900
v 0.530890 4.768082 -0.310857
v 0.701271 5.062884 0.013928
v 0.664287 5.174147 0.051429
v 0.744692 4.928773 -0.030369
v 0.897147 4.846605 0.261283
v 0.844849 4.958960 0.292810
v 0.951628 4.726502 0.227452
v 0.916285 4.600689 0.617260
v 0.861459 4.679977 0.657409
v 0.970858 4.521274 0.577300
v 0.932190 4.412074 1.034644
v 0.858075 4.495340 1.044921
v 1.006305 4.328808 1.024366
v 0.626710 4.053794 1.575554
v 0.513362 4.157579 1.558667
v 0.740058 3.950009 1.592441
v 0.414152 3.636959 1.896542
v 0.354524 3.734383 1.896590
v 0.473780 3.539536 1.896494
v 0.289784 3.459454 1.909693
v 0.190483 3.698961 1.946341
v 0.340989 3.413890 1.908346
v 0.282029 3.424649 1.706577
v 0.149355 3.325130 1.928118
v 0.061439 3.539338 1.959144
v 0.190013 3.339655 1.714719
v 0.108918 3.145500 2.015442
v -0.066246 3.379432 1.973831
v 0.134160 3.231548 1.728641
v 0.076659 3.011712 2.058843
v -0.110896 3.085307 2.018085
v 0.121140 2.931654 2.059060
v 0.111628 3.146770 1.753523
v -0.024447 2.642295 2.348461
v -0.319436 2.313305 2.369620
v 0.025418 2.561326 2.350857
v -0.128113 2.714024 2.348663
v -0.373301 2.390275 2.363584
v -0.537694 2.690714 1.841588
v -0.644652 2.257191 1.993320
v -0.430736 3.124238 1.689856
v -0.826987 2.706045 1.547620
v -0.962858 2.290393 1.672521
v -0.691115 3.121697 1.422719
v -1.109216 2.696621 1.246196
v -0.937368 3.069023 1.140669
v -1.281064 2.326524 1.351722
v -1.330946 2.755849 0.902836
v -1.515941 2.345052 0.964886
v -1.145951 3.166646 0.840786
v -1.545612 2.790323 0.552019
v -1.750817 2.366509 0.578050
v -1.340407 3.214136 0.525988
v -1.934035 2.892495 0.038099
v -1.582496 3.230739 0.135265
v -2.032549 2.554251 0.240680
v -1.913865 2.829018 -0.068932
v -2.030971 2.482448 0.179818
v -1.581568 3.175587 -0.062755
v -1.910044 2.752599 -0.125445
v -2.028009 2.405736 0.117496
v -1.576888 3.099463 -0.113460
v -1.903116 2.671707 -0.186906
v -2.021257 2.315571 0.051173
v -1.569783 3.027844 -0.170058
v -1.895091 2.593459 -0.249610
v -2.013916 2.223314 -0.015773
v -1.561074 2.963603 -0.228520
v -1.695226 2.245459 -0.274387
v -1.591638 1.721460 -0.049563
v -1.550618 2.769457 -0.205185
v -1.285461 2.462445 0.483650
v -1.474404 2.135724 0.597290
v -1.096518 2.789167 0.370010
v -1.100185 2.444189 0.720735
v -1.286538 2.117265 0.837725
v -0.913833 2.771113 0.603744
v -0.861358 2.591822 1.026698
v -1.046233 2.265341 1.145977
v -0.676483 2.918304 0.907418
v -0.622190 2.396951 1.332300
v -0.805246 2.069700 1.453509
v -0.439133 2.724201 1.211092
v -0.436883 2.378584 1.569353
v -0.617318 2.051022 1.693878
v -0.256448 2.706147 1.444827
v 0.184034 2.059740 2.130009
v -0.047147 1.568825 1.926518
v 0.191595 2.597282 2.023868
v 0.137231 2.392613 2.350618
v -0.145521 2.038669 2.374721
v 0.226099 2.786984 2.058056
v 0.080491 2.475676 2.350994
v -0.205149 2.136093 2.374769
v 0.172247 2.855687 2.058761
v 0.172835 3.047346 1.753939
v 0.205885 3.003856 1.751770
v 0.141771 3.095412 1.756179
v 0.199513 3.106207 1.735732
v 0.241686 3.054632 1.732486
v 0.162460 3.168962 1.735390
v 0.215771 3.190637 1.720691
v 0.297594 3.098760 1.717107
v 0.197688 3.288362 1.716041
v 0.368355 3.361446 1.703839
v 0.425350 3.360200 1.905393
v 0.451632 3.269266 1.702267
v 0.314635 3.395635 1.705719
v 0.556128 3.215440 1.902925
v 0.552678 2.984518 1.878476
v 0.345927 2.941067 1.970121
v 0.593037 3.344689 1.896397
v 0.652665 3.247265 1.896349
v 0.533408 3.442112 1.896445
v 0.966754 3.742438 1.626215
v 1.080101 3.638653 1.643103
v 0.853406 3.846223 1.609328
v 1.154534 4.162274 1.003812
v 1.228649 4.079008 0.993534
v 1.080419 4.245541 1.014089
v 1.079121 4.362000 0.498035
v 1.128524 4.280461 0.461780
v 1.025146 4.441716 0.537551
v 1.056357 4.501320 0.164258
v 1.102998 4.409055 0.138704
v 1.005685 4.607906 0.194068
v 0.837554 4.650086 -0.125316
v 0.880344 4.552916 -0.168946
v 0.791228 4.783611 -0.077953
v 0.600760 4.546345 -0.418650
v 0.629972 4.455802 -0.466503
v 0.567517 4.651208 -0.366540
v 0.273220 4.441644 -0.533064
v 0.314254 4.360931 -0.580027
v 0.227780 4.520516 -0.482629
v -0.212256 4.297348 -0.744911
v -0.190428 4.219249 -0.822086
v -0.234084 4.375448 -0.667736
v -0.891237 3.926055 -0.750968
v -0.887618 3.833114 -0.874471
v -0.894857 4.018996 -0.627464
v -1.273472 3.529148 -0.491683
v -1.266130 3.436891 -0.558629
v -1.280813 3.621404 -0.424737
v -1.298453 3.398720 -0.469896
v -1.292903 3.166909 -0.482831
v -1.321985 3.532881 -0.330212
v -1.125970 3.425174 -0.316175
v -1.435271 3.117095 -0.308811
v -1.363944 3.000050 -0.394374
v -1.190689 3.245841 -0.187059
v -1.513544 3.044058 -0.269789
v -1.445201 2.833191 -0.318019
v -1.222514 3.199333 -0.140866
v -1.232106 3.247688 -0.095935
v -1.253698 3.148101 -0.115675
v -1.260623 3.189008 -0.080081
v -1.266790 3.234613 -0.045986
v -1.267752 3.283087 -0.011307
v -1.236142 3.307180 -0.054034
v -1.231859 3.366546 -0.019095
v -1.199911 3.426481 -0.072100
v -1.207286 3.331272 -0.100022
v -1.196678 3.476696 -0.059466
v -1.153345 3.540709 -0.172470
v -1.341443 3.580158 -0.244221
v -1.140954 3.510605 -0.227228
v -1.159976 3.567156 -0.138378
v -1.414014 3.479631 -0.072114
v -1.449496 3.688658 0.025998
v -1.521734 3.306651 -0.070876
v -1.506836 3.521799 0.130686
v -1.307371 3.503991 0.472072
v -1.239338 3.669643 0.381208
v -1.091427 3.422343 0.792678
v -1.013692 3.595659 0.720065
v -0.853615 3.263085 1.090198
v -0.761178 3.426326 1.030559
v -0.612187 3.374981 1.405836
v -0.510047 3.545887 1.364447
v -0.348891 3.409268 1.698387
v -0.232049 3.570097 1.669972
v -0.115207 3.730926 1.641556
v 0.036632 3.767554 1.576194
v -0.407798 3.716408 1.322944
v -0.270423 3.762265 1.244357
v -0.668740 3.589567 0.970919
v -0.541306 3.631607 0.874332
v -0.935848 3.768593 0.647338
v -0.822876 3.816862 0.537527
v -1.171305 3.835296 0.290344
v -0.318902 4.556978 0.282947
v -0.019194 4.689726 0.548216
v -0.613190 4.426957 0.013651
v 0.154123 4.510231 0.888153
v 0.332862 4.333463 1.224064
v -1.001953 2.952198 0.313091
v -0.907389 3.115229 0.256173
v -0.820571 2.934275 0.545159
v -0.727309 3.097447 0.486574
v -0.584045 3.081545 0.847779
v -0.491608 3.244786 0.788139
v -0.347520 2.887525 1.150398
v -0.255907 3.050860 1.089704
v -0.166137 2.869598 1.382466
v -0.075827 3.033049 1.320105
v 0.331202 2.657637 1.954778
v 0.437338 2.822037 1.910255
v 0.283621 2.866452 2.029571
v 0.014484 3.196500 1.257744
v 0.104794 3.359951 1.195383
v -0.164293 3.214208 1.029010
v -0.072680 3.377568 0.968316
v -0.399170 3.408026 0.728500
v -0.306733 3.571267 0.668860
v -0.634048 3.260632 0.427989
v -0.540786 3.423829 0.369404
v -0.812824 3.278259 0.199255
v -0.718260 3.441290 0.142337
v -0.313866 3.776412 -0.140392
v -0.139711 3.759211 0.082429
v 0.275392 4.302037 -0.554395
v 0.570190 4.355156 -0.429271
v 0.382256 4.014462 -0.573170
v 0.453680 3.674360 -0.582078
v 0.601977 4.019831 -0.494076
v 0.421257 4.062066 -0.599283
v 0.480219 3.705430 -0.600036
v 0.651215 4.083814 -0.529910
v 0.630319 3.724309 -0.552981
v 0.511069 3.315736 -0.511758
v 0.600281 3.683050 -0.531174
v 0.493846 3.291023 -0.500944
v 0.427915 3.277828 -0.530483
v 0.439125 3.293807 -0.537316
v 0.768103 4.449506 -0.094344
v 0.096242 3.906530 0.384316
v 1.044878 4.308245 0.178063
v 1.089849 4.221548 0.487651
v 0.332194 3.712574 0.686202
v 1.090258 3.971576 0.130649
v 1.100560 3.633610 0.108902
v 1.112637 3.942281 0.361307
v 1.141712 4.035340 0.097650
v 1.132064 3.674724 0.088971
v 1.150968 3.989952 0.334336
v 1.139471 3.640279 0.243435
v 1.038052 3.234617 0.228974
v 1.113303 3.609172 0.261869
v 1.027514 3.218573 0.236666
v 1.016051 3.239416 0.167184
v 1.032559 3.264199 0.155456
v 0.506350 3.695354 0.909023
v -0.264188 2.231425 2.374196
v -0.930807 1.612409 2.087199
v -0.881405 1.547365 2.050477
v -0.980208 1.677453 2.123921
v -1.096112 1.628322 1.969819
v -1.160344 1.695557 1.984969
v -1.031880 1.561086 1.954669
v -1.360663 1.652669 1.798124
v -1.406643 1.719285 1.809807
v -1.314682 1.586053 1.786441
v -1.666896 1.680560 1.603616
v -1.680731 1.745375 1.619437
v -1.653060 1.615744 1.587796
v -1.782202 1.694328 1.258791
v -1.799757 1.758135 1.306842
v -1.764646 1.630521 1.210740
v -1.885373 1.706321 0.960008
v -1.910694 1.769711 1.024942
v -1.860052 1.642931 0.895074
v -1.959653 1.714086 0.770854
v -1.916936 1.649702 0.725580
v -2.002370 1.778469 0.816128
v -2.045087 1.842852 0.861403
v -2.087804 1.907235 0.906677
v -1.936015 1.833102 1.089876
v -1.961336 1.896492 1.154810
v -1.817313 1.821942 1.354892
v -1.834869 1.885749 1.402943
v -1.694566 1.810190 1.635256
v -1.708402 1.875005 1.651077
v -1.452624 1.785901 1.821489
v -1.498605 1.852517 1.833172
v -1.224576 1.762793 2.000118
v -1.288808 1.830029 2.015268
v -1.029609 1.742497 2.160643
v -1.079011 1.807541 2.197365
v -1.874219 1.585319 0.680305
v -1.752849 1.506952 0.551457
v -1.834731 1.579540 0.830140
v -1.747090 1.566715 1.162689
v -1.681441 1.319035 0.669921
v -1.637819 1.305711 1.042571
v -1.125995 1.197020 0.195551
v -1.306229 0.860852 0.702256
v -1.498451 0.882740 0.532025
v -1.021309 0.896380 0.775078
v -1.037078 0.707273 0.121428
v -1.266896 0.770665 -0.223936
v -0.828226 0.649664 0.435286
v -0.453213 0.560380 -0.183772
v -0.637530 0.619276 -0.470921
v -0.285710 0.506858 0.077180
v 0.235752 0.483891 -0.619783
v 0.074010 0.528541 -0.862891
v 0.382739 0.443314 -0.398854
v 0.620116 0.425394 -0.832146
v 0.389116 0.483294 -0.966476
v 0.830042 0.372777 -0.710072
v 0.949172 0.547891 -0.978308
v 0.773793 0.579127 -1.099337
v 1.108552 0.519504 -0.868321
v 0.923674 1.091102 -1.017985
v 0.633892 1.073749 -1.112183
v 1.187019 1.106871 -0.932380
v 0.873004 0.917368 -1.014798
v 1.057012 0.942211 -0.866483
v 0.450148 0.916555 -0.906392
v 0.161590 1.053216 -1.081230
v 0.682578 0.960708 -0.682229
v 0.170960 0.903362 -0.669401
v -0.118920 1.016892 -0.834774
v 0.435554 0.970168 -0.454505
v -0.586156 1.076397 -0.221528
v -0.889853 1.236120 -0.453680
v -0.288690 1.082479 -0.027133
v -0.936020 1.192165 0.449014
v -0.093535 1.116704 0.288541
v 0.641202 1.036025 -0.250163
v -0.678376 1.185580 0.792763
v 0.091781 1.044878 0.573478
v 0.316628 0.987179 0.933528
v -0.408501 1.140032 1.123942
v 0.783594 0.935772 -0.009210
v 0.921714 0.829168 0.291142
v 1.063413 0.923071 -0.194975
v 0.910094 1.003927 -0.462806
v 1.220044 0.840469 0.078642
v 1.331662 0.915068 -0.515086
v 1.237130 0.966528 -0.721304
v 1.428236 0.862497 -0.304412
v 1.439435 1.081926 -0.609429
v 1.423928 1.121058 -0.855368
v 1.456673 1.038428 -0.336046
v 1.314466 0.499155 -0.604867
v 1.251932 0.493967 -0.769374
v 1.383978 0.504921 -0.422002
v 1.082458 0.347831 -0.387121
v 1.018895 0.325441 -0.600252
v 1.153115 0.372720 -0.150207
v 0.677540 0.414180 -0.021675
v 0.514971 0.406810 -0.200103
v 0.858250 0.422372 0.176664
v 0.058717 0.472820 0.517853
v -0.135023 0.458709 0.311937
v 0.274075 0.488506 0.746747
v -0.409401 0.608274 0.971146
v -0.640340 0.597839 0.717636
v -0.152692 0.619873 1.252945
v -0.766671 0.871215 1.100872
v -0.832720 0.894291 0.890898
v -0.768539 0.807715 1.390197
v -1.145361 1.257043 1.672640
v -1.583328 1.289068 1.508061
v -0.794744 1.231406 1.804394
v -1.268701 1.519438 1.774758
v -0.544184 1.219057 1.126475
v 0.033608 1.167888 0.463581
v -0.920806 1.246539 0.986953
v -0.650873 1.446028 1.214806
v -0.056430 1.359434 0.313763
v -0.969157 1.473049 1.042240
v -1.639225 1.550929 1.571976
v -1.060241 1.486484 0.691046
v -0.296509 1.393331 0.252626
v 0.387761 1.318295 -0.030272
v -0.299485 1.383454 0.002790
v 0.410910 1.326022 -0.252241
v -0.219718 1.192923 -0.084896
v -0.965721 1.260716 0.587144
v 0.475926 1.170726 -0.323710
v -0.257404 1.203383 0.405327
v 0.415564 1.162161 -0.064063
v 1.066761 1.118953 -0.576371
v 0.681982 1.150363 -0.060074
v 1.259347 1.105099 -0.512022
v 0.608595 1.306486 0.000686
v 1.202611 1.225798 -0.465048
v 1.041049 1.239407 -0.546971
v 1.857903 1.483084 -0.807055
v 1.778637 1.489821 -0.850435
v 1.884289 1.426951 -0.828900
v 1.790595 1.433801 -0.864109
v 1.000307 1.245791 -0.723884
v 1.533370 1.514060 -1.164239
v 1.545328 1.458040 -1.177912
v 1.510295 1.517437 -1.251797
v 1.533671 1.461601 -1.277494
v 1.050571 1.125732 -0.779137
v -0.967648 1.493850 1.939519
v -0.832004 1.482322 2.013755
v -0.683628 1.401285 1.919459
v -0.649293 0.798822 1.618469
v 0.129786 0.632637 1.563032
v 0.511053 0.505766 0.998619
v 1.057101 0.431387 0.394913
v 0.478794 1.100863 1.297418
v 1.019245 0.904412 0.621436
v 1.328775 0.937869 0.412110
v 1.230865 0.400107 0.110489
v 1.475641 0.990563 -0.035219
v 1.460468 0.511266 -0.220779
v -0.209509 1.106448 1.368138
vn -0.6400 0.6521 0.4065
vn -0.6304 0.5381 -0.5595
vn -0.1874 0.9681 0.1663
vn -0.8914 0.1051 -0.4408
vn -0.6772 0.5076 -0.5326
vn -0.9483 0.1335 -0.2880
vn -0.4827 0.6354 -0.6027
vn -0.4494 0.6509 -0.6118
vn -0.0010 0.6334 -0.7738
vn 0.0410 0.6429 -0.7649
vn 0.0058 0.4870 -0.8734
vn 0.0426 0.4908 -0.8702
vn 0.5141 0.4635 -0.7217
vn 0.5502 0.4541 -0.7008
vn 0.8580 0.4295 -0.2817
vn 0.8459 0.4249 -0.3225
vn 0.8822 0.4004 0.2479
vn 0.8884 0.4072 0.2120
vn 0.7952 0.5548 0.2449
vn 0.7975 0.5681 0.2031
vn 0.5122 0.5370 0.6702
vn 0.5303 0.5541 0.6417
vn 0.4271 0.4336 0.7935
vn 0.3874 0.4024 0.8294
vn 0.2162 -0.0044 0.9763
vn 0.0567 0.0342 0.9978
vn 0.1882 -0.0685 0.9797
vn -0.6548 -0.7404 0.1519
vn 0.6889 -0.7193 0.0894
vn 0.2444 0.1660 0.9554
vn 0.9530 -0.2957 0.0661
vn -0.0453 0.2083 0.9770
vn 0.9706 -0.2405 0.0089
vn 0.1979 0.6105 0.7669
vn 0.6214 0.3752 0.6878
vn 0.8242 0.4748 0.3086
vn 0.0161 0.0531 0.9985
vn 0.0085 0.0482 0.9988
vn -0.6660 0.4564 0.5901
vn -0.7414 0.4536 0.4946
vn -0.6369 0.3973 0.6607
vn -0.6511 0.3969 0.6469
vn -0.6382 0.4360 0.6345
vn -0.6890 0.4379 0.5775
vn -0.6940 0.4384 0.5711
vn -0.7369 0.4458 0.5082
vn -0.7647 0.4100 0.4971
vn -0.7549 0.4072 0.5141
vn -0.6254 0.4421 0.6429
vn -0.6991 0.4597 0.5476
vn -0.6475 0.6941 -0.3147
vn -0.9600 0.1439 -0.2403
vn -0.9574 0.1493 -0.2471
vn -0.4851 0.4846 -0.7279
vn -0.9521 0.1305 -0.2766
vn -0.4984 0.5015 -0.7071
vn -0.9512 0.1278 -0.2809
vn -0.5227 0.5158 -0.6788
vn -0.5706 -0.3671 -0.7346
vn 0.1058 0.0437 -0.9934
vn 0.9436 -0.1998 -0.2642
vn 0.8147 -0.3438 -0.4669
vn 0.6346 -0.5544 -0.5385
vn 0.6345 -0.5543 -0.5386
vn 0.7646 -0.5537 -0.3299
vn 0.7647 -0.5537 -0.3296
vn 0.4736 -0.5263 -0.7061
vn 0.4735 -0.5263 -0.7063
vn 0.6343 -0.5543 -0.5389
vn 0.6344 -0.5543 -0.5388
vn 0.4736 -0.1545 -0.8671
vn 0.6258 -0.3250 -0.7090
vn 0.5434 -0.4772 0.6907
vn 0.9896 -0.0437 0.1373
vn 0.0487 0.0290 0.9984
vn 0.5670 0.4081 0.7155
vn 0.0445 0.0320 0.9985
vn 0.5993 0.3931 0.6974
vn 0.7435 0.5668 0.3550
vn 0.7901 0.5167 0.3298
vn 0.2774 0.1656 0.9464
vn 0.3008 0.1688 0.9386
vn 0.1941 0.1214 0.9734
vn 0.2236 0.1070 0.9688
vn 0.0671 0.0323 0.9972
vn 0.0506 0.0485 0.9975
vn -0.7252 -0.6586 0.2010
vn -0.5277 -0.8371 0.1441
vn -0.6266 0.6039 0.4926
vn 0.4221 -0.1107 0.8998
vn 0.0873 -0.0593 0.9944
vn 0.2801 0.3167 0.9062
vn 0.3137 0.3438 0.8851
vn 0.5768 0.5978 0.5568
vn 0.5625 0.5844 0.5848
vn 0.8089 0.5814 0.0880
vn 0.7985 0.5876 0.1306
vn 0.8863 0.4480 0.1176
vn 0.8847 0.4431 0.1447
vn 0.7951 0.5005 -0.3425
vn 0.8143 0.4477 -0.3695
vn 0.5594 0.5266 -0.6402
vn 0.5889 0.4707 -0.6570
vn 0.1364 0.5221 -0.8419
vn 0.1094 0.5197 -0.8473
vn 0.1560 0.6459 -0.7473
vn 0.1127 0.6554 -0.7468
vn -0.3527 0.6896 -0.6325
vn -0.3843 0.6780 -0.6266
vn -0.7840 0.4218 -0.4553
vn -0.7534 0.4492 -0.4802
vn -0.9445 0.0427 -0.3257
vn -0.7750 0.0076 -0.6319
vn -0.4207 -0.6887 0.5906
vn -0.5843 0.5997 0.5468
vn -0.6310 0.0472 -0.7744
vn -0.5596 0.7566 0.3384
vn -0.6667 -0.0842 -0.7405
vn -0.5696 0.6154 0.5448
vn -0.8348 0.2755 -0.4766
vn -0.8846 0.2280 -0.4067
vn -0.1192 0.6520 -0.7488
vn -0.0872 0.6034 -0.7927
vn -0.8214 0.2797 -0.4971
vn -0.0615 0.5623 -0.8246
vn -0.8393 0.3128 -0.4446
vn -0.8740 0.2154 -0.4355
vn -0.9233 0.2045 -0.3252
vn -0.9485 0.1472 -0.2806
vn -0.3621 -0.7693 0.5264
vn -0.3307 -0.8566 0.3961
vn 0.0281 -0.6540 -0.7560
vn -0.9453 0.1323 -0.2981
vn 0.1469 -0.2160 -0.9653
vn -0.9063 0.0397 -0.4207
vn -0.8515 0.2743 -0.4468
vn -0.9401 0.2967 -0.1678
vn 0.2106 -0.1654 -0.9635
vn -0.8333 0.2075 0.5124
vn -0.7161 0.5342 0.4493
vn -0.7948 0.2324 0.5606
vn -0.6351 0.5396 0.5526
vn -0.6722 0.3497 0.6526
vn -0.5019 0.5241 0.6880
vn -0.7691 0.3593 0.5286
vn -0.7487 0.5485 0.3723
vn -0.7188 0.2249 0.6578
vn -0.6492 0.5410 0.5346
vn -0.6835 0.1927 0.7041
vn -0.5695 0.5197 0.6369
vn -0.5728 0.5209 0.6329
vn -0.6384 0.5382 0.5502
vn -0.1343 0.9629 0.2342
vn -0.1992 0.9677 0.1542
vn -0.3558 0.9319 -0.0703
vn -0.7522 0.5491 0.3643
vn 0.0510 0.8918 0.4496
vn -0.4950 0.5237 0.6933
vn -0.1255 0.9605 0.2485
vn -0.6478 0.5391 0.5382
vn -0.7129 0.5348 0.4536
vn -0.5856 0.5317 0.6118
vn -0.6349 0.6172 0.4647
vn -0.5300 0.8479 0.0096
vn -0.4740 0.8800 -0.0298
vn -0.4120 0.9075 0.0815
vn -0.0755 0.8030 0.5912
vn -0.6948 0.5425 0.4721
vn -0.0212 0.8353 0.5494
vn -0.5583 0.6096 0.5627
vn -0.5007 0.6383 0.5847
vn -0.1117 0.8779 0.4657
vn 0.5675 -0.7518 -0.3357
vn 0.7264 -0.5524 -0.4090
vn 0.6338 -0.5555 -0.5383
vn 0.7648 -0.5541 -0.3286
vn 0.7652 -0.5541 -0.3279
vn 0.4726 -0.5267 -0.7066
vn 0.4720 -0.5266 -0.7070
vn 0.4079 -0.7362 -0.5400
vn 0.5327 -0.5334 -0.6571
vn 0.5467 -0.2041 0.8120
vn 0.5980 -0.0743 0.7981
vn -0.4074 0.7415 0.5331
vn -0.6200 0.6204 0.4803
vn 0.5401 -0.5297 -0.6540
vn 0.6723 -0.3673 -0.6427
vn 0.6337 -0.5555 -0.5384
vn 0.4710 -0.5263 -0.7080
vn 0.4715 -0.5264 -0.7075
vn 0.7659 -0.5539 -0.3264
vn 0.7655 -0.5540 -0.3271
vn 0.6339 -0.5555 -0.5382
vn 0.6338 -0.5555 -0.5382
vn 0.7586 -0.3757 -0.5324
vn 0.7254 -0.5478 -0.4167
vn 0.4131 -0.8246 -0.3864
vn 0.4554 -0.8027 -0.3852
vn 0.3875 -0.8109 -0.4386
vn 0.4370 -0.7884 -0.4330
vn -0.3419 -0.1993 0.9184
vn 0.4771 -0.5959 -0.6459
vn -0.4466 -0.1052 -0.8885
vn -0.4888 -0.0794 -0.8688
vn -0.3295 -0.0978 0.9391
vn 0.2803 0.1700 -0.9447
vn 0.2880 0.0471 -0.9565
vn 0.6441 -0.0894 0.7597
vn 0.6581 -0.0860 0.7480
vn 0.6766 -0.1260 0.7255
vn 0.3358 -0.1827 -0.9240
vn -0.3637 0.1563 0.9183
vn 0.4245 -0.5932 -0.6840
vn -0.4705 -0.0853 -0.8783
vn 0.5902 -0.8013 -0.0980
vn 0.6642 -0.7015 -0.2584
vn 0.3689 -0.6682 -0.6461
vn 0.1899 -0.7646 -0.6159
vn -0.9863 -0.1356 0.0938
vn 0.4582 -0.8178 -0.3482
vn -0.5837 0.0319 -0.8113
vn -0.5688 0.0353 -0.8217
vn -0.9957 -0.0319 0.0867
vn 0.9946 0.0994 -0.0309
vn 0.9986 -0.0231 -0.0473
vn 0.7421 -0.2227 0.6322
vn 0.7145 -0.1984 0.6709
vn 0.7278 -0.2037 0.6548
vn 0.9618 -0.2446 -0.1231
vn -0.9650 0.2157 0.1489
vn 0.7207 -0.6225 -0.3050
vn -0.5455 -0.0052 -0.8381
vn 0.1840 -0.7544 -0.6301
vn 0.4130 -0.8246 -0.3866
vn 0.4239 -0.7995 -0.4256
vn 0.4665 -0.7913 -0.3952
vn 0.6966 -0.6176 -0.3651
vn 0.6031 -0.7934 -0.0825
vn -0.7180 0.4779 -0.5060
vn -0.4166 0.6651 -0.6197
vn 0.0786 0.6501 -0.7558
vn 0.0786 0.5016 -0.8615
vn 0.5799 0.4513 -0.6783
vn 0.8311 0.4265 -0.3568
vn 0.8896 0.4214 0.1761
vn 0.7985 0.5789 0.1652
vn 0.5470 0.5699 0.6132
vn 0.3495 0.3724 0.8597
vn 0.1041 0.1030 0.9892
vn 0.2481 0.2054 0.9467
vn -0.1662 -0.3224 0.9319
vn -0.1285 -0.2999 0.9453
vn -0.4697 -0.6414 0.6066
vn -0.4930 -0.6502 0.5781
vn -0.5043 -0.5489 0.6666
vn -0.4801 -0.5347 0.6954
vn -0.5324 -0.3986 0.7468
vn -0.5045 -0.3907 0.7699
vn -0.8819 -0.3640 0.2996
vn -0.8968 -0.3519 0.2680
vn -0.8087 -0.5188 0.2771
vn -0.8296 -0.5002 0.2482
vn -0.7279 -0.6270 0.2775
vn -0.7492 -0.6138 0.2491
vn -0.9656 -0.2434 -0.0910
vn -0.9677 -0.2170 -0.1285
vn -0.7107 -0.6366 0.2993
vn -0.9683 -0.1880 -0.1645
vn -0.9668 -0.1581 -0.2007
vn -0.6965 -0.6439 0.3165
vn -0.7586 -0.5566 0.3387
vn -0.7852 -0.5377 0.3073
vn -0.8382 -0.3926 0.3786
vn -0.8628 -0.3775 0.3362
vn -0.6001 -0.4161 0.6832
vn -0.5641 -0.4070 0.7184
vn -0.5544 -0.5768 0.6000
vn -0.5291 -0.5630 0.6349
vn -0.5243 -0.6609 0.5369
vn -0.5106 -0.6564 0.5554
vn -0.0540 -0.2483 0.9672
vn -0.0916 -0.2747 0.9572
vn -0.5829 0.7274 0.3621
vn -0.4407 0.7156 0.5420
vn -0.4241 0.7338 0.5308
vn -0.5621 0.7474 0.3543
vn -0.5782 0.7291 0.3660
vn -0.4382 0.7131 0.5472
vn -0.7757 -0.5948 0.2107
vn -0.7441 -0.5602 -0.3641
vn -0.8086 -0.5820 -0.0860
vn -0.7549 -0.5269 -0.3905
vn 0.8113 -0.5694 0.1323
vn -0.8480 -0.4819 0.2207
vn 0.6578 -0.6656 -0.3526
vn -0.8522 -0.5042 0.1399
vn -0.5343 -0.7275 0.4304
vn 0.1589 0.9868 -0.0306
vn -0.7965 -0.4586 0.3941
vn 0.5878 0.6726 0.4496
vn -0.2910 -0.9533 0.0805
vn -0.2563 -0.9269 0.2743
vn -0.2490 -0.9682 -0.0241
vn -0.2586 -0.9658 -0.0174
vn -0.1665 -0.9825 -0.0832
vn -0.1602 -0.9832 -0.0875
vn -0.1808 -0.9804 -0.0783
vn -0.1930 -0.9790 -0.0652
vn 0.0925 -0.8851 -0.4561
vn 0.1277 -0.8555 -0.5018
vn 0.4203 0.0211 -0.9071
vn 0.4152 -0.1024 -0.9040
vn -0.3132 0.1087 0.9435
vn -0.4524 0.4039 0.7951
vn 0.0833 0.7546 0.6508
vn -0.0321 0.9886 -0.1472
vn 0.2041 0.9214 0.3306
vn -0.1136 0.9862 -0.1207
vn 0.3245 0.9328 0.1567
vn 0.0468 0.9704 -0.2371
vn 0.5528 0.7953 0.2490
vn 0.1042 0.9877 -0.1161
vn 0.0717 0.9933 -0.0908
vn 0.0031 0.9815 -0.1913
vn 0.2503 0.9554 0.1567
vn 0.1919 0.9804 0.0450
vn 0.2778 0.9568 0.0854
vn 0.2069 0.9784 0.0027
vn 0.2276 0.9516 0.2065
vn 0.1626 0.9589 0.2326
vn 0.2219 0.9630 0.1528
vn 0.2083 0.9648 0.1604
vn -0.5911 0.7510 0.2943
vn -0.8491 0.4431 0.2876
vn 0.9478 -0.2477 -0.2007
vn 0.9678 -0.1570 -0.1970
vn 0.5027 -0.8581 -0.1052
vn 0.4525 -0.8876 -0.0863
vn -0.0657 -0.9914 0.1133
vn -0.0572 -0.9925 0.1085
vn -0.0230 -0.9968 0.0770
vn -0.0280 -0.9963 0.0817
vn -0.1265 -0.9774 0.1691
vn -0.1185 -0.9797 0.1619
vn -0.5695 -0.7463 0.3446
vn -0.3971 -0.9129 0.0942
vn -0.3160 -0.9026 0.2924
vn -0.6010 -0.7209 0.3451
vn 0.0700 0.9975 0.0076
vn 0.1205 0.9926 -0.0167
vn -0.3812 -0.5508 0.7425
vn 0.1421 0.9885 -0.0521
vn -0.6731 -0.0288 -0.7389
vn -0.7419 -0.4249 -0.5187
vn 0.0898 0.9959 0.0141
vn -0.0972 -0.9950 0.0233
vn -0.1136 -0.9934 0.0126
vn -0.1205 -0.9927 -0.0066
vn -0.1143 -0.9934 0.0120
vn -0.0974 -0.9952 -0.0067
vn -0.0944 -0.9955 0.0005
vn 0.6647 -0.0643 0.7443
vn 0.3023 -0.2912 0.9077
vn 0.0816 0.9967 0.0035
vn 0.0482 0.9988 0.0038
vn 0.0793 0.9958 0.0466
vn 0.0584 0.9981 -0.0172
vn 0.1055 0.9935 0.0430
vn -0.6155 0.0174 -0.7880
vn -0.5017 -0.4284 -0.7515
vn -0.0828 -0.9950 0.0565
vn 0.1379 -0.9010 -0.4112
vn -0.4922 0.1049 -0.8641
vn -0.4051 -0.3990 0.8226
vn -0.1354 0.8178 0.5593
vn 0.4150 -0.1312 0.9003
vn -0.7789 -0.0132 -0.6271
vn -0.1491 -0.9884 -0.0284
vn 0.3640 -0.9234 -0.1219
vn -0.9241 -0.3477 0.1586
vn 0.7230 -0.0152 0.6907
vn -0.5127 0.8551 0.0765
vn 0.6127 -0.1040 0.7834
vn 0.5478 -0.1495 0.8232
vn 0.0842 0.9961 0.0258
vn -0.4799 -0.3835 0.7890
vn -0.9088 -0.3411 0.2404
vn 0.3174 -0.6648 -0.6763
vn 0.6884 -0.6955 -0.2058
vn 0.4512 -0.6465 -0.6152
vn -0.4566 -0.5206 0.7215
vn -0.4377 -0.6282 0.6432
vn -0.1579 -0.6463 0.7465
vn 0.0283 -0.4981 -0.8666
vn 0.1538 -0.6167 0.7720
vn 0.1284 -0.6464 0.7521
vn -0.2408 0.7545 -0.6106
vn 0.0318 -0.3926 0.9192
vn -0.6098 -0.4771 0.6329
vn -0.2201 -0.9603 0.1711
vn -0.1098 -0.9820 0.1540
vn 0.7376 -0.1807 0.6507
vn -0.0336 -0.9957 0.0868
vn 0.7030 -0.2762 0.6553
vn -0.0026 0.9651 -0.2617
vn -0.0462 0.8545 -0.5174
vn 0.6626 -0.3774 0.6469
vn -0.2010 0.9615 -0.1876
vn 0.8868 -0.2761 0.3707
vn -0.5525 0.8175 -0.1627
vn 0.9813 -0.0344 -0.1894
vn -0.9806 0.1746 0.0896
vn 0.3974 -0.9153 -0.0659
vn -0.0417 -0.9941 0.0996
vn 0.1197 0.9927 -0.0177
vn -0.4274 -0.8916 0.1500
vn -0.5280 -0.7504 0.3977
vn -0.2674 -0.9635 -0.0112
vn -0.1545 -0.9838 -0.0913
vn -0.1996 -0.9782 -0.0581
vn 0.1604 -0.8242 -0.5430
vn 0.4071 -0.1942 -0.8925
vn -0.3729 0.7294 0.5735
vn -0.0215 0.9871 -0.1588
vn -0.0729 0.9813 -0.1780
vn -0.4824 -0.1590 -0.8614
vn -0.4623 -0.0621 -0.8845
vn -0.4917 -0.2633 -0.8300
vn -0.1623 -0.1725 -0.9716
vn -0.9102 -0.2995 -0.2861
vt 0.212677 0.255465
vt 0.182270 0.240380
vt 0.169966 0.195999
vt 0.206834 0.196340
vt 0.019787 0.215905
vt 0.010930 0.213016
vt 0.000225 0.168226
vt 0.012665 0.170020
vt 0.176259 0.183146
vt 0.211179 0.183339
vt 0.021278 0.233213
vt 0.002378 0.223558
vt 0.028609 0.218890
vt 0.025106 0.171945
vt 0.026858 0.233507
vt 0.007484 0.108713
vt 0.016452 0.110193
vt 0.025422 0.111735
vt 0.008451 0.069860
vt 0.016868 0.070719
vt 0.025300 0.071425
vt 0.008282 0.029695
vt 0.017889 0.033882
vt 0.028166 0.037934
vt 0.003643 -0.000569
vt 0.013034 0.002977
vt 0.024261 0.006858
vt 0.017830 0.966136
vt 0.012938 0.997035
vt 0.003543 1.000569
vt 0.008220 0.970313
vt 0.028113 0.962094
vt 0.024170 0.993168
vt 0.016842 0.929303
vt 0.008425 0.930156
vt 0.025275 0.928603
vt 0.016443 0.889835
vt 0.007475 0.891311
vt 0.025414 0.888295
vt 0.012665 0.830010
vt 0.000225 0.831802
vt 0.025106 0.828086
vt 0.019789 0.784126
vt 0.010932 0.787015
vt 0.028611 0.781142
vt 0.002380 0.776474
vt 0.021281 0.766819
vt 0.026860 0.766524
vt 0.002338 0.760546
vt 0.018714 0.751336
vt 0.557264 0.785387
vt 0.542560 0.777412
vt 0.543805 0.774038
vt 0.559122 0.780213
vt 0.561008 0.691480
vt 0.543831 0.691983
vt 0.542560 0.681311
vt 0.558384 0.676980
vt 0.001761 0.744737
vt 0.024048 0.735676
vt 0.571675 0.701373
vt 0.547305 0.703734
vt 0.010867 0.723499
vt 0.027707 0.724166
vt 0.579576 0.708387
vt 0.552063 0.710811
vt 0.024049 0.684954
vt 0.034051 0.685130
vt 0.041167 0.682659
vt 0.034639 0.721222
vt 0.582512 0.714320
vt 0.554118 0.716006
vt 0.037539 0.645673
vt 0.045601 0.645901
vt 0.029850 0.645318
vt 0.347890 0.140084
vt 0.357306 0.103290
vt 0.409969 0.111264
vt 0.385569 0.143916
vt 0.366241 0.066526
vt 0.402675 0.079112
vt 0.323850 0.098024
vt 0.330282 0.061567
vt 0.317616 0.134428
vt 0.290812 0.091045
vt 0.293962 0.056305
vt 0.287654 0.125765
vt 0.256620 0.128876
vt 0.257061 0.091945
vt 0.257316 0.054926
vt 0.223204 0.091084
vt 0.221053 0.053310
vt 0.225822 0.128973
vt 0.169966 0.089419
vt 0.182946 0.059112
vt 0.188071 0.125939
vt 0.010865 0.276533
vt 0.027705 0.275866
vt 0.034049 0.314902
vt 0.024048 0.315078
vt 0.037538 0.354358
vt 0.029849 0.354714
vt 0.041165 0.317373
vt 0.045600 0.354131
vt 0.034637 0.278810
vt 0.048787 0.319604
vt 0.054726 0.354154
vt 0.041853 0.281289
vt 0.056303 0.321533
vt 0.063979 0.353940
vt 0.049019 0.283264
vt 0.087419 0.330459
vt 0.114310 0.369446
vt 0.062782 0.292446
vt 0.422762 0.303782
vt 0.412168 0.260067
vt 0.483951 0.248894
vt 0.482941 0.281506
vt 0.425796 0.219653
vt 0.484958 0.216243
vt 0.508925 0.248802
vt 0.508420 0.280810
vt 0.509278 0.216411
vt 0.541190 0.237256
vt 0.541393 0.269807
vt 0.541010 0.204921
vt 0.576073 0.280296
vt 0.575246 0.248353
vt 0.574523 0.215999
vt 0.601551 0.280830
vt 0.600219 0.248205
vt 0.598845 0.215564
vt 0.662417 0.302461
vt 0.672663 0.258619
vt 0.658631 0.218287
vt 0.056304 0.678498
vt 0.063980 0.646092
vt 0.114311 0.630585
vt 0.087420 0.669572
vt 0.049021 0.716768
vt 0.062784 0.707586
vt 0.048789 0.680428
vt 0.054728 0.645878
vt 0.041855 0.718743
vt 0.589294 0.725711
vt 0.557887 0.725799
vt 0.555976 0.721081
vt 0.585817 0.720165
vt 0.393342 0.583880
vt 0.391677 0.589108
vt 0.387257 0.589771
vt 0.387947 0.584557
vt 0.399034 0.582155
vt 0.396252 0.588019
vt 0.396974 0.577763
vt 0.387007 0.578764
vt 0.403397 0.572820
vt 0.397054 0.559055
vt 0.387007 0.560071
vt 0.402160 0.559916
vt 0.561952 0.773049
vt 0.545763 0.769026
vt 0.550129 0.758793
vt 0.568434 0.760576
vt 0.405713 0.559936
vt 0.406657 0.570120
vt 0.552509 0.737596
vt 0.577283 0.736854
vt 0.050408 0.764546
vt 0.049712 0.735035
vt 0.062696 0.733711
vt 0.062099 0.749543
vt 0.046187 0.774902
vt 0.054946 0.771861
vt 0.037404 0.778034
vt 0.034894 0.767254
vt 0.062401 0.822851
vt 0.049980 0.824382
vt 0.037547 0.826166
vt 0.052369 0.884238
vt 0.043373 0.885414
vt 0.034389 0.886793
vt 0.050348 0.926536
vt 0.042109 0.927349
vt 0.033700 0.927967
vt 0.055502 0.951871
vt 0.047506 0.954976
vt 0.038303 0.958345
vt 0.056841 0.983625
vt 0.047865 0.986012
vt 0.036360 0.989342
vt 0.055545 0.048180
vt 0.047553 0.045070
vt 0.047916 0.014141
vt 0.056796 0.016852
vt 0.038353 0.041694
vt 0.036447 0.010698
vt 0.050372 0.073507
vt 0.042134 0.072689
vt 0.033725 0.072066
vt 0.052376 0.115799
vt 0.043380 0.114620
vt 0.034397 0.113239
vt 0.062400 0.177183
vt 0.049979 0.175651
vt 0.037547 0.173866
vt 0.054944 0.228171
vt 0.046185 0.225130
vt 0.037402 0.221998
vt 0.062097 0.250489
vt 0.050405 0.235486
vt 0.034892 0.232778
vt 0.062694 0.266320
vt 0.049710 0.264997
vt 0.197527 0.783874
vt 0.191045 0.771401
vt 0.209350 0.769618
vt 0.213717 0.779851
vt 0.182197 0.747679
vt 0.206970 0.748421
vt 0.065522 0.281011
vt 0.048564 0.274625
vt 0.175561 0.742185
vt 0.204850 0.741553
vt 0.170185 0.736537
vt 0.201592 0.736624
vt 0.373121 0.564946
vt 0.367727 0.564270
vt 0.367037 0.559055
vt 0.371457 0.559718
vt 0.376753 0.571063
vt 0.366786 0.570062
vt 0.173662 0.730990
vt 0.203503 0.731906
vt 0.176967 0.725146
vt 0.205361 0.726831
vt 0.378813 0.566672
vt 0.376031 0.560808
vt 0.179903 0.719212
vt 0.207416 0.721637
vt 0.383944 0.569015
vt 0.380683 0.562297
vt 0.383176 0.576006
vt 0.386436 0.578706
vt 0.381939 0.588911
vt 0.376833 0.589771
vt 0.385492 0.588891
vt 0.202215 0.796212
vt 0.200357 0.791039
vt 0.215674 0.784863
vt 0.216920 0.788237
vt 0.198472 0.702305
vt 0.201095 0.687805
vt 0.216920 0.692137
vt 0.215648 0.702809
vt 0.366786 0.588756
vt 0.187804 0.712198
vt 0.212175 0.714559
vt 0.018712 0.248695
vt 0.002336 0.239485
vt 0.024046 0.264356
vt 0.001759 0.255295
vt 0.220444 0.152253
vt 0.188272 0.150926
vt 0.215626 0.167686
vt 0.182106 0.167037
vt 0.252639 0.149950
vt 0.249306 0.165965
vt 0.286027 0.143636
vt 0.284547 0.159898
vt 0.317727 0.155875
vt 0.318113 0.172228
vt 0.348977 0.163952
vt 0.350929 0.180002
vt 0.380860 0.168455
vt 0.384015 0.185415
vt 0.352477 0.196200
vt 0.386858 0.202315
vt 0.318855 0.188488
vt 0.354404 0.209772
vt 0.390727 0.216093
vt 0.318141 0.201982
vt 0.281844 0.189439
vt 0.283071 0.176119
vt 0.243907 0.195225
vt 0.245640 0.181823
vt 0.273010 0.286647
vt 0.242940 0.270761
vt 0.265907 0.364689
vt 0.237528 0.353509
vt 0.212883 0.325034
vt 0.191094 0.297488
vt 0.305455 0.276451
vt 0.295838 0.358817
vt 0.337982 0.266871
vt 0.325219 0.335260
vt 0.370613 0.257523
vt 0.351623 0.312100
vt 0.422361 0.207079
vt 0.485293 0.199973
vt 0.421085 0.191457
vt 0.485685 0.183774
vt 0.509378 0.200209
vt 0.509479 0.183997
vt 0.540921 0.188872
vt 0.540834 0.172932
vt 0.574236 0.199806
vt 0.573945 0.183597
vt 0.598319 0.199298
vt 0.597730 0.183103
vt 0.661901 0.205652
vt 0.662989 0.189996
vt 0.048566 0.725406
vt 0.065524 0.719020
vt 0.554629 0.730728
vt 0.583918 0.731360
vt 0.597274 0.166935
vt 0.665548 0.174312
vt 0.573682 0.167356
vt 0.596741 0.150813
vt 0.669154 0.152295
vt 0.573400 0.151008
vt 0.540752 0.157181
vt 0.540675 0.141737
vt 0.509551 0.167757
vt 0.509653 0.151412
vt 0.485938 0.167603
vt 0.486256 0.151476
vt 0.418330 0.175822
vt 0.414449 0.153868
vt 0.485889 0.102764
vt 0.508566 0.102277
vt 0.410314 0.103436
vt 0.485118 0.030142
vt 0.507687 0.016247
vt 0.445545 0.049722
vt 0.350590 0.682406
vt 0.373807 0.694317
vt 0.359366 0.715387
vt 0.341823 0.708151
vt 0.484618 0.024155
vt 0.373807 0.829852
vt 0.373459 0.835959
vt 0.352596 0.820646
vt 0.353569 0.815277
vt 0.333203 0.798652
vt 0.334224 0.795166
vt 0.341606 0.739417
vt 0.330996 0.732188
vt 0.276091 0.838283
vt 0.249164 0.829914
vt 0.266022 0.803803
vt 0.282981 0.813616
vt 0.286269 0.781232
vt 0.296913 0.788710
vt 0.250273 0.702471
vt 0.259886 0.705450
vt 0.272926 0.729696
vt 0.265735 0.729079
vt 0.290581 0.750095
vt 0.286143 0.750267
vt 0.319524 0.762814
vt 0.317139 0.763136
vt 0.322912 0.767650
vt 0.323578 0.766319
vt 0.540377 0.014145
vt 0.540633 0.094003
vt 0.508969 0.006412
vt 0.540601 0.000327
vt 0.574154 0.015818
vt 0.572776 0.005990
vt 0.574363 0.101900
vt 0.744835 0.787104
vt 0.720716 0.774586
vt 0.728318 0.757211
vt 0.753346 0.762445
vt 0.597087 0.102056
vt 0.596892 0.029437
vt 0.621525 0.836836
vt 0.630103 0.807285
vt 0.636763 0.804601
vt 0.630137 0.831763
vt 0.642216 0.780553
vt 0.646325 0.778651
vt 0.696272 0.765021
vt 0.698638 0.752365
vt 0.394748 0.369295
vt 0.389823 0.394665
vt 0.370181 0.395313
vt 0.366768 0.364673
vt 0.388978 0.424058
vt 0.376074 0.424142
vt 0.627361 0.672695
vt 0.633835 0.696912
vt 0.628500 0.695827
vt 0.621525 0.670905
vt 0.644822 0.722850
vt 0.641227 0.722238
vt 0.666376 0.746411
vt 0.664775 0.746107
vt 0.394748 0.457659
vt 0.388350 0.456687
vt 0.666419 0.752300
vt 0.664114 0.753539
vt 0.672663 0.101794
vt 0.636734 0.048497
vt 0.597308 0.023441
vt 0.404165 0.579811
vt 0.400904 0.586530
vt 0.070176 0.571137
vt 0.077500 0.572019
vt 0.062886 0.570206
vt 0.075297 0.558035
vt 0.068381 0.554854
vt 0.061476 0.551622
vt 0.065483 0.529418
vt 0.059281 0.527067
vt 0.071689 0.531767
vt 0.062080 0.500016
vt 0.056548 0.500016
vt 0.067611 0.500016
vt 0.059281 0.472964
vt 0.065483 0.470613
vt 0.071688 0.468264
vt 0.061476 0.448409
vt 0.068380 0.445177
vt 0.075296 0.441996
vt 0.062885 0.429825
vt 0.070175 0.428895
vt 0.077499 0.428012
vt 0.054586 0.451715
vt 0.055633 0.430803
vt 0.048418 0.431855
vt 0.047710 0.455120
vt 0.053078 0.475317
vt 0.046867 0.477660
vt 0.051014 0.500016
vt 0.045474 0.500016
vt 0.053078 0.524714
vt 0.046867 0.522372
vt 0.054586 0.548317
vt 0.047711 0.544911
vt 0.055634 0.569228
vt 0.048418 0.568176
vt 0.342919 0.009081
vt 0.365147 0.013535
vt 0.320920 0.004629
vt 0.299114 -0.000144
vt 0.276805 0.000614
vt 0.254364 0.001020
vt 0.231697 0.001388
vt 0.082216 0.438836
vt 0.084809 0.427182
vt 0.393124 0.471206
vt 0.366869 0.479966
vt 0.366869 0.467360
vt 0.379618 0.458193
vt 0.405470 0.429425
vt 0.395320 0.376794
vt 0.405470 0.364731
vt 0.485252 0.338852
vt 0.473596 0.337087
vt 0.077898 0.465910
vt 0.510994 0.344742
vt 0.391051 0.501316
vt 0.367157 0.507885
vt 0.706954 0.268088
vt 0.734788 0.277859
vt 0.712621 0.319031
vt 0.691023 0.327993
vt 0.333404 0.383688
vt 0.329857 0.458957
vt 0.304039 0.459453
vt 0.307089 0.399120
vt 0.748806 0.265954
vt 0.732820 0.316607
vt 0.249289 0.433728
vt 0.288280 0.397455
vt 0.799063 0.405596
vt 0.779104 0.356395
vt 0.799797 0.353795
vt 0.833100 0.408367
vt 0.767966 0.403152
vt 0.757628 0.366730
vt 0.788350 0.459187
vt 0.816377 0.460976
vt 0.762907 0.457574
vt 0.783536 0.525491
vt 0.807482 0.526315
vt 0.761782 0.524623
vt 0.778513 0.561169
vt 0.798909 0.552262
vt 0.759964 0.569127
vt 0.775574 0.592062
vt 0.791966 0.585771
vt 0.760650 0.597777
vt 0.593157 0.608790
vt 0.594374 0.633884
vt 0.550209 0.637023
vt 0.552877 0.619930
vt 0.595615 0.656571
vt 0.547320 0.652537
vt 0.328037 0.647815
vt 0.324350 0.661501
vt 0.304837 0.641916
vt 0.345393 0.654178
vt 0.345829 0.671881
vt 0.313571 0.617150
vt 0.285326 0.607728
vt 0.340276 0.620256
vt 0.314574 0.587819
vt 0.288378 0.576766
vt 0.342210 0.593241
vt 0.305004 0.516002
vt 0.272842 0.506374
vt 0.332539 0.524871
vt 0.364803 0.458288
vt 0.362562 0.520937
vt 0.366313 0.595659
vt 0.739544 0.514926
vt 0.711330 0.516796
vt 0.713850 0.442823
vt 0.737951 0.440418
vt 0.736823 0.577305
vt 0.701928 0.577031
vt 0.676629 0.520190
vt 0.686207 0.448273
vt 0.676123 0.576763
vt 0.711980 0.415829
vt 0.737480 0.411583
vt 0.685267 0.418906
vt 0.717189 0.381933
vt 0.735162 0.376424
vt 0.699817 0.388257
vt 0.717657 0.364235
vt 0.734933 0.353679
vt 0.696167 0.374562
vt 0.195810 0.667397
vt 0.244105 0.663362
vt 0.246756 0.677368
vt 0.194540 0.687647
vt 0.197051 0.644710
vt 0.241216 0.647848
vt 0.759129 0.249037
vt 0.745673 0.244058
vt 0.746359 0.215408
vt 0.763069 0.222432
vt 0.730749 0.238342
vt 0.727810 0.207450
vt 0.744541 0.170903
vt 0.764125 0.170172
vt 0.722787 0.171772
vt 0.743416 0.103854
vt 0.766356 0.102561
vt 0.717973 0.105468
vt 0.738357 0.049432
vt 0.766356 0.048260
vt 0.707260 0.051876
vt 0.748695 0.013010
vt 0.766245 0.016237
vt 0.727219 0.002676
vt 0.485803 0.700999
vt 0.485803 0.783603
vt 0.469190 0.778339
vt 0.453260 0.718434
vt 0.447592 0.769377
vt 0.425426 0.728205
vt 0.476926 0.677924
vt 0.480297 0.611634
vt 0.508495 0.628339
vt 0.509978 0.697044
vt 0.739544 0.670968
vt 0.706384 0.652227
vt 0.368941 0.551819
vt 0.366869 0.521710
vt 0.393124 0.530469
vt 0.392836 0.558388
vt 0.679875 0.637091
vt 0.128703 0.000964
vt 0.150450 0.065675
vt 0.136438 0.082093
vt 0.114905 0.021944
vt 0.169580 0.153061
vt 0.148468 0.152244
vt 0.492878 0.540680
vt 0.511459 0.556454
vt 0.441321 0.699858
vt 0.443903 0.630065
vt 0.471403 0.619189
vt 0.473495 0.687450
vt 0.429546 0.546622
vt 0.445778 0.534296
vt 0.410174 0.685095
vt 0.417162 0.617451
vt 0.413604 0.534030
vt 0.445876 0.488277
vt 0.458690 0.475377
vt 0.432671 0.475935
vt 0.149015 0.758533
vt 0.134336 0.742652
vt 0.144625 0.662802
vt 0.158680 0.674165
vt 0.149453 0.604400
vt 0.162347 0.611708
vt 0.536118 0.610742
vt 0.540863 0.529307
vt 0.507672 0.489676
vt 0.521234 0.472847
vt 0.494275 0.472629
vt 0.493239 0.414667
vt 0.508105 0.421801
vt 0.523035 0.414823
vt 0.158148 0.211983
vt 0.146615 0.272643
vt 0.136134 0.277109
vt 0.145101 0.219031
vt 0.444458 0.419800
vt 0.458468 0.415077
vt 0.469435 0.354771
vt 0.476550 0.353320
vt 0.156515 0.335816
vt 0.151404 0.337376
vt 0.154717 0.343847
vt 0.159455 0.343610
vt 0.476926 0.353318
vt 0.484513 0.355932
vt 0.149463 0.411540
vt 0.159715 0.411398
vt 0.161337 0.479167
vt 0.156594 0.479062
vt 0.430291 0.415641
vt 0.410174 0.354571
vt 0.417344 0.355826
vt 0.158640 0.487033
vt 0.153481 0.485641
vt 0.150674 0.550552
vt 0.140110 0.546358
vt 0.532175 0.356207
vt 0.539785 0.353628
vt 0.129341 0.823906
vt 0.114905 0.803348
vt 0.542134 0.676500
vt 0.073143 0.500016
vt 0.077898 0.534121
vt 0.574676 0.344821
vt 0.542848 0.353393
vt 0.600353 0.338421
vt 0.082217 0.561196
vt 0.084810 0.572849
vt 0.380375 0.508696
vt 0.393124 0.517863
vt 0.611991 0.336486
vt 0.395320 0.494492
vt 0.395320 0.429798
vt 0.405470 0.441861
vt 0.661085 0.638957
vt 0.621666 0.603087
vt 0.243800 0.448615
vt 0.170207 0.410359
vt 0.197390 0.364587
vt 0.248844 0.383614
vt 0.427393 0.766953
vt 0.411407 0.716301
vt 0.673223 0.054648
vt 0.706527 0.000075
vt 0.689946 0.107256
vt 0.248844 0.505683
vt 0.201706 0.479396
vt 0.698841 0.172595
vt 0.245224 0.571550
vt 0.208004 0.550839
vt 0.644506 0.530030
vt 0.659985 0.459319
vt 0.246987 0.598295
vt 0.199457 0.580664
vt 0.657003 0.428277
vt 0.238548 0.630756
vt 0.198267 0.619615
vt 0.676606 0.394100
vt 0.714357 0.232051
vt 0.707414 0.198542
vt 0.366313 0.364494
vt 0.674410 0.250652
vt 0.674410 0.333257
vt 0.739967 0.401980
vt 0.740078 0.369956
vt 0.739967 0.456280
vt 0.742198 0.523892
vt 0.743254 0.576152
vt 0.747194 0.602756
vt 0.596885 0.676821
vt 0.544669 0.666543
vt 0.363354 0.659720
vt 0.363097 0.682460
vt 0.365762 0.624559
vt 0.546201 0.560725
vt 0.542581 0.494858
vt 0.589719 0.468570
vt 0.583421 0.540014
vt 0.547625 0.437790
vt 0.621218 0.399534
vt 0.591968 0.569839
vt 0.544438 0.587470
vt 0.542581 0.372789
vt 0.594035 0.353761
s 0
f 211/1/1 2/2/1 1/3/1 3/4/1
f 5/5/2 1/6/2 2/7/2 8/8/2
f 3/4/3 1/3/3 4/9/3 208/10/3
f 1/6/4 5/5/4 7/11/4 4/12/4
f 6/13/5 5/5/5 8/8/5 9/14/5
f 5/5/6 6/13/6 183/15/6 7/11/6
f 8/8/7 2/7/7 11/16/7 10/17/7
f 9/14/8 8/8/8 10/17/8 12/18/8
f 10/17/9 11/16/9 14/19/9 13/20/9
f 12/18/10 10/17/10 13/20/10 15/21/10
f 13/20/11 14/19/11 17/22/11 16/23/11
f 15/21/12 13/20/12 16/23/12 18/24/12
f 16/23/13 17/22/13 20/25/13 19/26/13
f 18/24/14 16/23/14 19/26/14 21/27/14
f 22/28/15 19/29/15 20/30/15 23/31/15
f 24/32/16 21/33/16 19/29/16 22/28/16
f 25/34/17 22/28/17 23/31/17 26/35/17
f 27/36/18 24/32/18 22/28/18 25/34/18
f 28/37/19 25/34/19 26/35/19 29/38/19
f 30/39/20 27/36/20 25/34/20 28/37/20
f 31/40/21 28/37/21 29/38/21 32/41/21
f 33/42/22 30/39/22 28/37/22 31/40/22
f 34/43/23 31/40/23 32/41/23 35/44/23
f 36/45/24 33/42/24 31/40/24 34/43/24
f 35/44/25 38/46/25 37/47/25 34/43/25
f 34/43/26 37/47/26 39/48/26 36/45/26
f 38/46/27 42/49/27 41/50/27 37/47/27
f 37/51/28 40/52/28 125/53/28 39/54/28
f 41/55/29 43/56/29 40/57/29 37/58/29
f 42/49/30 45/59/30 44/60/30 41/50/30
f 44/61/31 46/62/31 43/56/31 41/55/31
f 45/59/32 48/63/32 47/64/32 44/60/32
f 47/65/33 50/66/33 46/62/33 44/61/33
f 48/63/34 54/67/34 51/68/34 47/64/34
f 47/64/35 51/68/35 53/69/35 49/70/35
f 49/71/36 115/72/36 50/66/36 47/65/36
f 51/68/37 52/73/37 271/74/37 53/69/37
f 54/67/38 55/75/38 52/73/38 51/68/38
f 58/76/39 56/77/39 54/78/39 48/79/39
f 56/77/40 57/80/40 55/81/40 54/78/40
f 59/82/41 60/83/41 57/80/41 56/77/41
f 61/84/42 59/82/42 56/77/42 58/76/42
f 62/85/43 64/86/43 60/83/43 59/82/43
f 63/87/44 62/85/44 59/82/44 61/84/44
f 63/87/45 67/88/45 65/89/45 62/85/45
f 62/85/46 65/89/46 66/90/46 64/86/46
f 65/89/47 68/91/47 69/92/47 66/90/47
f 67/88/48 70/93/48 68/91/48 65/89/48
f 68/91/49 71/94/49 73/95/49 69/92/49
f 70/93/50 72/96/50 71/94/50 68/91/50
f 72/97/51 76/98/51 74/99/51 71/100/51
f 71/100/52 74/99/52 75/101/52 73/102/52
f 74/99/53 77/103/53 78/104/53 75/101/53
f 76/98/54 79/105/54 77/103/54 74/99/54
f 77/103/55 80/106/55 81/107/55 78/104/55
f 79/105/56 82/108/56 80/106/56 77/103/56
f 80/106/57 83/109/57 84/110/57 81/107/57
f 82/108/58 85/111/58 83/109/58 80/106/58
f 83/109/59 86/112/59 87/113/59 84/110/59
f 85/111/60 88/114/60 86/112/60 83/109/60
f 87/115/61 86/116/61 89/117/61 90/118/61
f 86/116/62 88/119/62 91/120/62 89/117/62
f 90/118/63 89/117/63 92/121/63 93/122/63
f 89/117/64 91/120/64 94/123/64 92/121/64
f 93/122/65 92/121/65 95/124/65 96/125/65
f 92/121/66 94/123/66 97/126/66 95/124/66
f 99/127/67 96/125/67 95/124/67 98/128/67
f 98/128/68 95/124/68 97/126/68 100/129/68
f 102/130/69 99/127/69 98/128/69 101/131/69
f 101/131/70 98/128/70 100/129/70 103/132/70
f 105/133/71 102/130/71 101/131/71 104/134/71
f 104/134/72 101/131/72 103/132/72 106/135/72
f 107/136/73 108/137/73 105/138/73 104/139/73
f 109/140/74 107/136/74 104/139/74 106/141/74
f 110/142/75 111/143/75 108/137/75 107/136/75
f 112/144/76 110/142/76 107/136/76 109/140/76
f 53/69/77 271/74/77 111/143/77 110/142/77
f 49/70/78 53/69/78 110/142/78 112/144/78
f 109/145/79 114/146/79 113/147/79 112/148/79
f 112/148/80 113/147/80 115/72/80 49/71/80
f 116/149/81 113/150/81 114/151/81 117/152/81
f 118/153/82 115/154/82 113/150/82 116/149/82
f 119/155/83 116/149/83 117/152/83 120/156/83
f 121/157/84 118/153/84 116/149/84 119/155/84
f 122/158/85 119/155/85 120/156/85 124/159/85
f 125/160/86 121/157/86 119/155/86 122/158/86
f 123/161/87 122/162/87 124/163/87 126/164/87
f 39/54/88 125/53/88 122/162/88 123/161/88
f 40/165/26 43/166/26 121/157/26 125/160/26
f 126/164/89 124/163/89 120/167/89 128/168/89
f 126/169/90 128/170/90 225/171/90 127/172/90
f 129/173/91 126/169/91 127/172/91 130/174/91
f 131/175/26 123/176/26 126/169/26 129/173/26
f 130/174/92 133/177/92 132/178/92 129/173/92
f 129/173/93 132/178/93 134/179/93 131/175/93
f 133/177/94 136/180/94 135/181/94 132/178/94
f 132/178/95 135/181/95 137/182/95 134/179/95
f 136/180/96 139/183/96 138/184/96 135/181/96
f 135/181/97 138/184/97 140/185/97 137/182/97
f 139/183/98 142/186/98 141/187/98 138/184/98
f 138/184/99 141/187/99 143/188/99 140/185/99
f 142/186/100 145/189/100 144/190/100 141/187/100
f 141/187/101 144/190/101 146/191/101 143/188/101
f 148/192/102 147/193/102 144/194/102 145/195/102
f 147/193/103 149/196/103 146/197/103 144/194/103
f 151/198/104 150/199/104 147/193/104 148/192/104
f 150/199/105 152/200/105 149/196/105 147/193/105
f 154/201/106 153/202/106 150/199/106 151/198/106
f 153/202/107 155/203/107 152/200/107 150/199/107
f 157/204/108 156/205/108 153/202/108 154/201/108
f 156/205/109 158/206/109 155/203/109 153/202/109
f 160/207/110 159/208/110 156/205/110 157/204/110
f 159/208/111 161/209/111 158/206/111 156/205/111
f 159/208/112 160/207/112 163/210/112 162/211/112
f 161/209/6 159/208/6 162/211/6 164/212/6
f 162/211/113 163/210/113 167/213/113 166/214/113
f 164/215/114 162/216/114 165/217/114 184/218/114
f 162/216/115 166/219/115 168/220/115 165/217/115
f 166/214/116 167/213/116 170/221/116 169/222/116
f 166/219/117 169/223/117 171/224/117 168/220/117
f 169/222/118 170/221/118 88/114/118 85/111/118
f 169/223/119 85/225/119 173/226/119 171/224/119
f 172/227/120 171/228/120 173/229/120 174/230/120
f 180/231/121 168/232/121 171/228/121 172/227/121
f 85/225/122 82/233/122 174/234/122 173/226/122
f 82/233/123 79/235/123 175/236/123 174/234/123
f 177/237/124 172/227/124 174/230/124 175/238/124
f 79/235/125 76/239/125 176/240/125 175/236/125
f 178/241/126 177/237/126 175/238/126 176/242/126
f 179/243/127 180/231/127 172/227/127 177/237/127
f 181/244/128 179/243/128 177/237/128 178/241/128
f 182/245/129 184/246/129 180/231/129 179/243/129
f 185/247/6 182/245/6 179/243/6 181/244/6
f 7/248/130 183/249/130 182/250/130 185/251/130
f 183/249/131 164/215/131 184/218/131 182/250/131
f 186/252/132 7/253/132 185/254/132 181/255/132
f 184/246/133 165/256/133 168/232/133 180/231/133
f 6/13/6 161/209/6 164/212/6 183/15/6
f 188/257/134 186/252/134 181/255/134 178/258/134
f 4/12/135 7/11/135 186/259/135 187/260/135
f 187/260/136 186/259/136 188/261/136 189/262/136
f 189/262/137 188/261/137 76/98/137 72/97/137
f 76/239/138 188/257/138 178/258/138 176/240/138
f 190/263/139 189/264/139 72/96/139 70/93/139
f 191/265/140 187/266/140 189/264/140 190/263/140
f 192/267/141 190/263/141 70/93/141 67/88/141
f 193/268/142 191/265/142 190/263/142 192/267/142
f 194/269/143 192/267/143 67/88/143 63/87/143
f 195/270/144 193/268/144 192/267/144 194/269/144
f 194/269/145 63/87/145 61/84/145 196/271/145
f 195/270/146 194/269/146 196/271/146 197/272/146
f 196/271/147 61/84/147 58/76/147 198/273/147
f 197/272/148 196/271/148 198/273/148 199/274/148
f 198/273/149 58/76/149 48/79/149 45/275/149
f 199/274/150 198/273/150 45/275/150 42/276/150
f 200/277/151 199/274/151 42/276/151 38/278/151
f 202/279/152 197/272/152 199/274/152 200/277/152
f 201/280/153 200/277/153 38/278/153 35/281/153
f 203/282/154 202/279/154 200/277/154 201/280/154
f 205/283/155 204/284/155 202/279/155 203/282/155
f 204/284/156 195/270/156 197/272/156 202/279/156
f 205/283/157 207/285/157 206/286/157 204/284/157
f 204/284/158 206/286/158 193/268/158 195/270/158
f 207/285/159 3/4/159 208/10/159 206/286/159
f 206/286/160 208/10/160 191/265/160 193/268/160
f 208/10/161 4/9/161 187/266/161 191/265/161
f 210/287/162 209/288/162 207/285/162 205/283/162
f 209/288/163 211/1/163 3/4/163 207/285/163
f 20/289/164 17/290/164 209/288/164 210/287/164
f 17/290/165 14/291/165 211/1/165 209/288/165
f 14/291/166 11/292/166 2/2/166 211/1/166
f 20/289/167 210/287/167 212/293/167 23/294/167
f 210/287/168 205/283/168 203/282/168 212/293/168
f 23/294/169 212/293/169 213/295/169 26/296/169
f 212/293/170 203/282/170 201/280/170 213/295/170
f 213/295/171 201/280/171 35/281/171 32/297/171
f 26/296/172 213/295/172 32/297/172 29/298/172
f 88/119/173 170/299/173 214/300/173 91/120/173
f 170/299/174 167/301/174 215/302/174 214/300/174
f 91/120/175 214/300/175 216/303/175 94/123/175
f 214/300/175 215/302/175 217/304/175 216/303/175
f 94/123/176 216/303/176 218/305/176 97/126/176
f 216/303/177 217/304/177 219/306/177 218/305/177
f 100/129/178 97/126/178 218/305/178 220/307/178
f 220/307/179 218/305/179 219/306/179 221/308/179
f 103/132/175 100/129/175 220/307/175 222/309/175
f 222/309/175 220/307/175 221/308/175 223/310/175
f 106/135/180 103/132/180 222/309/180 224/311/180
f 224/311/181 222/309/181 223/310/181 225/312/181
f 226/313/182 109/140/182 106/141/182 224/314/182
f 128/170/183 226/313/183 224/314/183 225/171/183
f 128/168/184 120/167/184 117/315/184 226/316/184
f 226/316/185 117/315/185 114/146/185 109/145/185
f 225/312/186 223/310/186 227/317/186 127/318/186
f 223/310/175 221/308/175 229/319/175 227/317/175
f 127/318/187 227/317/187 228/320/187 130/321/187
f 227/317/188 229/319/188 230/322/188 228/320/188
f 229/319/189 231/323/189 232/324/189 230/322/189
f 221/308/190 219/306/190 231/323/190 229/319/190
f 233/325/191 234/326/191 232/324/191 231/323/191
f 217/304/192 233/325/192 231/323/192 219/306/192
f 235/327/193 236/328/193 234/326/193 233/325/193
f 215/302/194 235/327/194 233/325/194 217/304/194
f 163/329/195 160/330/195 236/328/195 235/327/195
f 167/301/196 163/329/196 235/327/196 215/302/196
f 236/328/197 237/331/197 238/332/197 234/326/197
f 160/330/198 157/333/198 237/331/198 236/328/198
f 237/331/199 239/334/199 240/335/199 238/332/199
f 157/333/200 154/336/200 239/334/200 237/331/200
f 240/337/201 239/338/201 241/339/201 243/340/201
f 154/336/202 151/341/202 239/334/202
f 239/342/203 151/343/203 244/344/203 241/345/203
f 241/345/204 244/344/204 245/346/204 242/347/204
f 243/340/205 241/339/205 242/348/205 249/349/205
f 151/350/206 148/351/206 246/352/206 244/353/206
f 244/353/207 246/352/207 247/354/207 245/355/207
f 148/356/208 240/357/208 243/358/208 246/359/208
f 246/359/209 243/358/209 249/360/209 247/361/209
f 247/361/210 249/360/210 250/362/210 248/363/210
f 245/355/211 247/354/211 248/363/211 252/364/211
f 249/349/212 242/348/212 251/365/212 250/362/212
f 248/363/213 250/362/213 251/365/213 252/364/213
f 242/347/214 245/346/214 252/364/214 251/365/214
f 238/332/215 240/335/215 253/366/215 254/367/215
f 240/335/216 148/368/216 145/369/216 253/366/216
f 255/370/217 253/366/217 145/369/217 142/371/217
f 257/372/218 254/367/218 253/366/218 255/370/218
f 255/373/219 258/374/219 260/375/219 256/376/219
f 270/377/220 257/372/220 255/370/220 256/378/220
f 142/379/221 261/380/221 258/381/221 255/382/221
f 261/380/222 262/383/222 259/384/222 258/381/222
f 258/374/223 259/385/223 266/386/223 260/375/223
f 139/387/224 263/388/224 261/389/224 142/390/224
f 263/388/225 264/391/225 262/392/225 261/389/225
f 256/393/226 260/394/226 263/395/226 139/396/226
f 260/394/227 266/397/227 264/398/227 263/395/227
f 266/397/228 267/399/228 265/400/228 264/398/228
f 264/391/229 265/401/229 269/402/229 262/392/229
f 259/385/230 268/403/230 267/399/230 266/386/230
f 269/404/231 265/400/231 267/399/231 268/403/231
f 262/383/232 269/404/232 268/403/232 259/384/232
f 230/322/233 232/324/233 254/367/233 257/372/233
f 228/320/234 230/322/234 257/372/234 270/377/234
f 130/321/235 228/320/235 270/377/235 133/405/235
f 133/405/236 270/377/236 256/378/236 136/406/236
f 136/406/237 256/378/237 139/407/237
f 234/326/238 238/332/238 254/367/238 232/324/238
f 161/209/239 6/13/239 9/14/239 158/206/239
f 158/206/240 9/14/240 12/18/240 155/203/240
f 155/203/241 12/18/241 15/21/241 152/200/241
f 152/200/242 15/21/242 18/24/242 149/196/242
f 149/196/243 18/24/243 21/27/243 146/197/243
f 143/188/244 146/191/244 21/33/244 24/32/244
f 140/185/245 143/188/245 24/32/245 27/36/245
f 137/182/246 140/185/246 27/36/246 30/39/246
f 134/179/247 137/182/247 30/39/247 33/42/247
f 131/175/248 134/179/248 33/42/248 36/45/248
f 36/45/26 39/48/26 123/176/26 131/175/26
f 43/166/249 46/408/249 118/153/249 121/157/249
f 46/408/250 50/409/250 115/154/250 118/153/250
f 111/143/251 272/410/251 273/411/251 108/137/251
f 271/74/252 274/412/252 272/410/252 111/143/252
f 277/413/253 273/411/253 272/410/253 275/414/253
f 275/414/254 272/410/254 274/412/254 276/415/254
f 278/416/255 275/414/255 276/415/255 279/417/255
f 280/418/256 277/413/256 275/414/256 278/416/256
f 281/419/257 278/416/257 279/417/257 282/420/257
f 283/421/258 280/418/258 278/416/258 281/419/258
f 281/419/259 282/420/259 285/422/259 284/423/259
f 283/421/260 281/419/260 284/423/260 286/424/260
f 284/423/261 285/422/261 288/425/261 287/426/261
f 286/424/262 284/423/262 287/426/262 289/427/262
f 287/426/263 288/425/263 292/428/263 290/429/263
f 289/427/264 287/426/264 290/429/264 291/430/264
f 81/107/265 84/110/265 291/430/265 290/429/265
f 78/104/266 81/107/266 290/429/266 292/428/266
f 288/425/267 295/431/267 293/432/267 292/428/267
f 75/101/268 78/104/268 292/428/268 293/432/268
f 73/102/269 75/101/269 293/432/269 294/433/269
f 295/431/270 296/434/270 294/433/270 293/432/270
f 297/435/271 298/436/271 296/434/271 295/431/271
f 285/422/272 297/435/272 295/431/272 288/425/272
f 299/437/273 300/438/273 298/436/273 297/435/273
f 282/420/274 299/437/274 297/435/274 285/422/274
f 299/437/275 301/439/275 302/440/275 300/438/275
f 282/420/276 279/417/276 301/439/276 299/437/276
f 301/439/277 303/441/277 304/442/277 302/440/277
f 279/417/278 276/415/278 303/441/278 301/439/278
f 303/441/279 305/443/279 306/444/279 304/442/279
f 276/415/280 274/412/280 305/443/280 303/441/280
f 55/75/281 306/444/281 305/443/281 52/73/281
f 52/73/282 305/443/282 274/412/282 271/74/282
f 57/80/283 304/445/283 306/446/283 55/81/283
f 60/83/284 302/447/284 304/445/284 57/80/284
f 64/86/285 300/448/285 302/447/285 60/83/285
f 64/86/286 66/90/286 298/449/286 300/448/286
f 66/90/287 69/92/287 296/450/287 298/449/287
f 69/92/288 73/95/288 294/451/288 296/450/288
f 309/452/289 289/427/289 291/430/289 307/453/289
f 84/110/290 87/113/290 307/453/290 291/430/290
f 311/454/291 309/455/291 307/456/291 308/457/291
f 87/458/292 308/459/292 307/460/292
f 87/115/293 90/118/293 309/461/293 307/462/293
f 310/463/294 286/424/294 289/427/294 309/452/294
f 90/118/295 93/122/295 310/464/295 309/461/295
f 312/465/296 310/466/296 309/455/296 311/454/296
f 312/467/297 311/468/297 314/469/297 316/470/297
f 312/471/298 346/472/298 313/473/298 311/474/298
f 314/469/299 311/468/299 308/475/299 315/476/299
f 311/474/300 313/473/300 87/477/300 308/478/300
f 317/479/301 314/480/301 315/481/301 318/482/301
f 319/483/302 316/484/302 314/480/302 317/479/302
f 320/485/303 317/479/303 318/482/303 321/486/303
f 322/487/304 319/483/304 317/479/304 320/485/304
f 323/488/305 320/485/305 321/486/305 324/489/305
f 325/490/306 322/487/306 320/485/306 323/488/306
f 326/491/307 323/488/307 324/489/307 327/492/307
f 328/493/308 325/490/308 323/488/308 326/491/308
f 329/494/309 326/491/309 327/492/309 330/495/309
f 331/496/310 328/493/310 326/491/310 329/494/310
f 333/497/311 332/498/311 329/499/311 330/500/311
f 332/498/312 334/501/312 331/502/312 329/499/312
f 335/503/313 332/504/313 333/505/313
f 336/506/314 334/507/314 332/504/314 335/503/314
f 337/508/315 335/503/315 333/505/315 338/509/315
f 339/510/316 336/506/316 335/503/316 337/508/316
f 340/511/317 337/508/317 338/509/317 341/512/317
f 342/513/318 339/510/318 337/508/318 340/511/318
f 343/514/319 340/511/319 341/512/319 344/515/319
f 345/516/320 342/513/320 340/511/320 343/514/320
f 313/473/321 343/514/321 344/515/321 87/477/321
f 346/472/322 345/516/322 343/514/322 313/473/322
f 349/517/323 347/518/323 345/516/323 346/472/323
f 347/518/324 348/519/324 342/513/324 345/516/324
f 347/520/325 350/521/325 353/522/325 348/523/325
f 349/524/326 352/525/326 350/521/326 347/520/326
f 350/521/327 351/526/327 354/527/327 353/522/327
f 352/525/328 432/528/328 351/526/328 350/521/328
f 348/523/329 353/522/329 355/529/329 356/530/329
f 353/522/330 354/527/330 357/531/330 355/529/330
f 356/530/331 355/529/331 358/532/331 359/533/331
f 355/529/332 357/531/332 360/534/332 358/532/332
f 359/533/333 358/532/333 361/535/333 362/536/333
f 358/532/334 360/534/334 363/537/334 361/535/334
f 361/538/335 364/539/335 365/540/335 362/541/335
f 363/542/336 366/543/336 364/539/336 361/538/336
f 365/544/337 364/545/337 367/546/337 368/547/337
f 364/545/338 366/548/338 369/549/338 367/546/338
f 368/547/339 367/546/339 370/550/339 371/551/339
f 367/546/340 369/549/340 372/552/340 370/550/340
f 371/551/341 370/550/341 373/553/341 374/554/341
f 370/550/342 372/552/342 375/555/342 373/553/342
f 374/554/343 373/553/343 376/556/343 377/557/343
f 373/553/344 375/555/344 378/558/344 376/556/344
f 377/557/345 376/556/345 379/559/345 380/560/345
f 376/556/346 378/558/346 381/561/346 379/559/346
f 383/562/347 380/563/347 379/564/347 382/565/347
f 382/565/348 379/564/348 381/566/348 384/567/348
f 382/568/349 386/569/349 388/570/349 383/571/349
f 383/572/350 382/573/350 352/525/350 349/524/350
f 382/574/351 384/575/351 419/576/351 385/577/351
f 382/573/352 384/578/352 432/528/352 352/525/352
f 385/579/353 389/580/353 386/581/353 382/582/353
f 389/580/354 390/583/354 387/584/354 386/581/354
f 386/569/355 387/585/355 401/586/355 388/570/355
f 392/587/356 391/588/356 389/589/356 385/590/356
f 391/588/357 394/591/357 390/592/357 389/589/357
f 392/587/358 310/593/358 393/594/358 391/588/358
f 391/588/359 393/594/359 396/595/359 394/591/359
f 394/591/360 395/596/360 406/597/360 390/592/360
f 394/591/361 396/595/361 397/598/361 395/596/361
f 393/599/362 399/600/362 398/601/362 396/602/362
f 396/602/363 398/601/363 400/603/363 397/604/363
f 399/605/364 388/570/364 401/586/364 398/606/364
f 398/606/365 401/586/365 402/607/365 400/608/365
f 387/585/366 404/609/366 402/607/366 401/586/366
f 404/609/367 405/610/367 403/611/367 402/607/367
f 400/608/368 402/607/368 403/611/368 418/612/368
f 406/613/369 407/614/369 405/615/369 404/616/369
f 390/583/370 406/613/370 404/616/370 387/584/370
f 395/596/371 408/617/371 407/618/371 406/597/371
f 408/617/372 410/619/372 409/620/372 407/618/372
f 407/614/373 409/621/373 411/622/373 405/615/373
f 412/623/374 411/622/374 409/621/374 410/624/374
f 405/610/375 411/625/375 412/626/375 403/611/375
f 403/627/376 412/623/376 410/624/376 408/628/376
f 403/627/377 408/628/377 414/629/377 415/630/377
f 395/596/378 397/598/378 413/631/378 408/617/378
f 408/617/379 413/631/379 416/632/379 414/633/379
f 415/630/380 414/629/380 416/634/380 417/635/380
f 413/636/381 418/637/381 417/635/381 416/634/381
f 418/612/382 403/611/382 415/638/382 417/639/382
f 397/604/383 400/603/383 418/637/383 413/636/383
f 310/640/384 312/641/384 399/600/384 393/599/384
f 312/642/385 383/571/385 388/570/385 399/605/385
f 392/643/386 385/644/386 280/418/386 283/421/386
f 392/643/387 283/421/387 286/424/387 310/463/387
f 99/127/388 385/645/388 392/646/388 96/125/388
f 93/122/389 96/125/389 392/646/389 310/464/389
f 102/130/390 419/647/390 385/645/390 99/127/390
f 385/644/391 419/648/391 277/413/391 280/418/391
f 419/648/392 420/649/392 273/411/392 277/413/392
f 384/575/393 421/650/393 420/651/393 419/576/393
f 105/133/394 420/652/394 419/647/394 102/130/394
f 105/653/395 420/654/395 421/655/395
f 108/137/396 273/411/396 420/649/396 105/138/396
f 384/578/397 421/656/397 105/657/397 432/528/397
f 423/658/398 105/659/398 421/660/398 422/661/398
f 381/566/399 422/662/399 421/663/399 384/567/399
f 378/558/400 423/664/400 422/665/400 381/561/400
f 375/555/401 424/666/401 423/664/401 378/558/401
f 424/667/402 426/668/402 105/659/402 423/658/402
f 372/552/403 425/669/403 424/666/403 375/555/403
f 425/670/404 427/671/404 426/668/404 424/667/404
f 351/526/405 426/672/405 427/673/405 354/527/405
f 432/528/406 105/657/406 426/672/406 351/526/406
f 427/671/407 425/670/407 429/674/407 428/675/407
f 354/527/408 427/673/408 428/676/408 357/531/408
f 428/675/409 429/674/409 431/677/409 430/678/409
f 357/531/410 428/676/410 430/679/410 360/534/410
f 430/678/411 431/677/411 366/543/411 363/542/411
f 360/534/412 430/679/412 363/537/412
f 366/548/413 431/680/413 429/681/413 369/549/413
f 369/549/414 429/681/414 425/669/414 372/552/414
f 383/682/415 349/517/415 346/472/415 312/471/415
f 383/683/416 312/467/416 316/470/416 380/684/416
f 377/685/417 380/686/417 316/484/417 319/483/417
f 374/687/418 377/685/418 319/483/418 322/487/418
f 371/688/419 374/687/419 322/487/419 325/490/419
f 368/689/420 371/688/420 325/490/420 328/493/420
f 365/690/421 368/689/421 328/493/421 331/496/421
f 334/501/422 362/691/422 365/692/422 331/502/422
f 359/693/423 362/694/423 334/507/423 336/506/423
f 356/695/424 359/693/424 336/506/424 339/510/424
f 348/519/425 356/695/425 339/510/425 342/513/425
f 324/696/426 321/697/426 344/698/426 341/699/426
f 321/697/427 318/700/427 87/701/427 344/698/427
f 341/699/428 338/702/428 327/703/428 324/696/428
f 338/702/429 333/497/429 330/500/429 327/703/429
f 318/700/430 315/704/430 308/705/430 87/701/430
