# Blender 5.1.2
# www.blender.org
mtllib Pared.mtl
o muro
v -2.384944 10.555046 2.384943
v -2.384944 10.555046 0.987866
v -3.372820 10.555045 -0.000001
v -3.209644 1.569648 3.209642
v -3.209643 1.569648 1.329476
v -3.852445 1.569647 0.686674
v -4.539121 1.569647 -0.000001
v -12.039022 10.555046 8.594360
v -13.026898 10.555046 7.606493
v -10.872723 1.569647 8.594360
v -11.559397 1.569647 7.907685
v -12.202199 1.569648 7.264884
v -13.026899 10.555048 6.209418
v -12.202199 1.569648 5.384717
vn 0.5557 0.0487 0.8300
vn -0.0000 -1.0000 -0.0000
vn -0.0000 1.0000 -0.0000
vn -0.5557 0.0487 -0.8300
vt 0.112355 0.516859
vt 0.121385 0.986421
vt 0.007546 0.986271
vt 0.019470 0.516773
vt 0.114021 0.507373
vt 0.008763 0.501507
vt 0.010322 0.492627
vt 0.115580 0.498493
vt 0.124307 0.999965
vt 0.000035 0.997914
vt 0.124307 0.002086
vt 0.116797 0.013729
vt 0.002958 0.013579
vt 0.000035 0.000035
vt 0.104873 0.483227
vt 0.011988 0.483141
s 0
usemtl 
f 10/1/1 4/4/1 1/3/1 8/2/1
f 11/5/2 5/6/2 4/4/2 10/1/2
f 11/5/2 6/7/2 5/6/2
f 12/8/2 6/7/2 11/5/2
f 8/2/3 1/3/3 2/10/3 9/9/3
f 9/11/3 2/14/3 3/13/3 13/12/3
f 13/12/4 3/13/4 7/16/4 14/15/4
f 14/15/2 7/16/2 6/7/2 12/8/2
