# Blender 5.1.2
# www.blender.org
mtllib Pilares.mtl
o Cube
v -1.000000 -0.111686 1.000000
v -1.000000 0.111686 1.000000
v -1.000000 -0.111686 -1.000000
v -1.000000 0.111686 -1.000000
v 1.000000 -0.111686 1.000000
v 1.000000 0.111686 1.000000
v 1.000000 -0.111686 -1.000000
v 1.000000 0.111686 -1.000000
v 0.600000 -0.111686 -1.000000
v 0.200000 -0.111686 -1.000000
v -0.200000 -0.111686 -1.000000
v -0.600000 -0.111686 -1.000000
v -0.600000 0.111686 -1.000000
v -0.200000 0.111686 -1.000000
v 0.200000 0.111686 -1.000000
v 0.600000 0.111686 -1.000000
v -0.600000 -0.111686 1.000000
v -0.200000 -0.111686 1.000000
v 0.200000 -0.111686 1.000000
v 0.600000 -0.111686 1.000000
v 0.600000 0.111686 1.000000
v 0.200000 0.111686 1.000000
v -0.200000 0.111686 1.000000
v -0.600000 0.111686 1.000000
v -1.000000 -0.111686 -0.600000
v -1.000000 -0.111686 -0.200000
v -1.000000 -0.111686 0.200000
v -1.000000 -0.111686 0.600000
v -1.000000 0.111686 0.600000
v -1.000000 0.111686 0.200000
v -1.000000 0.111686 -0.200000
v -1.000000 0.111686 -0.600000
v 1.000000 -0.111686 0.600000
v 1.000000 -0.111686 0.200000
v 1.000000 -0.111686 -0.200000
v 1.000000 -0.111686 -0.600000
v 1.000000 0.111686 -0.600000
v 1.000000 0.111686 -0.200000
v 1.000000 0.111686 0.200000
v 1.000000 0.111686 0.600000
v 0.423607 0.111686 -0.423607
v 0.568328 0.111686 -0.189443
v 0.568328 0.111686 0.189443
v 0.423607 0.111686 0.423607
v 0.189443 0.111686 -0.568328
v -0.423607 5.865808 0.423607
v -0.568328 5.865808 0.189443
v 0.189443 0.111686 0.568328
v -0.189443 0.111686 -0.568328
v -0.568328 5.865808 -0.189443
v -0.423607 5.865808 -0.423607
v -0.189443 0.111686 0.568328
v -0.423607 0.111686 -0.423607
v -0.568328 0.111686 -0.189443
v -0.568328 0.111686 0.189443
v -0.423607 0.111686 0.423607
v -0.600000 -0.111686 -0.600000
v -0.600000 -0.111686 -0.200000
v -0.600000 -0.111686 0.200000
v -0.600000 -0.111686 0.600000
v -0.200000 -0.111686 -0.600000
v -0.200000 -0.111686 -0.200000
v -0.200000 -0.111686 0.200000
v -0.200000 -0.111686 0.600000
v 0.200000 -0.111686 -0.600000
v 0.200000 -0.111686 -0.200000
v 0.200000 -0.111686 0.200000
v 0.200000 -0.111686 0.600000
v 0.600000 -0.111686 -0.600000
v 0.600000 -0.111686 -0.200000
v 0.600000 -0.111686 0.200000
v 0.600000 -0.111686 0.600000
v -0.189443 5.865808 0.568328
v -0.189443 5.865808 -0.568328
v 0.189443 5.865808 0.568328
v 0.189443 5.865808 -0.568328
v 0.423607 5.865808 -0.423607
v 0.568328 5.865808 -0.189443
v 0.568328 5.865808 0.189443
v 0.423607 5.865808 0.423607
v 0.423607 5.717560 0.423607
v 0.568328 5.717560 0.189443
v 0.568328 5.717560 -0.189443
v 0.423607 5.717560 -0.423607
v 0.189443 5.717560 -0.568328
v 0.189443 5.717560 0.568328
v -0.189443 5.717560 -0.568328
v -0.189443 5.717560 0.568328
v -0.423607 5.717560 -0.423607
v -0.568328 5.717560 -0.189443
v -0.568328 5.717560 0.189443
v -0.423607 5.717560 0.423607
v 0.443558 4.887167 0.443558
v 0.423607 5.717560 0.423607
v 0.476379 5.092867 0.476379
v 0.476379 5.322276 0.476379
v 0.443558 5.527977 0.443558
v 0.595096 4.887167 0.198365
v 0.568328 5.717560 0.189443
v 0.639129 5.092867 0.213043
v 0.639129 5.322276 0.213043
v 0.595096 5.527977 0.198365
v 0.595096 4.887167 -0.198365
v 0.568328 5.717560 -0.189443
v 0.639129 5.092867 -0.213043
v 0.639129 5.322276 -0.213043
v 0.595096 5.527977 -0.198365
v 0.423607 5.717560 -0.423607
v 0.443558 4.887167 -0.443558
v 0.443558 5.527977 -0.443558
v 0.476379 5.322276 -0.476379
v 0.476379 5.092867 -0.476379
v 0.198365 4.887167 -0.595096
v 0.189443 5.717560 -0.568328
v 0.213043 5.092867 -0.639129
v 0.213043 5.322276 -0.639129
v 0.198365 5.527977 -0.595096
v 0.189443 5.717560 0.568328
v 0.198365 4.887167 0.595096
v 0.198365 5.527977 0.595096
v 0.213043 5.322276 0.639129
v 0.213043 5.092867 0.639129
v -0.198365 4.887167 -0.595096
v -0.189443 5.717560 -0.568328
v -0.213043 5.092867 -0.639129
v -0.213043 5.322276 -0.639129
v -0.198365 5.527977 -0.595096
v -0.189443 5.717560 0.568328
v -0.198365 4.887167 0.595096
v -0.198365 5.527977 0.595096
v -0.213043 5.322276 0.639129
v -0.213043 5.092867 0.639129
v -0.443558 4.887167 -0.443558
v -0.423607 5.717560 -0.423607
v -0.476379 5.092867 -0.476379
v -0.476379 5.322276 -0.476379
v -0.443558 5.527977 -0.443558
v -0.568328 5.717560 -0.189443
v -0.595096 4.887167 -0.198365
v -0.595096 5.527977 -0.198365
v -0.639129 5.322276 -0.213043
v -0.639129 5.092867 -0.213043
v -0.568328 5.717560 0.189443
v -0.595096 4.887167 0.198365
v -0.595096 5.527977 0.198365
v -0.639129 5.322276 0.213043
v -0.639129 5.092867 0.213043
v -0.423607 5.717560 0.423607
v -0.443558 4.887167 0.443558
v -0.443558 5.527977 0.443558
v -0.476379 5.322276 0.476379
v -0.476379 5.092867 0.476379
v -0.322160 5.848926 -0.966479
v -0.322160 5.734445 -0.966479
v 0.966479 5.734445 0.322160
v 0.966479 5.848926 0.322160
v -0.322160 5.734445 0.966479
v -0.322160 5.848926 0.966479
v 0.322160 5.734445 -0.966479
v 0.322160 5.848926 -0.966479
v -0.720371 5.848926 0.720371
v -0.966479 5.848926 -0.322160
v -0.966479 5.848926 0.322160
v 0.966479 5.848926 -0.322160
v 0.720371 5.848926 -0.720371
v -0.720371 5.734445 0.720371
v 0.720371 5.734445 -0.720371
v 0.720371 5.848926 0.720371
v -0.966479 5.734445 -0.322160
v 0.720371 5.734445 0.720371
v 0.322160 5.734445 0.966479
v -0.720371 5.734445 -0.720371
v -0.966479 5.734445 0.322160
v 0.966479 5.734445 -0.322160
v -0.720371 5.848926 -0.720371
v 0.322160 5.848926 0.966479
v -1.000000 0.794353 5.174035
v -1.000000 0.988678 5.063885
v -1.000000 -0.191891 3.434114
v -1.000000 0.002434 3.323964
v 1.000000 0.794353 5.174035
v 1.000000 0.988678 5.063885
v 1.000000 -0.191891 3.434114
v 1.000000 0.002434 3.323964
v 0.600000 -0.191891 3.434114
v 0.200000 -0.191891 3.434114
v -0.200000 -0.191891 3.434114
v -0.600000 -0.191891 3.434114
v -0.600000 0.002434 3.323964
v -0.200000 0.002434 3.323964
v 0.200000 0.002434 3.323964
v 0.600000 0.002434 3.323964
v -0.600000 0.794353 5.174035
v -0.200000 0.794353 5.174035
v 0.200000 0.794353 5.174035
v 0.600000 0.794353 5.174035
v 0.600000 0.988678 5.063885
v 0.200000 0.988678 5.063885
v -0.200000 0.988678 5.063885
v -0.600000 0.988678 5.063885
v -1.000000 0.005358 3.782099
v -1.000000 0.202606 4.130083
v -1.000000 0.399855 4.478066
v -1.000000 0.597104 4.826051
v -1.000000 0.791429 4.715900
v -1.000000 0.594181 4.367917
v -1.000000 0.396932 4.019933
v -1.000000 0.199683 3.671948
v 1.000000 0.597104 4.826051
v 1.000000 0.399855 4.478066
v 1.000000 0.202606 4.130083
v 1.000000 0.005358 3.782099
v 1.000000 0.199683 3.671948
v 1.000000 0.396932 4.019933
v 1.000000 0.594181 4.367917
v 1.000000 0.791429 4.715900
v 0.423607 0.286667 3.825403
v 0.568328 0.402138 4.029117
v 0.568328 0.588975 4.358732
v 0.423607 0.704446 4.562446
v 0.189443 0.215301 3.699502
v -0.423607 5.710302 1.724963
v -0.568328 5.594831 1.521249
v 0.189443 0.775811 4.688347
v -0.189443 0.215301 3.699502
v -0.568328 5.407994 1.191634
v -0.423607 5.292523 0.987920
v -0.189443 0.775811 4.688347
v -0.423607 0.286667 3.825403
v -0.568328 0.402138 4.029117
v -0.568328 0.588975 4.358732
v -0.423607 0.704446 4.562446
v -0.600000 0.005358 3.782099
v -0.600000 0.202606 4.130083
v -0.600000 0.399855 4.478066
v -0.600000 0.597104 4.826051
v -0.200000 0.005358 3.782099
v -0.200000 0.202606 4.130083
v -0.200000 0.399855 4.478066
v -0.200000 0.597104 4.826051
v 0.200000 0.005358 3.782099
v 0.200000 0.202606 4.130083
v 0.200000 0.399855 4.478066
v 0.200000 0.597104 4.826051
v 0.600000 0.005358 3.782099
v 0.600000 0.202606 4.130083
v 0.600000 0.399855 4.478066
v 0.600000 0.597104 4.826051
v -0.189443 5.781668 1.850864
v -0.189443 5.221158 0.862019
v 0.189443 5.781668 1.850864
v 0.189443 5.221158 0.862019
v 0.423607 5.292523 0.987920
v 0.568328 5.407994 1.191634
v 0.568328 5.594831 1.521249
v 0.423607 5.710302 1.724963
v 0.423607 5.581333 1.798067
v 0.568328 5.465861 1.594353
v 0.568328 5.279025 1.264738
v 0.423607 5.163553 1.061025
v 0.189443 5.092188 0.935123
v 0.189443 5.652698 1.923969
v -0.189443 5.092188 0.935123
v -0.189443 5.652698 1.923969
v -0.423607 5.163553 1.061025
v -0.568328 5.279025 1.264738
v -0.568328 5.465861 1.594353
v -0.423607 5.581333 1.798067
v 0.443558 4.868762 2.224909
v 0.423607 5.581333 1.798067
v 0.476379 5.063898 2.152026
v 0.476379 5.263475 2.038899
v 0.443558 5.426241 1.908911
v 0.595096 4.747852 2.011601
v 0.568328 5.465861 1.594353
v 0.639129 4.934042 1.922934
v 0.639129 5.133618 1.809808
v 0.595096 5.305331 1.695603
v 0.595096 4.552216 1.666461
v 0.568328 5.279025 1.264738
v 0.639129 4.723929 1.552256
v 0.639129 4.923506 1.439130
v 0.595096 5.109695 1.350463
v 0.423607 5.163553 1.061025
v 0.443558 4.431306 1.453153
v 0.443558 4.988785 1.137155
v 0.476379 4.793649 1.210038
v 0.476379 4.594072 1.323165
v 0.198365 4.356579 1.321321
v 0.189443 5.092188 0.935123
v 0.213043 4.513817 1.181578
v 0.213043 4.713393 1.068452
v 0.198365 4.914058 1.005323
v 0.189443 5.652698 1.923969
v 0.198365 4.943489 2.356740
v 0.198365 5.500968 2.040743
v 0.213043 5.343731 2.180486
v 0.213043 5.144154 2.293612
v -0.198365 4.356579 1.321321
v -0.189443 5.092188 0.935123
v -0.213043 4.513817 1.181578
v -0.213043 4.713393 1.068452
v -0.198365 4.914058 1.005323
v -0.189443 5.652698 1.923969
v -0.198365 4.943489 2.356740
v -0.198365 5.500968 2.040743
v -0.213043 5.343731 2.180486
v -0.213043 5.144154 2.293612
v -0.443558 4.431306 1.453153
v -0.423607 5.163553 1.061025
v -0.476379 4.594072 1.323165
v -0.476379 4.793649 1.210038
v -0.443558 4.988785 1.137155
v -0.568328 5.279025 1.264738
v -0.595096 4.552216 1.666461
v -0.595096 5.109695 1.350463
v -0.639129 4.923506 1.439130
v -0.639129 4.723929 1.552256
v -0.568328 5.465861 1.594353
v -0.595096 4.747852 2.011601
v -0.595096 5.305331 1.695603
v -0.639129 5.133618 1.809808
v -0.639129 4.934042 1.922934
v -0.423607 5.581333 1.798067
v -0.443558 4.868762 2.224909
v -0.443558 5.426241 1.908911
v -0.476379 5.263475 2.038899
v -0.476379 5.063898 2.152026
v -0.322160 5.010134 0.523969
v -0.322160 4.910540 0.580421
v 0.966479 5.545996 1.701486
v 0.966479 5.645590 1.645033
v -0.322160 5.863724 2.262018
v -0.322160 5.963317 2.205564
v 0.322160 4.910540 0.580421
v 0.322160 5.010134 0.523969
v -0.720371 5.841956 1.991460
v -0.966479 5.327862 1.084501
v -0.966479 5.645590 1.645033
v 0.966479 5.327862 1.084501
v 0.720371 5.131495 0.738073
v -0.720371 5.742362 2.047913
v 0.720371 5.031902 0.794526
v 0.720371 5.841956 1.991460
v -0.966479 5.228268 1.140954
v 0.720371 5.742362 2.047913
v 0.322160 5.863724 2.262018
v -0.720371 5.031902 0.794526
v -0.966479 5.545996 1.701486
v 0.966479 5.228268 1.140954
v -0.720371 5.131495 0.738073
v 0.322160 5.963317 2.205564
vn -1.0000 -0.0000 -0.0000
vn -0.0000 -0.0000 -1.0000
vn 1.0000 -0.0000 -0.0000
vn -0.0000 -0.0000 1.0000
vn -0.0000 -1.0000 -0.0000
vn -0.0000 1.0000 -0.0000
vn -0.0351 -0.9991 -0.0217
vn 0.0351 0.9991 0.0217
vn -0.0424 0.9991 -0.0000
vn 0.0217 -0.9991 0.0351
vn -0.0424 -0.9991 -0.0000
vn -0.0217 0.9991 0.0351
vn -0.0351 0.9991 -0.0217
vn -0.0351 -0.9991 0.0217
vn -0.0000 0.9991 0.0424
vn -0.0217 -0.9991 -0.0351
vn 0.0217 0.9991 -0.0351
vn -0.0217 0.9991 -0.0351
vn 0.5135 -0.2145 0.8309
vn 0.5257 -0.0000 0.8507
vn 0.5135 0.2145 0.8309
vn 0.5203 0.1434 0.8419
vn 0.5203 0.1434 -0.8419
vn 0.5135 0.2145 -0.8309
vn 0.5257 -0.0000 -0.8507
vn 0.5135 -0.2145 -0.8309
vn -0.0000 -0.2093 0.9778
vn -0.0000 0.2093 0.9778
vn -0.0000 0.1398 0.9902
vn -0.0000 0.1398 -0.9902
vn -0.0000 0.2093 -0.9778
vn -0.0000 -0.2093 -0.9778
vn -0.5135 -0.2145 0.8309
vn -0.5257 -0.0000 0.8507
vn -0.5135 0.2145 0.8309
vn -0.5203 0.1434 0.8419
vn -0.5203 0.1434 -0.8419
vn -0.5135 0.2145 -0.8309
vn -0.5257 -0.0000 -0.8507
vn -0.5135 -0.2145 -0.8309
vn -0.8309 -0.2145 0.5135
vn -0.8507 -0.0000 0.5257
vn -0.8309 0.2145 0.5135
vn -0.8419 0.1434 0.5203
vn -0.9778 -0.2093 -0.0000
vn -0.9778 0.2093 -0.0000
vn -0.9902 0.1398 -0.0000
vn -0.8309 -0.2145 -0.5135
vn -0.8507 -0.0000 -0.5257
vn -0.8309 0.2145 -0.5135
vn -0.8419 0.1434 -0.5203
vn 0.8419 0.1434 0.5203
vn 0.8309 0.2145 0.5135
vn 0.8507 -0.0000 0.5257
vn 0.8309 -0.2145 0.5135
vn 0.9902 0.1398 -0.0000
vn 0.9778 0.2093 -0.0000
vn 0.9778 -0.2093 -0.0000
vn 0.8419 0.1434 -0.5203
vn 0.8309 0.2145 -0.5135
vn 0.8507 -0.0000 -0.5257
vn 0.8309 -0.2145 -0.5135
vn 0.5257 -0.0058 0.8506
vn 0.8506 -0.0058 0.5257
vn 1.0000 -0.0056 -0.0000
vn 0.8506 -0.0058 -0.5257
vn 0.5257 -0.0058 -0.8506
vn -0.0000 -0.0056 -1.0000
vn -0.0000 -0.0056 1.0000
vn -0.5257 -0.0058 -0.8506
vn -0.5257 -0.0058 0.8506
vn -0.8506 -0.0058 -0.5257
vn -1.0000 -0.0056 -0.0000
vn -0.8506 -0.0058 0.5257
vn 0.0217 -0.9991 -0.0351
vn -0.0351 0.9991 0.0217
vn 0.0351 -0.9991 0.0217
vn -0.0000 -0.9991 0.0424
vn 0.0217 0.9991 0.0351
vn -0.0000 0.9991 -0.0424
vn 0.0424 -0.9991 -0.0000
vn 0.0424 0.9991 -0.0000
vn -0.0000 -0.9991 -0.0424
vn 0.0351 0.9991 -0.0217
vn 0.0351 -0.9991 -0.0217
vn -0.0217 -0.9991 0.0351
vn -0.0000 -0.4931 -0.8700
vn -0.0000 0.4931 0.8700
vn -0.0000 -0.8700 0.4931
vn -0.0000 0.8700 -0.4931
vn -0.0351 -0.8799 0.4738
vn 0.0351 0.8799 -0.4738
vn -0.0424 0.8692 -0.4927
vn 0.0217 -0.8519 0.5233
vn -0.0424 -0.8692 0.4927
vn -0.0217 0.8865 -0.4621
vn -0.0351 0.8585 -0.5116
vn -0.0351 -0.8585 0.5116
vn -0.0000 0.8901 -0.4558
vn -0.0217 -0.8865 0.4621
vn 0.0217 0.8519 -0.5233
vn -0.0217 0.8519 -0.5233
vn 0.5135 0.2231 0.8286
vn 0.5257 0.4195 0.7400
vn 0.5135 0.5963 0.6170
vn 0.5203 0.5399 0.6617
vn 0.5203 -0.2904 -0.8031
vn 0.5135 -0.2231 -0.8286
vn 0.5257 -0.4195 -0.7400
vn 0.5135 -0.5963 -0.6170
vn -0.0000 0.3001 0.9539
vn -0.0000 0.6643 0.7475
vn -0.0000 0.6099 0.7925
vn -0.0000 -0.3667 -0.9304
vn -0.0000 -0.3001 -0.9539
vn -0.0000 -0.6643 -0.7475
vn -0.5135 0.2231 0.8286
vn -0.5257 0.4195 0.7400
vn -0.5135 0.5963 0.6170
vn -0.5203 0.5399 0.6617
vn -0.5203 -0.2904 -0.8031
vn -0.5135 -0.2231 -0.8286
vn -0.5257 -0.4195 -0.7400
vn -0.5135 -0.5963 -0.6170
vn -0.8309 0.0666 0.5525
vn -0.8507 0.2592 0.4574
vn -0.8309 0.4398 0.3409
vn -0.8419 0.3813 0.3820
vn -0.9778 -0.1821 0.1032
vn -0.9778 0.1821 -0.1032
vn -0.9902 0.1216 -0.0689
vn -0.8309 -0.4398 -0.3409
vn -0.8507 -0.2592 -0.4574
vn -0.8309 -0.0666 -0.5525
vn -0.8419 -0.1319 -0.5233
vn 0.8419 0.3813 0.3820
vn 0.8309 0.4398 0.3409
vn 0.8507 0.2592 0.4574
vn 0.8309 0.0666 0.5525
vn 0.9902 0.1216 -0.0689
vn 0.9778 0.1821 -0.1032
vn 0.9778 -0.1821 0.1032
vn 0.8419 -0.1319 -0.5233
vn 0.8309 -0.0666 -0.5525
vn 0.8507 -0.2592 -0.4574
vn 0.8309 -0.4398 -0.3409
vn 0.5257 0.4145 0.7429
vn 0.8506 0.2542 0.4602
vn 1.0000 -0.0049 0.0028
vn 0.8506 -0.2642 -0.4545
vn 0.5257 -0.4245 -0.7372
vn -0.0000 -0.4980 -0.8672
vn -0.0000 0.4882 0.8727
vn -0.5257 -0.4245 -0.7372
vn -0.5257 0.4145 0.7429
vn -0.8506 -0.2642 -0.4545
vn -1.0000 -0.0049 0.0028
vn -0.8506 0.2542 0.4602
vn 0.0217 -0.8865 0.4621
vn -0.0351 0.8799 -0.4738
vn 0.0351 -0.8585 0.5116
vn -0.0000 -0.8483 0.5295
vn 0.0217 0.8865 -0.4621
vn -0.0000 0.8483 -0.5295
vn 0.0424 -0.8692 0.4927
vn 0.0424 0.8692 -0.4927
vn -0.0000 -0.8901 0.4558
vn 0.0351 0.8585 -0.5116
vn 0.0351 -0.8799 0.4738
vn -0.0217 -0.8519 0.5233
vt 0.175454 0.046849
vt 0.175454 0.000084
vt 0.184807 0.000084
vt 0.184807 0.046849
vt 0.222219 0.046849
vt 0.222219 0.000084
vt 0.231572 0.000084
vt 0.231572 0.046849
vt 0.268984 0.046849
vt 0.268984 0.000084
vt 0.278337 0.000084
vt 0.278337 0.046849
vt 0.128689 0.046849
vt 0.128689 0.000084
vt 0.138042 0.000084
vt 0.138042 0.046849
vt 0.128689 0.300665
vt 0.128689 0.291312
vt 0.138042 0.291312
vt 0.138042 0.300665
vt 0.104755 0.371533
vt 0.100630 0.385010
vt 0.091277 0.385010
vt 0.091277 0.375657
vt 0.100630 0.338245
vt 0.104755 0.351723
vt 0.091277 0.347598
vt 0.091277 0.338245
vt 0.101371 0.357198
vt 0.091277 0.356951
vt 0.101371 0.366057
vt 0.091277 0.366304
vt 0.128689 0.338077
vt 0.128689 0.328724
vt 0.138042 0.328724
vt 0.138042 0.338077
vt 0.128689 0.319371
vt 0.138042 0.319371
vt 0.128689 0.310018
vt 0.138042 0.310018
vt 0.091277 0.046849
vt 0.091277 0.000084
vt 0.100630 0.000084
vt 0.100630 0.046849
vt 0.109983 0.000084
vt 0.109983 0.046849
vt 0.119336 0.000084
vt 0.119336 0.046849
vt 0.194160 0.000084
vt 0.194160 0.046849
vt 0.203513 0.000084
vt 0.203513 0.046849
vt 0.212866 0.000084
vt 0.212866 0.046849
vt 0.091277 0.310018
vt 0.091277 0.300665
vt 0.100630 0.300665
vt 0.100630 0.310018
vt 0.109983 0.300665
vt 0.109983 0.310018
vt 0.119336 0.300665
vt 0.119336 0.310018
vt 0.091277 0.319371
vt 0.100630 0.319371
vt 0.109983 0.319371
vt 0.119336 0.319371
vt 0.091277 0.328724
vt 0.100630 0.328724
vt 0.109983 0.328724
vt 0.119336 0.328724
vt 0.091277 0.338077
vt 0.100630 0.338077
vt 0.109983 0.338077
vt 0.119336 0.338077
vt 0.138042 0.366304
vt 0.138042 0.375657
vt 0.124565 0.371533
vt 0.127949 0.366057
vt 0.114471 0.388912
vt 0.114471 0.408722
vt 0.094661 0.408722
vt 0.094661 0.388912
vt 0.138042 0.356951
vt 0.127949 0.357198
vt 0.100137 0.385528
vt 0.108996 0.385528
vt 0.106041 0.205464
vt 0.102327 0.210721
vt 0.092708 0.206686
vt 0.099024 0.197746
vt 0.138042 0.347598
vt 0.124565 0.351723
vt 0.130627 0.263911
vt 0.127974 0.258046
vt 0.136322 0.251794
vt 0.140835 0.261767
vt 0.101485 0.263911
vt 0.102326 0.272730
vt 0.092708 0.276765
vt 0.091277 0.261767
vt 0.117719 0.231276
vt 0.123808 0.229192
vt 0.129239 0.238097
vt 0.118883 0.241641
vt 0.138042 0.338245
vt 0.128689 0.338245
vt 0.119090 0.348339
vt 0.119336 0.338245
vt 0.110230 0.348339
vt 0.109983 0.338245
vt 0.138042 0.385010
vt 0.128689 0.385010
vt 0.119336 0.385010
vt 0.119090 0.374917
vt 0.109983 0.385010
vt 0.110230 0.374917
vt 0.091277 0.291312
vt 0.100630 0.291312
vt 0.109983 0.291312
vt 0.119336 0.291312
vt 0.240925 0.000084
vt 0.240925 0.046849
vt 0.250278 0.000084
vt 0.250278 0.046849
vt 0.259631 0.000084
vt 0.259631 0.046849
vt 0.147395 0.000084
vt 0.147395 0.046849
vt 0.156748 0.000084
vt 0.156748 0.046849
vt 0.166101 0.000084
vt 0.166101 0.046849
vt 0.101485 0.219540
vt 0.091277 0.221683
vt 0.109019 0.253850
vt 0.104139 0.258046
vt 0.095790 0.251794
vt 0.104089 0.244658
vt 0.106040 0.277987
vt 0.099024 0.285705
vt 0.104139 0.225404
vt 0.095789 0.231656
vt 0.108996 0.412106
vt 0.100137 0.412106
vt 0.117855 0.394388
vt 0.117855 0.403247
vt 0.091277 0.403247
vt 0.091277 0.394388
vt 0.117719 0.252175
vt 0.118884 0.241810
vt 0.111627 0.202266
vt 0.108524 0.192307
vt 0.120486 0.281185
vt 0.126072 0.277987
vt 0.133088 0.285705
vt 0.123589 0.291143
vt 0.111626 0.281185
vt 0.108523 0.291143
vt 0.091630 0.056284
vt 0.091277 0.049483
vt 0.134738 0.047018
vt 0.134924 0.054293
vt 0.183200 0.047018
vt 0.183014 0.054295
vt 0.226686 0.049478
vt 0.226345 0.056290
vt 0.266819 0.051610
vt 0.266492 0.058118
vt 0.265698 0.111034
vt 0.265828 0.117540
vt 0.225703 0.118503
vt 0.225569 0.111685
vt 0.182681 0.119508
vt 0.182612 0.112375
vt 0.135226 0.119489
vt 0.135299 0.112357
vt 0.092230 0.118460
vt 0.092365 0.111641
vt 0.091997 0.065639
vt 0.135119 0.064230
vt 0.182817 0.064236
vt 0.225972 0.065664
vt 0.266127 0.067077
vt 0.265602 0.102077
vt 0.225467 0.102319
vt 0.182561 0.102563
vt 0.135357 0.102548
vt 0.092467 0.102292
vt 0.092194 0.072462
vt 0.135222 0.071395
vt 0.182711 0.071403
vt 0.225766 0.072486
vt 0.265920 0.073587
vt 0.265591 0.095567
vt 0.225452 0.095498
vt 0.182553 0.095460
vt 0.135369 0.095446
vt 0.092483 0.095465
vt 0.092340 0.079285
vt 0.135297 0.078531
vt 0.182634 0.078541
vt 0.225613 0.079308
vt 0.265763 0.080097
vt 0.092457 0.088638
vt 0.135357 0.088344
vt 0.182570 0.088356
vt 0.225486 0.088677
vt 0.265629 0.089057
vt 0.266336 0.132994
vt 0.266635 0.139492
vt 0.226562 0.141487
vt 0.226238 0.134685
vt 0.183139 0.143867
vt 0.182962 0.136599
vt 0.134745 0.143840
vt 0.134930 0.136575
vt 0.091350 0.141413
vt 0.091690 0.134620
vt 0.266007 0.124044
vt 0.225891 0.125320
vt 0.182778 0.126669
vt 0.135123 0.126648
vt 0.092044 0.125275
vt 0.122115 0.385179
vt 0.128283 0.385179
vt 0.128286 0.385185
vt 0.122119 0.385185
vt 0.082625 0.000096
vt 0.089062 0.000084
vt 0.091109 0.999869
vt 0.084369 0.999882
vt 0.122119 0.385360
vt 0.115951 0.385360
vt 0.115948 0.385354
vt 0.122115 0.385354
vt 0.002131 0.000084
vt 0.008568 0.000096
vt 0.006824 0.999882
vt 0.000084 0.999869
vt 0.109784 0.385360
vt 0.109780 0.385354
vt 0.017427 0.000110
vt 0.016101 0.999896
vt 0.103616 0.385360
vt 0.103613 0.385354
vt 0.023864 0.000118
vt 0.022840 0.999904
vt 0.097449 0.385360
vt 0.097445 0.385354
vt 0.030301 0.000123
vt 0.029580 0.999910
vt 0.091281 0.385360
vt 0.091277 0.385354
vt 0.039160 0.000128
vt 0.038857 0.999915
vt 0.073766 0.000110
vt 0.075093 0.999896
vt 0.115948 0.385179
vt 0.115951 0.385185
vt 0.091277 0.423389
vt 0.097937 0.423389
vt 0.097941 0.423396
vt 0.091281 0.423396
vt 0.045596 0.000129
vt 0.045597 0.999916
vt 0.067329 0.000118
vt 0.068353 0.999904
vt 0.109780 0.385179
vt 0.109784 0.385185
vt 0.091277 0.385179
vt 0.097445 0.385179
vt 0.097449 0.385185
vt 0.091281 0.385185
vt 0.052033 0.000128
vt 0.052336 0.999915
vt 0.103613 0.385179
vt 0.103616 0.385185
vt 0.060892 0.000123
vt 0.061613 0.999910
vt 0.102223 0.168003
vt 0.091277 0.168003
vt 0.091277 0.144035
vt 0.102223 0.144035
vt 0.139181 0.168003
vt 0.128235 0.168003
vt 0.128235 0.144035
vt 0.139181 0.144035
vt 0.117289 0.168003
vt 0.117289 0.144035
vt 0.091277 0.423221
vt 0.091277 0.412275
vt 0.115245 0.412275
vt 0.115245 0.423221
vt 0.165193 0.168003
vt 0.154247 0.168003
vt 0.154247 0.144035
vt 0.165193 0.144035
vt 0.117289 0.192139
vt 0.106343 0.192139
vt 0.106343 0.168171
vt 0.117289 0.168171
vt 0.128235 0.192139
vt 0.128235 0.168171
vt 0.143301 0.192139
vt 0.143301 0.168171
vt 0.091277 0.192139
vt 0.091277 0.168171
vt 0.154247 0.192139
vt 0.154247 0.168171
vt 0.126072 0.205464
vt 0.120486 0.202266
vt 0.123589 0.192307
vt 0.133089 0.197746
vt 0.127974 0.225404
vt 0.130628 0.219540
vt 0.140836 0.221683
vt 0.136324 0.231656
vt 0.109019 0.229601
vt 0.104089 0.238793
vt 0.123809 0.254260
vt 0.129240 0.245355
vt 0.129786 0.210721
vt 0.139405 0.206686
vt 0.129786 0.272730
vt 0.139404 0.276765
vt 0.091267 0.084258
vt 0.138032 0.084258
vt 0.138032 0.093611
vt 0.091267 0.093611
vt 0.091267 0.131023
vt 0.138032 0.131023
vt 0.138032 0.140376
vt 0.091267 0.140376
vt 0.091267 0.177789
vt 0.138032 0.177789
vt 0.138032 0.187142
vt 0.091267 0.187142
vt 0.091267 0.037493
vt 0.138032 0.037493
vt 0.138032 0.046846
vt 0.091267 0.046846
vt 0.128679 0.224715
vt 0.138032 0.224715
vt 0.138032 0.234068
vt 0.128679 0.234068
vt 0.201166 0.258687
vt 0.197041 0.272165
vt 0.187688 0.272165
vt 0.187688 0.262812
vt 0.197041 0.225400
vt 0.201166 0.238877
vt 0.187688 0.234753
vt 0.187688 0.225400
vt 0.197782 0.244353
vt 0.187688 0.244106
vt 0.197782 0.253212
vt 0.187688 0.253459
vt 0.091267 0.224715
vt 0.100620 0.224715
vt 0.100620 0.234068
vt 0.091267 0.234068
vt 0.109973 0.224715
vt 0.109973 0.234068
vt 0.119326 0.224715
vt 0.119326 0.234068
vt 0.091267 0.000080
vt 0.138032 0.000080
vt 0.138032 0.009433
vt 0.091267 0.009433
vt 0.138032 0.018787
vt 0.091267 0.018787
vt 0.138032 0.028140
vt 0.091267 0.028140
vt 0.138032 0.102964
vt 0.091267 0.102964
vt 0.138032 0.112317
vt 0.091267 0.112317
vt 0.138032 0.121670
vt 0.091267 0.121670
vt 0.119326 0.187303
vt 0.128679 0.187303
vt 0.128679 0.196656
vt 0.119326 0.196656
vt 0.128679 0.206009
vt 0.119326 0.206009
vt 0.128679 0.215362
vt 0.119326 0.215362
vt 0.109973 0.187303
vt 0.109973 0.196656
vt 0.109973 0.206009
vt 0.109973 0.215362
vt 0.100620 0.187303
vt 0.100620 0.196656
vt 0.100620 0.206009
vt 0.100620 0.215362
vt 0.091267 0.187303
vt 0.091267 0.196656
vt 0.091267 0.206009
vt 0.091267 0.215362
vt 0.234453 0.253459
vt 0.234453 0.262812
vt 0.220976 0.258687
vt 0.224360 0.253212
vt 0.141577 0.248595
vt 0.141577 0.228785
vt 0.161387 0.228785
vt 0.161387 0.248595
vt 0.234453 0.244106
vt 0.224360 0.244353
vt 0.155911 0.251979
vt 0.147052 0.251979
vt 0.151349 0.190445
vt 0.148151 0.196031
vt 0.138193 0.192928
vt 0.143631 0.183428
vt 0.234453 0.234753
vt 0.220976 0.238877
vt 0.214921 0.215031
vt 0.220785 0.212378
vt 0.227037 0.220727
vt 0.217064 0.225239
vt 0.214921 0.185889
vt 0.206101 0.186730
vt 0.202067 0.177112
vt 0.217064 0.175681
vt 0.165425 0.215032
vt 0.171290 0.212379
vt 0.177542 0.220728
vt 0.167569 0.225240
vt 0.234453 0.225400
vt 0.225100 0.225400
vt 0.215500 0.235493
vt 0.215747 0.225400
vt 0.206641 0.235493
vt 0.206394 0.225400
vt 0.234453 0.272165
vt 0.225100 0.272165
vt 0.215747 0.272165
vt 0.215500 0.262071
vt 0.206394 0.272165
vt 0.206641 0.262071
vt 0.138032 0.187303
vt 0.138032 0.196656
vt 0.138032 0.206009
vt 0.138032 0.215362
vt 0.138032 0.149730
vt 0.091267 0.149730
vt 0.138032 0.159083
vt 0.091267 0.159083
vt 0.138032 0.168436
vt 0.091267 0.168436
vt 0.138032 0.056199
vt 0.091267 0.056199
vt 0.138032 0.065552
vt 0.091267 0.065552
vt 0.138032 0.074905
vt 0.091267 0.074905
vt 0.148151 0.204890
vt 0.138193 0.207994
vt 0.224981 0.193423
vt 0.220785 0.188542
vt 0.227037 0.180193
vt 0.234173 0.188493
vt 0.200844 0.190444
vt 0.193127 0.183428
vt 0.151349 0.210476
vt 0.143631 0.217493
vt 0.147052 0.225401
vt 0.155912 0.225401
vt 0.138193 0.243119
vt 0.138193 0.234260
vt 0.164771 0.234260
vt 0.164771 0.243119
vt 0.226656 0.202123
vt 0.237021 0.203288
vt 0.156606 0.186731
vt 0.152571 0.177112
vt 0.197646 0.204890
vt 0.200844 0.210476
vt 0.193127 0.217492
vt 0.187688 0.207993
vt 0.197646 0.196030
vt 0.187688 0.192927
vt 0.225781 0.000430
vt 0.232583 0.000080
vt 0.235032 0.043534
vt 0.227760 0.043719
vt 0.235032 0.091971
vt 0.227759 0.091788
vt 0.232598 0.135423
vt 0.225793 0.135089
vt 0.230532 0.175514
vt 0.224030 0.175204
vt 0.171107 0.174526
vt 0.164596 0.174662
vt 0.163589 0.134515
vt 0.170409 0.134374
vt 0.162557 0.091483
vt 0.169692 0.091411
vt 0.162566 0.044022
vt 0.169699 0.044095
vt 0.163596 0.001019
vt 0.170416 0.001155
vt 0.216426 0.000794
vt 0.217824 0.043913
vt 0.217823 0.091595
vt 0.216425 0.134728
vt 0.215077 0.174859
vt 0.180071 0.174413
vt 0.179777 0.134264
vt 0.179504 0.091356
vt 0.179509 0.044152
vt 0.179767 0.001258
vt 0.209602 0.000989
vt 0.210661 0.044016
vt 0.210659 0.091492
vt 0.209605 0.134530
vt 0.208569 0.174668
vt 0.186585 0.174388
vt 0.186598 0.134241
vt 0.186607 0.091345
vt 0.186611 0.044163
vt 0.186595 0.001274
vt 0.202778 0.001134
vt 0.203525 0.044090
vt 0.203523 0.091418
vt 0.202786 0.134385
vt 0.202059 0.174526
vt 0.193424 0.001249
vt 0.193713 0.044150
vt 0.193710 0.091358
vt 0.193418 0.134268
vt 0.193098 0.174412
vt 0.149132 0.175185
vt 0.142629 0.175490
vt 0.140595 0.135392
vt 0.147400 0.135064
vt 0.138193 0.091951
vt 0.145462 0.091771
vt 0.138211 0.043544
vt 0.145477 0.043728
vt 0.140638 0.000139
vt 0.147433 0.000480
vt 0.158087 0.174847
vt 0.156770 0.134709
vt 0.155396 0.091583
vt 0.155407 0.043920
vt 0.156779 0.000833
vt 0.230535 0.175521
vt 0.224034 0.175212
vt 0.082622 0.000093
vt 0.089058 0.000080
vt 0.091106 0.999873
vt 0.084366 0.999886
vt 0.149137 0.175193
vt 0.142633 0.175497
vt 0.002127 0.000080
vt 0.008564 0.000093
vt 0.006820 0.999886
vt 0.000080 0.999873
vt 0.158092 0.174855
vt 0.017424 0.000106
vt 0.016097 0.999900
vt 0.164600 0.174668
vt 0.023860 0.000114
vt 0.022837 0.999908
vt 0.171111 0.174536
vt 0.030297 0.000119
vt 0.029577 0.999914
vt 0.180076 0.174421
vt 0.039156 0.000124
vt 0.038853 0.999919
vt 0.073762 0.000106
vt 0.075089 0.999900
vt 0.215081 0.174866
vt 0.186589 0.174395
vt 0.045593 0.000125
vt 0.045593 0.999920
vt 0.067326 0.000114
vt 0.068349 0.999908
vt 0.208573 0.174674
vt 0.193103 0.174420
vt 0.052030 0.000124
vt 0.052333 0.999919
vt 0.202064 0.174534
vt 0.060889 0.000119
vt 0.061610 0.999914
vt 0.235193 0.011026
vt 0.235193 0.000080
vt 0.259161 0.000080
vt 0.259161 0.011026
vt 0.235193 0.047984
vt 0.235193 0.037038
vt 0.259161 0.037038
vt 0.259161 0.047984
vt 0.235193 0.026092
vt 0.259161 0.026092
vt 0.235193 0.084942
vt 0.235193 0.073996
vt 0.259161 0.073996
vt 0.259161 0.084942
vt 0.235193 0.063050
vt 0.259161 0.063050
vt 0.235193 0.110954
vt 0.235193 0.100008
vt 0.259161 0.100008
vt 0.259161 0.110954
vt 0.235193 0.121900
vt 0.259161 0.121900
vt 0.235193 0.136966
vt 0.259161 0.136966
vt 0.235193 0.147912
vt 0.259161 0.147912
vt 0.171290 0.188543
vt 0.165425 0.185889
vt 0.167569 0.175681
vt 0.177542 0.180193
vt 0.175078 0.208213
vt 0.177162 0.202123
vt 0.187527 0.203287
vt 0.183983 0.213643
vt 0.156606 0.214190
vt 0.152571 0.223809
vt 0.224572 0.208213
vt 0.233477 0.213644
vt 0.175487 0.193423
vt 0.184678 0.188493
vt 0.206101 0.214190
vt 0.202067 0.223808
s 0
f 25/1/1 32/2/1 4/3/1 3/4/1
f 9/5/2 16/6/2 8/7/2 7/8/2
f 33/9/3 40/10/3 6/11/3 5/12/3
f 17/13/4 24/14/4 2/15/4 1/16/4
f 72/17/5 33/18/5 5/19/5 20/20/5
f 56/21/6 29/22/6 2/23/6 24/24/6
f 40/25/6 44/26/6 21/27/6 6/28/6
f 44/26/6 48/29/6 22/30/6 21/27/6
f 48/29/6 52/31/6 23/32/6 22/30/6
f 52/31/6 56/21/6 24/24/6 23/32/6
f 28/33/5 60/34/5 17/35/5 1/36/5
f 60/34/5 64/37/5 18/38/5 17/35/5
f 64/37/5 68/39/5 19/40/5 18/38/5
f 68/39/5 72/17/5 20/20/5 19/40/5
f 5/41/4 6/42/4 21/43/4 20/44/4
f 20/44/4 21/43/4 22/45/4 19/46/4
f 19/46/4 22/45/4 23/47/4 18/48/4
f 18/48/4 23/47/4 24/14/4 17/13/4
f 3/4/2 4/3/2 13/49/2 12/50/2
f 12/50/2 13/49/2 14/51/2 11/52/2
f 11/52/2 14/51/2 15/53/2 10/54/2
f 10/54/2 15/53/2 16/6/2 9/5/2
f 10/55/5 9/56/5 69/57/5 65/58/5
f 65/58/5 69/57/5 70/59/5 66/60/5
f 66/60/5 70/59/5 71/61/5 67/62/5
f 67/62/5 71/61/5 72/17/5 68/39/5
f 11/63/5 10/55/5 65/58/5 61/64/5
f 61/64/5 65/58/5 66/60/5 62/65/5
f 62/65/5 66/60/5 67/62/5 63/66/5
f 63/66/5 67/62/5 68/39/5 64/37/5
f 12/67/5 11/63/5 61/64/5 57/68/5
f 57/68/5 61/64/5 62/65/5 58/69/5
f 58/69/5 62/65/5 63/66/5 59/70/5
f 59/70/5 63/66/5 64/37/5 60/34/5
f 3/71/5 12/67/5 57/68/5 25/72/5
f 25/72/5 57/68/5 58/69/5 26/73/5
f 26/73/5 58/69/5 59/70/5 27/74/5
f 27/74/5 59/70/5 60/34/5 28/33/5
f 14/75/6 13/76/6 53/77/6 49/78/6
f 77/79/6 51/80/6 46/81/6 80/82/6
f 15/83/6 14/75/6 49/78/6 45/84/6
f 79/85/6 78/86/6 77/79/6 80/82/6
f 89/87/7 90/88/7 169/89/7 172/90/7
f 16/91/6 15/83/6 45/84/6 41/92/6
f 79/93/8 80/94/8 168/95/8 156/96/8
f 47/97/9 50/98/9 162/99/9 163/100/9
f 86/101/10 81/102/10 170/103/10 171/104/10
f 8/105/6 16/91/6 41/92/6 37/106/6
f 37/106/6 41/92/6 42/107/6 38/108/6
f 38/108/6 42/107/6 43/109/6 39/110/6
f 39/110/6 43/109/6 44/26/6 40/25/6
f 13/76/6 4/111/6 32/112/6 53/77/6
f 53/77/6 32/112/6 31/113/6 54/114/6
f 54/114/6 31/113/6 30/115/6 55/116/6
f 55/116/6 30/115/6 29/22/6 56/21/6
f 9/56/5 7/117/5 36/118/5 69/57/5
f 69/57/5 36/118/5 35/119/5 70/59/5
f 70/59/5 35/119/5 34/120/5 71/61/5
f 71/61/5 34/120/5 33/18/5 72/17/5
f 7/8/3 8/7/3 37/121/3 36/122/3
f 36/122/3 37/121/3 38/123/3 35/124/3
f 35/124/3 38/123/3 39/125/3 34/126/3
f 34/126/3 39/125/3 40/10/3 33/9/3
f 1/16/1 2/15/1 29/127/1 28/128/1
f 28/128/1 29/127/1 30/129/1 27/130/1
f 27/130/1 30/129/1 31/131/1 26/132/1
f 26/132/1 31/131/1 32/2/1 25/1/1
f 90/88/11 91/133/11 173/134/11 169/89/11
f 73/135/12 46/136/12 161/137/12 158/138/12
f 50/98/13 51/139/13 175/140/13 162/99/13
f 91/133/14 92/141/14 166/142/14 173/134/14
f 46/81/6 51/80/6 50/143/6 47/144/6
f 76/145/6 74/146/6 51/80/6 77/79/6
f 80/82/6 46/81/6 73/147/6 75/148/6
f 75/149/15 73/135/15 158/138/15 176/150/15
f 87/151/16 89/87/16 172/90/16 154/152/16
f 76/153/17 77/154/17 165/155/17 160/156/17
f 51/139/18 74/157/18 153/158/18 175/140/18
f 119/159/19 93/160/19 95/161/19 122/162/19
f 122/162/20 95/161/20 96/163/20 121/164/20
f 121/164/21 96/163/21 97/165/21 120/166/21
f 120/166/22 97/165/22 94/167/22 118/168/22
f 114/169/23 108/170/23 110/171/23 117/172/23
f 117/172/24 110/171/24 111/173/24 116/174/24
f 116/174/25 111/173/25 112/175/25 115/176/25
f 115/176/26 112/175/26 109/177/26 113/178/26
f 129/179/27 119/159/27 122/162/27 132/180/27
f 132/180/4 122/162/4 121/164/4 131/181/4
f 131/181/28 121/164/28 120/166/28 130/182/28
f 130/182/29 120/166/29 118/168/29 128/183/29
f 124/184/30 114/169/30 117/172/30 127/185/30
f 127/185/31 117/172/31 116/174/31 126/186/31
f 126/186/2 116/174/2 115/176/2 125/187/2
f 125/187/32 115/176/32 113/178/32 123/188/32
f 149/189/33 129/179/33 132/180/33 152/190/33
f 152/190/34 132/180/34 131/181/34 151/191/34
f 151/191/35 131/181/35 130/182/35 150/192/35
f 150/192/36 130/182/36 128/183/36 148/193/36
f 134/194/37 124/184/37 127/185/37 137/195/37
f 137/195/38 127/185/38 126/186/38 136/196/38
f 136/196/39 126/186/39 125/187/39 135/197/39
f 135/197/40 125/187/40 123/188/40 133/198/40
f 144/199/41 149/189/41 152/190/41 147/200/41
f 147/200/42 152/190/42 151/191/42 146/201/42
f 146/201/43 151/191/43 150/192/43 145/202/43
f 145/202/44 150/192/44 148/193/44 143/203/44
f 139/204/45 144/199/45 147/200/45 142/205/45
f 142/205/1 147/200/1 146/201/1 141/206/1
f 141/206/46 146/201/46 145/202/46 140/207/46
f 140/207/47 145/202/47 143/203/47 138/208/47
f 133/198/48 139/204/48 142/205/48 135/197/48
f 135/197/49 142/205/49 141/206/49 136/196/49
f 136/196/50 141/206/50 140/207/50 137/195/50
f 137/195/51 140/207/51 138/208/51 134/194/51
f 99/209/52 94/210/52 97/211/52 102/212/52
f 102/212/53 97/211/53 96/213/53 101/214/53
f 101/214/54 96/213/54 95/215/54 100/216/54
f 100/216/55 95/215/55 93/217/55 98/218/55
f 104/219/56 99/209/56 102/212/56 107/220/56
f 107/220/57 102/212/57 101/214/57 106/221/57
f 106/221/3 101/214/3 100/216/3 105/222/3
f 105/222/58 100/216/58 98/218/58 103/223/58
f 108/170/59 104/219/59 107/220/59 110/171/59
f 110/171/60 107/220/60 106/221/60 111/173/60
f 111/173/61 106/221/61 105/222/61 112/175/61
f 112/175/62 105/222/62 103/223/62 109/177/62
f 118/224/6 94/225/6 81/226/6 86/227/6
f 48/228/63 44/229/63 93/230/63 119/231/63
f 94/232/6 99/233/6 82/234/6 81/235/6
f 44/236/64 43/237/64 98/238/64 93/239/64
f 99/233/6 104/240/6 83/241/6 82/234/6
f 43/237/65 42/242/65 103/243/65 98/238/65
f 104/240/6 108/244/6 84/245/6 83/241/6
f 42/242/66 41/246/66 109/247/66 103/243/66
f 108/244/6 114/248/6 85/249/6 84/245/6
f 41/246/67 45/250/67 113/251/67 109/247/67
f 114/248/6 124/252/6 87/253/6 85/249/6
f 45/250/68 49/254/68 123/255/68 113/251/68
f 52/256/69 48/228/69 119/231/69 129/257/69
f 128/258/6 118/224/6 86/227/6 88/259/6
f 124/260/6 134/261/6 89/262/6 87/263/6
f 49/254/70 53/264/70 133/265/70 123/255/70
f 56/266/71 52/256/71 129/257/71 149/267/71
f 148/268/6 128/258/6 88/259/6 92/269/6
f 134/270/6 138/271/6 90/272/6 89/273/6
f 53/264/72 54/274/72 139/275/72 133/265/72
f 138/271/6 143/276/6 91/277/6 90/272/6
f 54/274/73 55/278/73 144/279/73 139/275/73
f 143/276/6 148/268/6 92/269/6 91/277/6
f 55/278/74 56/266/74 149/267/74 144/279/74
f 171/280/20 170/281/20 168/282/20 176/283/20
f 173/284/42 166/285/42 161/286/42 163/287/42
f 157/288/4 171/280/4 176/283/4 158/289/4
f 154/290/39 172/291/39 175/292/39 153/293/39
f 172/294/49 169/295/49 162/296/49 175/297/49
f 167/298/25 159/299/25 160/300/25 165/301/25
f 174/302/61 167/298/61 165/301/61 164/303/61
f 166/285/34 157/288/34 158/289/34 161/286/34
f 169/295/1 173/284/1 163/287/1 162/296/1
f 155/304/3 174/302/3 164/303/3 156/305/3
f 159/299/2 154/306/2 153/307/2 160/300/2
f 170/308/54 155/304/54 156/305/54 168/309/54
f 84/310/75 85/311/75 159/312/75 167/313/75
f 46/136/76 47/97/76 163/100/76 161/137/76
f 81/314/77 82/315/77 155/316/77 170/317/77
f 88/318/78 86/101/78 171/104/78 157/319/78
f 80/320/79 75/149/79 176/150/79 168/321/79
f 74/157/80 76/153/80 160/156/80 153/158/80
f 82/315/81 83/322/81 174/323/81 155/316/81
f 78/324/82 79/93/82 156/96/82 164/325/82
f 85/311/83 87/151/83 154/152/83 159/312/83
f 77/154/84 78/324/84 164/325/84 165/155/84
f 83/322/85 84/310/85 167/313/85 174/323/85
f 92/141/86 88/318/86 157/319/86 166/142/86
f 201/326/1 208/327/1 180/328/1 179/329/1
f 185/330/87 192/331/87 184/332/87 183/333/87
f 209/334/3 216/335/3 182/336/3 181/337/3
f 193/338/88 200/339/88 178/340/88 177/341/88
f 248/342/89 209/343/89 181/344/89 196/345/89
f 232/346/90 205/347/90 178/348/90 200/349/90
f 216/350/90 220/351/90 197/352/90 182/353/90
f 220/351/90 224/354/90 198/355/90 197/352/90
f 224/354/90 228/356/90 199/357/90 198/355/90
f 228/356/90 232/346/90 200/349/90 199/357/90
f 204/358/89 236/359/89 193/360/89 177/361/89
f 236/359/89 240/362/89 194/363/89 193/360/89
f 240/362/89 244/364/89 195/365/89 194/363/89
f 244/364/89 248/342/89 196/345/89 195/365/89
f 181/366/88 182/367/88 197/368/88 196/369/88
f 196/369/88 197/368/88 198/370/88 195/371/88
f 195/371/88 198/370/88 199/372/88 194/373/88
f 194/373/88 199/372/88 200/339/88 193/338/88
f 179/329/87 180/328/87 189/374/87 188/375/87
f 188/375/87 189/374/87 190/376/87 187/377/87
f 187/377/87 190/376/87 191/378/87 186/379/87
f 186/379/87 191/378/87 192/331/87 185/330/87
f 186/380/89 185/381/89 245/382/89 241/383/89
f 241/383/89 245/382/89 246/384/89 242/385/89
f 242/385/89 246/384/89 247/386/89 243/387/89
f 243/387/89 247/386/89 248/342/89 244/364/89
f 187/388/89 186/380/89 241/383/89 237/389/89
f 237/389/89 241/383/89 242/385/89 238/390/89
f 238/390/89 242/385/89 243/387/89 239/391/89
f 239/391/89 243/387/89 244/364/89 240/362/89
f 188/392/89 187/388/89 237/389/89 233/393/89
f 233/393/89 237/389/89 238/390/89 234/394/89
f 234/394/89 238/390/89 239/391/89 235/395/89
f 235/395/89 239/391/89 240/362/89 236/359/89
f 179/396/89 188/392/89 233/393/89 201/397/89
f 201/397/89 233/393/89 234/394/89 202/398/89
f 202/398/89 234/394/89 235/395/89 203/399/89
f 203/399/89 235/395/89 236/359/89 204/358/89
f 190/400/90 189/401/90 229/402/90 225/403/90
f 253/404/90 227/405/90 222/406/90 256/407/90
f 191/408/90 190/400/90 225/403/90 221/409/90
f 255/410/90 254/411/90 253/404/90 256/407/90
f 265/412/91 266/413/91 345/414/91 348/415/91
f 192/416/90 191/408/90 221/409/90 217/417/90
f 255/418/92 256/419/92 344/420/92 332/421/92
f 223/422/93 226/423/93 338/424/93 339/425/93
f 262/426/94 257/427/94 346/428/94 347/429/94
f 184/430/90 192/416/90 217/417/90 213/431/90
f 213/431/90 217/417/90 218/432/90 214/433/90
f 214/433/90 218/432/90 219/434/90 215/435/90
f 215/435/90 219/434/90 220/351/90 216/350/90
f 189/401/90 180/436/90 208/437/90 229/402/90
f 229/402/90 208/437/90 207/438/90 230/439/90
f 230/439/90 207/438/90 206/440/90 231/441/90
f 231/441/90 206/440/90 205/347/90 232/346/90
f 185/381/89 183/442/89 212/443/89 245/382/89
f 245/382/89 212/443/89 211/444/89 246/384/89
f 246/384/89 211/444/89 210/445/89 247/386/89
f 247/386/89 210/445/89 209/343/89 248/342/89
f 183/333/3 184/332/3 213/446/3 212/447/3
f 212/447/3 213/446/3 214/448/3 211/449/3
f 211/449/3 214/448/3 215/450/3 210/451/3
f 210/451/3 215/450/3 216/335/3 209/334/3
f 177/341/1 178/340/1 205/452/1 204/453/1
f 204/453/1 205/452/1 206/454/1 203/455/1
f 203/455/1 206/454/1 207/456/1 202/457/1
f 202/457/1 207/456/1 208/327/1 201/326/1
f 266/413/95 267/458/95 349/459/95 345/414/95
f 249/460/96 222/461/96 337/462/96 334/463/96
f 226/423/97 227/464/97 351/465/97 338/424/97
f 267/458/98 268/466/98 342/467/98 349/459/98
f 222/406/90 227/405/90 226/468/90 223/469/90
f 252/470/90 250/471/90 227/405/90 253/404/90
f 256/407/90 222/406/90 249/472/90 251/473/90
f 251/474/99 249/460/99 334/463/99 352/475/99
f 263/476/100 265/412/100 348/415/100 330/477/100
f 252/478/101 253/479/101 341/480/101 336/481/101
f 227/464/102 250/482/102 329/483/102 351/465/102
f 295/484/103 269/485/103 271/486/103 298/487/103
f 298/487/104 271/486/104 272/488/104 297/489/104
f 297/489/105 272/488/105 273/490/105 296/491/105
f 296/491/106 273/490/106 270/492/106 294/493/106
f 290/494/107 284/495/107 286/496/107 293/497/107
f 293/497/108 286/496/108 287/498/108 292/499/108
f 292/499/109 287/498/109 288/500/109 291/501/109
f 291/501/110 288/500/110 285/502/110 289/503/110
f 305/504/111 295/484/111 298/487/111 308/505/111
f 308/505/88 298/487/88 297/489/88 307/506/88
f 307/506/112 297/489/112 296/491/112 306/507/112
f 306/507/113 296/491/113 294/493/113 304/508/113
f 300/509/114 290/494/114 293/497/114 303/510/114
f 303/510/115 293/497/115 292/499/115 302/511/115
f 302/511/87 292/499/87 291/501/87 301/512/87
f 301/512/116 291/501/116 289/503/116 299/513/116
f 325/514/117 305/504/117 308/505/117 328/515/117
f 328/515/118 308/505/118 307/506/118 327/516/118
f 327/516/119 307/506/119 306/507/119 326/517/119
f 326/517/120 306/507/120 304/508/120 324/518/120
f 310/519/121 300/509/121 303/510/121 313/520/121
f 313/520/122 303/510/122 302/511/122 312/521/122
f 312/521/123 302/511/123 301/512/123 311/522/123
f 311/522/124 301/512/124 299/513/124 309/523/124
f 320/524/125 325/514/125 328/515/125 323/525/125
f 323/525/126 328/515/126 327/516/126 322/526/126
f 322/526/127 327/516/127 326/517/127 321/527/127
f 321/527/128 326/517/128 324/518/128 319/528/128
f 315/529/129 320/524/129 323/525/129 318/530/129
f 318/530/1 323/525/1 322/526/1 317/531/1
f 317/531/130 322/526/130 321/527/130 316/532/130
f 316/532/131 321/527/131 319/528/131 314/533/131
f 309/523/132 315/529/132 318/530/132 311/522/132
f 311/522/133 318/530/133 317/531/133 312/521/133
f 312/521/134 317/531/134 316/532/134 313/520/134
f 313/520/135 316/532/135 314/533/135 310/519/135
f 275/534/136 270/535/136 273/536/136 278/537/136
f 278/537/137 273/536/137 272/538/137 277/539/137
f 277/539/138 272/538/138 271/540/138 276/541/138
f 276/541/139 271/540/139 269/542/139 274/543/139
f 280/544/140 275/534/140 278/537/140 283/545/140
f 283/545/141 278/537/141 277/539/141 282/546/141
f 282/546/3 277/539/3 276/541/3 281/547/3
f 281/547/142 276/541/142 274/543/142 279/548/142
f 284/495/143 280/544/143 283/545/143 286/496/143
f 286/496/144 283/545/144 282/546/144 287/498/144
f 287/498/145 282/546/145 281/547/145 288/500/145
f 288/500/146 281/547/146 279/548/146 285/502/146
f 294/493/6 270/492/6 257/549/6 262/550/6
f 224/551/147 220/552/147 269/553/147 295/554/147
f 270/535/6 275/534/6 258/555/6 257/556/6
f 220/557/148 219/558/148 274/559/148 269/560/148
f 275/534/6 280/544/6 259/561/6 258/555/6
f 219/558/149 218/562/149 279/563/149 274/559/149
f 280/544/6 284/495/6 260/564/6 259/561/6
f 218/562/150 217/565/150 285/566/150 279/563/150
f 284/495/6 290/494/6 261/567/6 260/564/6
f 217/565/151 221/568/151 289/569/151 285/566/151
f 290/494/6 300/509/6 263/570/6 261/567/6
f 221/568/152 225/571/152 299/572/152 289/569/152
f 228/573/153 224/551/153 295/554/153 305/574/153
f 304/508/6 294/493/6 262/550/6 264/575/6
f 300/509/6 310/519/6 265/576/6 263/570/6
f 225/571/154 229/577/154 309/578/154 299/572/154
f 232/579/155 228/573/155 305/574/155 325/580/155
f 324/518/6 304/508/6 264/575/6 268/581/6
f 310/519/6 314/533/6 266/582/6 265/576/6
f 229/577/156 230/583/156 315/584/156 309/578/156
f 314/533/6 319/528/6 267/585/6 266/582/6
f 230/583/157 231/586/157 320/587/157 315/584/157
f 319/528/6 324/518/6 268/581/6 267/585/6
f 231/586/158 232/579/158 325/580/158 320/587/158
f 347/588/104 346/589/104 344/590/104 352/591/104
f 349/592/126 342/593/126 337/594/126 339/595/126
f 333/596/88 347/588/88 352/591/88 334/597/88
f 330/598/123 348/599/123 351/600/123 329/601/123
f 348/599/133 345/602/133 338/603/133 351/600/133
f 343/604/109 335/605/109 336/606/109 341/607/109
f 350/608/145 343/604/145 341/607/145 340/609/145
f 342/593/118 333/596/118 334/597/118 337/594/118
f 345/602/1 349/592/1 339/595/1 338/603/1
f 331/610/3 350/608/3 340/609/3 332/611/3
f 335/605/87 330/598/87 329/601/87 336/606/87
f 346/612/138 331/610/138 332/611/138 344/613/138
f 260/614/159 261/615/159 335/616/159 343/617/159
f 222/461/160 223/422/160 339/425/160 337/462/160
f 257/618/161 258/619/161 331/620/161 346/621/161
f 264/622/162 262/426/162 347/429/162 333/623/162
f 256/624/163 251/474/163 352/475/163 344/625/163
f 250/482/164 252/478/164 336/481/164 329/483/164
f 258/619/165 259/626/165 350/627/165 331/620/165
f 254/628/166 255/418/166 332/421/166 340/629/166
f 261/615/167 263/476/167 330/477/167 335/616/167
f 253/479/168 254/628/168 340/629/168 341/480/168
f 259/626/169 260/614/169 343/617/169 350/627/169
f 268/466/170 264/622/170 333/623/170 342/467/170
