# Blender 5.1.2
# www.blender.org
mtllib Palestra bhefesto.mtl
o Cube
v -1.097829 1.162723 0.311338
v -0.311338 1.162723 -1.097829
v 1.097829 1.162723 -0.311338
v 0.311338 1.162723 1.097829
v -0.970363 1.162723 -0.541584
v 0.541584 1.162723 -0.970363
v 0.970363 1.162723 0.541584
v -0.541584 1.162723 0.970363
v -1.097829 1.491162 0.311338
v -0.311338 1.491162 -1.097829
v 1.097829 1.491162 -0.311338
v 0.311338 1.491162 1.097829
v -0.970363 1.491162 -0.541584
v 0.541584 1.491162 -0.970363
v 0.970363 1.491162 0.541584
v -0.541584 1.491162 0.970363
v -0.766488 1.125319 0.217372
v -0.217372 1.125319 -0.766488
v 0.766488 1.125319 -0.217372
v 0.217372 1.125319 0.766488
v -0.677494 1.125319 -0.378126
v 0.378126 1.125319 -0.677494
v 0.677494 1.125319 0.378126
v -0.378126 1.125319 0.677494
v -1.256427 1.138999 0.356315
v -1.110546 1.138999 -0.619824
v -0.356315 1.138999 -1.256427
v 0.619824 1.138999 -1.110546
v 1.256427 1.138999 -0.356315
v 1.110546 1.138999 0.619824
v 0.356315 1.138999 1.256427
v -0.619824 1.138999 1.110546
v -1.256427 1.514886 0.356315
v -1.110546 1.514886 -0.619824
v -0.356315 1.514886 -1.256427
v 0.619824 1.514886 -1.110546
v 1.256427 1.514886 -0.356315
v 1.110546 1.514886 0.619824
v 0.356315 1.514886 1.256427
v -0.619824 1.514886 1.110546
v -1.097829 2.508566 0.311338
v -0.970363 2.508566 -0.541584
v -0.311338 2.508566 -1.097829
v 0.541584 2.508566 -0.970363
v 1.097829 2.508566 -0.311338
v 0.970363 2.508566 0.541584
v 0.311338 2.508566 1.097829
v -0.541584 2.508566 0.970363
v 0.619824 2.532290 -1.110546
v -1.110546 2.532290 -0.619824
v -0.356315 2.532290 -1.256427
v -1.256427 2.532290 0.356315
v 1.256427 2.532290 -0.356315
v 1.110546 2.532290 0.619824
v 0.356315 2.532290 1.256427
v -0.619824 2.532290 1.110546
v -1.097829 2.888967 0.311338
v -0.970363 2.888967 -0.541584
v -0.311338 2.888967 -1.097829
v 0.541584 2.888967 -0.970363
v 1.097829 2.888967 -0.311338
v 0.970363 2.888967 0.541584
v 0.311338 2.888967 1.097829
v -0.541584 2.888967 0.970363
v 0.619824 2.912691 -1.110546
v -1.110546 2.912691 -0.619824
v -0.356315 2.912691 -1.256427
v -1.256427 2.912691 0.356315
v 1.256427 2.912691 -0.356315
v 1.110546 2.912691 0.619824
v 0.356315 2.912691 1.256427
v -0.619824 2.912691 1.110546
v -1.097829 1.115397 0.311338
v -0.311338 1.115397 -1.097829
v 1.097829 1.115397 -0.311338
v 0.311338 1.115397 1.097829
v -0.970363 1.115397 -0.541584
v 0.541584 1.115397 -0.970363
v 0.970363 1.115397 0.541584
v -0.541584 1.115397 0.970363
v -1.097829 1.115397 0.311338
v -0.311338 1.115397 -1.097829
v 1.097829 1.115397 -0.311338
v 0.311338 1.115397 1.097829
v -0.970363 1.115397 -0.541584
v 0.541584 1.115397 -0.970363
v 0.970363 1.115397 0.541584
v -0.541584 1.115397 0.970363
v -1.097829 1.162723 0.311338
v -0.970363 1.162723 -0.541584
v -0.311338 1.162723 -1.097829
v 0.311338 1.115397 1.097829
v 0.311338 1.162723 1.097829
v 0.541584 1.162723 -0.970363
v 1.097829 1.162723 -0.311338
v 0.541584 1.115397 -0.970363
v 0.970363 1.162723 0.541584
v 1.097829 1.115397 -0.311338
v -0.541584 1.162723 0.970363
v 0.970363 1.115397 0.541584
v -0.541584 1.115397 0.970363
v -1.097829 1.115397 0.311338
v -0.970363 1.115397 -0.541584
v -0.311338 1.115397 -1.097829
v -0.255376 0.745172 -0.900498
v -0.704583 0.664042 -0.393245
v -0.900498 0.745172 0.255376
v -1.097829 1.115397 0.311338
v -0.311338 1.115397 -1.097829
v 0.900498 0.745172 -0.255376
v 0.393245 0.664042 -0.704583
v 1.097829 1.115397 -0.311338
v 0.255376 0.745172 0.900498
v 0.704583 0.664042 0.393245
v 0.311338 1.115397 1.097829
v -0.393245 0.664042 0.704583
v -0.970363 1.115397 -0.541584
v 0.541584 1.115397 -0.970363
v 0.970363 1.115397 0.541584
v -0.541584 1.115397 0.970363
v -0.000000 0.493785 0.000000
v -1.103222 1.166883 0.312867
v -0.312867 1.166883 -1.103222
v 1.103222 1.166883 -0.312867
v 0.312867 1.166883 1.103222
v -0.975662 1.166505 -0.544541
v 0.544541 1.166505 -0.975662
v 0.975662 1.166505 0.544541
v -0.544541 1.166505 0.975662
v -1.101366 1.485940 0.312341
v -0.312341 1.485940 -1.101366
v 1.101366 1.485940 -0.312341
v 0.312341 1.485940 1.101366
v -0.973711 1.486004 -0.543453
v 0.543453 1.486004 -0.973711
v 0.973711 1.486004 0.543453
v -0.543453 1.486004 0.973711
v -0.772716 1.121930 0.219138
v -0.219138 1.121930 -0.772716
v 0.772716 1.121930 -0.219138
v 0.219138 1.121930 0.772716
v -0.683195 1.121990 -0.381308
v 0.381308 1.121990 -0.683195
v 0.683195 1.121990 0.381308
v -0.381308 1.121990 0.683195
v -1.250857 1.143017 0.354736
v -1.105577 1.143095 -0.617050
v -0.354736 1.143017 -1.250857
v 0.617050 1.143095 -1.105577
v 1.250857 1.143017 -0.354736
v 1.105577 1.143095 0.617050
v 0.354736 1.143017 1.250857
v -0.617050 1.143095 1.105577
v -1.250857 1.510868 0.354736
v -1.105577 1.510790 -0.617050
v -0.354736 1.510868 -1.250857
v 0.617050 1.510790 -1.105577
v 1.250857 1.510868 -0.354736
v 1.105577 1.510790 0.617050
v 0.354736 1.510868 1.250857
v -0.617050 1.510790 1.105577
v -1.101460 2.513749 0.312368
v -0.973839 2.513662 -0.543524
v -0.312368 2.513749 -1.101460
v 0.543524 2.513662 -0.973839
v 1.101460 2.513749 -0.312368
v 0.973839 2.513662 0.543524
v 0.312368 2.513749 1.101460
v -0.543524 2.513662 0.973839
v 0.616663 2.535666 -1.104884
v -1.104884 2.535666 -0.616663
v -0.354535 2.535622 -1.250148
v -1.250148 2.535622 0.354535
v 1.250148 2.535622 -0.354535
v 1.104884 2.535666 0.616663
v 0.354535 2.535622 1.250148
v -0.616663 2.535666 1.104884
v -1.103008 2.884646 0.312807
v -0.975194 2.884752 -0.544280
v -0.312807 2.884646 -1.103008
v 0.544280 2.884752 -0.975194
v 1.103008 2.884646 -0.312807
v 0.975194 2.884752 0.544280
v 0.312807 2.884646 1.103008
v -0.544280 2.884752 0.975194
v 0.617050 2.908595 -1.105577
v -1.105577 2.908595 -0.617050
v -0.354736 2.908673 -1.250857
v -1.250857 2.908673 0.354736
v 1.250857 2.908673 -0.354736
v 1.105577 2.908595 0.617050
v 0.354736 2.908673 1.250857
v -0.617050 2.908595 1.105577
v -1.097829 1.109499 0.311338
v -0.311338 1.109499 -1.097829
v 1.097829 1.109499 -0.311338
v 0.311338 1.109499 1.097829
v -0.970363 1.109499 -0.541584
v 0.541584 1.109499 -0.970363
v 0.970363 1.109499 0.541584
v -0.541584 1.109499 0.970363
v -1.097829 1.109499 0.311338
v -0.311338 1.109499 -1.097829
v 1.097829 1.109499 -0.311338
v 0.311338 1.109499 1.097829
v -0.970363 1.109499 -0.541584
v 0.541584 1.109499 -0.970363
v 0.970363 1.109499 0.541584
v -0.541584 1.109499 0.970363
v -1.092704 1.158364 0.309884
v -0.965644 1.158417 -0.538950
v -0.309884 1.158364 -1.092704
v 0.309884 1.111037 1.092704
v 0.309884 1.158364 1.092704
v 0.538950 1.158417 -0.965644
v 1.092704 1.158364 -0.309884
v 0.538950 1.111090 -0.965644
v 0.965644 1.158417 0.538950
v 1.092704 1.111037 -0.309884
v -0.538950 1.158417 0.965644
v 0.965644 1.111090 0.538950
v -0.538950 1.111090 0.965644
v -1.092704 1.111037 0.309884
v -0.965644 1.111090 -0.538950
v -0.309884 1.111037 -1.092704
v -0.253752 0.749057 -0.894773
v -0.700069 0.668506 -0.390726
v -0.894773 0.749057 0.253752
v -1.092091 1.111524 0.309711
v -0.309711 1.111524 -1.092091
v 0.894773 0.749057 -0.253752
v 0.390726 0.668506 -0.700069
v 1.092091 1.111524 -0.309711
v 0.253752 0.749057 0.894773
v 0.700069 0.668506 0.390726
v 0.309711 1.111524 1.092091
v -0.390726 0.668506 0.700069
v -0.965038 1.111641 -0.538612
v 0.538612 1.111641 -0.965038
v 0.965038 1.111641 0.538612
v -0.538612 1.111641 0.965038
v -0.000000 0.499682 0.000000
v 0.623485 0.722417 -0.666185
v 0.809592 1.564026 -0.934900
v 0.646148 0.658051 -0.712879
v 0.857194 1.565789 -1.019463
v 0.185436 0.747102 -0.933187
v 0.360700 1.564026 -1.185438
v 0.208099 0.682737 -0.979881
v 0.408302 1.565789 -1.270001
v 0.783142 0.731640 -0.908621
v 0.926061 0.881531 -1.125638
v 0.974670 1.154460 -1.199449
v 0.924731 1.368040 -1.123619
v 0.975594 1.371434 -1.213133
v 1.021937 1.156113 -1.283504
v 0.971006 0.881531 -1.206166
v 0.840623 0.739957 -1.008185
v 0.526702 1.371434 -1.463671
v 0.573045 1.156113 -1.534041
v 0.522114 0.881531 -1.456704
v 0.391732 0.739957 -1.258722
v 0.475839 1.368040 -1.374157
v 0.525778 1.154460 -1.449987
v 0.477169 0.881531 -1.376175
v 0.334251 0.731640 -1.159158
v 0.805752 2.943315 -0.928021
v 0.853354 2.945078 -1.012584
v 0.404462 2.945078 -1.263121
v 0.356860 2.943315 -1.178558
v 0.594920 3.583983 -1.077319
v -0.239696 0.722417 0.880388
v -0.370705 1.564026 1.179854
v -0.267541 0.658051 0.924190
v -0.417689 1.565789 1.264762
v -0.696909 0.747102 0.647722
v -0.819597 1.564026 0.929316
v -0.724754 0.682737 0.691524
v -0.866581 1.565789 1.014224
v -0.362223 0.731640 1.143547
v -0.471904 0.881531 1.379114
v -0.509208 1.154460 1.459235
v -0.470884 1.368040 1.376923
v -0.520370 1.371434 1.467206
v -0.555935 1.156113 1.543591
v -0.516849 0.881531 1.459643
v -0.416789 0.739957 1.244738
v -0.969262 1.371434 1.216668
v -1.004827 1.156113 1.293053
v -0.965740 0.881531 1.209105
v -0.865680 0.739957 0.994200
v -0.919775 1.368040 1.126385
v -0.958100 1.154460 1.208698
v -0.920795 0.881531 1.128577
v -0.811115 0.731640 0.893009
v -0.366866 2.943315 1.172974
v -0.413850 2.945078 1.257883
v -0.862741 2.945078 1.007345
v -0.815757 2.943315 0.922437
v -0.604617 3.583983 1.071908
v -0.666185 0.722417 -0.623485
v -0.934900 1.564026 -0.809592
v -0.712879 0.658051 -0.646148
v -1.019463 1.565789 -0.857194
v -0.933187 0.747102 -0.185436
v -1.185438 1.564026 -0.360700
v -0.979881 0.682737 -0.208099
v -1.270001 1.565789 -0.408302
v -0.908621 0.731639 -0.783142
v -1.125638 0.881531 -0.926061
v -1.199449 1.154460 -0.974670
v -1.123619 1.368040 -0.924731
v -1.213133 1.371434 -0.975594
v -1.283504 1.156113 -1.021937
v -1.206166 0.881531 -0.971006
v -1.008185 0.739957 -0.840623
v -1.463671 1.371434 -0.526702
v -1.534041 1.156113 -0.573045
v -1.456704 0.881531 -0.522114
v -1.258722 0.739957 -0.391732
v -1.374157 1.368040 -0.475839
v -1.449987 1.154460 -0.525778
v -1.376175 0.881531 -0.477169
v -1.159158 0.731639 -0.334251
v -0.928021 2.943315 -0.805752
v -1.012584 2.945078 -0.853354
v -1.263121 2.945078 -0.404462
v -1.178558 2.943315 -0.356860
v -1.077319 3.583983 -0.594920
v 0.880388 0.722417 0.239696
v 1.179854 1.564026 0.370705
v 0.924190 0.658051 0.267541
v 1.264762 1.565789 0.417689
v 0.647722 0.747102 0.696909
v 0.929316 1.564026 0.819597
v 0.691524 0.682737 0.724754
v 1.014224 1.565789 0.866581
v 1.143547 0.731639 0.362223
v 1.379114 0.881531 0.471904
v 1.459235 1.154460 0.509208
v 1.376923 1.368040 0.470884
v 1.467206 1.371434 0.520370
v 1.543591 1.156113 0.555935
v 1.459643 0.881531 0.516849
v 1.244738 0.739957 0.416789
v 1.216668 1.371434 0.969262
v 1.293053 1.156113 1.004827
v 1.209105 0.881531 0.965741
v 0.994200 0.739957 0.865680
v 1.126385 1.368040 0.919775
v 1.208698 1.154460 0.958100
v 1.128577 0.881531 0.920795
v 0.893009 0.731639 0.811115
v 1.172974 2.943315 0.366866
v 1.257883 2.945078 0.413850
v 1.007345 2.945078 0.862741
v 0.922437 2.943315 0.815757
v 1.071908 3.583983 0.604617
vn -0.0000 1.0000 -0.0000
vn -0.1192 -0.9878 0.1006
vn -0.0231 -0.9878 0.1543
vn 0.1192 -0.9878 -0.1006
vn 0.0231 -0.9878 -0.1543
vn -0.7507 0.6511 -0.1122
vn -0.1122 0.6511 0.7507
vn 0.7507 0.6511 0.1122
vn 0.5800 0.6511 -0.4896
vn -0.4896 0.6511 -0.5800
vn -0.5800 0.6511 0.4896
vn 0.4896 0.6511 0.5800
vn 0.1122 0.6511 -0.7507
vn -0.6450 -0.0000 -0.7642
vn -0.7642 -0.0000 0.6450
vn 0.9890 -0.0000 0.1478
vn 0.7642 -0.0000 -0.6450
vn -0.9890 -0.0000 -0.1478
vn -0.1478 -0.0000 0.9890
vn 0.6450 -0.0000 0.7642
vn 0.1478 -0.0000 -0.9890
vn -0.1543 -0.9878 -0.0231
vn -0.1006 -0.9878 -0.1192
vn 0.1543 -0.9878 0.0231
vn 0.1006 -0.9878 0.1192
vn -0.1543 0.9878 -0.0231
vn -0.1192 0.9878 0.1006
vn -0.0231 0.9878 0.1543
vn 0.1006 0.9878 0.1192
vn -0.1006 0.9878 -0.1192
vn 0.0231 0.9878 -0.1543
vn 0.1192 0.9878 -0.1006
vn 0.1543 0.9878 0.0231
vn -0.8527 -0.4983 -0.1567
vn -0.5810 -0.4983 -0.6435
vn 0.1567 -0.4983 -0.8527
vn 0.6435 -0.4983 -0.5810
vn 0.8527 -0.4983 0.1567
vn 0.5810 -0.4983 0.6435
vn -0.1567 -0.4983 0.8527
vn -0.6435 -0.4983 0.5810
vn -0.0708 -0.9658 -0.2495
vn 0.2495 -0.9658 -0.0708
vn 0.0708 -0.9658 0.2495
vn -0.2495 -0.9658 0.0708
vn -0.0445 -0.9536 0.2978
vn -0.6191 0.7799 -0.0922
vn 0.2301 -0.9536 -0.1942
vn 0.2677 0.9366 -0.2259
vn 0.0445 -0.9536 -0.2978
vn 0.0518 0.9366 -0.3465
vn 0.1942 -0.9536 0.2301
vn -0.2677 0.9366 0.2259
vn 0.1276 0.9859 -0.1078
vn 0.0248 0.9859 -0.1652
vn -0.1276 0.9859 0.1078
vn -0.0248 0.9859 0.1652
vn 0.7517 -0.6499 0.1122
vn 0.1122 -0.6499 -0.7517
vn -0.7517 -0.6499 -0.1122
vn -0.5809 -0.6499 0.4901
vn 0.4901 -0.6499 0.5809
vn 0.5809 -0.6499 -0.4901
vn -0.4901 -0.6499 -0.5809
vn -0.1122 -0.6499 0.7517
vn 0.6450 -0.0000 0.7641
vn 0.7641 -0.0000 -0.6450
vn -0.9890 -0.0000 -0.1479
vn -0.7641 -0.0000 0.6450
vn 0.9890 -0.0000 0.1479
vn 0.1479 -0.0000 -0.9890
vn -0.6450 -0.0000 -0.7641
vn -0.1479 -0.0000 0.9890
vn 0.1652 0.9859 0.0248
vn 0.1078 0.9859 0.1276
vn -0.1652 0.9859 -0.0248
vn -0.1078 0.9859 -0.1276
vn -0.1475 -0.0039 0.9891
vn -0.1479 0.0019 0.9890
vn 0.6448 -0.0039 0.7644
vn 0.6451 0.0019 0.7641
vn 0.9891 -0.0039 0.1475
vn 0.9890 0.0019 0.1479
vn 0.7641 0.0019 -0.6451
vn 0.7644 -0.0039 -0.6448
vn 0.1668 -0.9857 0.0249
vn 0.1289 -0.9857 -0.1088
vn 0.0249 -0.9857 -0.1668
vn -0.1088 -0.9857 -0.1289
vn 0.1088 -0.9857 0.1289
vn -0.0249 -0.9857 0.1668
vn -0.1289 -0.9857 0.1088
vn -0.1668 -0.9857 -0.0249
vn -0.7641 0.0019 0.6451
vn -0.7644 -0.0039 0.6448
vn -0.9891 -0.0039 -0.1475
vn -0.9890 0.0019 -0.1479
vn -0.6448 -0.0039 -0.7644
vn -0.6451 0.0019 -0.7641
vn 0.1475 -0.0039 -0.9891
vn 0.1479 0.0019 -0.9890
vn 0.0994 0.9880 0.1178
vn -0.0227 0.9880 0.1525
vn -0.1178 0.9880 0.0994
vn -0.1525 0.9880 -0.0227
vn -0.0994 0.9880 -0.1178
vn 0.0227 0.9880 -0.1525
vn 0.1178 0.9880 -0.0994
vn 0.1525 0.9880 0.0227
vn -0.1323 -0.9849 0.1116
vn -0.0256 -0.9849 0.1712
vn 0.1116 -0.9849 0.1323
vn 0.1712 -0.9849 0.0256
vn 0.1323 -0.9849 -0.1116
vn 0.0256 -0.9849 -0.1712
vn -0.1116 -0.9849 -0.1323
vn -0.1712 -0.9849 -0.0256
vn -0.4785 0.7799 0.4035
vn 0.2978 -0.9536 0.0445
vn -0.0518 0.9366 0.3465
vn -0.0922 0.7799 0.6191
vn -0.1942 -0.9536 -0.2301
vn -0.2259 0.9366 -0.2677
vn 0.4785 0.7799 -0.4035
vn -0.2978 -0.9536 -0.0445
vn -0.3465 0.9366 -0.0518
vn 0.0922 0.7799 -0.6191
vn 0.2259 0.9366 0.2677
vn 0.4035 0.7799 0.4785
vn -0.1480 -0.0000 0.9890
vn -0.6452 -0.0000 -0.7640
vn 0.1480 -0.0000 -0.9890
vn 0.9890 -0.0000 0.1480
vn -0.7640 -0.0000 0.6452
vn -0.9890 -0.0000 -0.1480
vn 0.7640 -0.0000 -0.6452
vn 0.6452 -0.0000 0.7640
vn 0.8490 0.5050 0.1558
vn 0.5783 0.5050 0.6408
vn -0.1558 0.5050 0.8490
vn -0.6408 0.5050 0.5783
vn -0.8490 0.5050 -0.1558
vn -0.5783 0.5050 -0.6408
vn 0.1558 0.5050 -0.8490
vn 0.6408 0.5050 -0.5783
vn 0.0707 0.9659 0.2492
vn -0.2492 0.9659 0.0707
vn -0.0707 0.9659 -0.2492
vn 0.2492 0.9659 -0.0707
vn -0.4035 0.7799 -0.4785
vn -0.2301 -0.9536 0.1942
vn 0.6191 0.7799 0.0922
vn 0.3465 0.9366 0.0518
vn 0.4829 -0.8727 0.0720
vn 0.3148 -0.8727 0.3732
vn -0.0720 -0.8727 0.4829
vn -0.3732 -0.8727 0.3148
vn -0.4829 -0.8727 -0.0720
vn -0.3148 -0.8727 -0.3732
vn 0.0720 -0.8727 -0.4829
vn 0.3732 -0.8727 -0.3148
vn -0.8693 -0.0373 -0.4928
vn -0.3171 -0.7594 0.5682
vn 0.8693 0.0373 0.4928
vn 0.3234 0.7480 -0.5795
vn 0.4319 0.6243 -0.6509
vn 0.8714 -0.0000 0.4905
vn -0.0257 -0.9997 -0.0036
vn 0.2440 -0.8656 -0.4372
vn 0.4638 -0.3073 -0.8309
vn 0.4487 0.3903 -0.8039
vn 0.8263 -0.1961 0.5280
vn 0.8655 -0.1185 0.4868
vn 0.8723 -0.0237 0.4885
vn 0.8698 0.0274 0.4926
vn -0.0804 0.9796 0.1844
vn -0.2504 0.8579 0.4486
vn -0.4619 0.3188 0.8276
vn -0.4540 -0.3636 0.8134
vn -0.8362 0.1673 -0.5223
vn -0.8655 0.1185 -0.4868
vn -0.8723 0.0237 -0.4885
vn -0.8698 -0.0274 -0.4926
vn 0.8119 -0.3727 0.4493
vn -0.8714 -0.0000 -0.4905
vn 0.4873 0.0057 -0.8732
vn -0.4873 -0.0057 0.8732
vn -0.8054 -0.3725 -0.4611
vn 0.4869 -0.0431 -0.8724
vn -0.4845 -0.1080 0.8681
vn -0.8758 -0.0373 -0.4812
vn 0.3171 -0.7594 -0.5682
vn 0.8758 0.0373 0.4812
vn -0.3234 0.7480 0.5795
vn -0.3273 0.6243 0.7093
vn 0.8750 -0.0000 0.4842
vn -0.0166 -0.9997 -0.0200
vn -0.2440 -0.8656 0.4372
vn -0.4638 -0.3073 0.8309
vn -0.4487 0.3903 0.8039
vn 0.8831 -0.1961 0.4261
vn 0.8686 -0.1185 0.4811
vn 0.8737 -0.0237 0.4860
vn 0.8759 0.0274 0.4818
vn 0.1148 0.9796 -0.1652
vn 0.2504 0.8579 -0.4486
vn 0.4619 0.3188 -0.8276
vn 0.4540 -0.3636 -0.8134
vn -0.8835 0.1673 -0.4375
vn -0.8686 0.1185 -0.4811
vn -0.8737 0.0237 -0.4860
vn -0.8759 -0.0274 -0.4818
vn 0.8086 -0.3727 0.4552
vn -0.8750 -0.0000 -0.4842
vn -0.4873 0.0057 0.8732
vn 0.4873 -0.0057 -0.8732
vn -0.8153 -0.3725 -0.4434
vn -0.4869 -0.0431 0.8724
vn 0.4845 -0.1080 -0.8681
vn -0.4928 -0.0373 0.8693
vn 0.5682 -0.7594 0.3171
vn 0.4928 0.0373 -0.8693
vn -0.5795 0.7480 -0.3234
vn -0.6509 0.6243 -0.4319
vn 0.4905 -0.0000 -0.8714
vn -0.0036 -0.9997 0.0257
vn -0.4372 -0.8656 -0.2440
vn -0.8309 -0.3073 -0.4638
vn -0.8039 0.3903 -0.4487
vn 0.5280 -0.1961 -0.8263
vn 0.4868 -0.1185 -0.8655
vn 0.4885 -0.0237 -0.8723
vn 0.4926 0.0274 -0.8698
vn 0.1844 0.9796 0.0804
vn 0.4486 0.8579 0.2504
vn 0.8276 0.3188 0.4619
vn 0.8134 -0.3636 0.4540
vn -0.5223 0.1673 0.8362
vn -0.4868 0.1185 0.8655
vn -0.4885 0.0237 0.8723
vn -0.4926 -0.0274 0.8698
vn 0.4493 -0.3727 -0.8119
vn -0.4905 -0.0000 0.8714
vn -0.8732 0.0057 -0.4873
vn 0.8732 -0.0057 0.4873
vn -0.4611 -0.3725 0.8054
vn -0.8724 -0.0431 -0.4869
vn 0.8681 -0.1080 0.4845
vn -0.4812 -0.0373 0.8758
vn -0.5682 -0.7594 -0.3171
vn 0.4812 0.0373 -0.8758
vn 0.5795 0.7480 0.3234
vn 0.7093 0.6243 0.3273
vn 0.4842 -0.0000 -0.8750
vn -0.0200 -0.9997 0.0166
vn 0.4372 -0.8656 0.2440
vn 0.8309 -0.3073 0.4638
vn 0.8039 0.3903 0.4487
vn 0.4261 -0.1961 -0.8831
vn 0.4811 -0.1185 -0.8686
vn 0.4860 -0.0237 -0.8737
vn 0.4818 0.0274 -0.8759
vn -0.1652 0.9796 -0.1148
vn -0.4486 0.8579 -0.2504
vn -0.8276 0.3188 -0.4619
vn -0.8134 -0.3636 -0.4540
vn -0.4375 0.1673 0.8835
vn -0.4811 0.1185 0.8686
vn -0.4860 0.0237 0.8737
vn -0.4818 -0.0274 0.8759
vn 0.4552 -0.3727 -0.8086
vn -0.4842 -0.0000 0.8750
vn 0.8732 0.0057 0.4873
vn -0.8732 -0.0057 -0.4873
vn -0.4434 -0.3725 0.8153
vn 0.8724 -0.0431 0.4869
vn -0.8681 -0.1080 -0.4845
vt 0.287831 0.310088
vt 0.287831 0.258971
vt 0.287882 0.258942
vt 0.287882 0.310058
vt 0.269309 0.360239
vt 0.269309 0.411363
vt 0.269258 0.411392
vt 0.269258 0.360268
vt 0.287831 0.156738
vt 0.287831 0.105621
vt 0.287882 0.105592
vt 0.287882 0.156708
vt 0.273901 0.104648
vt 0.273901 0.053524
vt 0.273952 0.053495
vt 0.273952 0.104619
vt 0.287831 0.054505
vt 0.287882 0.054475
vt 0.273901 0.155772
vt 0.273952 0.155743
vt 0.287831 0.207855
vt 0.287882 0.207825
vt 0.273901 0.309144
vt 0.273901 0.258020
vt 0.273952 0.257991
vt 0.273952 0.309115
vt 0.161646 0.774248
vt 0.114184 0.736155
vt 0.117848 0.725202
vt 0.172166 0.768798
vt 0.053355 0.738025
vt 0.048231 0.727342
vt 0.013822 0.845152
vt 0.058855 0.886087
vt 0.054525 0.896794
vt 0.002987 0.849945
vt 0.119684 0.887957
vt 0.124142 0.898934
vt 0.294066 0.452376
vt 0.353193 0.437968
vt 0.353193 0.480269
vt 0.311911 0.490328
vt 0.018764 0.704597
vt 0.045384 0.649870
vt 0.077962 0.676852
vt 0.059376 0.715061
vt 0.094195 0.613523
vt 0.153323 0.599115
vt 0.153323 0.641416
vt 0.112041 0.651475
vt 0.212451 0.613523
vt 0.194605 0.651475
vt 0.261262 0.649870
vt 0.287882 0.704597
vt 0.247270 0.715061
vt 0.228685 0.676852
vt 0.412321 0.452376
vt 0.394475 0.490328
vt 0.044292 0.351028
vt 0.044292 0.281378
vt 0.079864 0.281378
vt 0.079864 0.351028
vt 0.044292 0.211729
vt 0.044292 0.142079
vt 0.079864 0.142079
vt 0.079864 0.211729
vt 0.044292 0.559977
vt 0.044292 0.490327
vt 0.079864 0.490327
vt 0.079864 0.559977
vt 0.044292 0.420678
vt 0.079864 0.420678
vt 0.044292 0.072430
vt 0.079864 0.072430
vt 0.044292 0.002780
vt 0.079864 0.002780
vt 0.165383 0.834991
vt 0.176444 0.838316
vt 0.161984 0.844203
vt 0.172553 0.848860
vt 0.013822 0.784294
vt 0.002987 0.780295
vt 0.245164 0.063395
vt 0.245164 0.124253
vt 0.209165 0.124253
vt 0.209165 0.063395
vt 0.038075 0.142079
vt 0.038075 0.211729
vt 0.002076 0.211729
vt 0.002076 0.142079
vt 0.245164 0.002537
vt 0.209165 0.002537
vt 0.038075 0.281379
vt 0.002076 0.281378
vt 0.245164 0.428541
vt 0.245164 0.489399
vt 0.209165 0.489399
vt 0.209165 0.428541
vt 0.038075 0.351028
vt 0.002076 0.351028
vt 0.038075 0.420678
vt 0.002076 0.420678
vt 0.245164 0.367684
vt 0.209165 0.367684
vt 0.329559 0.895386
vt 0.371859 0.851632
vt 0.382428 0.856289
vt 0.334017 0.906363
vt 0.268730 0.893516
vt 0.264401 0.904224
vt 0.223697 0.852581
vt 0.212862 0.857374
vt 0.223697 0.791723
vt 0.212862 0.787724
vt 0.375259 0.842420
vt 0.371521 0.781677
vt 0.382041 0.776227
vt 0.386319 0.845745
vt 0.324059 0.743584
vt 0.327723 0.732631
vt 0.263230 0.745454
vt 0.258106 0.734771
vt 0.038075 0.072430
vt 0.002076 0.072430
vt 0.245164 0.185111
vt 0.209165 0.185111
vt 0.245164 0.245968
vt 0.209165 0.245968
vt 0.038075 0.002780
vt 0.002076 0.002780
vt 0.245164 0.306826
vt 0.209165 0.306826
vt 0.038075 0.490327
vt 0.038075 0.559977
vt 0.002076 0.559977
vt 0.002076 0.490327
vt 0.858700 0.211005
vt 0.911653 0.256249
vt 0.900970 0.261373
vt 0.854701 0.221840
vt 0.913793 0.325866
vt 0.902840 0.322202
vt 0.870197 0.380184
vt 0.864747 0.369664
vt 0.800679 0.384462
vt 0.804004 0.373401
vt 0.790135 0.380571
vt 0.740061 0.332160
vt 0.751038 0.327702
vt 0.794792 0.370002
vt 0.742201 0.262543
vt 0.752908 0.266873
vt 0.789050 0.211005
vt 0.793844 0.221840
vt 0.488412 0.716198
vt 0.558029 0.714058
vt 0.554365 0.725011
vt 0.493536 0.726881
vt 0.612347 0.757654
vt 0.601827 0.763104
vt 0.616624 0.827172
vt 0.605564 0.823847
vt 0.612734 0.837716
vt 0.564323 0.887790
vt 0.559864 0.876813
vt 0.602164 0.833059
vt 0.494706 0.885650
vt 0.499036 0.874943
vt 0.443168 0.838801
vt 0.454003 0.834008
vt 0.443168 0.769151
vt 0.454003 0.773150
vt 0.278595 0.105548
vt 0.278595 0.156671
vt 0.278544 0.156701
vt 0.278544 0.105577
vt 0.278595 0.207796
vt 0.278595 0.258920
vt 0.278544 0.258949
vt 0.278544 0.207825
vt 0.278595 0.310044
vt 0.278544 0.310073
vt 0.278595 0.003299
vt 0.278595 0.054424
vt 0.278544 0.054453
vt 0.278544 0.003329
vt 0.278595 0.361168
vt 0.278544 0.361197
vt 0.278595 0.412292
vt 0.278544 0.412321
vt 0.269309 0.309115
vt 0.269258 0.309144
vt 0.273901 0.360268
vt 0.273952 0.360239
vt 0.269309 0.257991
vt 0.269258 0.258020
vt 0.287831 0.003388
vt 0.287882 0.003359
vt 0.273901 0.206896
vt 0.273952 0.206867
vt 0.269309 0.104619
vt 0.269309 0.155743
vt 0.269258 0.155772
vt 0.269258 0.104648
vt 0.287831 0.412321
vt 0.287831 0.361204
vt 0.287882 0.361175
vt 0.287882 0.412292
vt 0.269309 0.053495
vt 0.269258 0.053524
vt 0.273901 0.411392
vt 0.273952 0.411363
vt 0.269309 0.206867
vt 0.269258 0.206896
vt 0.250900 0.185111
vt 0.250900 0.124253
vt 0.255379 0.124253
vt 0.255379 0.185111
vt 0.250900 0.489399
vt 0.250900 0.428541
vt 0.255379 0.428541
vt 0.255379 0.489399
vt 0.250900 0.367684
vt 0.255379 0.367684
vt 0.250900 0.306826
vt 0.250900 0.245968
vt 0.255379 0.245968
vt 0.255379 0.306826
vt 0.250900 0.063395
vt 0.255379 0.063395
vt 0.250900 0.002537
vt 0.255379 0.002537
vt 0.395560 0.208902
vt 0.431606 0.197165
vt 0.441109 0.257276
vt 0.393299 0.257276
vt 0.431606 0.317388
vt 0.395560 0.305651
vt 0.403894 0.371570
vt 0.365250 0.343419
vt 0.360819 0.414560
vt 0.338595 0.383850
vt 0.306517 0.442038
vt 0.291857 0.396531
vt 0.291857 0.118022
vt 0.306517 0.072515
vt 0.360819 0.099992
vt 0.338595 0.130703
vt 0.403894 0.142983
vt 0.365250 0.171134
vt 0.651253 0.144997
vt 0.651253 0.095414
vt 0.708231 0.106313
vt 0.697302 0.163443
vt 0.669553 0.049331
vt 0.719159 0.049184
vt 0.765208 0.067629
vt 0.765208 0.117212
vt 0.746909 0.163295
vt 0.269309 0.002371
vt 0.269258 0.002400
vt 0.273901 0.002400
vt 0.273952 0.002371
vt 0.863872 0.169014
vt 0.863962 0.168615
vt 0.924145 0.161794
vt 0.924341 0.162146
vt 0.730306 0.228448
vt 0.730223 0.227335
vt 0.786847 0.205834
vt 0.787496 0.206740
vt 0.962082 0.053547
vt 0.961710 0.053702
vt 0.918728 0.011028
vt 0.918905 0.010658
vt 0.797127 0.885459
vt 0.797603 0.885449
vt 0.818107 0.942402
vt 0.817763 0.942711
vt 0.858548 0.004177
vt 0.858436 0.003790
vt 0.815345 0.827392
vt 0.815702 0.827686
vt 0.961695 0.114270
vt 0.962082 0.114405
vt 0.965797 0.855989
vt 0.965346 0.856141
vt 0.928732 0.807938
vt 0.928968 0.807540
vt 0.832942 0.726830
vt 0.843215 0.722727
vt 0.840772 0.792024
vt 0.830838 0.787966
vt 0.794003 0.843215
vt 0.789540 0.833093
vt 0.681814 0.793462
vt 0.671856 0.798278
vt 0.669412 0.728982
vt 0.679607 0.732330
vt 0.712461 0.674624
vt 0.717625 0.684406
vt 0.739206 0.343742
vt 0.731595 0.384729
vt 0.688760 0.385448
vt 0.678154 0.344762
vt 0.624373 0.373674
vt 0.651024 0.405730
vt 0.624193 0.439128
vt 0.586128 0.421273
vt 0.573977 0.481112
vt 0.615665 0.481112
vt 0.624193 0.523095
vt 0.586128 0.540950
vt 0.651024 0.556493
vt 0.624373 0.588549
vt 0.678154 0.617461
vt 0.688760 0.576775
vt 0.731595 0.577494
vt 0.739206 0.618482
vt 0.126774 0.210493
vt 0.161585 0.210493
vt 0.161578 0.279833
vt 0.126781 0.279833
vt 0.126774 0.349172
vt 0.161585 0.349172
vt 0.161578 0.418512
vt 0.126781 0.418512
vt 0.126781 0.002475
vt 0.161578 0.002475
vt 0.161585 0.071814
vt 0.126774 0.071814
vt 0.161578 0.141154
vt 0.126781 0.141154
vt 0.161585 0.487851
vt 0.126774 0.487851
vt 0.161578 0.557191
vt 0.126781 0.557191
vt 0.789299 0.683967
vt 0.793703 0.674183
vt 0.781628 0.669741
vt 0.778641 0.680047
vt 0.728368 0.833145
vt 0.724663 0.843215
vt 0.167603 0.063454
vt 0.202702 0.063198
vt 0.203077 0.124348
vt 0.167960 0.124519
vt 0.121168 0.418430
vt 0.085876 0.418513
vt 0.085746 0.349173
vt 0.121049 0.349132
vt 0.167068 0.002389
vt 0.202184 0.002048
vt 0.085715 0.279834
vt 0.121006 0.279834
vt 0.167603 0.429850
vt 0.202702 0.430107
vt 0.202185 0.491256
vt 0.167068 0.490915
vt 0.085746 0.210494
vt 0.121049 0.210536
vt 0.085876 0.141155
vt 0.121168 0.141237
vt 0.167960 0.368785
vt 0.203077 0.368956
vt 0.676601 0.409514
vt 0.671416 0.399721
vt 0.740577 0.394746
vt 0.737594 0.405101
vt 0.638670 0.457480
vt 0.628429 0.454128
vt 0.640891 0.518592
vt 0.630918 0.523422
vt 0.687465 0.558221
vt 0.683747 0.568335
vt 0.748450 0.409092
vt 0.752884 0.399271
vt 0.802355 0.447857
vt 0.792061 0.451960
vt 0.799866 0.517152
vt 0.789892 0.513073
vt 0.753086 0.568335
vt 0.748617 0.558195
vt 0.121373 0.487728
vt 0.086070 0.487852
vt 0.203297 0.185500
vt 0.168198 0.185585
vt 0.203375 0.246652
vt 0.168257 0.246652
vt 0.121653 0.557026
vt 0.086362 0.557191
vt 0.203297 0.307804
vt 0.168198 0.307719
vt 0.121373 0.071939
vt 0.086070 0.071816
vt 0.086362 0.002477
vt 0.121653 0.002642
vt 0.763631 0.571108
vt 0.773757 0.574844
vt 0.773782 0.635911
vt 0.763631 0.640406
vt 0.818983 0.676972
vt 0.814944 0.686981
vt 0.880023 0.678778
vt 0.884211 0.689059
vt 0.922421 0.634829
vt 0.932304 0.639166
vt 0.936080 0.628933
vt 0.925749 0.625810
vt 0.922064 0.564855
vt 0.931926 0.559759
vt 0.874483 0.526577
vt 0.877914 0.516344
vt 0.813444 0.528432
vt 0.808647 0.518421
vt 0.624723 0.147425
vt 0.634989 0.142906
vt 0.680005 0.184160
vt 0.675860 0.194254
vt 0.741022 0.186445
vt 0.745150 0.196874
vt 0.783948 0.143020
vt 0.793878 0.147543
vt 0.798640 0.134572
vt 0.788142 0.131595
vt 0.783509 0.070711
vt 0.793404 0.065430
vt 0.735506 0.032974
vt 0.738877 0.022596
vt 0.674491 0.035303
vt 0.669587 0.025216
vt 0.634967 0.081846
vt 0.624723 0.078085
vt 0.283187 0.105577
vt 0.283239 0.105577
vt 0.283239 0.156701
vt 0.283187 0.156701
vt 0.283187 0.207825
vt 0.283239 0.207825
vt 0.283239 0.258949
vt 0.283187 0.258949
vt 0.283239 0.310073
vt 0.283187 0.310073
vt 0.283187 0.003329
vt 0.283239 0.003329
vt 0.283239 0.054453
vt 0.283187 0.054453
vt 0.283239 0.361197
vt 0.283187 0.361197
vt 0.283239 0.412321
vt 0.283187 0.412321
vt 0.670542 0.215400
vt 0.671050 0.214408
vt 0.965797 0.916847
vt 0.965368 0.916674
vt 0.625109 0.174438
vt 0.626061 0.173856
vt 0.811296 0.042068
vt 0.810948 0.041850
vt 0.868813 0.798325
vt 0.868895 0.798793
vt 0.670542 0.015225
vt 0.671051 0.016216
vt 0.626061 0.056768
vt 0.625109 0.056186
vt 0.798527 0.077595
vt 0.798935 0.077639
vt 0.812504 0.136668
vt 0.812176 0.136902
vt 0.730306 0.002176
vt 0.730223 0.003289
vt 0.923483 0.960588
vt 0.923265 0.960165
vt 0.609420 0.115312
vt 0.610534 0.115312
vt 0.264661 0.183772
vt 0.260182 0.183772
vt 0.260187 0.123204
vt 0.264666 0.123204
vt 0.264666 0.486613
vt 0.260187 0.486613
vt 0.260182 0.426045
vt 0.264661 0.426045
vt 0.260187 0.365477
vt 0.264666 0.365477
vt 0.264661 0.304908
vt 0.260182 0.304908
vt 0.260187 0.244340
vt 0.264666 0.244340
vt 0.260182 0.062635
vt 0.264661 0.062635
vt 0.260187 0.002067
vt 0.264666 0.002067
vt 0.491839 0.305251
vt 0.489674 0.257182
vt 0.536760 0.257182
vt 0.527183 0.316952
vt 0.491839 0.209113
vt 0.527183 0.197412
vt 0.461418 0.171832
vt 0.499202 0.143735
vt 0.434471 0.131968
vt 0.455850 0.101488
vt 0.387813 0.120205
vt 0.401366 0.075112
vt 0.387813 0.394158
vt 0.434471 0.382396
vt 0.455850 0.412876
vt 0.401366 0.439252
vt 0.461418 0.342531
vt 0.499202 0.370629
vt 0.747028 0.538472
vt 0.697743 0.538618
vt 0.708600 0.481859
vt 0.765208 0.492687
vt 0.719456 0.425101
vt 0.765208 0.443426
vt 0.651991 0.471031
vt 0.670171 0.425247
vt 0.651991 0.520293
vt 0.787496 0.023885
vt 0.786847 0.024790
vt 0.872463 0.969040
vt 0.872401 0.969512
vt 0.687173 0.315987
vt 0.701502 0.275986
vt 0.702060 0.275986
vt 0.687621 0.316320
vt 0.652978 0.341209
vt 0.653139 0.341744
vt 0.610547 0.338982
vt 0.610357 0.339506
vt 0.315183 0.167684
vt 0.300854 0.127683
vt 0.301302 0.127350
vt 0.315741 0.167684
vt 0.300854 0.207685
vt 0.301302 0.208018
vt 0.652979 0.210763
vt 0.610547 0.212990
vt 0.610357 0.212466
vt 0.653139 0.210229
vt 0.687173 0.235985
vt 0.687621 0.235652
vt 0.307018 0.298020
vt 0.313406 0.228782
vt 0.312765 0.259246
vt 0.306373 0.330341
vt 0.569679 0.500674
vt 0.568734 0.572049
vt 0.539777 0.571871
vt 0.540722 0.500496
vt 0.681352 0.676312
vt 0.610237 0.682473
vt 0.579772 0.683015
vt 0.649030 0.676852
vt 0.604596 0.299909
vt 0.605480 0.369436
vt 0.576523 0.369603
vt 0.575638 0.300077
vt 0.386319 0.076331
vt 0.386319 0.105866
vt 0.370357 0.102334
vt 0.370357 0.072799
vt 0.608415 0.716376
vt 0.577949 0.716919
vt 0.605480 0.076322
vt 0.604854 0.161059
vt 0.575897 0.161227
vt 0.576562 0.070316
vt 0.604254 0.242521
vt 0.575296 0.242688
vt 0.604054 0.270999
vt 0.575097 0.271166
vt 0.499641 0.662137
vt 0.604217 0.662137
vt 0.568124 0.662610
vt 0.483393 0.663948
vt 0.678509 0.664316
vt 0.649557 0.664874
vt 0.707632 0.670508
vt 0.677357 0.671050
vt 0.568695 0.258916
vt 0.569470 0.369670
vt 0.540513 0.369492
vt 0.539777 0.264921
vt 0.569992 0.443992
vt 0.541035 0.443814
vt 0.570192 0.473766
vt 0.541234 0.473588
vt 0.294347 0.126166
vt 0.293039 0.217069
vt 0.292448 0.253160
vt 0.292448 0.142404
vt 0.295039 0.298508
vt 0.294387 0.327459
vt 0.301125 0.326329
vt 0.300484 0.356602
vt 0.415247 0.464326
vt 0.426739 0.436105
vt 0.438323 0.464326
vt 0.347315 0.227070
vt 0.346674 0.257534
vt 0.353646 0.204395
vt 0.382604 0.204395
vt 0.382604 0.238347
vt 0.353646 0.238347
vt 0.346217 0.264220
vt 0.375175 0.264220
vt 0.375175 0.298172
vt 0.346217 0.298172
vt 0.315411 0.192791
vt 0.326885 0.221019
vt 0.303821 0.221019
vt 0.368115 0.256308
vt 0.360686 0.325028
vt 0.405744 0.635760
vt 0.438065 0.635115
vt 0.366970 0.641507
vt 0.336506 0.642149
vt 0.278287 0.495714
vt 0.278464 0.524672
vt 0.207089 0.525616
vt 0.206911 0.496659
vt 0.397185 0.713887
vt 0.364862 0.713347
vt 0.295604 0.707184
vt 0.326070 0.707726
vt 0.522785 0.031618
vt 0.522953 0.002661
vt 0.592479 0.003546
vt 0.592312 0.032503
vt 0.323170 0.375357
vt 0.307208 0.378890
vt 0.307208 0.349354
vt 0.323171 0.345822
vt 0.293781 0.673280
vt 0.324247 0.673823
vt 0.299198 0.032503
vt 0.293192 0.003585
vt 0.384103 0.002920
vt 0.383935 0.031877
vt 0.465564 0.002319
vt 0.465397 0.031276
vt 0.494042 0.002119
vt 0.493875 0.031076
vt 0.215476 0.728062
vt 0.199229 0.726251
vt 0.283957 0.727589
vt 0.320050 0.728062
vt 0.365389 0.725325
vt 0.394341 0.725883
vt 0.393190 0.719149
vt 0.423465 0.719690
vt 0.520045 0.496698
vt 0.514039 0.525617
vt 0.409468 0.524880
vt 0.409290 0.495923
vt 0.335146 0.524358
vt 0.334968 0.495401
vt 0.305372 0.524159
vt 0.305195 0.495202
vt 0.233890 0.623090
vt 0.250127 0.621191
vt 0.360884 0.621191
vt 0.324793 0.621782
vt 0.435182 0.623129
vt 0.406232 0.623781
vt 0.464326 0.629227
vt 0.434053 0.629867
vt 0.497757 0.417893
vt 0.474681 0.417893
vt 0.486264 0.389673
vt 0.365258 0.675417
vt 0.334794 0.676058
vt 0.471755 0.273115
vt 0.471755 0.307067
vt 0.442797 0.307067
vt 0.442797 0.273115
vt 0.312786 0.339886
vt 0.312786 0.305934
vt 0.341743 0.305934
vt 0.341744 0.339886
vt 0.280123 0.449467
vt 0.268533 0.421239
vt 0.291596 0.421239
vt 0.457286 0.325028
vt 0.327255 0.279078
vt 0.518476 0.392765
vt 0.512088 0.462003
vt 0.512729 0.431539
vt 0.519121 0.360444
vt 0.244366 0.566292
vt 0.315741 0.567237
vt 0.315564 0.596194
vt 0.244188 0.595249
vt 0.091780 0.706458
vt 0.162895 0.700297
vt 0.193361 0.699755
vt 0.124102 0.705918
vt 0.546002 0.587125
vt 0.615528 0.586240
vt 0.615696 0.615198
vt 0.546169 0.616082
vt 0.445753 0.156195
vt 0.445753 0.185730
vt 0.429790 0.182198
vt 0.429790 0.152663
vt 0.164717 0.666394
vt 0.195183 0.665851
vt 0.322415 0.586240
vt 0.407152 0.586866
vt 0.407319 0.615824
vt 0.316409 0.615158
vt 0.488613 0.587467
vt 0.488781 0.616424
vt 0.517091 0.587667
vt 0.517259 0.616624
vt 0.273491 0.720633
vt 0.168915 0.720633
vt 0.205008 0.720160
vt 0.289739 0.718822
vt 0.094623 0.718453
vt 0.123575 0.717895
vt 0.065500 0.712261
vt 0.095775 0.711719
vt 0.002608 0.567276
vt 0.113362 0.566501
vt 0.113185 0.595458
vt 0.008613 0.596194
vt 0.187684 0.565979
vt 0.187507 0.594936
vt 0.217458 0.565779
vt 0.217280 0.594736
vt 0.531147 0.564620
vt 0.532455 0.473716
vt 0.533046 0.437626
vt 0.533046 0.548382
vt 0.530455 0.392277
vt 0.531107 0.363327
vt 0.524369 0.364457
vt 0.525010 0.334184
vt 0.459822 0.263737
vt 0.471315 0.235517
vt 0.482899 0.263737
vt 0.478179 0.463716
vt 0.478820 0.433252
vt 0.442797 0.423556
vt 0.471755 0.423556
vt 0.471755 0.457508
vt 0.442797 0.457508
vt 0.442797 0.191785
vt 0.471755 0.191785
vt 0.471755 0.225738
vt 0.442797 0.225738
vt 0.378560 0.402666
vt 0.390033 0.430894
vt 0.366970 0.430894
vt 0.457266 0.475469
vt 0.457266 0.252593
vt 0.450342 0.661488
vt 0.418021 0.662133
vt 0.489116 0.655741
vt 0.519580 0.655100
vt 0.239283 0.531003
vt 0.239461 0.559960
vt 0.168086 0.560905
vt 0.167908 0.531948
vt 0.361091 0.694885
vt 0.393414 0.695425
vt 0.462673 0.701588
vt 0.432207 0.701046
vt 0.370316 0.037364
vt 0.370148 0.066321
vt 0.300621 0.065436
vt 0.300789 0.036479
vt 0.445752 0.356784
vt 0.429790 0.360317
vt 0.429790 0.330781
vt 0.445753 0.327249
vt 0.464495 0.735492
vt 0.434029 0.734949
vt 0.593903 0.036479
vt 0.599909 0.065397
vt 0.508998 0.066062
vt 0.509166 0.037105
vt 0.427536 0.066663
vt 0.427704 0.037706
vt 0.399058 0.066863
vt 0.399226 0.037906
vt 0.542800 0.680709
vt 0.559048 0.682521
vt 0.474320 0.681183
vt 0.438227 0.680709
vt 0.392888 0.683447
vt 0.363935 0.682889
vt 0.365087 0.689623
vt 0.334812 0.689081
vt 0.481041 0.531987
vt 0.475036 0.560905
vt 0.370465 0.560169
vt 0.370287 0.531212
vt 0.296143 0.559647
vt 0.295965 0.530690
vt 0.266369 0.559448
vt 0.266191 0.530490
vt 0.622196 0.674159
vt 0.605959 0.676058
vt 0.495202 0.676058
vt 0.531293 0.675467
vt 0.420904 0.674119
vt 0.449854 0.673467
vt 0.391760 0.668022
vt 0.422033 0.667382
vt 0.516330 0.130011
vt 0.493254 0.130011
vt 0.504837 0.101791
vt 0.490828 0.621832
vt 0.521292 0.621191
vt 0.497757 0.070669
vt 0.497757 0.104621
vt 0.468799 0.104621
vt 0.468799 0.070669
vt 0.352887 0.162068
vt 0.352887 0.196021
vt 0.323930 0.196021
vt 0.323930 0.162068
vt 0.280123 0.486613
vt 0.268533 0.458385
vt 0.291596 0.458385
vt 0.483288 0.122582
vt 0.338419 0.222876
s 0
usemtl UniV_Grid_2K
f 78/1/1 74/2/1 104/3/1 96/4/1
f 3/5/1 7/6/1 97/7/1 95/8/1
f 73/9/1 80/10/1 101/11/1 102/12/1
f 86/13/1 83/14/1 112/15/1 118/16/1
f 80/10/1 76/17/1 92/18/1 101/11/1
f 82/19/1 86/13/1 118/16/1 109/20/1
f 74/2/1 77/21/1 103/22/1 104/3/1
f 88/23/1 81/24/1 108/25/1 120/26/1
f 3/27/2 6/28/2 28/29/2 29/30/2
f 6/28/3 2/31/3 27/32/3 28/29/3
f 1/33/4 8/34/4 32/35/4 25/36/4
f 8/34/5 4/37/5 31/38/5 32/35/5
f 15/39/6 11/40/6 19/41/6 23/42/6
f 14/43/7 10/44/7 18/45/7 22/46/7
f 13/47/8 9/48/8 17/49/8 21/50/8
f 9/48/9 16/51/9 24/52/9 17/49/9
f 12/53/10 15/54/10 23/55/10 20/56/10
f 11/40/11 14/57/11 22/58/11 19/41/11
f 10/44/12 13/47/12 21/50/12 18/45/12
f 16/51/13 12/53/13 20/56/13 24/52/13
f 27/59/14 26/60/14 34/61/14 35/62/14
f 25/63/15 32/64/15 40/65/15 33/66/15
f 30/67/16 29/68/16 37/69/16 38/70/16
f 29/68/17 28/71/17 36/72/17 37/69/17
f 26/60/18 25/63/18 33/66/18 34/61/18
f 32/64/19 31/73/19 39/74/19 40/65/19
f 31/73/20 30/75/20 38/76/20 39/74/20
f 28/71/21 27/59/21 35/62/21 36/72/21
f 7/77/22 3/27/22 29/30/22 30/78/22
f 4/37/23 7/79/23 30/80/23 31/38/23
f 5/81/24 1/33/24 25/36/24 26/82/24
f 2/31/25 5/81/25 26/82/25 27/32/25
f 47/83/21 48/84/21 64/85/21 63/86/21
f 49/87/21 51/88/21 67/89/21 65/90/21
f 46/91/14 47/83/14 63/86/14 62/92/14
f 51/88/14 50/93/14 66/94/14 67/89/14
f 45/95/18 46/96/18 62/97/18 61/98/18
f 50/93/18 52/99/18 68/100/18 66/94/18
f 52/99/15 56/101/15 72/102/15 68/100/15
f 44/103/15 45/95/15 61/98/15 60/104/15
f 61/105/26 62/106/26 70/107/26 69/108/26
f 60/109/27 61/105/27 69/108/27 65/110/27
f 59/111/28 60/109/28 65/110/28 67/112/28
f 58/113/29 59/111/29 67/112/29 66/114/29
f 62/115/30 63/116/30 71/117/30 70/118/30
f 63/116/31 64/119/31 72/120/31 71/117/31
f 64/119/32 57/121/32 68/122/32 72/120/32
f 57/121/33 58/113/33 66/114/33 68/122/33
f 53/123/17 49/87/17 65/90/17 69/124/17
f 48/84/17 41/125/17 57/126/17 64/85/17
f 41/125/16 42/127/16 58/128/16 57/126/16
f 54/129/16 53/123/16 69/124/16 70/130/16
f 42/127/20 43/131/20 59/132/20 58/128/20
f 55/133/20 54/134/20 70/135/20 71/136/20
f 43/131/19 44/103/19 60/104/19 59/132/19
f 56/101/19 55/133/19 71/136/19 72/102/19
f 50/137/23 51/138/23 43/139/23 42/140/23
f 51/138/5 49/141/5 44/142/5 43/139/5
f 49/141/4 53/143/4 45/144/4 44/142/4
f 53/143/24 54/145/24 46/146/24 45/144/24
f 54/147/25 55/148/25 47/149/25 46/150/25
f 55/148/3 56/151/3 48/152/3 47/149/3
f 56/151/2 52/153/2 41/154/2 48/152/2
f 52/153/22 50/137/22 42/140/22 41/154/22
f 33/155/32 40/156/32 16/157/32 9/158/32
f 40/156/31 39/159/31 12/160/31 16/157/31
f 39/159/30 38/161/30 15/162/30 12/160/30
f 38/163/26 37/164/26 11/165/26 15/166/26
f 37/164/27 36/167/27 14/168/27 11/165/27
f 36/167/28 35/169/28 10/170/28 14/168/28
f 35/169/29 34/171/29 13/172/29 10/170/29
f 34/171/33 33/155/33 9/158/33 13/172/33
f 80/173/1 73/174/1 81/175/1 88/176/1
f 77/177/1 74/178/1 82/179/1 85/180/1
f 74/178/1 78/181/1 86/182/1 82/179/1
f 79/183/1 76/184/1 84/185/1 87/186/1
f 76/184/1 80/173/1 88/176/1 84/185/1
f 73/174/1 77/177/1 85/180/1 81/175/1
f 78/181/1 75/187/1 83/188/1 86/182/1
f 75/187/1 79/189/1 87/190/1 83/188/1
f 6/191/1 3/5/1 95/8/1 94/192/1
f 77/21/1 73/9/1 102/12/1 103/22/1
f 84/193/1 88/23/1 120/26/1 115/194/1
f 2/195/1 6/191/1 94/192/1 91/196/1
f 76/17/1 79/197/1 100/198/1 92/18/1
f 85/199/1 82/19/1 109/20/1 117/200/1
f 8/201/1 1/202/1 89/203/1 99/204/1
f 79/205/1 75/206/1 98/207/1 100/208/1
f 81/24/1 85/199/1 117/200/1 108/25/1
f 4/209/1 8/201/1 99/204/1 93/210/1
f 87/211/1 84/193/1 115/194/1 119/212/1
f 5/213/1 2/195/1 91/196/1 90/214/1
f 91/215/21 94/216/21 96/217/21 104/218/21
f 97/219/20 93/220/20 92/221/20 100/222/20
f 93/220/19 99/223/19 101/224/19 92/221/19
f 89/225/18 90/226/18 103/227/18 102/228/18
f 94/216/17 95/229/17 98/230/17 96/217/17
f 95/229/16 97/231/16 100/232/16 98/230/16
f 99/223/15 89/225/15 102/228/15 101/224/15
f 90/226/14 91/215/14 104/218/14 103/227/14
f 107/233/34 108/234/34 117/235/34 106/236/34
f 106/236/35 117/235/35 109/237/35 105/238/35
f 105/238/36 109/237/36 118/239/36 111/240/36
f 111/240/37 118/239/37 112/241/37 110/242/37
f 110/242/38 112/241/38 119/243/38 114/244/38
f 114/245/39 119/246/39 115/247/39 113/248/39
f 113/248/40 115/247/40 120/249/40 116/250/40
f 116/250/41 120/249/41 108/234/41 107/233/41
f 105/251/42 111/252/42 121/253/42 106/254/42
f 111/252/43 110/255/43 114/256/43 121/253/43
f 121/253/44 114/256/44 113/257/44 116/258/44
f 106/254/45 121/253/45 116/258/45 107/259/45
f 7/260/1 4/209/1 93/210/1 97/261/1
f 75/206/1 78/1/1 96/4/1 98/207/1
f 1/202/1 5/213/1 90/214/1 89/203/1
f 83/14/1 87/262/1 119/263/1 112/15/1
f 199/264/46 217/265/46 225/266/46 195/267/46
f 124/268/47 216/269/47 218/270/47 128/271/47
f 194/272/48 223/273/48 222/274/48 201/275/48
f 207/276/49 239/277/49 233/278/49 204/279/49
f 201/275/50 222/274/50 213/280/50 197/281/50
f 203/282/51 230/283/51 239/277/51 207/276/51
f 195/267/52 225/266/52 224/284/52 198/285/52
f 209/286/53 241/287/53 229/288/53 202/289/53
f 124/290/54 150/291/54 149/292/54 127/293/54
f 127/293/55 149/292/55 148/294/55 123/295/55
f 122/296/56 146/297/56 153/298/56 129/299/56
f 129/299/57 153/298/57 152/300/57 125/301/57
f 136/302/58 144/303/58 140/304/58 132/305/58
f 135/306/59 143/307/59 139/308/59 131/309/59
f 134/310/60 142/311/60 138/312/60 130/313/60
f 130/313/61 138/312/61 145/314/61 137/315/61
f 133/316/62 141/317/62 144/318/62 136/319/62
f 132/305/63 140/304/63 143/307/63 135/306/63
f 131/309/64 139/308/64 142/311/64 134/310/64
f 137/315/65 145/314/65 141/317/65 133/316/65
f 148/320/66 156/321/66 155/322/66 147/323/66
f 146/324/67 154/325/67 161/326/67 153/327/67
f 151/328/68 159/329/68 158/330/68 150/331/68
f 150/331/69 158/330/69 157/332/69 149/333/69
f 147/323/70 155/322/70 154/325/70 146/324/70
f 153/327/71 161/326/71 160/334/71 152/335/71
f 152/335/72 160/334/72 159/336/72 151/337/72
f 149/333/73 157/332/73 156/321/73 148/320/73
f 128/338/74 151/339/74 150/291/74 124/290/74
f 125/301/75 152/300/75 151/340/75 128/341/75
f 126/342/76 147/343/76 146/297/76 122/296/76
f 123/295/77 148/294/77 147/343/77 126/342/77
f 168/344/78 184/345/78 185/346/78 169/347/78
f 170/348/79 186/349/79 188/350/79 172/351/79
f 167/352/80 183/353/80 184/345/80 168/344/80
f 172/351/81 188/350/81 187/354/81 171/355/81
f 166/356/82 182/357/82 183/358/82 167/359/82
f 171/355/83 187/354/83 189/360/83 173/361/83
f 173/361/84 189/360/84 193/362/84 177/363/84
f 165/364/85 181/365/85 182/357/85 166/356/85
f 182/366/86 190/367/86 191/368/86 183/369/86
f 181/370/87 186/371/87 190/367/87 182/366/87
f 180/372/88 188/373/88 186/371/88 181/370/88
f 179/374/89 187/375/89 188/373/89 180/372/89
f 183/376/90 191/377/90 192/378/90 184/379/90
f 184/379/91 192/378/91 193/380/91 185/381/91
f 185/381/92 193/380/92 189/382/92 178/383/92
f 178/383/93 189/382/93 187/375/93 179/374/93
f 174/384/94 190/385/94 186/349/94 170/348/94
f 169/347/95 185/346/95 178/386/95 162/387/95
f 162/387/96 178/386/96 179/388/96 163/389/96
f 175/390/97 191/391/97 190/385/97 174/384/97
f 163/389/98 179/388/98 180/392/98 164/393/98
f 176/394/99 192/395/99 191/396/99 175/397/99
f 164/393/100 180/392/100 181/365/100 165/364/100
f 177/363/101 193/362/101 192/395/101 176/394/101
f 171/398/102 163/399/102 164/400/102 172/401/102
f 172/401/103 164/400/103 165/402/103 170/403/103
f 170/403/104 165/402/104 166/404/104 174/405/104
f 174/405/105 166/404/105 167/406/105 175/407/105
f 175/408/106 167/409/106 168/410/106 176/411/106
f 176/411/107 168/410/107 169/412/107 177/413/107
f 177/413/108 169/412/108 162/414/108 173/415/108
f 173/415/109 162/414/109 163/399/109 171/398/109
f 154/416/110 130/417/110 137/418/110 161/419/110
f 161/419/111 137/418/111 133/420/111 160/421/111
f 160/421/112 133/420/112 136/422/112 159/423/112
f 159/424/113 136/425/113 132/426/113 158/427/113
f 158/427/114 132/426/114 135/428/114 157/429/114
f 157/429/115 135/428/115 131/430/115 156/431/115
f 156/431/116 131/430/116 134/432/116 155/433/116
f 155/433/117 134/432/117 130/417/117 154/416/117
f 201/434/1 209/435/1 202/436/1 194/437/1
f 198/438/1 206/439/1 203/440/1 195/441/1
f 195/441/1 203/440/1 207/442/1 199/443/1
f 200/444/1 208/445/1 205/446/1 197/447/1
f 197/447/1 205/446/1 209/435/1 201/434/1
f 194/437/1 202/436/1 206/439/1 198/438/1
f 199/443/1 207/442/1 204/448/1 196/449/1
f 196/449/1 204/448/1 208/450/1 200/451/1
f 127/452/118 215/453/118 216/269/118 124/268/118
f 198/285/119 224/284/119 223/273/119 194/272/119
f 205/454/120 236/455/120 241/287/120 209/286/120
f 123/456/121 212/457/121 215/453/121 127/452/121
f 197/281/122 213/280/122 221/458/122 200/459/122
f 206/460/123 238/461/123 230/283/123 203/282/123
f 129/462/124 220/463/124 210/464/124 122/465/124
f 200/466/125 221/467/125 219/468/125 196/469/125
f 202/289/126 229/288/126 238/461/126 206/460/126
f 125/470/127 214/471/127 220/463/127 129/462/127
f 208/472/128 240/473/128 236/455/128 205/454/128
f 126/474/129 211/475/129 212/457/129 123/456/129
f 212/476/130 225/477/130 217/478/130 215/479/130
f 218/480/131 221/481/131 213/482/131 214/483/131
f 214/483/132 213/482/132 222/484/132 220/485/132
f 210/486/133 223/487/133 224/488/133 211/489/133
f 215/479/134 217/478/134 219/490/134 216/491/134
f 216/491/135 219/490/135 221/492/135 218/493/135
f 220/485/136 222/484/136 223/487/136 210/486/136
f 211/489/137 224/488/137 225/477/137 212/476/137
f 228/494/138 227/495/138 238/496/138 229/497/138
f 227/495/139 226/498/139 230/499/139 238/496/139
f 226/498/140 232/500/140 239/501/140 230/499/140
f 232/500/141 231/502/141 233/503/141 239/501/141
f 231/502/142 235/504/142 240/505/142 233/503/142
f 235/506/143 234/507/143 236/508/143 240/509/143
f 234/507/144 237/510/144 241/511/144 236/508/144
f 237/510/145 228/494/145 229/497/145 241/511/145
f 226/512/146 227/513/146 242/514/146 232/515/146
f 232/515/147 242/514/147 235/516/147 231/517/147
f 242/514/148 237/518/148 234/519/148 235/516/148
f 227/513/149 228/520/149 237/518/149 242/514/149
f 128/521/150 218/522/150 214/471/150 125/470/150
f 196/469/151 219/468/151 217/265/151 199/264/151
f 122/465/152 210/464/152 211/475/152 126/474/152
f 204/279/153 233/278/153 240/523/153 208/524/153
f 21/525/154 17/526/154 138/527/154 142/528/154
f 18/529/155 21/525/155 142/528/155 139/530/155
f 22/531/156 18/529/156 139/530/156 143/532/156
f 19/533/157 22/534/157 143/535/157 140/536/157
f 23/537/158 19/533/158 140/536/158 144/538/158
f 20/539/159 23/540/159 144/541/159 141/542/159
f 24/543/160 20/539/160 141/542/160 145/544/160
f 17/526/161 24/543/161 145/544/161 138/527/161
f 254/545/162 244/546/162 246/547/162 255/548/162
f 255/549/163 246/550/163 250/551/163 259/552/163
f 259/553/164 250/554/164 248/555/164 263/556/164
f 263/557/165 248/558/165 244/559/165 254/560/165
f 245/561/166 249/562/166 247/563/166 243/564/166
f 248/555/167 250/554/167 269/565/167 270/566/167
f 247/567/168 266/568/168 251/569/168 243/570/168
f 266/568/169 265/571/169 252/572/169 251/569/169
f 265/571/170 264/573/170 253/574/170 252/572/170
f 264/573/171 263/557/171 254/560/171 253/574/171
f 249/575/172 262/576/172 266/577/172 247/578/172
f 262/576/173 261/579/173 265/580/173 266/577/173
f 261/579/174 260/581/174 264/582/174 265/580/174
f 260/581/175 259/553/175 263/556/175 264/582/175
f 245/583/176 258/584/176 262/585/176 249/586/176
f 258/584/177 257/587/177 261/588/177 262/585/177
f 257/587/178 256/589/178 260/590/178 261/588/178
f 256/589/179 255/549/179 259/552/179 260/590/179
f 243/591/180 251/592/180 258/593/180 245/594/180
f 251/592/181 252/595/181 257/596/181 258/593/181
f 252/595/182 253/597/182 256/598/182 257/596/182
f 253/597/183 254/545/183 255/548/183 256/598/183
f 270/599/184 269/600/184 271/601/184
f 246/547/185 244/546/185 267/602/185 268/603/185
f 244/604/186 248/605/186 270/606/186 267/607/186
f 250/608/187 246/609/187 268/610/187 269/611/187
f 268/612/188 267/613/188 271/614/188
f 267/607/189 270/606/189 271/615/189
f 269/611/190 268/610/190 271/616/190
f 283/617/191 284/618/191 275/619/191 273/620/191
f 284/621/192 288/622/192 279/623/192 275/624/192
f 288/625/193 292/626/193 277/627/193 279/628/193
f 292/629/194 283/630/194 273/631/194 277/632/194
f 274/633/195 272/634/195 276/635/195 278/636/195
f 277/627/196 299/637/196 298/638/196 279/628/196
f 276/639/197 272/640/197 280/641/197 295/642/197
f 295/642/198 280/641/198 281/643/198 294/644/198
f 294/644/199 281/643/199 282/645/199 293/646/199
f 293/646/200 282/645/200 283/630/200 292/629/200
f 278/647/201 276/648/201 295/649/201 291/650/201
f 291/650/202 295/649/202 294/651/202 290/652/202
f 290/652/203 294/651/203 293/653/203 289/654/203
f 289/654/204 293/653/204 292/626/204 288/625/204
f 274/655/205 278/656/205 291/657/205 287/658/205
f 287/658/206 291/657/206 290/659/206 286/660/206
f 286/660/207 290/659/207 289/661/207 285/662/207
f 285/662/208 289/661/208 288/622/208 284/621/208
f 272/663/209 274/664/209 287/665/209 280/666/209
f 280/666/210 287/665/210 286/667/210 281/668/210
f 281/668/211 286/667/211 285/669/211 282/670/211
f 282/670/212 285/669/212 284/618/212 283/617/212
f 299/671/213 300/672/213 298/673/213
f 275/619/214 297/674/214 296/675/214 273/620/214
f 273/676/215 296/677/215 299/678/215 277/679/215
f 279/680/216 298/681/216 297/682/216 275/683/216
f 297/684/217 300/685/217 296/686/217
f 296/677/218 300/687/218 299/678/218
f 298/681/219 300/688/219 297/682/219
f 312/689/220 302/690/220 304/691/220 313/692/220
f 313/693/221 304/694/221 308/695/221 317/696/221
f 317/697/222 308/698/222 306/699/222 321/700/222
f 321/701/223 306/702/223 302/703/223 312/704/223
f 303/705/224 307/706/224 305/707/224 301/708/224
f 306/699/225 308/698/225 327/709/225 328/710/225
f 305/711/226 324/712/226 309/713/226 301/714/226
f 324/712/227 323/715/227 310/716/227 309/713/227
f 323/715/228 322/717/228 311/718/228 310/716/228
f 322/717/229 321/701/229 312/704/229 311/718/229
f 307/719/230 320/720/230 324/721/230 305/722/230
f 320/720/231 319/723/231 323/724/231 324/721/231
f 319/723/232 318/725/232 322/726/232 323/724/232
f 318/725/233 317/697/233 321/700/233 322/726/233
f 303/727/234 316/728/234 320/729/234 307/730/234
f 316/728/235 315/731/235 319/732/235 320/729/235
f 315/731/236 314/733/236 318/734/236 319/732/236
f 314/733/237 313/693/237 317/696/237 318/734/237
f 301/735/238 309/736/238 316/737/238 303/738/238
f 309/736/239 310/739/239 315/740/239 316/737/239
f 310/739/240 311/741/240 314/742/240 315/740/240
f 311/741/241 312/689/241 313/692/241 314/742/241
f 328/743/242 327/744/242 329/745/242
f 304/691/243 302/690/243 325/746/243 326/747/243
f 302/748/244 306/749/244 328/750/244 325/751/244
f 308/752/245 304/753/245 326/754/245 327/755/245
f 326/756/246 325/757/246 329/758/246
f 325/751/247 328/750/247 329/759/247
f 327/755/248 326/754/248 329/760/248
f 341/761/249 342/762/249 333/763/249 331/764/249
f 342/765/250 346/766/250 337/767/250 333/768/250
f 346/769/251 350/770/251 335/771/251 337/772/251
f 350/773/252 341/774/252 331/775/252 335/776/252
f 332/777/253 330/778/253 334/779/253 336/780/253
f 335/771/254 357/781/254 356/782/254 337/772/254
f 334/783/255 330/784/255 338/785/255 353/786/255
f 353/786/256 338/785/256 339/787/256 352/788/256
f 352/788/257 339/787/257 340/789/257 351/790/257
f 351/790/258 340/789/258 341/774/258 350/773/258
f 336/791/259 334/792/259 353/793/259 349/794/259
f 349/794/260 353/793/260 352/795/260 348/796/260
f 348/796/261 352/795/261 351/797/261 347/798/261
f 347/798/262 351/797/262 350/770/262 346/769/262
f 332/799/263 336/800/263 349/801/263 345/802/263
f 345/802/264 349/801/264 348/803/264 344/804/264
f 344/804/265 348/803/265 347/805/265 343/806/265
f 343/806/266 347/805/266 346/766/266 342/765/266
f 330/807/267 332/808/267 345/809/267 338/810/267
f 338/810/268 345/809/268 344/811/268 339/812/268
f 339/812/269 344/811/269 343/813/269 340/814/269
f 340/814/270 343/813/270 342/762/270 341/761/270
f 357/815/271 358/816/271 356/817/271
f 333/763/272 355/818/272 354/819/272 331/764/272
f 331/820/273 354/821/273 357/822/273 335/823/273
f 337/824/274 356/825/274 355/826/274 333/827/274
f 355/828/275 358/829/275 354/830/275
f 354/821/276 358/831/276 357/822/276
f 356/825/277 358/832/277 355/826/277
